<svg width="112" height="64" viewBox="0 0 112 64" fill="none" xmlns="http://www.w3.org/2000/svg">
<path opacity="0.5" fill-rule="evenodd" clip-rule="evenodd" d="M1.33386 56.5714C-1.08247 59.7236 1.33657 64.0005 5.30839 64.0005H106.692C110.664 64.0005 113.083 59.7236 110.667 56.5714C98.0659 40.1329 78.2661 29.5391 56.0003 29.5391C33.7345 29.5391 13.9346 40.1329 1.33386 56.5714Z" fill="#CF9F02"/>
<mask id="mask0_6012_4019" style="mask-type:alpha" maskUnits="userSpaceOnUse" x="8" y="0" width="86" height="64">
<rect x="8.64844" width="85.3352" height="63.7673" rx="5.15555" fill="#D9D9D9"/>
</mask>
<g mask="url(#mask0_6012_4019)">
<path d="M48.2001 46.8857C48.0373 46.9026 47.875 46.9192 47.7126 46.9373C46.2611 47.2347 43.3283 49.1355 33.5134 35.5158C32.5177 34.1337 30.7399 33.6455 29.2186 34.222C28.9356 34.3291 28.667 34.4706 28.4188 34.6435C26.7181 35.8255 26.3814 38.2342 27.5958 39.9121C38.4643 54.932 43.3692 55.2232 47.8719 54.3462C50.1676 53.8989 51.871 51.983 51.5034 49.6696V49.668L51.3411 49.1158C51.0434 48.4224 50.1676 46.8995 48.2001 46.8857Z" fill="white"/>
<path d="M45.3636 54.9438C41.2812 54.9438 36.2637 52.4426 27.3342 40.1017C27.0121 39.6532 26.7819 39.1454 26.6571 38.6074C26.5322 38.0695 26.5152 37.5122 26.6069 36.9676C26.789 35.9009 27.3659 34.9831 28.2343 34.3796C28.5062 34.1914 28.7974 34.0368 29.1043 33.9215C30.7973 33.2813 32.7178 33.8605 33.7756 35.329C42.8161 47.8747 45.8615 47.083 47.3249 46.7019C47.4403 46.6719 47.5482 46.6445 47.6485 46.6233L47.6786 46.6186L48.1841 46.5654H48.2027C50.3719 46.5793 51.3283 48.2646 51.6379 48.9896L51.6518 49.0262L51.8261 49.6436C52.1875 52.0057 50.5176 54.1614 47.9339 54.665C47.1001 54.8243 46.2533 54.9438 45.3636 54.9438ZM30.5165 34.3067C29.8316 34.3059 29.163 34.5163 28.6018 34.9091C27.8776 35.4127 27.3948 36.1817 27.2432 37.0752C27.1653 37.5353 27.1793 38.0063 27.2846 38.4609C27.3898 38.9155 27.5842 39.3448 27.8564 39.7238C32.7706 46.5157 36.836 50.7967 40.284 52.8124C43.4612 54.6693 45.7446 54.4329 47.8109 54.0306C50.0487 53.5953 51.4968 51.7523 51.1887 49.7392L51.0383 49.2263C50.771 48.612 49.9758 47.2314 48.2177 47.2102L47.7653 47.2573C47.6786 47.2754 47.5876 47.2997 47.4904 47.3255C46.7072 47.5288 45.3956 47.87 43.1454 46.4625C40.5601 44.8451 37.2324 41.2259 33.2549 35.7054C32.9415 35.2724 32.5299 34.9198 32.0538 34.6766C31.5777 34.4335 31.0507 34.3067 30.5161 34.3067H30.5165Z" fill="#172B4D"/>
<path d="M41.8691 53.9491C41.8691 53.9491 45.1043 52.3517 45.7918 47.168L41.8691 53.9491Z" fill="white"/>
<path d="M42.0096 54.237L41.7242 53.6589L41.8669 53.9489L41.7227 53.6605C41.7531 53.6454 44.8151 52.0585 45.4695 47.127L46.1085 47.2118C45.407 52.5032 42.1476 54.1687 42.0096 54.237Z" fill="#172B4D"/>
<path d="M36.5762 50.7797C36.5762 50.7797 40.3624 47.8431 41.4769 44.6191L36.5762 50.7797Z" fill="white"/>
<path d="M36.775 51.0356L36.3789 50.5258C36.4152 50.4973 40.1026 47.6088 41.1716 44.5156L41.7817 44.7266C40.6495 48.0018 36.9331 50.913 36.775 51.0356Z" fill="#172B4D"/>
<path d="M32.373 45.6085C32.373 45.6085 36.1241 43.8824 37.3146 40.4189L32.373 45.6085Z" fill="white"/>
<path d="M32.5082 45.9016L32.2383 45.3162C32.2745 45.2996 35.8799 43.602 37.0094 40.3145L37.6199 40.5239C36.3993 44.0768 32.666 45.8291 32.5082 45.9016Z" fill="#172B4D"/>
<path d="M24.3722 35.2485C24.3722 35.2485 22.7525 38.3097 25.9267 40.8264C25.9267 40.8264 28.0246 42.3828 30.1305 41.2436L32.9056 38.7983C32.9056 38.7983 36.4264 37.0945 33.9001 33.0137C33.9001 33.0137 31.9858 30.18 28.8918 31.3527L27.92 32.5906" fill="white"/>
<path d="M28.475 41.9882C26.9749 41.9882 25.8033 41.1371 25.7351 41.0874C23.9862 39.6991 23.6295 38.1503 23.6368 37.0929C23.6461 35.9476 24.0695 35.1331 24.088 35.0995L24.6588 35.4015L24.3734 35.2515L24.6588 35.4015C24.5978 35.5168 23.2103 38.2641 26.128 40.5776C26.1388 40.5853 28.0624 41.9716 29.9459 40.9809L32.7259 38.531L32.7653 38.5113C32.7776 38.5051 33.9993 37.8939 34.3776 36.5816C34.6614 35.5943 34.4096 34.452 33.6264 33.1868C33.5608 33.0911 31.8513 30.6412 29.0901 31.6257L28.1746 32.7923L27.6675 32.395L28.6952 31.0858L28.7789 31.0538C32.073 29.8055 34.1485 32.8058 34.1682 32.8362C35.061 34.2774 35.3371 35.597 34.9954 36.7682C34.572 38.2232 33.3391 38.9378 33.0904 39.0697L30.318 41.5135L30.2864 41.5316C29.7302 41.8328 29.1075 41.9898 28.475 41.9882Z" fill="#172B4D"/>
<path d="M27.9524 32.6504L28.8359 31.2475C30.3619 30.5495 32.4794 31.1518 33.7335 32.8278C35.1411 34.7074 35.0269 37.1786 33.4786 38.3363C33.2873 38.479 33.076 38.5985 32.85 38.6926L30.5956 40.7072C30.4845 40.8235 30.3642 40.9306 30.2358 41.0273C29.5555 41.534 28.6994 41.7253 27.7947 41.5734C27.6809 41.5546 27.5679 41.5309 27.4561 41.5024C26.4631 41.2459 25.5476 40.6116 24.8766 39.7153C23.7852 38.2557 23.577 36.3915 24.3575 35.073L27.8282 32.2713" fill="white"/>
<path d="M28.3844 41.9455C28.1735 41.9455 27.9579 41.9273 27.7404 41.8911C27.6175 41.8704 27.4955 41.8445 27.3748 41.8136C26.3093 41.539 25.3298 40.861 24.6163 39.9066C23.4475 38.3455 23.2304 36.3371 24.0776 34.9083L24.1077 34.8582L27.6239 32.0199L27.8168 32.2578L28.6135 30.9929L28.7018 30.9532C30.4156 30.1703 32.6881 30.8926 33.9927 32.6342C34.7177 33.6037 35.0883 34.7517 35.0371 35.867C34.9838 37.0062 34.4995 37.9741 33.6719 38.5931C33.4716 38.7418 33.2552 38.8674 33.0267 38.9676L30.8209 40.9397C30.7006 41.065 30.5702 41.1802 30.431 41.2841C29.8464 41.7195 29.1376 41.9455 28.3844 41.9455ZM24.6059 35.2858C23.9241 36.4902 24.1335 38.1847 25.1343 39.5213C25.7609 40.3586 26.6143 40.9521 27.5356 41.19C27.6421 41.2174 27.7469 41.2386 27.8468 41.2552C28.6713 41.3932 29.4303 41.2251 30.0407 40.7685C30.1529 40.6848 30.2605 40.5892 30.3596 40.4847L30.3778 40.4665L32.6731 38.4153L32.7232 38.3941C32.9221 38.3108 33.1102 38.2038 33.2836 38.0756C33.953 37.575 34.346 36.7802 34.3903 35.8365C34.4358 34.8686 34.1092 33.869 33.4733 33.0194C32.3711 31.5451 30.4884 30.905 29.0539 31.5008L28.2236 32.8208L27.9047 32.6203L24.6059 35.2858Z" fill="#172B4D"/>
<path d="M33.4769 38.3348C32.7966 38.843 31.9405 39.0324 31.0358 38.8824C30.9232 38.8642 30.811 38.84 30.6972 38.811C29.7042 38.5546 28.7887 37.9206 28.1177 37.024C26.9685 35.4887 26.7772 33.7198 27.6106 32.4337L33.4769 38.3348ZM30.3224 33.2316L28.9406 31.082L30.3224 33.2316Z" fill="white"/>
<path d="M31.627 39.255C31.4161 39.255 31.2005 39.2369 30.983 39.2002C30.8602 39.1792 30.7382 39.1534 30.6174 39.1227C29.5515 38.8481 28.5724 38.1702 27.859 37.2161C26.6249 35.5671 26.4259 33.6678 27.3399 32.2568L27.8817 32.6077C27.1182 33.7847 27.3079 35.4032 28.3765 36.8293C29.0036 37.6665 29.8554 38.2597 30.7783 38.498C30.8878 38.5254 30.9892 38.5466 31.0895 38.5632C31.914 38.7012 32.6729 38.5327 33.2834 38.0761L33.6705 38.5936C33.089 39.029 32.3798 39.255 31.6267 39.255H31.627ZM30.0509 33.4068L28.6696 31.2572L29.2133 30.9082L30.5947 33.0578L30.0509 33.4068Z" fill="#172B4D"/>
<path d="M29.5369 34.0992L27.4102 32.2666L29.5369 34.0992Z" fill="white"/>
<path d="M27.6246 32.0234L27.2031 32.5117L29.3291 34.3438L29.7503 33.8556L27.6246 32.0238V32.0234Z" fill="#172B4D"/>
<path d="M29.8833 33.1764C30.3916 32.9049 31.4467 33.316 32.0205 33.9913C32.7401 34.8362 32.8828 35.8963 32.3394 36.3576C31.7957 36.8188 30.7726 36.508 30.053 35.663C29.6492 35.1879 29.4275 34.6465 29.4062 34.1806C29.4062 34.1806 29.446 33.8077 29.5432 33.6604" fill="white"/>
<path d="M31.7063 36.8967C31.0854 36.8967 30.3673 36.5327 29.8058 35.8725C29.3716 35.363 29.1075 34.7514 29.0816 34.198L29.0801 34.1737L29.0832 34.1494C29.0936 34.043 29.141 33.6836 29.2698 33.4865L29.8101 33.8382C29.7831 33.8837 29.7449 34.0476 29.7283 34.1934C29.7542 34.6014 29.9605 35.0611 30.2975 35.4556C30.8895 36.1517 31.7294 36.4536 32.1285 36.1139C32.3669 35.9122 32.3576 35.557 32.3318 35.363C32.2805 34.982 32.0769 34.559 31.7734 34.2007C31.2709 33.6092 30.3658 33.2833 30.0334 33.4622L29.7283 32.8934C30.4283 32.5186 31.6442 33.0542 32.2651 33.7839C32.6522 34.2389 32.9041 34.7699 32.9727 35.2763C33.0487 35.8362 32.8967 36.3079 32.5473 36.6052C32.3152 36.8026 32.0237 36.8967 31.7067 36.8967H31.7063Z" fill="#172B4D"/>
<path d="M89.2397 47.5957H62.1135C60.7078 47.5957 59.4734 48.8988 59.3581 50.5054L57.755 72.6689C57.6382 74.2754 58.684 75.5785 60.09 75.5785H87.2162C88.6219 75.5785 89.8559 74.2754 89.9716 72.6689L91.5747 50.5038C91.69 48.8972 90.6457 47.5957 89.2397 47.5957Z" fill="#F7F8F9"/>
<path d="M87.2181 75.9016H60.0919C59.3858 75.9016 58.7271 75.6101 58.2351 75.0825C57.6597 74.4636 57.3682 73.5758 57.4353 72.646L59.0384 50.481C59.1656 48.7121 60.5474 47.2725 62.1154 47.2725H89.2415C89.9476 47.2725 90.6063 47.564 91.0984 48.0919C91.6737 48.7109 91.9653 49.5983 91.8982 50.528L90.2951 72.6931C90.1678 74.462 88.7861 75.9016 87.2181 75.9016ZM62.1154 47.9172C60.8782 47.9172 59.7853 49.0884 59.682 50.528L58.0789 72.6931C58.0241 73.4455 58.2532 74.1554 58.7075 74.644C59.0746 75.0382 59.5667 75.2568 60.0904 75.2568H87.2165C88.4537 75.2568 89.5466 74.0856 89.6499 72.646L91.253 50.481C91.3078 49.7286 91.0787 49.0186 90.6244 48.53C90.2573 48.1359 89.7652 47.9172 89.24 47.9172H62.1154Z" fill="#172B4D"/>
<path d="M89.2404 47.5957C87.8348 47.5957 86.6004 48.8988 86.4851 50.5054L84.882 72.6704C84.7651 74.277 85.811 75.5801 87.217 75.5801C88.6226 75.5801 89.8567 74.277 89.9724 72.6704L91.5755 50.5054C91.6908 48.8972 90.6465 47.5957 89.2404 47.5957Z" fill="#F7F8F9"/>
<path d="M87.2172 75.9016C86.5111 75.9016 85.8521 75.6101 85.3604 75.0825C84.785 74.4636 84.4934 73.5758 84.5602 72.646L86.1633 50.481C86.2909 48.7121 87.6726 47.2725 89.2407 47.2725C89.9468 47.2725 90.6054 47.564 91.0975 48.0919C91.6729 48.7109 91.9644 49.5983 91.8973 50.528L90.2942 72.6931C90.167 74.462 88.7852 75.9016 87.2172 75.9016ZM89.2407 47.9172C88.0035 47.9172 86.9118 49.0884 86.8073 50.528L85.2042 72.6931C85.1494 73.4455 85.3785 74.1554 85.8324 74.644C86.1999 75.0397 86.6916 75.2568 87.2172 75.2568C88.4543 75.2568 89.5472 74.0856 89.6506 72.646L91.2537 50.481C91.3084 49.7286 91.079 49.0186 90.6251 48.53C90.2564 48.1359 89.7643 47.9172 89.2407 47.9172Z" fill="#172B4D"/>
<path d="M85.0914 44.3704L78.6879 33.6025L47.0471 40.9737C47.0234 40.9794 47.0018 40.9919 46.9851 41.0097C46.9684 41.0275 46.9573 41.0498 46.9531 41.0738C46.9488 41.0979 46.9517 41.1226 46.9614 41.145C46.971 41.1675 46.987 41.1866 47.0074 41.2L50.0998 42.8429L84.7714 44.8756C84.8323 44.8792 84.8931 44.8665 84.9475 44.8386C85.0018 44.8108 85.0477 44.7689 85.0804 44.7174C85.113 44.6658 85.1313 44.6064 85.1333 44.5454C85.1352 44.4844 85.1208 44.4239 85.0914 44.3704Z" fill="#F7F8F9"/>
<path d="M84.7946 45.1993C84.7807 45.1993 84.7688 45.1993 84.7549 45.1977L50.0139 43.1604L46.8335 41.4705C46.7603 41.423 46.7026 41.3549 46.6678 41.2748C46.6329 41.1947 46.6224 41.1061 46.6376 41.0201C46.6681 40.8438 46.8 40.7027 46.9747 40.6618L78.8481 33.2363L85.3773 44.2178C85.4941 44.4303 85.4853 44.6879 85.3561 44.8911C85.2331 45.084 85.0206 45.1993 84.7946 45.1993ZM50.1917 42.5249L84.7915 44.5529C84.7961 44.5529 84.8019 44.5545 84.8081 44.5441C84.8127 44.5364 84.8127 44.5317 84.8096 44.5271L78.5307 33.969L47.6349 41.167L50.1917 42.5249Z" fill="#172B4D"/>
<path d="M70.0123 49.8833L70.0899 43.7258C70.0899 43.7258 65.7645 41.8038 60.9082 43.3984V49.8833H70.0123Z" fill="white"/>
<path d="M70.3326 50.2057H60.5859V43.1639L60.8077 43.091C65.7249 41.4771 70.041 43.3505 70.2215 43.4308L70.4159 43.5171L70.3326 50.2057ZM61.2311 49.5609H69.6947L69.7645 43.9421C68.8964 43.6112 65.2498 42.4007 61.2311 43.634V49.5609Z" fill="#172B4D"/>
<path d="M83.7431 0.896574C83.7431 0.896574 81.2399 5.4479 80.5612 6.05914L78.8247 5.78765C78.7348 5.75564 78.6712 5.87403 78.7471 5.93149L80.3124 6.54466C80.3124 6.54466 78.7761 8.67455 78.3037 8.89436L76.8024 8.4636C76.7615 8.45126 76.7295 8.50139 76.7584 8.53302L77.6662 9.55727L75.9551 11.2094L73.5079 11.0937C73.4713 11.0911 73.4348 11.0995 73.4029 11.1176C73.371 11.1357 73.3452 11.1629 73.3287 11.1956C73.3122 11.2283 73.3057 11.2652 73.3101 11.3016C73.3144 11.338 73.3295 11.3723 73.3532 11.4002L74.7589 12.3123L72.1446 14.8016L70.8377 14.709C70.7131 14.6998 70.6692 14.871 70.7829 14.9246L71.6514 15.3265C71.6514 15.3265 69.3634 18.2438 66.9331 17.4201L66.0053 17.1606C66.0053 17.1606 64.7149 15.7499 65.9035 12.5869L67.1637 12.7265C67.1637 12.7265 65.6698 11.273 67.8197 8.673L69.0703 9.46009C69.0703 9.46009 67.6311 7.43047 71.4509 4.62417C71.4703 4.61008 71.4924 4.60003 71.5157 4.5946C71.5391 4.58918 71.5634 4.5885 71.587 4.5926C71.6107 4.5967 71.6333 4.60549 71.6535 4.61846C71.6737 4.63144 71.6911 4.64833 71.7046 4.66813L72.2904 5.5767C72.2904 5.5767 71.2172 2.78852 76.866 0.893874C76.9061 0.880743 76.9485 0.876648 76.9903 0.881886C77.0322 0.887124 77.0723 0.901563 77.1079 0.924166C77.1435 0.946769 77.1736 0.976975 77.1961 1.01261C77.2187 1.04825 77.233 1.08843 77.2381 1.13027L77.3534 2.17998C77.3534 2.17998 77.5509 0.857238 78.0746 0.62354C78.5983 0.389843 80.2897 0.188153 83.7431 0.896574Z" fill="white"/>
<path d="M81.4923 0.525116C82.1406 0.602244 82.886 0.721792 83.741 0.896487C83.741 0.896487 82.1012 4.78297 80.5587 6.05905L78.8222 5.78602C78.8159 5.78304 78.8091 5.78146 78.8021 5.78139C78.7234 5.77213 78.6749 5.87703 78.7431 5.92986L80.3084 6.54303C80.3084 6.54303 78.772 8.67292 78.2996 8.89273L76.7983 8.46197C76.7953 8.46197 76.7937 8.46043 76.7906 8.46043C76.7819 8.45928 76.7731 8.46085 76.7653 8.46494C76.7575 8.46904 76.7512 8.47544 76.7472 8.48327C76.7433 8.4911 76.7418 8.49997 76.7431 8.50865C76.7444 8.51734 76.7483 8.52542 76.7544 8.53177L77.6622 9.55565L75.9511 11.2077L73.5038 11.092C73.4673 11.0895 73.4307 11.0978 73.3989 11.116C73.367 11.1341 73.3412 11.1612 73.3247 11.194C73.3082 11.2267 73.3017 11.2636 73.3061 11.3C73.3104 11.3364 73.3254 11.3707 73.3492 11.3986L74.7548 12.3107L72.1406 14.8L70.8337 14.7074C70.7091 14.6982 70.6651 14.8694 70.7789 14.923L71.6474 15.3248C71.6474 15.3248 69.698 17.8099 67.4875 17.5457C67.2977 17.5222 67.1106 17.48 66.9291 17.4196L66.0012 17.1605C66.0012 17.1605 64.7109 15.7498 65.8998 12.5868L67.1597 12.726C67.1597 12.726 65.6657 11.2729 67.8157 8.67292L69.0663 9.46001C69.0663 9.46001 67.6271 7.43038 71.4468 4.62408C71.4839 4.59766 71.5293 4.58572 71.5745 4.59053C71.6246 4.5967 71.6717 4.62215 71.7006 4.66766L72.2864 5.57661C72.2864 5.57661 71.2131 2.78844 76.862 0.893402C76.9021 0.879994 76.9448 0.875698 76.9868 0.880825C77.0289 0.885953 77.0693 0.900375 77.105 0.923045C77.1408 0.945716 77.1711 0.976066 77.1937 1.01189C77.2163 1.04772 77.2306 1.08813 77.2357 1.13018L77.351 2.1799C77.351 2.1799 77.5484 0.857151 78.0721 0.623454C78.4666 0.447602 79.5217 0.289875 81.4923 0.52473V0.525116Z" fill="white"/>
<path d="M67.8243 17.889C67.4888 17.8904 67.1554 17.8366 66.8374 17.7297L65.9177 17.4717C65.8596 17.4552 65.8071 17.4232 65.7657 17.3791C65.7083 17.3155 64.357 15.7849 65.6003 12.4734C65.6258 12.4065 65.6727 12.3499 65.7336 12.3123C65.7945 12.2746 65.8661 12.2581 65.9373 12.2652L66.5463 12.3338C66.2393 11.6057 66.0785 10.2691 67.5694 8.46854C67.6194 8.40833 67.6897 8.36837 67.767 8.35609C67.8443 8.34382 67.9235 8.36007 67.9897 8.40183L68.4895 8.71574C68.3846 7.77979 68.7398 6.21564 71.2568 4.36649C71.3593 4.29057 71.487 4.25688 71.6136 4.2724C71.7458 4.28782 71.8642 4.35415 71.946 4.45596C71.9959 4.23102 72.0702 4.01222 72.1677 3.80346C72.7886 2.4838 74.3342 1.40208 76.7603 0.587222C76.8451 0.558685 76.9346 0.549429 77.0229 0.560227C77.1086 0.569891 77.1913 0.597772 77.2654 0.642001C77.3395 0.68623 77.4033 0.745787 77.4525 0.816678C77.5786 0.599563 77.7394 0.41754 77.9411 0.328072C78.2357 0.197726 79.174 -0.0768498 81.5318 0.203896C82.2302 0.287194 82.9968 0.414455 83.8059 0.579895C83.8526 0.589475 83.8967 0.609319 83.9348 0.637991C83.973 0.666664 84.0043 0.703451 84.0265 0.745696C84.0487 0.787942 84.0613 0.834593 84.0633 0.882281C84.0653 0.929968 84.0566 0.977503 84.038 1.02145C83.9698 1.18342 82.3501 4.99586 80.7636 6.30819C80.7132 6.35016 80.6511 6.37561 80.5858 6.38108C80.6176 6.43501 80.633 6.49705 80.63 6.55959C80.6271 6.62214 80.606 6.68246 80.5692 6.73317C80.1971 7.24877 78.9434 8.94905 78.4347 9.18584C78.3639 9.219 78.2835 9.22543 78.2083 9.20396L77.633 9.03891L77.9033 9.34356C77.9581 9.40595 77.987 9.48697 77.9839 9.56996C77.9808 9.65295 77.946 9.7316 77.8867 9.78975L76.1756 11.4418C76.1437 11.4721 76.106 11.4956 76.0648 11.511C76.0236 11.5264 75.9797 11.5333 75.9358 11.5313L74.0049 11.4403L74.9308 12.0407C74.9717 12.0673 75.0061 12.1029 75.0313 12.1446C75.0565 12.1864 75.072 12.2333 75.0765 12.2819C75.0811 12.3305 75.0745 12.3795 75.0574 12.4252C75.0404 12.471 75.0131 12.5122 74.9779 12.5459L72.3636 15.0356C72.3309 15.0664 72.2921 15.0901 72.2498 15.1052C72.2074 15.1203 72.1624 15.1266 72.1176 15.1235L71.8823 15.107C71.9346 15.1632 71.9652 15.2363 71.9685 15.313C71.9718 15.3898 71.9477 15.4652 71.9005 15.5258C71.8245 15.6272 70.0228 17.889 67.8243 17.889ZM66.1923 16.8786L67.0198 17.1107L67.0364 17.1154C67.1972 17.1697 67.363 17.2079 67.53 17.2272C69.083 17.4123 70.5388 16.0672 71.1249 15.439L70.6483 15.2192C70.5552 15.1773 70.48 15.1036 70.4363 15.0113C70.3926 14.919 70.3833 14.8141 70.41 14.7155C70.4343 14.6163 70.4932 14.5289 70.5761 14.4691C70.659 14.4093 70.7605 14.381 70.8623 14.3893L72.0266 14.471L74.2417 12.3624L73.1773 11.6721C73.1513 11.6552 73.1278 11.6348 73.1075 11.6115C73.0425 11.5355 73.0014 11.4419 72.9896 11.3426C72.9777 11.2433 72.9955 11.1427 73.0408 11.0535C73.1333 10.8699 73.3231 10.7604 73.5309 10.7758L75.8309 10.8838L77.22 9.54255L76.5173 8.7489C76.4677 8.69384 76.4363 8.62483 76.4274 8.55127C76.4184 8.47772 76.4323 8.40318 76.4672 8.33781C76.507 8.26244 76.5718 8.20323 76.6504 8.17031C76.7291 8.13739 76.8167 8.1328 76.8983 8.15733L78.2523 8.54567C78.5423 8.31043 79.2075 7.49596 79.8041 6.69344L78.6291 6.23376C78.6012 6.22304 78.5751 6.20822 78.5516 6.1898C78.4802 6.13642 78.4285 6.06079 78.4049 5.97483C78.3812 5.88888 78.3868 5.79749 78.4208 5.71508C78.4574 5.624 78.5257 5.54922 78.6131 5.50457C78.7005 5.45991 78.8011 5.44839 78.8963 5.47212L80.4643 5.71816C81.6274 4.66382 82.8568 2.08929 83.288 1.13522C82.6818 1.01752 82.0718 0.920923 81.4589 0.845601C79.6614 0.631571 78.5851 0.751505 78.2083 0.918101C77.9943 1.01374 77.756 1.68437 77.6742 2.22735C77.6617 2.30438 77.6221 2.37439 77.5625 2.42475C77.5028 2.4751 77.4272 2.50247 77.3491 2.50192C77.2709 2.50061 77.1957 2.47078 77.1379 2.41802C77.08 2.36527 77.0434 2.29323 77.0348 2.21539L76.9257 1.21543C74.1746 2.14714 73.1453 3.27398 72.7689 4.05528C72.3833 4.85471 72.5884 5.4405 72.5958 5.4648C72.623 5.53928 72.6219 5.62117 72.5927 5.69489C72.5634 5.7686 72.5081 5.829 72.4372 5.86458C72.3664 5.90016 72.2849 5.90844 72.2083 5.88784C72.1317 5.86724 72.0654 5.8192 72.0219 5.75287L71.521 4.97773C68.1841 7.48979 69.2893 9.2055 69.3379 9.27839C69.3794 9.33993 69.3986 9.4138 69.3922 9.48774C69.3859 9.56168 69.3545 9.63124 69.3032 9.68485C69.2521 9.73825 69.1841 9.77239 69.1108 9.78152C69.0375 9.79065 68.9632 9.77422 68.9006 9.73499L67.8941 9.10099C66.2289 11.2779 67.343 12.4476 67.3931 12.4973C67.44 12.545 67.4712 12.6059 67.4823 12.6718C67.4935 12.7378 67.4842 12.8055 67.4556 12.866C67.4269 12.9262 67.3802 12.9759 67.3219 13.0084C67.2637 13.0408 67.1968 13.0542 67.1305 13.0469L66.124 12.9346C65.2814 15.3572 65.989 16.5936 66.1923 16.8786Z" fill="#172B4D"/>
<path d="M65.7214 21.3109C65.6707 21.3108 65.6207 21.2988 65.5754 21.2758C65.5302 21.2528 65.491 21.2195 65.461 21.1786C65.431 21.1377 65.4111 21.0903 65.4028 21.0403C65.3945 20.9902 65.3981 20.939 65.4133 20.8906C67.2805 15.0608 70.4794 9.95458 74.6647 6.12247C77.8057 3.24791 80.4836 2.02042 80.7782 1.89162C80.8557 1.85702 80.9435 1.85399 81.0232 1.88315C81.1028 1.91232 81.168 1.97138 81.2047 2.0478C81.2236 2.08695 81.2343 2.12954 81.2362 2.17298C81.2381 2.21641 81.231 2.25976 81.2155 2.30038C81.2 2.341 81.1764 2.37803 81.1461 2.4092C81.1158 2.44037 81.0795 2.46502 81.0393 2.48164C80.6082 2.67292 70.4427 7.30099 66.028 21.0876C66.007 21.1524 65.966 21.2089 65.9109 21.249C65.8559 21.289 65.7895 21.3106 65.7214 21.3105V21.3109Z" fill="#172B4D"/>
<path d="M76.6888 17.3184L86.4639 21.7085C86.6961 21.8222 86.8372 22.0652 86.8191 22.3228L85.2889 44.2268C85.2821 44.3252 85.2524 44.4207 85.2022 44.5056C85.1519 44.5906 85.0825 44.6626 84.9995 44.7159C84.9165 44.7693 84.8222 44.8025 84.724 44.8129C84.6259 44.8233 84.5267 44.8106 84.4343 44.7759L75.0977 41.3765" fill="white"/>
<path d="M84.6562 45.1393C84.5424 45.1393 84.4286 45.1192 84.3176 45.0768L74.9844 41.6789L75.2057 41.0735L84.5424 44.4733C84.5881 44.4912 84.6375 44.4979 84.6863 44.4929C84.7351 44.4879 84.7821 44.4712 84.8231 44.4444C84.8641 44.4184 84.8984 44.3832 84.9232 44.3415C84.948 44.2998 84.9626 44.2529 84.9658 44.2045L86.4964 22.3005C86.501 22.2385 86.4867 22.1765 86.4556 22.1227C86.4244 22.0688 86.3778 22.0256 86.3217 21.9986L76.5539 17.6119L76.8181 17.0234L86.5936 21.4136C86.7676 21.496 86.9127 21.6289 87.0099 21.7951C87.1071 21.9612 87.1519 22.1528 87.1385 22.3449L85.6083 44.2488C85.5986 44.3975 85.5539 44.5417 85.4779 44.6698C85.4019 44.798 85.2968 44.9064 85.171 44.9862C85.018 45.0863 84.8391 45.1397 84.6562 45.1397V45.1393Z" fill="#172B4D"/>
<path d="M76.3145 17.2188L48.6253 17.2751C48.3094 17.2751 48.0484 17.5192 48.0272 17.8331L46.4468 40.4474C46.441 40.5291 46.452 40.6111 46.4792 40.6884C46.5063 40.7657 46.549 40.8366 46.6046 40.8967C46.6603 40.9569 46.7276 41.005 46.8025 41.038C46.8775 41.0711 46.9584 41.0885 47.0403 41.0891L74.7083 41.3378C74.8613 41.3395 75.0091 41.2825 75.1214 41.1787C75.2338 41.0749 75.3022 40.932 75.3126 40.7794L76.9157 17.862C76.9214 17.7796 76.9101 17.6969 76.8825 17.6191C76.8548 17.5412 76.8114 17.4699 76.755 17.4096C76.6986 17.3492 76.6304 17.3011 76.5546 17.2683C76.4788 17.2355 76.3971 17.2186 76.3145 17.2188Z" fill="white"/>
<path d="M74.7109 41.6613H74.7016L47.0352 41.4122C46.9092 41.4105 46.7848 41.3835 46.6696 41.3327C46.5543 41.2819 46.4504 41.2083 46.3642 41.1164C46.279 41.0239 46.2135 40.9151 46.1718 40.7965C46.13 40.6778 46.1128 40.552 46.1212 40.4265L47.7016 17.8126C47.7187 17.5799 47.8229 17.3622 47.9935 17.203C48.164 17.0438 48.3884 16.9548 48.6217 16.9538L76.3109 16.8975H76.3124C76.4391 16.8974 76.5644 16.9234 76.6806 16.9739C76.7968 17.0244 76.9014 17.0982 76.9878 17.1908C77.0743 17.2834 77.1407 17.3928 77.1831 17.5121C77.2255 17.6315 77.2428 17.7583 77.2341 17.8847L75.6326 40.8041C75.6158 41.037 75.5114 41.2549 75.3404 41.414C75.1694 41.5731 74.9444 41.6614 74.7109 41.6613ZM76.3124 17.5423L48.6232 17.5986C48.553 17.5988 48.4854 17.6255 48.4339 17.6733C48.3824 17.7211 48.3507 17.7865 48.3452 17.8565L46.7649 40.4705C46.7622 40.5083 46.7673 40.5463 46.7798 40.5821C46.7924 40.618 46.8122 40.6508 46.838 40.6787C46.8637 40.7065 46.8949 40.7288 46.9297 40.7441C46.9644 40.7595 47.0019 40.7675 47.0398 40.7678L74.7078 41.0165H74.7109C74.7814 41.0163 74.8492 40.9895 74.9007 40.9413C74.9522 40.8932 74.9836 40.8273 74.9885 40.757L76.5905 17.8384C76.5933 17.8003 76.5881 17.7621 76.5754 17.7261C76.5626 17.6901 76.5425 17.6572 76.5164 17.6294C76.4903 17.6015 76.4587 17.5794 76.4236 17.5644C76.3884 17.5494 76.3506 17.5419 76.3124 17.5423Z" fill="#172B4D"/>
<path d="M83.1342 73.4854L76.9173 62.3369L45.334 70.1149L53.0097 72.8664L83.1342 73.4854Z" fill="#F7F8F9"/>
<path d="M83.6903 73.8182L52.9511 73.1869L44.2188 70.0559L77.0786 61.9629L83.6903 73.8182ZM53.0711 72.5437L82.5789 73.1491L76.757 62.706L46.452 70.1697L53.0711 72.5437Z" fill="#172B4D"/>
<path d="M74.9627 42.8096L84.7229 46.4658C84.9323 46.5445 85.0672 46.7508 85.0537 46.9737L83.4977 73.1162C83.493 73.1961 83.4695 73.2737 83.4293 73.3429C83.3891 73.412 83.3332 73.4708 83.2661 73.5143C83.199 73.5579 83.1226 73.5851 83.043 73.5937C82.9635 73.6023 82.883 73.5921 82.8082 73.564L73.502 70.0778" fill="white"/>
<path d="M82.9895 73.9211C82.8908 73.9211 82.7921 73.903 82.6949 73.8667L73.3887 70.3805L73.615 69.7766L82.9213 73.2628C82.9984 73.2917 83.0593 73.2643 83.0898 73.2447C83.1146 73.229 83.1353 73.2076 83.1501 73.1822C83.1648 73.1568 83.1733 73.1282 83.1746 73.0989L84.7307 46.9548C84.7332 46.9148 84.7228 46.875 84.7009 46.8414C84.679 46.8077 84.6468 46.7821 84.6092 46.7682L74.8491 43.1123L75.0754 42.5088L84.8356 46.1647C85.0028 46.2265 85.1455 46.3407 85.2426 46.4902C85.3397 46.6398 85.3859 46.8166 85.3743 46.9946L83.8182 73.1382C83.8115 73.2687 83.7736 73.3957 83.7079 73.5087C83.6422 73.6216 83.5504 73.7173 83.4403 73.7877C83.3038 73.8756 83.1472 73.9211 82.9895 73.9211Z" fill="#172B4D"/>
<path d="M74.6657 42.7285L46.9067 42.7848C46.6499 42.7848 46.4389 42.9834 46.4208 43.2399L44.6612 69.3049C44.6569 69.3712 44.6662 69.4376 44.6885 69.5002C44.7108 69.5628 44.7456 69.6201 44.7907 69.6688C44.8359 69.7175 44.8905 69.7565 44.9513 69.7833C45.012 69.8102 45.0776 69.8244 45.144 69.8251L73.0368 70.0754C73.1615 70.0769 73.282 70.0303 73.3733 69.9453C73.4646 69.8603 73.5196 69.7433 73.5269 69.6188L75.1516 43.2472C75.1564 43.1806 75.1473 43.1138 75.125 43.0509C75.1026 42.988 75.0676 42.9304 75.022 42.8817C74.9763 42.833 74.9211 42.7943 74.8598 42.7679C74.7985 42.7416 74.7324 42.7281 74.6657 42.7285Z" fill="white"/>
<path d="M73.0436 70.3968H73.0359L45.1431 70.1465C45.0328 70.1452 44.9239 70.1215 44.823 70.077C44.722 70.0325 44.6311 69.968 44.5558 69.8874C44.4806 69.8064 44.4228 69.711 44.386 69.6068C44.3492 69.5027 44.3342 69.3921 44.3418 69.2819L46.101 43.2169C46.1154 43.0125 46.2065 42.8211 46.356 42.681C46.5056 42.5409 46.7025 42.4625 46.9074 42.4614L74.6679 42.4051H74.6695C74.78 42.4051 74.8894 42.4278 74.9908 42.4717C75.0923 42.5156 75.1837 42.5798 75.2593 42.6604C75.335 42.7409 75.3934 42.8362 75.4308 42.9402C75.4682 43.0442 75.484 43.1548 75.477 43.2651L73.8527 69.6367C73.8401 69.8426 73.7494 70.036 73.599 70.1773C73.4486 70.3186 73.25 70.3971 73.0436 70.3968ZM74.6695 43.0499L46.9101 43.1058C46.8685 43.1062 46.8286 43.1222 46.7982 43.1506C46.7679 43.179 46.7493 43.2178 46.7462 43.2593L44.9869 69.3243C44.9853 69.3468 44.9883 69.3693 44.9959 69.3905C45.0035 69.4117 45.0154 69.431 45.0309 69.4473C45.0463 69.4638 45.0649 69.4769 45.0855 69.486C45.1061 69.4951 45.1283 69.4999 45.1508 69.5002L73.0436 69.7505H73.0452C73.087 69.7503 73.1273 69.7343 73.1577 69.7056C73.1882 69.6768 73.2065 69.6376 73.2091 69.5958L74.8334 43.2242C74.8347 43.2019 74.8315 43.1795 74.8239 43.1584C74.8164 43.1373 74.8046 43.118 74.7894 43.1016C74.774 43.0853 74.7554 43.0724 74.7347 43.0635C74.7141 43.0546 74.6919 43.05 74.6695 43.0499ZM56.0617 30.7225L55.4181 30.6682C55.5349 29.2937 54.5103 28.0801 53.1347 27.9648C52.807 27.9364 52.4769 27.9731 52.1635 28.0728C51.8501 28.1725 51.5594 28.3332 51.3083 28.5456C51.0561 28.7566 50.8484 29.0156 50.6973 29.3075C50.5462 29.5995 50.4546 29.9186 50.4279 30.2463L49.7843 30.1919C49.9312 28.4638 51.4541 27.1774 53.1879 27.3216C54.9198 27.4685 56.2075 28.9933 56.0617 30.7229V30.7225ZM73.5612 30.5725H72.916C72.916 29.1935 71.7926 28.0709 70.4124 28.0709C69.0326 28.0709 67.9093 29.1935 67.9093 30.5725H67.2641C67.2641 28.8371 68.6759 27.4261 70.4124 27.4261C72.1493 27.4245 73.5612 28.8371 73.5612 30.5725Z" fill="#172B4D"/>
<path d="M70.7849 48.5083C70.5621 48.5086 70.3417 48.4626 70.1376 48.3732C69.9336 48.2838 69.7503 48.1529 69.5996 47.9889C69.4488 47.8248 69.3338 47.6312 69.2619 47.4204C69.19 47.2095 69.1627 46.986 69.1818 46.764C69.219 46.3399 69.4231 45.9479 69.7493 45.6743C70.0755 45.4006 70.4971 45.2678 70.9212 45.305C71.3454 45.3421 71.7374 45.5463 72.011 45.8725C72.2846 46.1987 72.4174 46.6203 72.3803 47.0444C72.3624 47.2545 72.303 47.459 72.2055 47.646C72.1081 47.833 71.9745 47.9988 71.8126 48.1338C71.5251 48.3764 71.161 48.509 70.7849 48.5083ZM69.827 46.8215C69.8103 47.0106 69.8501 47.2004 69.9413 47.3669C70.0326 47.5333 70.1711 47.669 70.3395 47.7567C70.5079 47.8444 70.6985 47.8801 70.8872 47.8595C71.0759 47.8388 71.2542 47.7626 71.3996 47.6406C71.5456 47.519 71.6523 47.3568 71.7059 47.1745C71.7595 46.9922 71.7578 46.7981 71.7008 46.6168C71.6439 46.4355 71.5343 46.2752 71.386 46.1563C71.2378 46.0375 71.0575 45.9654 70.8682 45.9492C70.6145 45.9269 70.3623 46.0063 70.167 46.1699C69.9718 46.3334 69.8495 46.5678 69.827 46.8215ZM70.5616 52.5105C70.339 52.5104 70.1189 52.464 69.9152 52.3744C69.7115 52.2848 69.5286 52.1538 69.3782 51.9898C69.2278 51.8257 69.113 51.6322 69.0413 51.4215C68.9696 51.2109 68.9425 50.9876 68.9616 50.7658C68.9996 50.3421 69.2041 49.9507 69.5301 49.6775C69.8562 49.4042 70.2774 49.2714 70.7012 49.3081C70.9113 49.3263 71.1157 49.3858 71.3028 49.4831C71.4899 49.5805 71.6559 49.7138 71.7914 49.8754C71.9273 50.0365 72.0298 50.223 72.0931 50.424C72.1564 50.6251 72.1791 50.8367 72.1601 51.0466C72.1242 51.446 71.9403 51.8175 71.6446 52.0884C71.3489 52.3592 70.9626 52.5098 70.5616 52.5105ZM70.5601 49.9467C70.3202 49.9469 70.0891 50.0368 69.9121 50.1987C69.7352 50.3606 69.6251 50.5828 69.6037 50.8217C69.5923 50.9471 69.606 51.0735 69.6438 51.1936C69.6815 51.3136 69.7428 51.425 69.8239 51.5213C69.9047 51.618 70.0039 51.6978 70.1157 51.7561C70.2274 51.8144 70.3496 51.8501 70.4752 51.861C70.6006 51.8724 70.727 51.8588 70.8471 51.821C70.9673 51.7833 71.0787 51.7222 71.1751 51.6412C71.3261 51.5149 71.4345 51.3451 71.4857 51.155C71.5368 50.9649 71.5282 50.7636 71.461 50.5786C71.3939 50.3935 71.2714 50.2336 71.1102 50.1206C70.949 50.0075 70.7569 49.9468 70.5601 49.9467ZM71.0537 67.6183C71.0367 67.6183 71.0201 67.6183 71.002 67.6167L67.9747 67.4544C67.8509 67.4483 67.7294 67.4175 67.6176 67.3638C67.5058 67.3102 67.4057 67.2348 67.3234 67.142C67.253 67.0623 67.1994 66.9692 67.1657 66.8683C67.1321 66.7674 67.1191 66.6607 67.1275 66.5547L67.8776 54.901C67.9169 54.4626 68.3102 54.144 68.7792 54.1699L71.8064 54.3322C71.9304 54.3382 72.0518 54.3689 72.1637 54.4226C72.2755 54.4762 72.3755 54.5517 72.4578 54.6446C72.602 54.8116 72.6718 55.021 72.6537 55.2319L71.9036 66.8856C71.8658 67.3086 71.4968 67.6183 71.0537 67.6183ZM68.7294 54.8147C68.6199 54.8147 68.5274 54.8737 68.5212 54.9527L67.7711 66.6048C67.7694 66.6257 67.7721 66.6468 67.7789 66.6666C67.7858 66.6865 67.7966 66.7047 67.8108 66.7201C67.862 66.7754 67.933 66.8081 68.0083 66.8111L71.0352 66.9735C71.152 66.9797 71.2523 66.9187 71.26 66.837L72.0101 55.1833C72.0118 55.1624 72.0092 55.1413 72.0023 55.1215C71.9955 55.1016 71.9846 55.0834 71.9703 55.068C71.9193 55.0128 71.8484 54.9801 71.7733 54.977L68.746 54.8147H68.7294Z" fill="#172B4D"/>
<path d="M67.6689 60.5442L67.6323 61.1879L71.8199 61.4277L71.8569 60.7837L67.6689 60.5442ZM67.9415 57.3789L67.9045 58.0225L72.0926 58.2624L72.1296 57.6188L67.9415 57.3789ZM67.5058 63.686L67.4688 64.3297L71.6568 64.5695L71.6938 63.9259L67.5058 63.686Z" fill="#172B4D"/>
<path d="M70.0329 54.4439L69.1841 67.192L69.8277 67.2348L70.6769 54.4867L70.0329 54.4439ZM64.0482 49.4155H64.042L48.6145 49.2666C48.4683 49.2607 48.3301 49.1982 48.229 49.0925C48.1278 48.9867 48.0717 48.8458 48.0723 48.6994C48.0729 48.5531 48.1302 48.4127 48.2322 48.3077C48.3342 48.2028 48.4729 48.1415 48.6192 48.1367H48.6253L64.0528 48.2852C64.3655 48.2883 64.6158 48.5432 64.6127 48.8556C64.611 49.0043 64.5508 49.1465 64.4452 49.2512C64.3396 49.356 64.1969 49.415 64.0482 49.4155Z" fill="#172B4D"/>
<path d="M44.4844 67.5106V66.8662L62.7324 66.8538C63.7705 66.8326 64.718 65.9483 64.8395 64.8847L66.3423 47.6139C66.4002 47.0994 66.2602 46.6336 65.949 46.2923C65.6501 45.9649 65.2251 45.7886 64.7439 45.7994L46.5259 45.6887L46.529 45.0439L64.7392 45.1546C65.3968 45.1423 65.9991 45.3914 66.426 45.8584C66.8645 46.3393 67.0619 46.9856 66.9844 47.679L65.4816 64.9499C65.325 66.332 64.0956 67.4712 62.7397 67.5001L44.4844 67.5106Z" fill="#172B4D"/>
<path d="M68.2733 76.4285C67.3703 76.3691 66.5242 75.967 65.9078 75.3044C65.6224 74.9994 65.3583 74.7082 65.1034 74.4259L65.0579 74.3758C63.0144 72.1155 61.9882 70.981 58.1777 71.3844C54.4686 71.7758 51.4811 73.1109 51.4522 73.1244C50.5899 73.5186 49.6063 73.5543 48.7178 73.2234C47.8293 72.8925 47.1086 72.2223 46.7142 71.3601C46.384 70.6401 46.3022 69.8309 46.4816 69.0593C46.661 68.2878 47.0914 67.5977 47.7053 67.0972C47.9388 66.908 48.1949 66.7486 48.4677 66.6225C48.627 66.5496 52.4147 64.8324 57.2468 64.2909C64.1165 63.5219 67.2074 66.2191 71.1378 70.4226C71.4598 70.7647 71.7106 71.1673 71.8756 71.6072C72.0406 72.0471 72.1165 72.5153 72.0988 72.9848C72.0699 73.9156 71.6763 74.7977 71.0029 75.4409L70.9647 75.4756C70.6215 75.7965 70.2183 76.0463 69.7783 76.2108C69.3383 76.3754 68.87 76.4513 68.4006 76.4343C68.3581 76.4343 68.3157 76.4316 68.2733 76.4285Z" fill="white"/>
<path d="M45.8063 78.3307L37.2883 63.03C37.2591 62.9777 37.2404 62.92 37.2335 62.8605C37.2266 62.8009 37.2315 62.7405 37.248 62.6829C37.2645 62.6252 37.2922 62.5714 37.3296 62.5245C37.3669 62.4775 37.4132 62.4385 37.4657 62.4095L42.8855 59.3969C42.9378 59.3676 42.9955 59.3489 43.0551 59.3419C43.1147 59.335 43.1751 59.3399 43.2328 59.3564C43.2905 59.3729 43.3444 59.4006 43.3914 59.438C43.4383 59.4754 43.4774 59.5217 43.5063 59.5743L52.0247 74.8749C52.1477 75.0947 52.0687 75.3724 51.8473 75.495L46.4276 78.508C46.3215 78.5664 46.1968 78.5804 46.0804 78.5472C45.9641 78.514 45.8655 78.4362 45.8063 78.3307Z" fill="white"/>
<path d="M46.2191 78.8763C46.1447 78.8763 46.0707 78.8655 45.9962 78.8443C45.8941 78.8157 45.7986 78.767 45.7155 78.7011C45.6323 78.6352 45.5631 78.5535 45.5119 78.4606L37.0224 63.2101C36.9706 63.1175 36.9375 63.0155 36.9253 62.91C36.913 62.8046 36.9218 62.6978 36.9511 62.5957C36.98 62.4937 37.0288 62.3984 37.0947 62.3153C37.1606 62.2322 37.2424 62.163 37.3352 62.1118L42.7048 59.1277C42.7975 59.0758 42.8996 59.0429 43.0051 59.0307C43.1106 59.0185 43.2175 59.0274 43.3195 59.0567C43.5278 59.1157 43.699 59.2522 43.8039 59.4404L52.2933 74.6909C52.3972 74.8781 52.4226 75.0989 52.3639 75.3047C52.3053 75.5106 52.1674 75.6848 51.9806 75.7892L46.6109 78.7745C46.491 78.841 46.3562 78.876 46.2191 78.8763ZM43.0978 59.671C43.0704 59.6711 43.0433 59.6778 43.0191 59.6907L37.6495 62.6759C37.6119 62.6969 37.5841 62.7318 37.572 62.7731C37.566 62.7935 37.5641 62.8149 37.5664 62.836C37.5687 62.8571 37.5752 62.8776 37.5855 62.8961L46.0749 78.1467C46.0959 78.1841 46.1307 78.2118 46.172 78.2237C46.2132 78.2356 46.2574 78.2308 46.2951 78.2103L51.6647 75.2262C51.7021 75.2053 51.7296 75.1704 51.7413 75.1292C51.7531 75.088 51.748 75.0439 51.7272 75.0064L43.2378 59.7559C43.2168 59.7183 43.1819 59.6905 43.1406 59.6784C43.1313 59.6757 43.1163 59.671 43.0978 59.671Z" fill="#172B4D"/>
<path d="M58.8927 63.7737H48.0289C47.837 63.7735 47.6529 63.6972 47.5172 63.5615C47.3814 63.4258 47.305 63.2418 47.3047 63.0498V62.9588C47.3051 62.7669 47.3816 62.583 47.5173 62.4474C47.6531 62.3118 47.837 62.2356 48.0289 62.2354H58.8927C59.0846 62.2356 59.2686 62.3118 59.4043 62.4474C59.5401 62.583 59.6165 62.7669 59.6169 62.9588V63.0498C59.6169 63.1449 59.5982 63.2391 59.5618 63.3269C59.5254 63.4148 59.4721 63.4946 59.4048 63.5618C59.3375 63.629 59.2577 63.6823 59.1698 63.7187C59.082 63.755 58.9878 63.7737 58.8927 63.7737Z" fill="#F7F8F9"/>
<path d="M58.8465 64.0964H48.0738C47.7841 64.0962 47.5063 63.9811 47.3013 63.7763C47.0964 63.5716 46.981 63.2939 46.9805 63.0042C46.981 62.7145 47.0964 62.4369 47.3013 62.2321C47.5063 62.0274 47.7841 61.9123 48.0738 61.9121H58.8465C59.1362 61.9123 59.414 62.0274 59.6188 62.2322C59.8237 62.4369 59.939 62.7146 59.9394 63.0042C59.939 63.2939 59.8237 63.5716 59.6188 63.7763C59.414 63.9811 59.1362 64.0962 58.8465 64.0964ZM48.0738 62.5569C47.8277 62.5569 47.626 62.757 47.626 63.0042C47.626 63.2499 47.8262 63.452 48.0738 63.452H58.8465C59.0922 63.452 59.2943 63.2514 59.2943 63.0042C59.2943 62.7586 59.0937 62.5569 58.8465 62.5569H48.0738Z" fill="#172B4D"/>
<path d="M20.3732 63.7659L48.4134 63.6413C49.6763 63.6216 49.3998 62.5507 49.104 61.2947L45.1555 44.905C45.049 44.119 44.0699 44.2933 42.8081 44.3134L13.9986 45.3311C12.7353 45.3508 12.8737 46.3719 13.1695 47.6295L17.5662 62.4489C17.8623 63.7049 19.1103 63.7871 20.3732 63.7659Z" fill="#F1F2F4"/>
<path d="M20.0292 64.0914C19.0034 64.0914 17.5989 63.9592 17.2557 62.5304L12.8579 47.7017C12.6496 46.8171 12.4965 45.9799 12.9045 45.455C13.1309 45.165 13.4969 45.015 13.9947 45.0057L42.7984 43.988C42.9912 43.9849 43.1717 43.9788 43.3449 43.973C44.3695 43.9363 45.3367 43.9016 45.4748 44.8422L49.4356 61.2863C49.6558 62.2207 49.8471 63.0278 49.4434 63.5438C49.2324 63.8138 48.8877 63.9549 48.4187 63.9622L20.3771 64.0868C20.2691 64.0899 20.1522 64.0914 20.0292 64.0914ZM13.483 47.5452L17.8827 62.3726C18.1014 63.3024 18.9259 63.4663 20.3709 63.442H20.374L48.4141 63.3175C48.6736 63.3132 48.8514 63.2569 48.9347 63.1478C49.1472 62.8747 48.974 62.142 48.8071 61.4336L48.7905 61.3653L44.8388 44.9618L44.8373 44.9452C44.7933 44.6158 44.4667 44.5781 43.3676 44.6174C43.1918 44.6236 43.0063 44.6313 42.815 44.6344L14.0117 45.6521C13.5636 45.6598 13.4514 45.804 13.4147 45.8522C13.181 46.1495 13.3268 46.8807 13.483 47.5452Z" fill="#172B4D"/>
<path d="M42.2395 61.7821C42.168 61.7819 42.0986 61.7582 42.042 61.7146C41.9855 61.6709 41.9449 61.6097 41.9267 61.5406L41.2484 58.9345C41.2375 58.8935 41.2349 58.8509 41.2406 58.8089C41.2464 58.7669 41.2604 58.7265 41.2818 58.69C41.3033 58.6534 41.3317 58.6215 41.3656 58.596C41.3994 58.5705 41.4379 58.552 41.479 58.5415C41.5617 58.5201 41.6496 58.5324 41.7233 58.5756C41.797 58.6188 41.8506 58.6895 41.8723 58.7721L42.5507 61.3783C42.5633 61.4259 42.5649 61.4758 42.5552 61.5241C42.5454 61.5725 42.5247 61.6179 42.4946 61.6569C42.4646 61.696 42.4259 61.7276 42.3816 61.7493C42.3374 61.7709 42.2887 61.7822 42.2395 61.7821ZM41.3182 61.7971C41.2467 61.7971 41.1773 61.7733 41.1207 61.7297C41.0641 61.686 41.0236 61.6248 41.0054 61.5557L40.3267 58.948C40.316 58.907 40.3136 58.8643 40.3194 58.8224C40.3252 58.7805 40.3392 58.7401 40.3607 58.7036C40.3821 58.6671 40.4105 58.6352 40.4443 58.6096C40.4781 58.5841 40.5165 58.5655 40.5575 58.5548C40.5985 58.5442 40.6411 58.5417 40.6831 58.5475C40.725 58.5533 40.7654 58.5674 40.8019 58.5888C40.8384 58.6102 40.8703 58.6387 40.8958 58.6724C40.9214 58.7062 40.94 58.7447 40.9507 58.7856L41.6294 61.3933C41.642 61.441 41.6434 61.4908 41.6337 61.5391C41.6239 61.5874 41.6032 61.6328 41.5732 61.6718C41.5431 61.7108 41.5045 61.7424 41.4603 61.7641C41.416 61.7859 41.3674 61.7971 41.3182 61.7971ZM40.3965 61.8121C40.3252 61.8117 40.256 61.7879 40.1995 61.7444C40.143 61.7008 40.1023 61.64 40.0837 61.5711L39.405 58.965C39.3943 58.924 39.3918 58.8813 39.3976 58.8393C39.4034 58.7974 39.4174 58.757 39.4389 58.7205C39.4604 58.684 39.4888 58.6521 39.5226 58.6266C39.5565 58.6011 39.595 58.5825 39.636 58.572C39.677 58.5612 39.7196 58.5586 39.7616 58.5644C39.8035 58.5701 39.8439 58.5841 39.8805 58.6056C39.917 58.627 39.9489 58.6554 39.9744 58.6893C39.9999 58.7231 40.0184 58.7616 40.029 58.8026L40.7077 61.4088C40.7202 61.4564 40.7216 61.5062 40.7119 61.5544C40.7021 61.6027 40.6814 61.648 40.6513 61.687C40.6212 61.7259 40.5826 61.7575 40.5385 61.7792C40.4943 61.8009 40.4457 61.8122 40.3965 61.8121Z" fill="#172B4D"/>
<path d="M48.7073 63.6495L48.8122 63.6252C49.0061 63.5793 49.1738 63.4583 49.2786 63.2889C49.3834 63.1194 49.4166 62.9152 49.371 62.7213L45.1429 44.8538C45.0967 44.6599 44.9755 44.4923 44.8059 44.3876C44.6363 44.2829 44.4321 44.2498 44.2381 44.2954L44.1333 44.3197C43.9393 44.3656 43.7715 44.4866 43.6668 44.6562C43.5621 44.8258 43.529 45.0301 43.5748 45.224L47.8026 63.0911C47.8486 63.2851 47.9697 63.4529 48.1394 63.5576C48.309 63.6623 48.5133 63.6954 48.7073 63.6495Z" fill="#F7F8F9"/>
<path d="M48.5688 63.9825C48.3612 63.9823 48.1577 63.924 47.9815 63.8143C47.8558 63.7373 47.7466 63.636 47.6604 63.5165C47.5741 63.3969 47.5124 63.2614 47.479 63.1178L43.2721 45.3433C43.2039 45.0538 43.2534 44.7491 43.4096 44.496C43.5659 44.2429 43.8161 44.0621 44.1054 43.9932C44.2495 43.958 44.3992 43.9515 44.5458 43.9742C44.6924 43.997 44.8331 44.0484 44.9598 44.1256C45.0864 44.2028 45.1966 44.3043 45.284 44.4242C45.3714 44.5441 45.4343 44.68 45.469 44.8242L49.6756 62.5992C49.7096 62.7426 49.7149 62.8914 49.6912 63.037C49.6675 63.1825 49.6153 63.3219 49.5375 63.4472C49.4603 63.5728 49.359 63.6819 49.2394 63.7681C49.1198 63.8543 48.9843 63.9159 48.8407 63.9493L48.8283 63.9524C48.7435 63.972 48.6556 63.9825 48.5688 63.9825ZM44.3773 44.6044C44.341 44.6044 44.3044 44.6091 44.2682 44.6179C43.9994 44.6819 43.8397 44.938 43.9006 45.1945L48.1076 62.9694C48.1361 63.0936 48.2121 63.1985 48.3216 63.2652C48.4292 63.3319 48.5584 63.3531 48.6829 63.3226L48.6964 63.3195C48.8195 63.291 48.9255 63.215 48.9926 63.1059C49.0593 62.9979 49.0805 62.8691 49.0501 62.7461L44.842 44.9716C44.8169 44.8671 44.7575 44.7741 44.6732 44.7076C44.5889 44.641 44.4847 44.6047 44.3773 44.6044Z" fill="#172B4D"/>
<path d="M37.1901 46.287C37.1047 46.2882 37.0222 46.2555 36.961 46.1959C36.8997 46.1363 36.8645 46.0549 36.8633 45.9694C36.8621 45.884 36.8949 45.8015 36.9544 45.7402C37.014 45.6789 37.0954 45.6438 37.1809 45.6426L43.5767 45.4363C43.756 45.4239 43.9049 45.5697 43.9095 45.7486C43.9109 45.791 43.904 45.8333 43.889 45.8729C43.874 45.9126 43.8514 45.9489 43.8223 45.9798C43.7932 46.0107 43.7583 46.0355 43.7196 46.0528C43.6809 46.0701 43.6391 46.0796 43.5967 46.0807L37.2006 46.287H37.1901Z" fill="#172B4D"/>
<path d="M82.1553 69.3821L71.1773 66.8789C70.7145 66.7462 70.2824 66.5235 69.9057 66.2236C69.529 65.9238 69.215 65.5526 68.9819 65.1313C68.7487 64.7101 68.6008 64.247 68.5467 63.7686C68.4925 63.2902 68.5332 62.8057 68.6664 62.3431C69.2267 60.3983 71.2579 59.2741 73.2058 59.8341C73.2058 59.8341 79.3451 61.2571 79.1114 60.9366L76.9615 55.7336C76.0506 53.3654 76.6079 51.6543 78.2657 50.4908C78.7785 50.1289 79.3762 49.9057 80.0007 49.8429C81.5645 49.6836 83.0388 50.6123 83.6685 52.0503L87.7162 61.2768L87.7648 61.3647C87.7648 61.3647 89.7138 65.0568 87.7921 67.4281C87.7721 67.4524 87.754 67.4751 87.7343 67.4979C86.383 69.1303 84.2211 69.8538 82.1553 69.3821Z" fill="white"/>
<path d="M83.4279 69.8481C82.9829 69.8481 82.5321 69.798 82.0828 69.6966L71.0867 67.1888C70.652 67.0638 70.2415 66.8664 69.8724 66.6049C69.2007 66.1256 68.694 65.4498 68.4221 64.6707C68.1502 63.8916 68.1265 63.0473 68.3541 62.2541C68.9615 60.1439 71.172 58.9199 73.2853 59.5219C75.3924 60.0105 77.6997 60.496 78.6321 60.6279L76.6615 55.8567C75.7279 53.4326 76.2061 51.541 78.078 50.2272C78.6366 49.834 79.2869 49.5911 79.9664 49.5218C81.6532 49.3491 83.2579 50.3151 83.962 51.9201L88.0035 61.1331L88.0444 61.209C88.0672 61.253 88.5592 62.192 88.8111 63.4419C89.1543 65.1349 88.887 66.5837 88.0382 67.6288L87.9792 67.7017C87.4267 68.3739 86.7318 68.9151 85.9448 69.2863C85.1577 69.6575 84.2981 69.8494 83.4279 69.8481ZM71.2584 66.5656L82.2286 69.0668C84.1946 69.5161 86.2091 68.8347 87.4841 67.2906L87.5404 67.2223C89.3043 65.0469 87.498 61.5472 87.4798 61.5121L87.422 61.403L83.3747 52.1766C82.7824 50.828 81.4404 50.0193 80.0347 50.1605C79.4656 50.2194 78.921 50.423 78.4528 50.752C76.8316 51.8901 76.4429 53.4812 77.2643 55.6157L79.403 60.7933C79.4311 60.847 79.4443 60.9072 79.4414 60.9678C79.4385 61.0283 79.4195 61.0869 79.3864 61.1377C79.2391 61.3606 79.1786 61.4516 76.0433 60.7902C74.5968 60.4852 73.1484 60.1501 73.1349 60.147L73.1179 60.1424C71.3447 59.6325 69.4883 60.6599 68.9781 62.4315C68.7872 63.0964 68.8071 63.804 69.0349 64.4571C69.2628 65.1102 69.6873 65.6766 70.2503 66.0785C70.5566 66.2964 70.8973 66.461 71.2584 66.5656Z" fill="#172B4D"/>
<path d="M64.0541 62.4022C64.0541 62.4022 63.4833 65.8001 67.268 67.1853C67.268 67.1853 69.7368 67.9998 71.3685 66.266L73.2238 63.0894C73.2238 63.0894 76.0158 60.3799 72.3522 57.3156C72.3522 57.3156 69.6562 55.2374 67.1026 57.311L66.5715 58.7842" fill="white"/>
<path d="M68.6348 67.7035C67.8241 67.7035 67.2172 67.5091 67.1655 67.4925C65.078 66.7282 64.2566 65.375 63.9331 64.3735C63.5825 63.289 63.7283 62.3863 63.7345 62.3485L64.3704 62.4545L64.0515 62.4017L64.3704 62.4545C64.3492 62.5837 63.8999 65.6098 67.3764 66.8828C67.3884 66.8875 69.6386 67.5959 71.1063 66.0711L72.9662 62.8884L72.9979 62.8583C73.0071 62.849 73.9697 61.8888 73.9165 60.534C73.8756 59.5132 73.2805 58.5133 72.1448 57.5638C72.0538 57.494 69.6733 55.7147 67.3749 57.5075L66.8755 58.8943L66.2681 58.6756L66.83 57.1177L66.8998 57.0617C69.6216 54.8512 72.5212 57.039 72.5501 57.0617C73.8451 58.1446 74.5192 59.3038 74.5632 60.519C74.6195 62.0253 73.6781 63.0858 73.4822 63.2891L71.6288 66.4625L71.603 66.4899C70.6813 67.4651 69.5321 67.7035 68.6348 67.7035Z" fill="#172B4D"/>
<path d="M66.62 58.8304L67.0165 57.2285C68.2401 56.092 70.4278 55.9994 72.137 57.1903C74.0544 58.5269 74.7196 60.8963 73.6201 62.4724C73.4817 62.669 73.3203 62.8483 73.1392 63.0065L71.6391 65.6142C71.5693 65.7615 71.4887 65.9011 71.3992 66.0284C70.9164 66.7202 70.1667 67.1676 69.2647 67.3072C69.1525 67.3241 69.0388 67.3376 68.9215 67.3453C67.9046 67.4136 66.8402 67.1008 65.9263 66.4622C64.4385 65.426 63.6583 63.7288 63.983 62.2406L66.2344 58.5601" fill="white"/>
<path d="M68.6473 67.6788C67.6485 67.6788 66.6265 67.3464 65.7415 66.729C64.1488 65.6202 63.3155 63.7892 63.6679 62.1734L63.6799 62.1206L65.9602 58.3933L66.3396 58.6251L66.7268 57.0583L66.7982 56.9931C68.1722 55.7174 70.5466 55.69 72.3228 56.9279C73.3108 57.6167 74.0215 58.5858 74.3219 59.6567C74.6285 60.7508 74.4739 61.8171 73.8862 62.6604C73.7437 62.8635 73.5788 63.0498 73.3945 63.2158L71.9279 65.7672C71.8532 65.9233 71.7659 66.073 71.6668 66.2149C71.137 66.9734 70.3021 67.4756 69.3167 67.6287C69.1968 67.6468 69.0769 67.6607 68.9477 67.6695C68.8463 67.6757 68.7476 67.6788 68.6473 67.6788ZM64.2873 62.3631C64.0185 63.7148 64.7473 65.25 66.1106 66.1999C66.9636 66.7945 67.9535 67.0872 68.8991 67.0251C69.0086 67.0174 69.1131 67.0051 69.2149 66.99C70.0364 66.8628 70.6996 66.4667 71.1339 65.8447C71.2149 65.7285 71.2859 65.6057 71.3464 65.4776L71.3587 65.4548L72.8843 62.8L72.9255 62.7653C73.0894 62.6227 73.2337 62.4634 73.3536 62.2902C73.8287 61.6092 73.9517 60.7353 73.698 59.8314C73.4384 58.9043 72.8176 58.0609 71.9507 57.4574C70.4494 56.4104 68.4711 56.3938 67.3037 57.4042L66.9316 58.9089L66.4688 58.7952L64.2873 62.3631Z" fill="#172B4D"/>
<path d="M73.6198 62.4727C73.137 63.1646 72.3869 63.6123 71.4853 63.7515C71.3716 63.7698 71.2571 63.7825 71.1421 63.7897C70.1248 63.8579 69.0608 63.5452 68.1469 62.9066C66.58 61.816 65.8134 60.155 66.1975 58.6788L73.6198 62.4727ZM69.1684 58.6591L67.0659 57.0391L69.1684 58.6591Z" fill="white"/>
<path d="M70.8683 64.1223C69.8695 64.1223 68.8479 63.7903 67.9625 63.1729C66.2823 62.0017 65.467 60.2069 65.8858 58.6003L66.5113 58.7627C66.1608 60.1055 66.8757 61.6299 68.3331 62.6449C69.1861 63.2411 70.1776 63.5323 71.122 63.4702C71.2272 63.4631 71.3321 63.4514 71.4363 63.4351C72.2573 63.3078 72.921 62.9118 73.3552 62.2898L73.8847 62.6584C73.3552 63.417 72.5215 63.9191 71.5362 64.0722C71.4193 64.0907 71.2979 64.1042 71.1675 64.1134C71.0672 64.1192 70.967 64.1223 70.8683 64.1223ZM68.9721 58.9146L66.8696 57.2946L67.2645 56.7832L69.367 58.4033L68.9721 58.9146Z" fill="#172B4D"/>
<path d="M68.6199 59.8384L65.9922 58.6367L68.6199 59.8384Z" fill="white"/>
<path d="M66.1278 58.3457L65.8594 58.9319L68.4863 60.1324L68.7547 59.5462L66.1278 58.3457Z" fill="#172B4D"/>
<path d="M70.9085 61.7566C70.4134 61.7566 69.8731 61.5942 69.3826 61.2953C68.8118 60.9479 68.3714 60.4535 68.1744 59.9375C68.1589 59.9028 68.0602 59.6525 68.1304 59.3883L68.7544 59.5522C68.7436 59.5947 68.7648 59.6753 68.7725 59.6934C68.9256 60.091 69.2673 60.4685 69.7181 60.7431C70.1176 60.9857 70.5669 61.1195 70.9479 61.1102C71.1422 61.1056 71.4912 61.0585 71.6524 60.7948C71.8132 60.5306 71.6948 60.1986 71.6096 60.0239C71.4426 59.681 71.1179 59.3444 70.7188 59.1018C70.0111 58.6711 69.2171 58.6298 68.9788 58.8801L68.5114 58.4358C69.0517 57.8685 70.2283 58.049 71.0543 58.5511C71.5626 58.8604 71.9667 59.2838 72.1896 59.742C72.4356 60.2472 72.4418 60.74 72.2035 61.1314C71.9667 61.5213 71.5248 61.7442 70.9629 61.7581C70.9448 61.7566 70.9267 61.7566 70.9085 61.7566ZM78.8604 59.5387L78.3016 59.2156C80.6062 55.25 85.3915 55.5821 85.4386 55.5867L85.3869 56.2299C85.3445 56.2269 80.9586 55.9295 78.8604 59.5387Z" fill="#172B4D"/>
<path d="M77.6504 60.7695C78.8312 61.5157 81.2924 65.5935 78.5825 68.8005L77.6504 60.7695Z" fill="white"/>
<path d="M78.8255 69.0103L78.3323 68.5946C79.2809 67.472 79.6454 66.1492 79.4163 64.6657C79.1491 62.9345 78.1167 61.451 77.4746 61.0445L77.819 60.5C78.537 60.9535 79.7441 62.5601 80.0538 64.567C80.3106 66.219 79.8852 67.7558 78.8255 69.0103Z" fill="#172B4D"/>
<path d="M82.5195 61.752C82.5195 61.752 86.5109 65.0924 83.4138 69.4354L82.5195 61.752Z" fill="white"/>
<path d="M83.6753 69.6232L83.1501 69.2484C86.0331 65.2072 82.4656 62.1291 82.3105 62.0002L82.7251 61.5059C82.7691 61.5406 86.9089 65.0904 83.6753 69.6232Z" fill="#172B4D"/>
<path d="M74.2467 59.6777L74.1113 60.3079L85.0758 62.6634L85.2111 62.0332L74.2467 59.6777Z" fill="#172B4D"/>
<path d="M24.3722 35.2485C24.3722 35.2485 22.7525 38.3097 25.9267 40.8264C25.9267 40.8264 28.0246 42.3828 30.1305 41.2436L32.9056 38.7983C32.9056 38.7983 36.4264 37.0945 33.9001 33.0137C33.9001 33.0137 31.9858 30.18 28.8918 31.3527L27.92 32.5906" fill="white"/>
<path d="M28.475 41.9882C26.9749 41.9882 25.8033 41.1371 25.7351 41.0874C23.9862 39.6991 23.6295 38.1503 23.6368 37.0929C23.6461 35.9476 24.0695 35.1331 24.088 35.0995L24.6588 35.4015L24.3734 35.2515L24.6588 35.4015C24.5978 35.5168 23.2103 38.2641 26.128 40.5776C26.1388 40.5853 28.0624 41.9716 29.9459 40.9809L32.7259 38.531L32.7653 38.5113C32.7776 38.5051 33.9993 37.8939 34.3776 36.5816C34.6614 35.5943 34.4096 34.452 33.6264 33.1868C33.5608 33.0911 31.8513 30.6412 29.0901 31.6257L28.1746 32.7923L27.6675 32.395L28.6952 31.0858L28.7789 31.0538C32.073 29.8055 34.1485 32.8058 34.1682 32.8362C35.061 34.2774 35.3371 35.597 34.9954 36.7682C34.572 38.2232 33.3391 38.9378 33.0904 39.0697L30.318 41.5135L30.2864 41.5316C29.7302 41.8328 29.1075 41.9898 28.475 41.9882Z" fill="#172B4D"/>
<path d="M27.9524 32.6504L28.8359 31.2475C30.3619 30.5495 32.4794 31.1518 33.7335 32.8278C35.1411 34.7074 35.0269 37.1786 33.4786 38.3363C33.2873 38.479 33.076 38.5985 32.85 38.6926L30.5956 40.7072C30.4845 40.8235 30.3642 40.9306 30.2358 41.0273C29.5555 41.534 28.6994 41.7253 27.7947 41.5734C27.6809 41.5546 27.5679 41.5309 27.4561 41.5024C26.4631 41.2459 25.5476 40.6116 24.8766 39.7153C23.7852 38.2557 23.577 36.3915 24.3575 35.073L27.8282 32.2713" fill="white"/>
<path d="M28.3844 41.9455C28.1735 41.9455 27.9579 41.9273 27.7404 41.8911C27.6175 41.8704 27.4955 41.8445 27.3748 41.8136C26.3093 41.539 25.3298 40.861 24.6163 39.9066C23.4475 38.3455 23.2304 36.3371 24.0776 34.9083L24.1077 34.8582L27.6239 32.0199L27.8168 32.2578L28.6135 30.9929L28.7018 30.9532C30.4156 30.1703 32.6881 30.8926 33.9927 32.6342C34.7177 33.6037 35.0883 34.7517 35.0371 35.867C34.9838 37.0062 34.4995 37.9741 33.6719 38.5931C33.4716 38.7418 33.2552 38.8674 33.0267 38.9676L30.8209 40.9397C30.7006 41.065 30.5702 41.1802 30.431 41.2841C29.8464 41.7195 29.1376 41.9455 28.3844 41.9455ZM24.6059 35.2858C23.9241 36.4902 24.1335 38.1847 25.1343 39.5213C25.7609 40.3586 26.6143 40.9521 27.5356 41.19C27.6421 41.2174 27.7469 41.2386 27.8468 41.2552C28.6713 41.3932 29.4303 41.2251 30.0407 40.7685C30.1529 40.6848 30.2605 40.5892 30.3596 40.4847L30.3778 40.4665L32.6731 38.4153L32.7232 38.3941C32.9221 38.3108 33.1102 38.2038 33.2836 38.0756C33.953 37.575 34.346 36.7802 34.3903 35.8365C34.4358 34.8686 34.1092 33.869 33.4733 33.0194C32.3711 31.5451 30.4884 30.905 29.0539 31.5008L28.2236 32.8208L27.9047 32.6203L24.6059 35.2858Z" fill="#172B4D"/>
<path d="M33.4769 38.3348C32.7966 38.843 31.9405 39.0324 31.0358 38.8824C30.9232 38.8642 30.811 38.84 30.6972 38.811C29.7042 38.5546 28.7887 37.9206 28.1177 37.024C26.9685 35.4887 26.7772 33.7198 27.6106 32.4337L33.4769 38.3348ZM30.3224 33.2316L28.9406 31.082L30.3224 33.2316Z" fill="white"/>
<path d="M31.627 39.255C31.4161 39.255 31.2005 39.2369 30.983 39.2002C30.8602 39.1792 30.7382 39.1534 30.6174 39.1227C29.5515 38.8481 28.5724 38.1702 27.859 37.2161C26.6249 35.5671 26.4259 33.6678 27.3399 32.2568L27.8817 32.6077C27.1182 33.7847 27.3079 35.4032 28.3765 36.8293C29.0036 37.6665 29.8554 38.2597 30.7783 38.498C30.8878 38.5254 30.9892 38.5466 31.0895 38.5632C31.914 38.7012 32.6729 38.5327 33.2834 38.0761L33.6705 38.5936C33.089 39.029 32.3798 39.255 31.6267 39.255H31.627ZM30.0509 33.4068L28.6696 31.2572L29.2133 30.9082L30.5947 33.0578L30.0509 33.4068Z" fill="#172B4D"/>
<path d="M29.5369 34.0992L27.4102 32.2666L29.5369 34.0992Z" fill="white"/>
<path d="M27.6246 32.0234L27.2031 32.5117L29.3291 34.3438L29.7503 33.8556L27.6246 32.0238V32.0234Z" fill="#172B4D"/>
<path d="M29.8833 33.1764C30.3916 32.9049 31.4467 33.316 32.0205 33.9913C32.7401 34.8362 32.8828 35.8963 32.3394 36.3576C31.7957 36.8188 30.7726 36.508 30.053 35.663C29.6492 35.1879 29.4275 34.6465 29.4062 34.1806C29.4062 34.1806 29.446 33.8077 29.5432 33.6604" fill="white"/>
<path d="M31.7063 36.8967C31.0854 36.8967 30.3673 36.5327 29.8058 35.8725C29.3716 35.363 29.1075 34.7514 29.0816 34.198L29.0801 34.1737L29.0832 34.1494C29.0936 34.043 29.141 33.6836 29.2698 33.4865L29.8101 33.8382C29.7831 33.8837 29.7449 34.0476 29.7283 34.1934C29.7542 34.6014 29.9605 35.0611 30.2975 35.4556C30.8895 36.1517 31.7294 36.4536 32.1285 36.1139C32.3669 35.9122 32.3576 35.557 32.3318 35.363C32.2805 34.982 32.0769 34.559 31.7734 34.2007C31.2709 33.6092 30.3658 33.2833 30.0334 33.4622L29.7283 32.8934C30.4283 32.5186 31.6442 33.0542 32.2651 33.7839C32.6522 34.2389 32.9041 34.7699 32.9727 35.2763C33.0487 35.8362 32.8967 36.3079 32.5473 36.6052C32.3152 36.8026 32.0237 36.8967 31.7067 36.8967H31.7063Z" fill="#172B4D"/>
</g>
</svg>
