<svg width="100" height="100" viewBox="0 0 100 100" fill="none" xmlns="http://www.w3.org/2000/svg">
    <path opacity="0.5" fillRule="evenodd" clipRule="evenodd"
        d="M12.679 65.7611C9.46072 59.7113 7.6373 52.8078 7.6373 45.4788C7.6373 21.5775 27.0301 2.20166 50.9523 2.20166C74.8745 2.20166 94.2673 21.5775 94.2673 45.4788C94.2673 52.8078 92.4439 59.7113 89.2256 65.7611H12.679Z"
        fill="#E2B203" />
    <mask id="mask0_4384_133695" style="mask-type:alpha" maskUnits="userSpaceOnUse" x="31" y="0"
        width="53" height="66">
        <rect width="51.978" height="65.3345" transform="matrix(-1 0 0 1 83.0893 0.247803)"
            fill="#C4C4C4" />
    </mask>
    <g mask="url(#mask0_4384_133695)">
        <path d="M67.1613 73.8216L43.0339 74.236L35.8627 49.0112L59.7564 46.5945L67.1613 73.8216Z"
            fill="white" stroke="#101214" stroke-width="0.615023" stroke-miterlimit="10"
            stroke-linecap="round" stroke-linejoin="round" />
        <path d="M65.7634 69.1816L49.4788 69.7685L44.8045 52.9718L61.0494 51.3408" stroke="#101214"
            stroke-width="0.615023" stroke-miterlimit="10" stroke-linecap="round"
            stroke-linejoin="round" />
        <path d="M43.3446 70.0479L47.5995 69.8977L45.394 62.5093L41.1721 62.792L43.3446 70.0479Z"
            stroke="#101214" stroke-width="0.615023" stroke-miterlimit="10" stroke-linecap="round"
            stroke-linejoin="round" />
        <path d="M67.0477 73.9564L82.5309 65.8083L75.0364 39.3347L59.6158 46.6054L67.0477 73.9564Z"
            fill="white" stroke="#101214" stroke-width="0.615023" stroke-miterlimit="10"
            stroke-linecap="round" stroke-linejoin="round" />
        <path
            d="M40.0965 55.3907C39.8905 54.5373 40.343 53.6961 41.1074 53.5119C41.8717 53.3277 42.6584 53.8701 42.8645 54.7236C43.0705 55.577 42.6179 56.4181 41.8536 56.6024C41.0892 56.7866 40.3026 56.2441 40.0965 55.3907Z"
            fill="white" stroke="#101214" stroke-width="0.615023" stroke-miterlimit="10"
            stroke-linecap="round" stroke-linejoin="round" />
        <path
            d="M41.4659 60.0469C41.2598 59.1935 41.7124 58.3523 42.4768 58.1681C43.2411 57.9839 44.0278 58.5264 44.2338 59.3798C44.4399 60.2332 43.9873 61.0744 43.223 61.2586C42.4586 61.4428 41.6719 60.9004 41.4659 60.0469Z"
            fill="white" stroke="#101214" stroke-width="0.615023" stroke-miterlimit="10"
            stroke-linecap="round" stroke-linejoin="round" />
        <path d="M74.7065 39.3347L59.4204 46.654L35.5832 49.107L52.7386 41.7949L74.7065 39.3347Z"
            fill="white" stroke="#101214" stroke-width="0.615023" stroke-miterlimit="10"
            stroke-linecap="round" stroke-linejoin="round" />
        <path
            d="M59.3369 43.7265C58.3717 44.9077 54.3919 45.3502 53.1776 44.4117C53.0458 43.2287 52.63 39.7406 52.63 39.7406L58.7892 39.0554C58.7892 39.0554 59.1903 42.3937 59.3369 43.7265Z"
            fill="white" stroke="#101214" stroke-width="0.615023" stroke-miterlimit="10"
            stroke-linecap="round" stroke-linejoin="round" />
        <path d="M57.939 43.5234L34.8763 42.8608L32.5089 19.7521L55.7714 18.9531L57.939 43.5234Z"
            fill="white" stroke="#101214" stroke-width="0.615023" stroke-miterlimit="10"
            stroke-linecap="round" stroke-linejoin="round" />
        <path d="M58.1472 43.5238L74.7065 39.0058L72.2086 15.0447L55.9832 18.9205L58.1472 43.5238Z"
            fill="white" stroke="#101214" stroke-width="0.615023" stroke-miterlimit="10"
            stroke-linecap="round" stroke-linejoin="round" />
        <path d="M72.4707 15.0447L56.062 18.9821L32.5091 19.7912L50.0576 15.2555L72.4707 15.0447Z"
            fill="white" stroke="#101214" stroke-width="0.615023" stroke-miterlimit="10"
            stroke-linecap="round" stroke-linejoin="round" />
        <path d="M43.4075 62.7883L45.3637 69.7685" stroke="#101214" stroke-width="0.615023"
            stroke-miterlimit="10" stroke-linecap="round" stroke-linejoin="round" />
        <path d="M45.9223 64.4641L42.01 64.7433" stroke="#101214" stroke-width="0.615023"
            stroke-miterlimit="10" stroke-linecap="round" stroke-linejoin="round" />
        <path
            d="M48.6119 57.2024L59.3856 56.3775C59.5406 56.3655 59.6481 56.2204 59.6076 56.0735L59.1302 54.3126C59.0985 54.1982 58.9876 54.1213 58.8661 54.1333L48.1064 55.0983C47.9514 55.1119 47.8475 55.2588 47.888 55.404L48.3512 57.0231C48.3829 57.1375 48.4921 57.2127 48.6119 57.2024Z"
            fill="#101214" />
        <path
            d="M51.5137 15.5468C50.0419 16.9995 47.8601 15.7193 46.835 14.8498L47.0094 13.6816C46.9649 13.9732 46.4061 13.879 46.0039 14.0088C45.6018 14.1386 43.8933 12.6592 43.0907 11.9018L44.0197 10.4864C43.573 10.5398 42.5105 10.9789 42.0087 11.1425C41.5584 11.2883 40.4533 10.0739 39.761 9.37334L41.1046 8.3794L39.3446 8.95372C38.7413 9.15108 37.8177 7.96867 37.4315 7.35346L38.6114 5.85632C37.9974 5.96478 36.7196 6.19593 36.5185 6.26172C36.3174 6.32751 33.906 4.86949 33.0856 2.35708C36.5239 0.957738 37.8052 1.11776 38.3053 1.51072L39.3001 2.85316L39.7254 1.60318C40.5298 1.34002 43.064 2.73759 44.2297 3.47015L44.4664 5.89366L45.4772 4.7308C46.0111 5.00107 47.6964 6.41641 48.4741 7.08852L47.7088 9.00528C48.0737 8.70123 48.903 8.05935 49.3052 7.92955C49.7074 7.79797 50.4673 9.21865 50.8801 10.1948L50.3729 11.1941L51.5421 11.3683C53.1972 13.8861 52.076 14.9938 51.5137 15.5468Z"
            fill="white" stroke="#101214" stroke-width="0.615023" stroke-linecap="round"
            stroke-linejoin="round" />
        <path
            d="M49.4363 13.4458C45.5318 9.1606 40.7286 6.09343 37.2013 4.09488C37.0697 3.69304 37.4274 3.65036 37.6213 3.68059L43.2022 7.14071C46.701 9.33485 50.7746 13.2875 51.8459 15.7181L52.5898 17.1424C52.4207 17.4749 51.8067 17.5833 51.5843 17.4695C51.0931 15.9635 49.8509 13.8672 49.4363 13.4458Z"
            fill="#101214" />
        <path
            d="M48.9865 32.3004C48.7262 30.8765 49.3663 29.5669 50.4163 29.3753C51.4663 29.1836 52.5285 30.1825 52.7889 31.6064C53.0492 33.0303 52.4091 34.3399 51.3591 34.5316C50.3091 34.7232 49.2469 33.7243 48.9865 32.3004Z"
            fill="white" stroke="#101214" stroke-width="0.615023" stroke-miterlimit="10"
            stroke-linecap="round" stroke-linejoin="round" />
        <path
            d="M37.0599 32.2071C36.7996 30.7833 37.4397 29.4736 38.4897 29.282C39.5397 29.0904 40.6019 30.0893 40.8622 31.5132C41.1226 32.937 40.4824 34.2467 39.4324 34.4383C38.3825 34.6299 37.3202 33.631 37.0599 32.2071Z"
            fill="white" stroke="#101214" stroke-width="0.615023" stroke-miterlimit="10"
            stroke-linecap="round" stroke-linejoin="round" />
    </g>
    <path d="M0.422457 65.8774H99.5775" stroke="#101214" stroke-width="0.615023"
        stroke-miterlimit="10" stroke-linecap="round" stroke-linejoin="round" />
    <path
        d="M62.2994 65.6517C62.684 65.6517 62.9958 65.3401 62.9958 64.9558V64.0938C62.9958 63.7095 62.684 63.3979 62.2994 63.3979H40.8041V65.6534H62.2994V65.6517Z"
        fill="#B3B9C4" />
    <path
        d="M41.151 63.742V65.305H62.2997C62.492 65.305 62.6497 65.1475 62.6497 64.9554V64.0934C62.6497 63.9012 62.492 63.7437 62.2997 63.7437H41.151V63.742ZM40.458 63.0496H62.2997C62.8767 63.0496 63.3427 63.5169 63.3427 64.0916V64.9537C63.3427 65.5301 62.8749 65.9957 62.2997 65.9957H40.458V63.0496Z"
        fill="#101214" />
    <path
        d="M40.9453 65.9921H12.8925C12.1614 65.9921 11.5671 65.4001 11.5671 64.6679V63.6172H40.9453V65.9921Z"
        fill="#101214" />
    <path
        d="M39.8147 64.6735H11.3773C10.2876 64.6735 9.30697 64.0088 8.90503 62.9961L1.43444 44.1508C1.09487 43.2922 1.71164 42.3575 2.63507 42.3332L31.024 41.5699C32.1519 41.5387 33.1775 42.2242 33.5794 43.2784L41.057 62.8715C41.3879 63.7422 40.7451 64.6735 39.8147 64.6735Z"
        fill="#F7F8F9" stroke="#101214" stroke-width="0.615023" />
    <path
        d="M18.6898 51.2962C17.5118 52.3564 17.51 54.4362 18.8841 55.9602C20.2582 57.4843 22.3287 57.699 23.5067 56.6388C24.6846 55.5786 24.6864 53.4988 23.3123 51.9747C21.9383 50.4507 19.8678 50.236 18.6898 51.2962Z"
        stroke="black" stroke-width="0.8" />
    <path
        d="M70.1081 47.6541C71.8987 47.8161 72.8515 49.1465 72.9115 50.5986C73.0628 54.2698 72.3428 57.9131 72.3428 57.9131C70.6966 64.2734 66.2237 64.8587 62.8133 64.6417L56.4317 64.3587L55.984 59.0254L63.188 59.1228C65.009 59.1465 66.5147 57.7084 66.5679 55.889C66.6256 53.9162 66.7231 51.5674 66.8868 50.4016C67.1429 48.7535 68.2095 47.4827 70.1081 47.6541Z"
        fill="white" stroke="#101214" stroke-width="0.615023" stroke-miterlimit="10"
        stroke-linecap="round" stroke-linejoin="round" />
    <path
        d="M52.5575 58.2843C50.0944 58.17 48.0668 58.7584 48.0269 59.5981L47.8353 63.7181C47.7954 64.5579 49.7603 65.3325 52.2235 65.4468C54.6866 65.561 56.7142 64.9726 56.7541 64.1329L56.9458 60.0129C56.9841 59.1713 55.019 58.3983 52.5575 58.2843Z"
        fill="white" stroke="#101214" stroke-width="0.615023" stroke-miterlimit="10"
        stroke-linecap="round" stroke-linejoin="round" />
    <path
        d="M48.0388 59.2368C48.0872 58.1959 50.1232 57.4448 52.5863 57.5592C55.0495 57.6735 57.007 58.6101 56.9586 59.6509C56.9102 60.6918 54.8741 61.4429 52.411 61.3286C49.9479 61.2142 47.9904 60.2777 48.0388 59.2368Z"
        fill="white" stroke="#101214" stroke-width="0.615023" stroke-miterlimit="10"
        stroke-linecap="round" stroke-linejoin="round" />
    <path
        d="M52.8532 58.7545C52.8429 58.7533 52.8329 58.7503 52.8224 58.7508L48.289 58.5398L48.225 59.8993L52.5794 60.101L52.7587 60.1086C52.7689 60.1098 52.7779 60.1074 52.7883 60.1069C53.977 60.1313 54.3924 59.859 54.4088 59.5045C54.427 59.1502 54.0397 58.8409 52.8532 58.7545Z"
        fill="#101214" />
    <path d="M66.6494 53.2336C66.6494 53.2336 71.2757 52.2063 72.5826 55.0205L66.6494 53.2336Z"
        fill="white" />
    <path d="M66.6494 53.2336C66.6494 53.2336 71.2757 52.2063 72.5826 55.0205" stroke="#101214"
        stroke-width="0.615023" stroke-miterlimit="10" stroke-linecap="round"
        stroke-linejoin="round" />
    <path d="M65.8774 58.0887C67.646 58.6946 70.1102 61.6661 69.2129 63.0713" stroke="#101214"
        stroke-width="0.615023" stroke-miterlimit="10" stroke-linecap="round"
        stroke-linejoin="round" />
    <path d="M61.0147 59.2793C61.0147 59.2793 62.3862 61.7569 61.5991 64.4265" stroke="#101214"
        stroke-width="0.615023" stroke-miterlimit="10" stroke-linecap="round"
        stroke-linejoin="round" />
    <path fillRule="evenodd" clipRule="evenodd"
        d="M36.3031 94.8236L36.3162 94.8108L27.1287 79.3822L27.1156 79.3951C26.8925 79.0093 26.4856 78.7522 26 78.7522C25.5144 78.7522 25.1206 79.0093 24.8844 79.3951L24.8713 79.3822L15.6838 94.8108L15.6969 94.8236C15.5787 95.0165 15.5 95.2222 15.5 95.4665C15.5 96.1736 16.0906 96.7522 16.8125 96.7522H35.1875C35.9094 96.7522 36.5 96.1736 36.5 95.4665C36.5 95.2222 36.4212 95.0165 36.3031 94.8236ZM27.3123 92.895C27.3123 93.6051 26.7366 94.1807 26.0265 94.1807H25.973C25.2629 94.1807 24.6873 93.6051 24.6873 92.895C24.6873 92.1849 25.2629 91.6093 25.973 91.6093H26.0265C26.7366 91.6093 27.3123 92.1849 27.3123 92.895ZM25.9998 90.3108C26.7246 90.3108 27.3123 89.7232 27.3123 88.9983V85.1948C27.3123 84.4699 26.7246 83.8823 25.9998 83.8823C25.2749 83.8823 24.6873 84.4699 24.6873 85.1948V88.9983C24.6873 89.7232 25.2749 90.3108 25.9998 90.3108Z"
        fill="#CF9F02" />
    <path opacity="0.5"
        d="M45.85 89.4022C45.6917 89.5605 45.5104 89.5959 45.3063 89.5084C45.1021 89.4209 45 89.2647 45 89.0397V86.4647C45 86.2397 45.1021 86.0834 45.3063 85.9959C45.5104 85.9084 45.6917 85.9439 45.85 86.1022L47.15 87.4022C47.2 87.4522 47.2375 87.5064 47.2625 87.5647C47.2875 87.623 47.3 87.6855 47.3 87.7522C47.3 87.8189 47.2875 87.8814 47.2625 87.9397C47.2375 87.998 47.2 88.0522 47.15 88.1022L45.85 89.4022Z"
        fill="#2C3E5D" />
    <path opacity="0.8"
        d="M49.85 89.4022C49.6917 89.5605 49.5104 89.5959 49.3063 89.5084C49.1021 89.4209 49 89.2647 49 89.0397V86.4647C49 86.2397 49.1021 86.0834 49.3063 85.9959C49.5104 85.9084 49.6917 85.9439 49.85 86.1022L51.15 87.4022C51.2 87.4522 51.2375 87.5064 51.2625 87.5647C51.2875 87.623 51.3 87.6855 51.3 87.7522C51.3 87.8189 51.2875 87.8814 51.2625 87.9397C51.2375 87.998 51.2 88.0522 51.15 88.1022L49.85 89.4022Z"
        fill="#2C3E5D" />
    <path
        d="M53.85 89.4022C53.6917 89.5605 53.5104 89.5959 53.3063 89.5084C53.1021 89.4209 53 89.2647 53 89.0397V86.4647C53 86.2397 53.1021 86.0834 53.3063 85.9959C53.5104 85.9084 53.6917 85.9439 53.85 86.1022L55.15 87.4022C55.2 87.4522 55.2375 87.5064 55.2625 87.5647C55.2875 87.623 55.3 87.6855 55.3 87.7522C55.3 87.8189 55.2875 87.8814 55.2625 87.9397C55.2375 87.998 55.2 88.0522 55.15 88.1022L53.85 89.4022Z"
        fill="#2C3E5D" />
    <path
        d="M73.9999 98.7522C80.0746 98.7522 84.9999 93.8273 84.9999 87.7531C85.0017 81.6771 80.0764 76.7522 73.9999 76.7522C67.9251 76.7522 62.9999 81.6771 62.9999 87.7513C62.9999 93.8273 67.9251 98.7522 73.9999 98.7522Z"
        fill="#758195" />
    <path fillRule="evenodd" clipRule="evenodd"
        d="M76.3421 79.4269C75.5974 80.2202 74.3508 82.3067 73.8741 84.0118C73.6654 83.8733 73.428 83.501 73.5845 82.7779C73.5881 82.7671 73.5989 82.7581 73.6096 82.7617L73.8993 82.7869C73.9208 82.7887 73.9316 82.7617 73.9154 82.7473L73.6564 82.4991C73.651 82.4937 73.6474 82.4883 73.6474 82.4829C73.6582 82.2167 73.7086 81.6897 73.8255 81.553C73.8327 81.544 73.8453 81.544 73.8543 81.5494L74.2338 81.803C74.2536 81.8174 74.2788 81.7922 74.2644 81.7724L73.9766 81.3462C73.9694 81.3408 73.9694 81.3336 73.973 81.3246C74.1403 80.9846 74.4857 80.3119 74.626 80.1806C74.635 80.1716 74.6458 80.1752 74.6548 80.1806L74.9282 80.4072C74.948 80.4216 74.9732 80.4036 74.9642 80.382L74.7681 79.8874C74.7663 79.882 74.7663 79.873 74.7717 79.8676C75.0092 79.5223 75.5704 78.8352 75.9949 78.7488C76.0039 78.7452 76.0147 78.7506 76.0201 78.7596L76.1712 79.024C76.182 79.0456 76.2162 79.0348 76.2126 79.0096L76.173 78.5941C76.173 78.5869 76.1748 78.5779 76.1838 78.5725C76.4213 78.4484 77.0724 78.2308 77.9017 78.2704C77.9179 78.2668 77.9269 78.2812 77.9233 78.2955L77.3657 79.9953C77.3639 80.0061 77.3531 80.0115 77.3441 80.0115L76.9285 79.9773C76.9033 79.9737 76.8944 80.0079 76.9141 80.0187L77.2793 80.2417C77.2919 80.2471 77.2937 80.2615 77.2883 80.2723L76.9303 80.8839C76.9285 80.8893 76.9195 80.8947 76.9141 80.8947L76.4123 80.9396C76.3871 80.9432 76.3853 80.9738 76.4069 80.9846L76.772 81.1357C76.7864 81.1411 76.7918 81.1555 76.7828 81.1699L76.4087 81.8228C76.4069 81.8282 76.3979 81.8336 76.3925 81.8336L75.7647 81.8894C75.7413 81.8912 75.7359 81.9199 75.7557 81.9307L76.0849 82.1088C76.0957 82.1142 76.0993 82.1286 76.0957 82.1394C75.9661 82.3948 75.6729 82.929 75.4247 82.9848L75.0199 83.0909C74.9984 83.0963 74.9984 83.1305 75.0199 83.1359L75.3545 83.2204C75.3671 83.2222 75.3761 83.2402 75.3707 83.251C75.1764 83.6755 74.7771 84.2061 74.1205 84.091C74.5253 82.4056 75.4229 80.7975 76.4554 79.4935L76.5022 79.4719L76.5076 79.4701L76.5023 79.4674L76.5025 79.4683C76.5029 79.4699 76.5033 79.4715 76.5021 79.4715L76.3599 79.4049L76.5003 79.4654C76.4964 79.4329 76.4797 79.3819 76.4033 79.3802C76.3871 79.3802 76.3691 79.3892 76.3583 79.4053L76.3421 79.4269ZM75.6456 92.2011H72.2781V92.8433H75.6456V92.2011ZM68.1338 91.424V84.5277C68.1338 84.3586 68.2706 84.2219 68.4397 84.2219H79.5638C79.7329 84.2219 79.8696 84.3586 79.8696 84.5277V91.424C79.8696 91.593 79.7329 91.7297 79.5638 91.7297H68.4397C68.2706 91.7297 68.1338 91.593 68.1338 91.424ZM69.9057 88.019C69.9057 88.5658 70.3482 89.0083 70.8951 89.0083C71.4419 89.0083 71.8845 88.564 71.8845 88.019C71.8845 87.4722 71.4419 87.0297 70.8951 87.0297C70.3482 87.0297 69.9057 87.4722 69.9057 88.019ZM76.1208 88.019C76.1208 88.5658 76.5633 89.0083 77.1101 89.0083C77.657 89.0083 78.0995 88.564 78.0995 88.019C78.0995 87.4722 77.657 87.0297 77.1101 87.0297C76.5633 87.0297 76.1208 87.4722 76.1208 88.019ZM66.7928 96.0573C67.1742 96.3882 67.5771 96.694 68.0016 96.9692V95.0626C67.6545 95.0626 67.1112 95.3773 66.7928 96.0573ZM74.0027 98.7522C71.988 98.7522 70.1028 98.2072 68.4784 97.2629V95.5505H74.8823V98.7144C74.5927 98.7378 74.2995 98.7522 74.0027 98.7522ZM69.8437 96.0919H69.4084C69.2825 96.0919 69.1799 96.1926 69.1799 96.3203C69.1799 96.4462 69.2825 96.5488 69.4084 96.5488H73.9523C74.0782 96.5488 74.1808 96.4462 74.1808 96.3203C74.1808 96.1944 74.0782 96.0919 73.9523 96.0919H69.8437ZM68.7862 93.3239H79.2195C79.3886 93.3239 79.5253 93.4606 79.5253 93.6297V94.7827V97.2631C78.2715 97.9934 76.863 98.4808 75.3592 98.6661V95.2215V95.0741H75.2117H68.4803V94.7827V93.6297C68.4803 93.4606 68.6171 93.3239 68.7862 93.3239ZM76.309 96.1893C76.309 96.8044 76.8073 97.3045 77.4243 97.3045C78.0395 97.3045 78.5395 96.8062 78.5395 96.1893C78.5395 95.5741 78.0413 95.0741 77.4243 95.0741C76.809 95.0741 76.309 95.5723 76.309 96.1893ZM76.7836 96.1908C76.7836 95.8365 77.0714 95.5505 77.424 95.5505C77.7765 95.5505 78.0626 95.8365 78.0644 96.1908C78.0644 96.5452 77.7765 96.8312 77.424 96.8312C77.0696 96.8312 76.7836 96.5434 76.7836 96.1908ZM80.0018 95.0626C80.349 95.0626 80.8922 95.3773 81.2106 96.0573C80.8293 96.3882 80.4263 96.6922 80.0018 96.971V95.0626Z"
        fill="white" />
</svg>