<svg width="182" height="56" viewBox="0 0 182 56" fill="none" xmlns="http://www.w3.org/2000/svg">
<path d="M-13.3189 321.891C-84.0942 160.986 -45.3273 42.0618 70.0739 42.0617C100.045 31.3556 191.098 19.3001 226.499 59.1509C261.343 98.3757 254.292 274.086 248.27 360.631C248.089 363.228 246.659 365.508 244.414 366.826C205.884 389.437 126.044 427.409 87.7889 413.463H51.4531C32.4954 413.463 0.372746 352.415 -13.3189 321.891Z" fill="#FFEDBC"/>
<path d="M200.231 38.6849C107.031 57.278 125.258 20.2564 -5.98251 37.7866C-9.70091 38.2833 -12.4981 41.4783 -12.4981 45.3481L-12.4981 128.1C-12.4981 129.95 -11.8709 131.782 -10.7498 133.297C29.5405 187.74 46.3272 248.199 224.586 190.528C300.309 166.03 276.198 157.342 273.295 140.242C258.903 8.72442 234.448 33.5608 200.231 38.6849Z" fill="#FFDC7A" fillOpacity="0.59"/>
</svg>
