<svg width="81" height="22" viewBox="0 0 81 22" fill="none" xmlns="http://www.w3.org/2000/svg">
<path d="M10.5827 21.5531C16.3214 21.5531 20.9742 16.9006 20.9742 11.1624C20.9759 5.42246 16.3231 0.77002 10.5827 0.77002C4.84398 0.77002 0.191162 5.42246 0.191162 11.1607C0.191162 16.9006 4.84398 21.5531 10.5827 21.5531Z" fill="#C2C2C2"/>
<path d="M13.657 18.5947C13.3227 18.5947 13.0498 18.8659 13.0498 19.2019C13.0498 19.5362 13.321 19.8091 13.657 19.8091C13.9913 19.8091 14.2643 19.5379 14.2643 19.2019C14.2626 18.8659 13.9913 18.5947 13.657 18.5947Z" fill="white"/>
<path fillRule="evenodd" clipRule="evenodd" d="M12.7835 3.34368L12.6487 3.28564L12.7835 3.3488C12.7852 3.3488 12.7835 3.34538 12.7835 3.34368Z" fill="white"/>
<path fillRule="evenodd" clipRule="evenodd" d="M10.2928 7.65371C10.7448 6.03684 11.9269 4.0584 12.633 3.30625L12.6484 3.28578C12.6586 3.27043 12.6757 3.2619 12.691 3.2619C12.7644 3.26361 12.7797 3.31307 12.7831 3.34377L12.79 3.34718L12.7849 3.34888L12.7405 3.36935C11.7614 4.60588 10.9103 6.13065 10.5265 7.72875C11.1491 7.83791 11.5278 7.33477 11.712 6.93226C11.7171 6.92203 11.7086 6.90497 11.6966 6.90326L11.3794 6.8231C11.3589 6.81799 11.3589 6.78558 11.3794 6.78047L11.7631 6.67984C11.9985 6.62697 12.2766 6.12041 12.3994 5.87823C12.4028 5.86799 12.3994 5.85435 12.3891 5.84923L12.077 5.68038C12.0582 5.67015 12.0633 5.64286 12.0855 5.64115L12.6808 5.58828C12.6859 5.58828 12.6945 5.58316 12.6962 5.57805L13.0509 4.95893C13.0595 4.94529 13.0544 4.93164 13.0407 4.92652L12.6945 4.78326C12.674 4.77302 12.6757 4.74403 12.6996 4.74062L13.1755 4.69798C13.1806 4.69798 13.1891 4.69286 13.1908 4.68775L13.5302 4.10786C13.5354 4.09762 13.5337 4.08398 13.5217 4.07886L13.1755 3.86737C13.1567 3.85714 13.1652 3.82473 13.1891 3.82815L13.5831 3.86055C13.5917 3.86055 13.6019 3.85543 13.6036 3.8452L14.1324 2.23345C14.1358 2.21981 14.1272 2.20616 14.1119 2.20957C13.3256 2.17205 12.7081 2.37842 12.4829 2.49611C12.4744 2.50122 12.4727 2.50975 12.4727 2.51657L12.5102 2.91056C12.5136 2.93443 12.4812 2.94467 12.471 2.9242L12.3277 2.67348C12.3226 2.66496 12.3124 2.65984 12.3038 2.66325C11.9013 2.74512 11.3691 3.39664 11.144 3.72411C11.1389 3.72922 11.1389 3.73775 11.1406 3.74287L11.3265 4.2119C11.335 4.23236 11.3111 4.24942 11.2924 4.23577L11.0331 4.02087C11.0246 4.01576 11.0143 4.01235 11.0058 4.02087C10.8728 4.14538 10.5453 4.78326 10.3866 5.10561C10.3832 5.11414 10.3832 5.12096 10.3901 5.12607L10.663 5.53029C10.6766 5.54905 10.6527 5.57293 10.634 5.55929L10.2741 5.3188C10.2655 5.31369 10.2536 5.31369 10.2468 5.32221C10.1359 5.45184 10.0881 5.95156 10.0779 6.20399C10.0779 6.2091 10.0813 6.21422 10.0864 6.21934L10.3321 6.4547C10.3474 6.46835 10.3372 6.49393 10.3167 6.49223L10.0421 6.46835C10.0319 6.46494 10.0216 6.47346 10.0182 6.4837C9.86982 7.16933 10.095 7.52238 10.2928 7.65371Z" fill="white"/>
<path d="M11.9699 15.4194H8.77686V16.0283H11.9699V15.4194Z" fill="white"/>
<path fillRule="evenodd" clipRule="evenodd" d="M4.84814 8.14346V14.6826C4.84814 14.8429 4.97778 14.9725 5.13811 14.9725H15.6861C15.8465 14.9725 15.9761 14.8429 15.9761 14.6826V8.14346C15.9761 7.98314 15.8465 7.85352 15.6861 7.85352H5.13811C4.97778 7.85352 4.84814 7.98314 4.84814 8.14346ZM7.46639 12.392C6.94786 12.392 6.52826 11.9724 6.52826 11.4539C6.52826 10.9355 6.94786 10.5159 7.46639 10.5159C7.98492 10.5159 8.40452 10.9355 8.40452 11.4539C8.40452 11.9707 7.98492 12.392 7.46639 12.392ZM13.3596 12.392C12.841 12.392 12.4214 11.9724 12.4214 11.4539C12.4214 10.9355 12.841 10.5159 13.3596 10.5159C13.8781 10.5159 14.2977 10.9355 14.2977 11.4539C14.2977 11.9707 13.8781 12.392 13.3596 12.392Z" fill="white"/>
<path d="M3.57642 19.076C3.93802 19.3898 4.3201 19.6798 4.72264 19.9407V18.1328C4.39344 18.1328 3.87832 18.4313 3.57642 19.076Z" fill="white"/>
<path d="M5.1748 20.2184C6.71505 21.1138 8.50262 21.6306 10.413 21.6306C10.6944 21.6306 10.9725 21.617 11.2471 21.5948V18.5947H5.1748V20.2184ZM6.05665 19.1081H6.46943H10.3652C10.4846 19.1081 10.5819 19.2053 10.5819 19.3247C10.5819 19.4441 10.4846 19.5413 10.3652 19.5413H6.05665C5.93725 19.5413 5.84003 19.4441 5.84003 19.3247C5.84003 19.2036 5.93725 19.1081 6.05665 19.1081Z" fill="white"/>
<path d="M15.3595 16.4834H5.46648C5.30615 16.4834 5.17651 16.613 5.17651 16.7733V17.8666V18.1429H11.5592H11.6991V18.2828V21.5489C13.1251 21.3732 14.4606 20.911 15.6495 20.2186V17.8666V16.7733C15.6495 16.613 15.5199 16.4834 15.3595 16.4834ZM13.6572 20.2578C13.0722 20.2578 12.5997 19.7837 12.5997 19.2004C12.5997 18.6153 13.0739 18.1429 13.6572 18.1429C14.2423 18.1429 14.7148 18.6171 14.7148 19.2004C14.7148 19.7854 14.2406 20.2578 13.6572 20.2578Z" fill="white"/>
<path d="M17.2471 19.076C16.9452 18.4313 16.43 18.1328 16.1008 18.1328V19.9424C16.5034 19.678 16.8855 19.3898 17.2471 19.076Z" fill="white"/>
<path d="M30.7996 16.4489C31.3649 16.5974 31.9523 16.7978 32.5619 17.0502C33.8351 17.5748 34.7544 17.8371 35.3197 17.8371C35.5114 17.8371 35.8014 17.7876 36.1898 17.6886V18.0746C35.6392 18.3617 35.2312 18.6339 34.9657 18.8912C34.5381 18.8368 34.1522 18.7625 33.8081 18.6685C33.464 18.5794 32.9404 18.4037 32.2375 18.1414C31.0773 17.7158 30.2982 17.503 29.9 17.503C29.7869 17.503 29.6665 17.5278 29.5387 17.5773C29.4158 17.6267 29.1036 17.7925 28.6022 18.0746V17.5847C29.4428 17.0155 30.045 16.6369 30.4088 16.4489C29.2978 16.4489 28.349 16.2287 27.5625 15.7882C26.776 15.3428 26.1615 14.7093 25.7191 13.8878C25.2766 13.0662 25.0554 12.1036 25.0554 11C25.0554 9.38664 25.5765 8.08257 26.6187 7.08782C27.6608 6.09307 29.0495 5.59569 30.7848 5.59569C32.4857 5.59569 33.8179 6.05843 34.7814 6.98389C35.7498 7.90441 36.234 9.13177 36.234 10.666C36.234 11.8438 35.9489 12.8782 35.3787 13.769C34.8133 14.6549 34.0711 15.3354 33.1518 15.8105C32.4931 16.1519 31.709 16.3647 30.7996 16.4489ZM26.6113 10.3987C26.6113 11.5122 26.8005 12.4822 27.1791 13.3087C27.5576 14.1352 28.0639 14.7563 28.6981 15.172C29.3322 15.5828 30.0573 15.7882 30.8733 15.7882C31.6303 15.7882 32.2915 15.6125 32.8568 15.2611C33.4222 14.9097 33.8671 14.3876 34.1915 13.6948C34.5159 13.0019 34.6782 12.1556 34.6782 11.1559C34.6782 10.1067 34.4987 9.21095 34.1399 8.4686C33.781 7.72625 33.2894 7.16948 32.6651 6.7983C32.0408 6.42218 31.301 6.23412 30.4456 6.23412C29.664 6.23412 28.9905 6.39991 28.4252 6.73149C27.8599 7.06308 27.415 7.54808 27.0906 8.1865C26.771 8.82493 26.6113 9.56233 26.6113 10.3987Z" fill="#C2C2C2"/>
<path d="M42.4725 16.3078L42.561 14.9716L42.1259 15.4467C41.7868 15.8179 41.4402 16.0802 41.0862 16.2336C40.7372 16.3821 40.3046 16.4563 39.7885 16.4563C39.346 16.4563 38.9651 16.3623 38.6455 16.1742C38.326 15.9862 38.0925 15.7436 37.945 15.4467C37.8025 15.1448 37.7312 14.6697 37.7312 14.0214C37.7312 13.6849 37.7386 13.2939 37.7533 12.8485L37.7754 11.6533C37.7754 10.8169 37.7509 10.3517 37.7017 10.2577C37.6575 10.1636 37.5026 10.1166 37.2372 10.1166H36.5809V9.70833C37.2494 9.64894 37.8664 9.52521 38.4317 9.33715L39.0437 9.10702C39.1273 9.10702 39.1691 9.16888 39.1691 9.29261L39.1175 10.0498C39.0486 11.099 39.0142 12.074 39.0142 12.9747C39.0142 13.8754 39.0511 14.452 39.1248 14.7044C39.1986 14.9518 39.3534 15.1597 39.5894 15.3279C39.8253 15.4912 40.1129 15.5729 40.4521 15.5729C40.9093 15.5729 41.3271 15.4244 41.7056 15.1275C42.0891 14.8306 42.3398 14.5311 42.4578 14.2293C42.5217 14.056 42.5536 13.5339 42.5536 12.6629C42.5536 11.198 42.5266 10.4012 42.4725 10.2725C42.4234 10.1686 42.2021 10.1166 41.8089 10.1166H41.2263V9.70833C41.7327 9.64894 42.1628 9.57965 42.5168 9.50047C42.8707 9.42128 43.2443 9.30251 43.6376 9.14414C43.6867 9.11939 43.731 9.10702 43.7703 9.10702C43.8539 9.10702 43.8956 9.15404 43.8956 9.24807L43.8662 9.93845C43.7924 11.631 43.7555 13.1207 43.7555 14.4074C43.7555 15.13 43.7924 15.5432 43.8662 15.6471C43.9743 15.8006 44.2078 15.8773 44.5667 15.8773H44.9943V16.3078C44.3799 16.2732 43.8588 16.2559 43.4311 16.2559C43.1116 16.2559 42.792 16.2732 42.4725 16.3078Z" fill="#C2C2C2"/>
<path d="M47.2952 5.81098C47.5214 5.81098 47.7155 5.89511 47.8778 6.06338C48.04 6.22669 48.1211 6.42465 48.1211 6.65726C48.1211 6.88986 48.04 7.08782 47.8778 7.25114C47.7155 7.41446 47.5214 7.49612 47.2952 7.49612C47.0642 7.49612 46.8676 7.41446 46.7053 7.25114C46.5431 7.08782 46.462 6.88986 46.462 6.65726C46.462 6.42465 46.5431 6.22669 46.7053 6.06338C46.8676 5.89511 47.0642 5.81098 47.2952 5.81098ZM47.8851 9.0996L48.0621 9.21095C48.0277 9.58213 48.0056 9.99042 47.9957 10.4358C47.9613 11.8809 47.9441 12.9475 47.9441 13.6354C47.9441 14.2787 47.9663 14.8281 48.0105 15.2834C48.0302 15.4616 48.0769 15.5853 48.1506 15.6546C48.2243 15.7239 48.4013 15.7758 48.6815 15.8105L49.1829 15.8773V16.3078C48.4652 16.2732 47.8114 16.2559 47.2215 16.2559C46.6414 16.2559 46.0564 16.2732 45.4666 16.3078V15.8773L46.1007 15.8105C46.3465 15.7907 46.4964 15.7461 46.5505 15.6768C46.6095 15.6026 46.6464 15.3626 46.6611 14.9568C46.6857 14.3282 46.698 13.4622 46.698 12.3585C46.698 11.5914 46.6857 11 46.6611 10.5843C46.6513 10.4309 46.607 10.322 46.5284 10.2577C46.4546 10.1933 46.285 10.1612 46.0196 10.1612H45.4666V9.72317C46.0663 9.63409 46.5063 9.55243 46.7865 9.4782C47.0716 9.40396 47.4378 9.27776 47.8851 9.0996Z" fill="#C2C2C2"/>
<path d="M52.118 5.28391C52.0344 6.73397 51.9926 8.04546 51.9926 9.21837V13.0341C51.9926 14.5485 52.0246 15.4071 52.0885 15.61C52.1229 15.714 52.2851 15.7808 52.5751 15.8105L53.2019 15.8773V16.3078C52.6661 16.2732 52.1548 16.2559 51.6682 16.2559C51.1274 16.2559 50.4195 16.2732 49.5445 16.3078V15.8773L50.1787 15.8253C50.4589 15.8006 50.6186 15.7288 50.658 15.61C50.7219 15.417 50.7538 14.5386 50.7538 12.9747V9.18126L50.7465 7.75594L50.7243 6.78346C50.7243 6.54096 50.6973 6.39249 50.6432 6.33805C50.5646 6.25886 50.3999 6.21927 50.1492 6.21927H49.5445V5.77386C50.567 5.67983 51.3831 5.48682 51.9926 5.19482L52.118 5.28391Z" fill="#C2C2C2"/>
<path d="M56.2107 5.28391C56.1271 6.73397 56.0853 8.04546 56.0853 9.21837V13.0341C56.0853 14.5485 56.1173 15.4071 56.1812 15.61C56.2156 15.714 56.3778 15.7808 56.6679 15.8105L57.2946 15.8773V16.3078C56.7588 16.2732 56.2476 16.2559 55.7609 16.2559C55.2202 16.2559 54.5123 16.2732 53.6373 16.3078V15.8773L54.2714 15.8253C54.5516 15.8006 54.7114 15.7288 54.7507 15.61C54.8146 15.417 54.8466 14.5386 54.8466 12.9747V9.18126L54.8392 7.75594L54.8171 6.78346C54.8171 6.54096 54.79 6.39249 54.7359 6.33805C54.6573 6.25886 54.4926 6.21927 54.2419 6.21927H53.6373V5.77386C54.6597 5.67983 55.4758 5.48682 56.0853 5.19482L56.2107 5.28391Z" fill="#C2C2C2"/>
<path d="M58.7695 5.6167H62.4992C62.9641 5.6167 63.3937 5.67143 63.7878 5.78088C64.1921 5.89033 64.5358 6.05452 64.8188 6.27342C65.1119 6.48238 65.3393 6.75602 65.501 7.09433C65.6729 7.42269 65.7588 7.81076 65.7588 8.25852C65.7588 8.8655 65.587 9.36302 65.2433 9.75108C64.8997 10.1292 64.4549 10.4078 63.9091 10.5869V10.6168C64.2326 10.6367 64.5358 10.7212 64.8188 10.8705C65.1018 11.0098 65.3444 11.1989 65.5465 11.4377C65.7588 11.6665 65.9255 11.9352 66.0468 12.2436C66.1681 12.5521 66.2288 12.8854 66.2288 13.2437C66.2288 13.7213 66.1277 14.1442 65.9255 14.5123C65.7335 14.8705 65.4657 15.174 65.122 15.4228C64.7784 15.6716 64.3791 15.8606 63.9243 15.99C63.4695 16.1193 62.9793 16.184 62.4537 16.184H58.7695V5.6167ZM60.225 10.0048H62.2111C62.484 10.0048 62.7417 9.97994 62.9843 9.93019C63.2269 9.87048 63.4391 9.77596 63.6211 9.6466C63.803 9.51725 63.9445 9.35307 64.0456 9.15406C64.1568 8.95505 64.2124 8.71127 64.2124 8.4227C64.2124 8.00479 64.0759 7.6416 63.803 7.33314C63.5301 7.02468 63.1005 6.87045 62.5143 6.87045H60.225V10.0048ZM60.225 14.9303H62.3627C62.5851 14.9303 62.8276 14.9103 63.0904 14.8705C63.3633 14.8208 63.616 14.7312 63.8485 14.6019C64.081 14.4626 64.278 14.2785 64.4398 14.0496C64.6015 13.8208 64.6823 13.5173 64.6823 13.1392C64.6823 12.5123 64.4751 12.0446 64.0607 11.7362C63.6463 11.4178 63.0854 11.2586 62.3779 11.2586H60.225V14.9303Z" fill="#C2C2C2"/>
<path d="M68.7741 12.6466C68.7741 13.0049 68.8296 13.3382 68.9408 13.6467C69.052 13.9452 69.2087 14.2039 69.4108 14.4228C69.613 14.6317 69.8606 14.8009 70.1537 14.9303C70.4468 15.0497 70.7753 15.1094 71.1392 15.1094C71.503 15.1094 71.8315 15.0497 72.1246 14.9303C72.4178 14.8009 72.6654 14.6317 72.8675 14.4228C73.0697 14.2039 73.2263 13.9452 73.3375 13.6467C73.4487 13.3382 73.5043 13.0049 73.5043 12.6466C73.5043 12.2884 73.4487 11.9601 73.3375 11.6616C73.2263 11.3531 73.0697 11.0944 72.8675 10.8854C72.6654 10.6665 72.4178 10.4974 72.1246 10.378C71.8315 10.2486 71.503 10.1839 71.1392 10.1839C70.7753 10.1839 70.4468 10.2486 70.1537 10.378C69.8606 10.4974 69.613 10.6665 69.4108 10.8854C69.2087 11.0944 69.052 11.3531 68.9408 11.6616C68.8296 11.9601 68.7741 12.2884 68.7741 12.6466ZM67.3186 12.6466C67.3186 12.1292 67.4146 11.6466 67.6067 11.1989C67.8088 10.7511 68.0817 10.3581 68.4253 10.0197C68.769 9.68143 69.1733 9.41774 69.6382 9.22869C70.1032 9.02968 70.6035 8.93017 71.1392 8.93017C71.6749 8.93017 72.1752 9.02968 72.6401 9.22869C73.1051 9.41774 73.5094 9.68143 73.853 10.0197C74.1967 10.3581 74.4645 10.7511 74.6565 11.1989C74.8587 11.6466 74.9598 12.1292 74.9598 12.6466C74.9598 13.1641 74.8587 13.6516 74.6565 14.1093C74.4645 14.5571 74.1967 14.9502 73.853 15.2885C73.5094 15.6168 73.1051 15.8805 72.6401 16.0795C72.1752 16.2686 71.6749 16.3631 71.1392 16.3631C70.6035 16.3631 70.1032 16.2686 69.6382 16.0795C69.1733 15.8805 68.769 15.6168 68.4253 15.2885C68.0817 14.9502 67.8088 14.5571 67.6067 14.1093C67.4146 13.6516 67.3186 13.1641 67.3186 12.6466Z" fill="#C2C2C2"/>
<path d="M80.2169 10.2735H78.2611V13.4825C78.2611 13.6815 78.2661 13.8805 78.2762 14.0795C78.2864 14.2686 78.3217 14.4427 78.3824 14.6019C78.4531 14.7511 78.5542 14.8755 78.6856 14.975C78.8271 15.0646 79.0292 15.1094 79.292 15.1094C79.4538 15.1094 79.6205 15.0944 79.7924 15.0646C79.9642 15.0347 80.1208 14.98 80.2623 14.9004V16.1243C80.1006 16.2138 79.8884 16.2736 79.6256 16.3034C79.3729 16.3432 79.1758 16.3631 79.0343 16.3631C78.5087 16.3631 78.0994 16.2935 77.8063 16.1541C77.5232 16.0049 77.311 15.8158 77.1695 15.587C77.0381 15.3581 76.9572 15.1044 76.9269 14.8258C76.9067 14.5372 76.8966 14.2487 76.8966 13.9601V10.2735H75.3198V9.10928H76.8966V7.12418H78.2611V9.10928H80.2169V10.2735Z" fill="#C2C2C2"/>
</svg>
