<svg width="16" height="18" viewBox="0 0 16 18" fill="none" xmlns="http://www.w3.org/2000/svg">
<path d="M15.4663 15.4092L15.4663 2.28418C15.4663 1.24355 14.6226 0.40918 13.5913 0.40918L2.34131 0.409179C1.31006 0.409179 0.466309 1.24355 0.466309 2.28418L0.466308 6.03418L2.34131 6.03418L2.34131 2.28418L11.7163 2.28418L11.7163 15.4092L2.34131 15.4092L2.34131 11.6592L0.466308 11.6592L0.466308 15.4092C0.466308 16.4404 1.31006 17.2842 2.34131 17.2842L13.5913 17.2842C14.6226 17.2842 15.4663 16.4498 15.4663 15.4092ZM9.84131 8.84668L6.09131 5.09668L6.09131 7.90918L0.466308 7.90918L0.466308 9.78418L6.09131 9.78418L6.09131 12.5967L9.84131 8.84668Z" fill="#5F6368"/>
</svg>
