<svg width="18" height="20" viewBox="0 0 18 20" fill="none" xmlns="http://www.w3.org/2000/svg">
<path d="M7.87407 13.7295L9.62774 13.7295" stroke="#4C9459" strokeWidth="1.2"/>
<path d="M5.89722 9.60547V16.3185L8.4588 19.0041L11.1086 16.3185V11.3061" stroke="#4C9459" strokeWidth="1.2"/>
<path d="M10.9758 15.8625L10.0482 15.2808L9.16517 15.8625L8.28183 15.2808L7.53121 15.8625L6.64819 15.2808L6.02982 15.8625" stroke="#4C9459" strokeWidth="1.2"/>
<path d="M10.2244 2.89047L10.963 1.38672L11.747 2.89047L13.492 3.16323L12.192 4.44502L12.4965 6.20154L10.963 5.37075L9.40476 6.20154L9.67412 4.44502L8.50288 3.16323L10.2244 2.89047Z" stroke="#4C9459" strokeWidth="1.2" strokeLinejoin="round"/>
<path d="M2.12405 6.54682L2.66913 5.43701L3.24778 6.54682L4.53562 6.74813L3.57622 7.69412L3.80094 8.99049L2.66913 8.37734L1.51913 8.99049L1.71792 7.69412L0.853516 6.74813L2.12405 6.54682Z" stroke="#4C9459" strokeWidth="1.2" strokeLinejoin="round"/>
<path d="M14.2786 7.81029L14.8907 6.56396L15.5405 7.81029L16.9868 8.03636L15.9094 9.09871L16.1617 10.5545L14.8907 9.86597L13.5992 10.5545L13.8225 9.09871L12.8517 8.03636L14.2786 7.81029Z" stroke="#4C9459" strokeWidth="1.2" strokeLinejoin="round"/>
<path d="M4.84071 8.10449C5.81318 8.17501 7.8968 8.87854 7.8968 11.4828" stroke="#4C9459" strokeWidth="1.2"/>
<path d="M12.0453 9.68555C11.0728 9.75606 8.98917 10.4596 8.98917 13.0639" stroke="#4C9459" strokeWidth="1.2"/>
<path d="M8.65375 4.9375C7.92654 4.99023 6.36841 5.51633 6.36841 7.46381" stroke="#4C9459" strokeWidth="1.2"/>
</svg>
