<svg width="21" height="21" viewBox="0 0 21 21" fill="none" xmlns="http://www.w3.org/2000/svg">
<path d="M9.66235 13.3975H11.6624V15.3975H9.66235V13.3975ZM9.66235 5.39746H11.6624V11.3975H9.66235V5.39746ZM10.6524 0.397461C5.13235 0.397461 0.662354 4.87746 0.662354 10.3975C0.662354 15.9175 5.13235 20.3975 10.6524 20.3975C16.1824 20.3975 20.6624 15.9175 20.6624 10.3975C20.6624 4.87746 16.1824 0.397461 10.6524 0.397461ZM10.6624 18.3975C6.24235 18.3975 2.66235 14.8175 2.66235 10.3975C2.66235 5.97746 6.24235 2.39746 10.6624 2.39746C15.0824 2.39746 18.6624 5.97746 18.6624 10.3975C18.6624 14.8175 15.0824 18.3975 10.6624 18.3975Z" fill="#4C9459"/>
</svg>
