<svg width="104" height="27" viewBox="0 0 104 27" fill="none" xmlns="http://www.w3.org/2000/svg">
<path d="M13.4999 26.9999C20.9553 26.9999 26.9999 20.9558 26.9999 13.5011C27.0021 6.04413 20.9575 0 13.4999 0C6.04462 0 0 6.04413 0 13.4988C0 20.9558 6.04462 26.9999 13.4999 26.9999Z" fill="#499557"/>
<path d="M17.7017 23.0703C17.269 23.0703 16.9158 23.4213 16.9158 23.8562C16.9158 24.2889 17.2668 24.642 17.7017 24.642C18.1344 24.642 18.4876 24.2911 18.4876 23.8562C18.4854 23.4213 18.1344 23.0703 17.7017 23.0703Z" fill="white"/>
<path fillRule="evenodd" clipRule="evenodd" d="M16.5708 3.33035L16.3963 3.25524L16.5708 3.33698C16.573 3.33698 16.5708 3.33256 16.5708 3.33035Z" fill="white"/>
<path fillRule="evenodd" clipRule="evenodd" d="M13.3472 8.90947C13.9323 6.81676 15.4622 4.25607 16.3762 3.28256L16.396 3.25607C16.4093 3.2362 16.4313 3.22517 16.4512 3.22517C16.5461 3.22737 16.566 3.29139 16.5704 3.33113L16.5793 3.33554L16.5726 3.33775L16.5152 3.36424C15.248 4.96467 14.1464 6.93817 13.6497 9.0066C14.4555 9.14788 14.9456 8.49667 15.184 7.9757C15.1906 7.96245 15.1796 7.94038 15.1641 7.93817L14.7535 7.83442C14.727 7.8278 14.727 7.78585 14.7535 7.77923L15.2502 7.64899C15.5549 7.58056 15.9147 6.92493 16.0737 6.61147C16.0781 6.59822 16.0737 6.58056 16.0605 6.57394L15.6565 6.3554C15.6322 6.34215 15.6388 6.30683 15.6675 6.30462L16.438 6.23619C16.4446 6.23619 16.4556 6.22957 16.4578 6.22295L16.917 5.42162C16.9281 5.40396 16.9215 5.3863 16.9038 5.37968L16.4556 5.19425C16.4291 5.18101 16.4313 5.14348 16.4623 5.13907L17.0782 5.08388C17.0848 5.08388 17.0959 5.07726 17.0981 5.07063L17.5374 4.32008C17.544 4.30684 17.5418 4.28918 17.5264 4.28256L17.0782 4.00883C17.0539 3.99558 17.065 3.95364 17.0959 3.95805L17.6058 4C17.6169 4 17.6301 3.99337 17.6323 3.98013L18.3167 1.89404C18.3211 1.87638 18.3101 1.85872 18.2902 1.86314C17.2725 1.81457 16.4733 2.08168 16.1819 2.234C16.1708 2.24062 16.1686 2.25166 16.1686 2.26049L16.2172 2.77042C16.2216 2.80133 16.1797 2.81457 16.1664 2.78808L15.981 2.46358C15.9744 2.45254 15.9611 2.44592 15.9501 2.45033C15.4291 2.55629 14.7403 3.39956 14.4489 3.8234C14.4422 3.83002 14.4422 3.84106 14.4444 3.84768L14.6851 4.45474C14.6961 4.48123 14.6652 4.50331 14.6409 4.48565L14.3054 4.2075C14.2943 4.20088 14.2811 4.19646 14.27 4.2075C14.0978 4.36865 13.674 5.19425 13.4686 5.61147C13.4642 5.62251 13.4642 5.63134 13.4731 5.63796L13.8263 6.16114C13.8439 6.18542 13.813 6.21632 13.7888 6.19866L13.3229 5.88741C13.3119 5.88078 13.2964 5.88078 13.2876 5.89182C13.1441 6.05959 13.0823 6.70639 13.0691 7.0331C13.0691 7.03972 13.0735 7.04634 13.0801 7.05297L13.398 7.3576C13.4179 7.37526 13.4046 7.40837 13.3781 7.40616L13.0227 7.37526C13.0094 7.37084 12.9962 7.38188 12.9918 7.39513C12.7997 8.28254 13.0911 8.73949 13.3472 8.90947Z" fill="white"/>
<path d="M15.5178 18.9589H11.385V19.747H15.5178V18.9589Z" fill="white"/>
<path fillRule="evenodd" clipRule="evenodd" d="M6.30011 9.54319V18.0067C6.30011 18.2142 6.46789 18.382 6.67541 18.382H20.3277C20.5352 18.382 20.703 18.2142 20.703 18.0067V9.54319C20.703 9.33569 20.5352 9.16792 20.3277 9.16792H6.67541C6.46789 9.16792 6.30011 9.33569 6.30011 9.54319ZM9.68889 15.0421C9.01776 15.0421 8.47467 14.499 8.47467 13.8279C8.47467 13.1569 9.01776 12.6138 9.68889 12.6138C10.36 12.6138 10.9031 13.1569 10.9031 13.8279C10.9031 14.4968 10.36 15.0421 9.68889 15.0421ZM17.3164 15.0421C16.6453 15.0421 16.1022 14.499 16.1022 13.8279C16.1022 13.1569 16.6453 12.6138 17.3164 12.6138C17.9876 12.6138 18.5306 13.1569 18.5306 13.8279C18.5306 14.4968 17.9876 15.0421 17.3164 15.0421Z" fill="white"/>
<path d="M4.65417 23.6924C5.1222 24.0986 5.61672 24.4739 6.13773 24.8116V22.4717C5.71165 22.4717 5.04493 22.858 4.65417 23.6924Z" fill="white"/>
<path d="M6.72302 25.1718C8.71656 26.3308 11.0302 26.9997 13.5028 26.9997C13.8671 26.9997 14.2269 26.982 14.5824 26.9533V23.0703H6.72302V25.1718ZM7.86439 23.7348H8.39865H13.441C13.5955 23.7348 13.7214 23.8606 13.7214 24.0151C13.7214 24.1696 13.5955 24.2955 13.441 24.2955H7.86439C7.70985 24.2955 7.58402 24.1696 7.58402 24.0151C7.58402 23.8584 7.70985 23.7348 7.86439 23.7348Z" fill="white"/>
<path d="M19.9049 20.3374H7.10037C6.89285 20.3374 6.72507 20.5051 6.72507 20.7126V22.1276V22.4853H14.9862H15.1672V22.6663V26.8936C17.0128 26.6663 18.7415 26.068 20.2802 25.1718V22.1276V20.7126C20.2802 20.5051 20.1124 20.3374 19.9049 20.3374ZM17.7016 25.2226C16.9444 25.2226 16.3329 24.6089 16.3329 23.8539C16.3329 23.0967 16.9466 22.4853 17.7016 22.4853C18.4589 22.4853 19.0704 23.0989 19.0704 23.8539C19.0704 24.6111 18.4567 25.2226 17.7016 25.2226Z" fill="white"/>
<path d="M22.3482 23.6924C21.9574 22.858 21.2907 22.4717 20.8646 22.4717V24.8138C21.3856 24.4717 21.8802 24.0986 22.3482 23.6924Z" fill="white"/>
<path d="M39.6164 20.2936C40.3481 20.4858 41.1084 20.7452 41.8974 21.0719C43.5453 21.7509 44.7351 22.0904 45.4668 22.0904C45.7149 22.0904 46.0903 22.0263 46.5929 21.8982V22.3978C45.8803 22.7694 45.3522 23.1217 45.0087 23.4547C44.4551 23.3843 43.9557 23.2882 43.5103 23.1665C43.0649 23.0512 42.3873 22.8238 41.4774 22.4843C39.9759 21.9334 38.9674 21.658 38.4521 21.658C38.3057 21.658 38.1498 21.69 37.9844 21.7541C37.8253 21.8181 37.4213 22.0327 36.7723 22.3978V21.7637C37.8603 21.0271 38.6397 20.537 39.1106 20.2936C37.6726 20.2936 36.4447 20.0086 35.4267 19.4385C34.4087 18.862 33.6133 18.0421 33.0407 16.9788C32.4681 15.9155 32.1818 14.6696 32.1818 13.2412C32.1818 11.153 32.8562 9.46514 34.2051 8.17764C35.5539 6.89014 37.3513 6.24638 39.5973 6.24638C41.7988 6.24638 43.523 6.8453 44.7701 8.04312C46.0235 9.23455 46.6502 10.8231 46.6502 12.8088C46.6502 14.3333 46.2812 15.6721 45.5431 16.8251C44.8114 17.9716 43.8507 18.8524 42.6609 19.4673C41.8083 19.9093 40.7935 20.1847 39.6164 20.2936ZM34.1955 12.4629C34.1955 13.9042 34.4405 15.1596 34.9304 16.2293C35.4203 17.2991 36.0756 18.103 36.8964 18.641C37.7172 19.1727 38.6557 19.4385 39.7118 19.4385C40.6917 19.4385 41.5474 19.2111 42.2791 18.7563C43.0108 18.3015 43.5866 17.6257 44.0066 16.729C44.4265 15.8322 44.6364 14.7369 44.6364 13.443C44.6364 12.085 44.4042 10.9256 43.9398 9.96477C43.4753 9.00395 42.839 8.28333 42.031 7.80292C41.2229 7.3161 40.2654 7.07269 39.1583 7.07269C38.1467 7.07269 37.275 7.28728 36.5433 7.71644C35.8116 8.14561 35.2358 8.77335 34.8159 9.59966C34.4023 10.426 34.1955 11.3804 34.1955 12.4629Z" fill="#66AA4C"/>
<path d="M54.7247 20.1111L54.8392 18.3816L54.2761 18.9965C53.8371 19.4769 53.3885 19.8164 52.9304 20.015C52.4787 20.2072 51.9188 20.3032 51.2507 20.3032C50.6781 20.3032 50.185 20.1815 49.7714 19.9381C49.3578 19.6947 49.0556 19.3808 48.8647 18.9965C48.6802 18.6058 48.588 17.9909 48.588 17.1517C48.588 16.7162 48.5975 16.2101 48.6166 15.6336L48.6452 14.0867C48.6452 13.0042 48.6134 12.4021 48.5498 12.2804C48.4925 12.1587 48.2921 12.0978 47.9485 12.0978H47.0991V11.5693C47.9644 11.4925 48.7629 11.3323 49.4946 11.0889L50.2868 10.7911C50.3949 10.7911 50.449 10.8712 50.449 11.0313L50.3822 12.0113C50.2931 13.3693 50.2486 14.6312 50.2486 15.797C50.2486 16.9628 50.2963 17.709 50.3918 18.0357C50.4872 18.356 50.6876 18.625 50.993 18.8428C51.2984 19.0542 51.6706 19.1599 52.1096 19.1599C52.7014 19.1599 53.2422 18.9677 53.7321 18.5834C54.2284 18.199 54.5529 17.8115 54.7056 17.4208C54.7883 17.1966 54.8296 16.5208 54.8296 15.3934C54.8296 13.4974 54.7946 12.4661 54.7247 12.2996C54.661 12.1651 54.3747 12.0978 53.8657 12.0978H53.1117V11.5693C53.7671 11.4925 54.3238 11.4028 54.7819 11.3003C55.24 11.1978 55.7236 11.0441 56.2326 10.8391C56.2962 10.8071 56.3535 10.7911 56.4044 10.7911C56.5125 10.7911 56.5666 10.8519 56.5666 10.9736L56.5284 11.8672C56.433 14.0579 56.3853 15.9859 56.3853 17.6514C56.3853 18.5866 56.433 19.1214 56.5284 19.2559C56.6684 19.4545 56.9706 19.5538 57.4351 19.5538H57.9886V20.1111C57.1933 20.0662 56.5189 20.0438 55.9653 20.0438C55.5518 20.0438 55.1382 20.0662 54.7247 20.1111Z" fill="#66AA4C"/>
<path d="M60.9667 6.52502C61.2594 6.52502 61.5107 6.63392 61.7207 6.8517C61.9306 7.06308 62.0356 7.3193 62.0356 7.62036C62.0356 7.92142 61.9306 8.17764 61.7207 8.38902C61.5107 8.6004 61.2594 8.70609 60.9667 8.70609C60.6677 8.70609 60.4132 8.6004 60.2032 8.38902C59.9932 8.17764 59.8882 7.92142 59.8882 7.62036C59.8882 7.3193 59.9932 7.06308 60.2032 6.8517C60.4132 6.63392 60.6677 6.52502 60.9667 6.52502ZM61.7302 10.7815L61.9593 10.9256C61.9147 11.406 61.8861 11.9345 61.8734 12.511C61.8288 14.3814 61.8065 15.7617 61.8065 16.6521C61.8065 17.4848 61.8352 18.1958 61.8924 18.7851C61.9179 19.0157 61.9783 19.1759 62.0738 19.2656C62.1692 19.3552 62.3983 19.4225 62.7609 19.4673L63.4099 19.5538V20.1111C62.481 20.0662 61.6348 20.0438 60.8713 20.0438C60.1205 20.0438 59.3633 20.0662 58.5998 20.1111V19.5538L59.4206 19.4673C59.7387 19.4417 59.9328 19.3841 60.0028 19.2944C60.0791 19.1983 60.1268 18.8876 60.1459 18.3624C60.1777 17.5489 60.1936 16.4279 60.1936 14.9995C60.1936 14.0066 60.1777 13.2412 60.1459 12.7031C60.1332 12.5046 60.0759 12.3636 59.9741 12.2804C59.8787 12.1971 59.6592 12.1555 59.3156 12.1555H58.5998V11.5886C59.3761 11.4733 59.9455 11.3676 60.3082 11.2715C60.6772 11.1754 61.1512 11.0121 61.7302 10.7815Z" fill="#66AA4C"/>
<path d="M67.2087 5.84284C67.1006 7.71965 67.0465 9.4171 67.0465 10.9352V15.8738C67.0465 17.8339 67.0878 18.9453 67.1706 19.2079C67.2151 19.3424 67.4251 19.4289 67.8005 19.4673L68.6117 19.5538V20.1111C67.9182 20.0662 67.2565 20.0438 66.6266 20.0438C65.9267 20.0438 65.0105 20.0662 63.8779 20.1111V19.5538L64.6987 19.4865C65.0614 19.4545 65.2682 19.3616 65.3191 19.2079C65.4018 18.9581 65.4431 17.8211 65.4431 15.797V10.8872L65.4336 9.04238L65.405 7.7837C65.405 7.46983 65.37 7.27767 65.3 7.20721C65.1982 7.10472 64.985 7.05348 64.6605 7.05348H63.8779V6.47698C65.2014 6.35528 66.2575 6.10546 67.0465 5.72754L67.2087 5.84284Z" fill="#66AA4C"/>
<path d="M72.5059 5.84284C72.3978 7.71965 72.3437 9.4171 72.3437 10.9352V15.8738C72.3437 17.8339 72.3851 18.9453 72.4678 19.2079C72.5123 19.3424 72.7223 19.4289 73.0977 19.4673L73.9089 19.5538V20.1111C73.2154 20.0662 72.5537 20.0438 71.9238 20.0438C71.2239 20.0438 70.3077 20.0662 69.1751 20.1111V19.5538L69.9959 19.4865C70.3586 19.4545 70.5654 19.3616 70.6163 19.2079C70.699 18.9581 70.7403 17.8211 70.7403 15.797V10.8872L70.7308 9.04238L70.7022 7.7837C70.7022 7.46983 70.6672 7.27767 70.5972 7.20721C70.4954 7.10472 70.2822 7.05348 69.9577 7.05348H69.1751V6.47698C70.4986 6.35528 71.5547 6.10546 72.3437 5.72754L72.5059 5.84284Z" fill="#66AA4C"/>
<path d="M75.8179 6.27295H80.6451C81.2469 6.27295 81.8029 6.34378 82.3131 6.48545C82.8363 6.62711 83.2811 6.83961 83.6474 7.12295C84.0268 7.3934 84.3211 7.74757 84.5304 8.18544C84.7528 8.61044 84.864 9.11271 84.864 9.69225C84.864 10.4779 84.6416 11.1218 84.1969 11.6241C83.7521 12.1135 83.1765 12.4741 82.47 12.7059V12.7445C82.8887 12.7703 83.2811 12.8797 83.6474 13.0729C84.0137 13.2532 84.3277 13.4979 84.5893 13.807C84.864 14.1032 85.0799 14.4509 85.2369 14.8502C85.3939 15.2494 85.4723 15.6809 85.4723 16.1445C85.4723 16.7627 85.3415 17.31 85.0799 17.7865C84.8313 18.2502 84.4847 18.643 84.0399 18.9649C83.5951 19.2869 83.0783 19.5316 82.4897 19.699C81.901 19.8665 81.2665 19.9502 80.5862 19.9502H75.8179V6.27295ZM77.7017 11.9525H80.2723C80.6255 11.9525 80.9591 11.9203 81.273 11.8559C81.587 11.7786 81.8617 11.6563 82.0972 11.4888C82.3327 11.3214 82.5158 11.1089 82.6466 10.8513C82.7905 10.5938 82.8625 10.2782 82.8625 9.90475C82.8625 9.36385 82.6859 8.89377 82.3327 8.49453C81.9795 8.09529 81.4235 7.89567 80.6647 7.89567H77.7017V11.9525ZM77.7017 18.3274H80.4685C80.7563 18.3274 81.0703 18.3017 81.4104 18.2502C81.7636 18.1858 82.0907 18.0699 82.3915 17.9025C82.6924 17.7221 82.9475 17.4839 83.1568 17.1877C83.3662 16.8915 83.4708 16.4987 83.4708 16.0093C83.4708 15.1979 83.2026 14.5926 82.6663 14.1934C82.1299 13.7813 81.4039 13.5752 80.4881 13.5752H77.7017V18.3274Z" fill="#479455"/>
<path d="M88.7667 15.3718C88.7667 15.8354 88.8386 16.2669 88.9825 16.6661C89.1264 17.0525 89.3292 17.3873 89.5909 17.6706C89.8525 17.9411 90.173 18.16 90.5524 18.3274C90.9318 18.482 91.3569 18.5593 91.8279 18.5593C92.2988 18.5593 92.724 18.482 93.1034 18.3274C93.4827 18.16 93.8032 17.9411 94.0649 17.6706C94.3265 17.3873 94.5293 17.0525 94.6732 16.6661C94.8171 16.2669 94.889 15.8354 94.889 15.3718C94.889 14.9081 94.8171 14.4831 94.6732 14.0968C94.5293 13.6975 94.3265 13.3627 94.0649 13.0922C93.8032 12.8089 93.4827 12.59 93.1034 12.4354C92.724 12.268 92.2988 12.1843 91.8279 12.1843C91.3569 12.1843 90.9318 12.268 90.5524 12.4354C90.173 12.59 89.8525 12.8089 89.5909 13.0922C89.3292 13.3627 89.1264 13.6975 88.9825 14.0968C88.8386 14.4831 88.7667 14.9081 88.7667 15.3718ZM86.8829 15.3718C86.8829 14.7021 87.0072 14.0775 87.2557 13.4979C87.5174 12.9184 87.8706 12.4097 88.3154 11.9718C88.7602 11.5339 89.2834 11.1926 89.8852 10.9479C90.487 10.6904 91.1345 10.5616 91.8279 10.5616C92.5212 10.5616 93.1688 10.6904 93.7705 10.9479C94.3723 11.1926 94.8956 11.5339 95.3404 11.9718C95.7852 12.4097 96.1318 12.9184 96.3804 13.4979C96.642 14.0775 96.7728 14.7021 96.7728 15.3718C96.7728 16.0415 96.642 16.6725 96.3804 17.265C96.1318 17.8445 95.7852 18.3532 95.3404 18.7911C94.8956 19.2161 94.3723 19.5574 93.7705 19.8149C93.1688 20.0596 92.5212 20.182 91.8279 20.182C91.1345 20.182 90.487 20.0596 89.8852 19.8149C89.2834 19.5574 88.7602 19.2161 88.3154 18.7911C87.8706 18.3532 87.5174 17.8445 87.2557 17.265C87.0072 16.6725 86.8829 16.0415 86.8829 15.3718Z" fill="#479455"/>
<path d="M103.577 12.3002H101.046V16.4536C101.046 16.7112 101.052 16.9687 101.065 17.2263C101.078 17.471 101.124 17.6964 101.203 17.9025C101.294 18.0956 101.425 18.2566 101.595 18.3854C101.778 18.5013 102.04 18.5593 102.38 18.5593C102.589 18.5593 102.805 18.5399 103.028 18.5013C103.25 18.4627 103.453 18.3918 103.636 18.2888V19.8729C103.427 19.9888 103.152 20.0661 102.812 20.1047C102.485 20.1562 102.23 20.182 102.046 20.182C101.366 20.182 100.836 20.0918 100.457 19.9115C100.091 19.7184 99.816 19.4737 99.6329 19.1774C99.4628 18.8812 99.3582 18.5528 99.3189 18.1922C99.2927 17.8187 99.2797 17.4453 99.2797 17.0718V12.3002H97.2389V10.7934H99.2797V8.22408H101.046V10.7934H103.577V12.3002Z" fill="#479455"/>
</svg>
