<svg width="18" height="18" viewBox="0 0 18 18" fill="none" xmlns="http://www.w3.org/2000/svg">
<mask id="mask0" mask-type="alpha" maskUnits="userSpaceOnUse" x="0" y="0" width="18" height="18">
<rect x="0.373535" y="0.681152" width="17.1854" height="17.1854" fill="white"/>
</mask>
<g mask="url(#mask0)">
<path d="M13.8105 7.22313C14.4227 4.80826 14.4027 2.51513 13.2439 1.80157C11.7001 0.850588 8.61367 3.00031 6.47199 5.59399C6.00729 6.15693 5.44392 7.02352 5.30426 7.74257C5.07136 8.93903 5.08088 9.71971 5.16704 10.322C5.16704 10.322 4.66058 9.31143 4.58566 8.57167C3.71023 10.6191 4.0084 12.192 4.97988 13.2585L8.4829 7.45421C8.57377 7.30363 8.76523 7.24096 8.91961 7.32268C9.08842 7.41201 9.14498 7.62594 9.04691 7.78807L6.2264 12.4617L4.51619 15.4137C4.29828 15.7897 4.20399 16.2257 4.24731 16.6586L4.35771 17.7672C4.37173 17.9086 4.5566 17.9489 4.62755 17.8258L6.62401 14.3647C8.36305 15.0205 10.3589 14.3645 12.0745 11.4894L8.99521 11.0681L11.3431 10.0854C12.5627 9.57495 13.4829 8.51679 13.8105 7.22313Z" fill="#5F6368"/>
</g>
</svg>
