<svg width="13" height="13" viewBox="0 0 13 13" fill="none" xmlns="http://www.w3.org/2000/svg">
<path d="M6.80083 0.0786133C3.51791 0.0786133 0.853516 2.77876 0.853516 6.10572C0.853516 9.43268 3.51791 12.1328 6.80083 12.1328C10.0838 12.1328 12.7481 9.43268 12.7481 6.10572C12.7481 2.77876 10.0838 0.0786133 6.80083 0.0786133ZM2.04298 6.10572C2.04298 5.73807 2.09056 5.37644 2.16787 5.03289L5.01069 7.91385V8.51656C5.01069 9.17954 5.54595 9.72198 6.20015 9.72198V10.8852C3.86286 10.5839 2.04298 8.55875 2.04298 6.10572ZM10.3038 9.36036C10.1492 8.87216 9.70907 8.51656 9.17381 8.51656H8.57908V6.70843C8.57908 6.37694 8.31145 6.10572 7.98435 6.10572H4.41596V4.9003H5.60542C5.93252 4.9003 6.20015 4.62908 6.20015 4.29759V3.09217H7.38962C8.04382 3.09217 8.57908 2.54973 8.57908 1.88674V1.63963C10.3216 2.35083 11.5587 4.08664 11.5587 6.10572C11.5587 7.35936 11.077 8.50451 10.3038 9.36036Z" fill="#4C9459"/>
</svg>
