<?xml version="1.0" standalone="no"?>
<!DOCTYPE svg PUBLIC "-//W3C//DTD SVG 20010904//EN"
 "http://www.w3.org/TR/2001/REC-SVG-20010904/DTD/svg10.dtd">
<svg version="1.0" xmlns="http://www.w3.org/2000/svg"
 width="12.000000pt" height="12.000000pt" viewBox="0 0 12.000000 12.000000"
 preserveAspectRatio="xMidYMid meet">

<g transform="translate(0.000000,12.000000) scale(0.100000,-0.100000)"
fill="#000000" stroke="none">
<path d="M36 101 c-3 -4 8 -8 23 -7 16 1 27 4 24 9 -6 10 -41 9 -47 -2z"/>
<path d="M2 53 l3 -38 58 -3 57 -3 0 43 c0 31 -3 39 -10 28 -13 -20 -90 -24
-90 -4 0 8 -5 14 -11 14 -6 0 -9 -16 -7 -37z m64 -13 c3 0 3 3 1 8 -3 4 6 7
19 7 16 0 24 -6 24 -17 0 -15 -9 -18 -50 -18 -43 0 -50 3 -50 20 0 17 3 18 26
10 14 -6 28 -10 30 -10z"/>
</g>
</svg>
