<svg width="82" height="22" viewBox="0 0 82 22" fill="none" xmlns="http://www.w3.org/2000/svg">
<path d="M10.9172 21.6253C16.7268 21.6253 21.4371 16.9153 21.4371 11.1062C21.4389 5.29537 16.7286 0.585449 10.9172 0.585449C5.10764 0.585449 0.397339 5.29537 0.397339 11.1045C0.397339 16.9153 5.10764 21.6253 10.9172 21.6253Z" fill="#499557"/>
<path d="M14.1914 18.5635C13.8542 18.5635 13.5789 18.837 13.5789 19.1759C13.5789 19.513 13.8525 19.7883 14.1914 19.7883C14.5285 19.7883 14.8038 19.5147 14.8038 19.1759C14.8021 18.837 14.5285 18.5635 14.1914 18.5635Z" fill="white"/>
<path fillRule="evenodd" clipRule="evenodd" d="M13.3102 3.18109L13.1742 3.12256L13.3102 3.18625C13.3119 3.18625 13.3102 3.18281 13.3102 3.18109Z" fill="white"/>
<path fillRule="evenodd" clipRule="evenodd" d="M10.7981 7.52814C11.254 5.89738 12.4462 3.90195 13.1584 3.14334L13.1739 3.1227C13.1842 3.10721 13.2014 3.09861 13.2169 3.09861C13.2909 3.10033 13.3064 3.15022 13.3098 3.18118L13.3167 3.18462L13.3115 3.18634L13.2668 3.20699C12.2793 4.45413 11.4209 5.99199 11.0338 7.60382C11.6617 7.71392 12.0436 7.20646 12.2294 6.80049C12.2346 6.79017 12.226 6.77297 12.2139 6.77125L11.894 6.6904C11.8733 6.68524 11.8733 6.65255 11.894 6.64739L12.281 6.5459C12.5185 6.49257 12.7989 5.98167 12.9227 5.7374C12.9262 5.72708 12.9227 5.71332 12.9124 5.70816L12.5976 5.53786C12.5787 5.52754 12.5838 5.50002 12.6062 5.4983L13.2066 5.44497C13.2117 5.44497 13.2204 5.43981 13.2221 5.43465L13.5799 4.81021C13.5885 4.79645 13.5833 4.78269 13.5696 4.77753L13.2204 4.63303C13.1997 4.62271 13.2014 4.59347 13.2255 4.59003L13.7055 4.54702C13.7106 4.54702 13.7192 4.54186 13.721 4.5367L14.0633 3.95183C14.0685 3.94151 14.0668 3.92775 14.0547 3.92259L13.7055 3.70928C13.6866 3.69896 13.6952 3.66628 13.7193 3.66972L14.1166 3.7024C14.1253 3.7024 14.1356 3.69724 14.1373 3.68692L14.6706 2.06133C14.674 2.04757 14.6654 2.03381 14.65 2.03725C13.8569 1.9994 13.2341 2.20755 13.007 2.32624C12.9984 2.3314 12.9967 2.34 12.9967 2.34688L13.0346 2.74425C13.038 2.76833 13.0053 2.77866 12.995 2.75801L12.8505 2.50514C12.8453 2.49654 12.835 2.49138 12.8264 2.49482C12.4204 2.57739 11.8836 3.23451 11.6566 3.56479C11.6514 3.56995 11.6514 3.57855 11.6531 3.58371L11.8406 4.05677C11.8492 4.07741 11.8252 4.09461 11.8062 4.08085L11.5447 3.8641C11.5361 3.85894 11.5258 3.8555 11.5172 3.8641C11.383 3.98968 11.0527 4.63303 10.8927 4.95815C10.8893 4.96675 10.8893 4.97363 10.8962 4.9788L11.1714 5.38648C11.1852 5.40541 11.1611 5.42949 11.1422 5.41573L10.7792 5.17318C10.7706 5.16802 10.7585 5.16802 10.7517 5.17662C10.6398 5.30735 10.5917 5.81137 10.5813 6.06596C10.5813 6.07112 10.5848 6.07628 10.5899 6.08145L10.8377 6.31883C10.8532 6.33259 10.8428 6.3584 10.8222 6.35668L10.5452 6.33259C10.5349 6.32915 10.5246 6.33776 10.5211 6.34808C10.3715 7.0396 10.5985 7.39568 10.7981 7.52814Z" fill="white"/>
<path d="M12.4898 15.3604H9.26929V15.9745H12.4898V15.3604Z" fill="white"/>
<path fillRule="evenodd" clipRule="evenodd" d="M5.30664 8.02144V14.6167C5.30664 14.7784 5.43739 14.9091 5.5991 14.9091H16.2377C16.3994 14.9091 16.5302 14.7784 16.5302 14.6167V8.02144C16.5302 7.85974 16.3994 7.729 16.2377 7.729H5.5991C5.43739 7.729 5.30664 7.85974 5.30664 8.02144ZM7.94737 12.3065C7.42438 12.3065 7.00118 11.8833 7.00118 11.3604C7.00118 10.8374 7.42438 10.4142 7.94737 10.4142C8.47035 10.4142 8.89356 10.8374 8.89356 11.3604C8.89356 11.8816 8.47035 12.3065 7.94737 12.3065ZM13.8912 12.3065C13.3682 12.3065 12.945 11.8833 12.945 11.3604C12.945 10.8374 13.3682 10.4142 13.8912 10.4142C14.4141 10.4142 14.8373 10.8374 14.8373 11.3604C14.8373 11.8816 14.4141 12.3065 13.8912 12.3065Z" fill="white"/>
<path d="M4.02405 19.0484C4.38876 19.365 4.77412 19.6574 5.18012 19.9206V18.0972C4.84809 18.0972 4.32855 18.3982 4.02405 19.0484Z" fill="white"/>
<path d="M5.63605 20.2011C7.18952 21.1042 8.99244 21.6254 10.9192 21.6254C11.2031 21.6254 11.4835 21.6117 11.7605 21.5893V18.5635H5.63605V20.2011ZM6.52546 19.0813H6.94179H10.8711C10.9915 19.0813 11.0895 19.1793 11.0895 19.2997C11.0895 19.4201 10.9915 19.5182 10.8711 19.5182H6.52546C6.40504 19.5182 6.30698 19.4201 6.30698 19.2997C6.30698 19.1776 6.40504 19.0813 6.52546 19.0813Z" fill="white"/>
<path d="M15.9085 16.4336H5.93046C5.76875 16.4336 5.638 16.5643 5.638 16.726V17.8287V18.1074H12.0755H12.2166V18.2484V21.5426C13.6548 21.3654 15.0018 20.8992 16.2009 20.2008V17.8287V16.726C16.2009 16.5643 16.0702 16.4336 15.9085 16.4336ZM14.1916 20.2404C13.6015 20.2404 13.1249 19.7622 13.1249 19.1739C13.1249 18.5838 13.6032 18.1074 14.1916 18.1074C14.7816 18.1074 15.2582 18.5856 15.2582 19.1739C15.2582 19.7639 14.7799 20.2404 14.1916 20.2404Z" fill="white"/>
<path d="M17.8123 19.0484C17.5078 18.3982 16.9882 18.0972 16.6562 18.0972V19.9223C17.0622 19.6557 17.4475 19.365 17.8123 19.0484Z" fill="white"/>
<path d="M31.2686 16.399C31.8387 16.5488 32.4312 16.7509 33.046 17.0055C34.3302 17.5346 35.2573 17.7992 35.8275 17.7992C36.0209 17.7992 36.3134 17.7492 36.7051 17.6494V18.0388C36.1498 18.3283 35.7383 18.6028 35.4705 18.8624C35.0392 18.8074 34.65 18.7326 34.3029 18.6377C33.9558 18.5479 33.4278 18.3707 32.7188 18.1061C31.5487 17.6769 30.7629 17.4622 30.3613 17.4622C30.2472 17.4622 30.1257 17.4872 29.9968 17.5371C29.8729 17.587 29.558 17.7542 29.0523 18.0388V17.5446C29.9002 16.9706 30.5075 16.5887 30.8744 16.399C29.7539 16.399 28.797 16.1769 28.0037 15.7327C27.2104 15.2834 26.5907 14.6445 26.1444 13.8159C25.6982 12.9873 25.4751 12.0165 25.4751 10.9034C25.4751 9.27615 26.0007 7.96089 27.0518 6.95759C28.1029 5.9543 29.5035 5.45265 31.2537 5.45265C32.9692 5.45265 34.3128 5.91936 35.2846 6.85277C36.2613 7.78119 36.7497 9.01909 36.7497 10.5665C36.7497 11.7544 36.4621 12.7977 35.887 13.6961C35.3168 14.5896 34.5682 15.276 33.641 15.7551C32.9766 16.0996 32.1858 16.3142 31.2686 16.399ZM27.0443 10.2969C27.0443 11.42 27.2352 12.3983 27.617 13.2319C27.9987 14.0655 28.5094 14.6919 29.149 15.1112C29.7886 15.5255 30.5199 15.7327 31.3429 15.7327C32.1065 15.7327 32.7733 15.5555 33.3435 15.2011C33.9137 14.8467 34.3624 14.3201 34.6896 13.6213C35.0169 12.9225 35.1805 12.0689 35.1805 11.0606C35.1805 10.0024 34.9995 9.09895 34.6376 8.35023C34.2756 7.6015 33.7798 7.03995 33.1502 6.66559C32.5205 6.28624 31.7743 6.09656 30.9116 6.09656C30.1233 6.09656 29.444 6.26377 28.8738 6.5982C28.3037 6.93264 27.855 7.4218 27.5277 8.06571C27.2055 8.70962 27.0443 9.45335 27.0443 10.2969Z" fill="#66AA4C"/>
<path d="M43.0418 16.2568L43.131 14.9091L42.6922 15.3883C42.3501 15.7626 42.0006 16.0272 41.6436 16.1819C41.2916 16.3317 40.8553 16.4065 40.3347 16.4065C39.8884 16.4065 39.5042 16.3117 39.1819 16.122C38.8596 15.9323 38.6241 15.6878 38.4754 15.3883C38.3316 15.0838 38.2597 14.6046 38.2597 13.9507C38.2597 13.6113 38.2672 13.217 38.282 12.7677L38.3043 11.5623C38.3043 10.7187 38.2795 10.2495 38.23 10.1547C38.1853 10.0598 38.0292 10.0124 37.7614 10.0124H37.0995V9.6006C37.7738 9.5407 38.3961 9.41591 38.9662 9.22624L39.5835 8.99413C39.6678 8.99413 39.7099 9.05653 39.7099 9.18131L39.6579 9.94501C39.5885 11.0032 39.5538 11.9865 39.5538 12.895C39.5538 13.8035 39.591 14.385 39.6653 14.6395C39.7397 14.8891 39.8959 15.0988 40.1339 15.2685C40.3718 15.4332 40.6619 15.5155 41.004 15.5155C41.4651 15.5155 41.8865 15.3658 42.2683 15.0663C42.655 14.7668 42.9079 14.4648 43.0269 14.1603C43.0913 13.9856 43.1236 13.459 43.1236 12.5805C43.1236 11.103 43.0963 10.2994 43.0418 10.1696C42.9922 10.0648 42.7691 10.0124 42.3724 10.0124H41.7849V9.6006C42.2956 9.5407 42.7294 9.47082 43.0864 9.39096C43.4434 9.31109 43.8202 9.1913 44.2168 9.03157C44.2664 9.00661 44.311 8.99413 44.3507 8.99413C44.435 8.99413 44.4771 9.04155 44.4771 9.13639L44.4474 9.83271C44.373 11.5398 44.3358 13.0422 44.3358 14.34C44.3358 15.0688 44.373 15.4856 44.4474 15.5904C44.5564 15.7452 44.7919 15.8225 45.1539 15.8225H45.5852V16.2568C44.9655 16.2218 44.4399 16.2044 44.0086 16.2044C43.6863 16.2044 43.364 16.2218 43.0418 16.2568Z" fill="#66AA4C"/>
<path d="M47.9059 5.66978C48.134 5.66978 48.3298 5.75464 48.4934 5.92435C48.657 6.08907 48.7388 6.28873 48.7388 6.52333C48.7388 6.75793 48.657 6.95759 48.4934 7.12231C48.3298 7.28703 48.134 7.36939 47.9059 7.36939C47.6729 7.36939 47.4745 7.28703 47.3109 7.12231C47.1473 6.95759 47.0655 6.75793 47.0655 6.52333C47.0655 6.28873 47.1473 6.08907 47.3109 5.92435C47.4745 5.75464 47.6729 5.66978 47.9059 5.66978ZM48.5009 8.98664L48.6794 9.09895C48.6446 9.47332 48.6223 9.88512 48.6124 10.3344C48.5777 11.7919 48.5604 12.8675 48.5604 13.5614C48.5604 14.2103 48.5827 14.7643 48.6273 15.2235C48.6471 15.4032 48.6942 15.528 48.7686 15.5979C48.843 15.6678 49.0215 15.7202 49.3041 15.7551L49.8098 15.8225V16.2568C49.0859 16.2218 48.4265 16.2044 47.8315 16.2044C47.2465 16.2044 46.6565 16.2218 46.0615 16.2568V15.8225L46.7011 15.7551C46.949 15.7352 47.1002 15.6902 47.1548 15.6204C47.2142 15.5455 47.2514 15.3034 47.2663 14.8941C47.2911 14.2602 47.3035 13.3867 47.3035 12.2736C47.3035 11.4999 47.2911 10.9034 47.2663 10.4841C47.2564 10.3294 47.2118 10.2195 47.1324 10.1547C47.0581 10.0898 46.887 10.0573 46.6193 10.0573H46.0615V9.61557C46.6664 9.52573 47.1101 9.44337 47.3927 9.36849C47.6803 9.29362 48.0497 9.16634 48.5009 8.98664Z" fill="#66AA4C"/>
<path d="M52.77 5.13819C52.6858 6.6007 52.6436 7.92345 52.6436 9.10644V12.9549C52.6436 14.4823 52.6758 15.3483 52.7403 15.553C52.775 15.6578 52.9386 15.7252 53.2311 15.7551L53.8633 15.8225V16.2568C53.3229 16.2218 52.8072 16.2044 52.3164 16.2044C51.771 16.2044 51.057 16.2218 50.1745 16.2568V15.8225L50.8141 15.7701C51.0967 15.7452 51.2578 15.6728 51.2975 15.553C51.3619 15.3583 51.3942 14.4723 51.3942 12.895V9.069L51.3867 7.63145L51.3644 6.65062C51.3644 6.40603 51.3372 6.25629 51.2826 6.20138C51.2033 6.12152 51.0372 6.08158 50.7843 6.08158H50.1745V5.63235C51.2058 5.53751 52.0288 5.34284 52.6436 5.04834L52.77 5.13819Z" fill="#66AA4C"/>
<path d="M56.8979 5.13819C56.8136 6.6007 56.7715 7.92345 56.7715 9.10644V12.9549C56.7715 14.4823 56.8037 15.3483 56.8682 15.553C56.9029 15.6578 57.0665 15.7252 57.359 15.7551L57.9912 15.8225V16.2568C57.4507 16.2218 56.9351 16.2044 56.4442 16.2044C55.8989 16.2044 55.1849 16.2218 54.3024 16.2568V15.8225L54.942 15.7701C55.2246 15.7452 55.3857 15.6728 55.4254 15.553C55.4898 15.3583 55.5221 14.4723 55.5221 12.895V9.069L55.5146 7.63145L55.4923 6.65062C55.4923 6.40603 55.465 6.25629 55.4105 6.20138C55.3312 6.12152 55.1651 6.08158 54.9122 6.08158H54.3024V5.63235C55.3336 5.53751 56.1567 5.34284 56.7715 5.04834L56.8979 5.13819Z" fill="#66AA4C"/>
<path d="M59.4788 5.47363H63.2405C63.7094 5.47363 64.1427 5.52883 64.5402 5.63922C64.948 5.74962 65.2946 5.91521 65.58 6.136C65.8757 6.34675 66.105 6.62273 66.2681 6.96395C66.4414 7.29513 66.5281 7.68653 66.5281 8.13814C66.5281 8.75033 66.3548 9.25212 66.0082 9.64352C65.6616 10.0249 65.213 10.3059 64.6626 10.4865V10.5166C64.9888 10.5367 65.2946 10.622 65.58 10.7725C65.8655 10.913 66.1101 11.1037 66.314 11.3446C66.5281 11.5754 66.6963 11.8464 66.8186 12.1575C66.9409 12.4686 67.0021 12.8048 67.0021 13.1661C67.0021 13.6478 66.9002 14.0743 66.6963 14.4457C66.5026 14.8069 66.2325 15.113 65.8859 15.3639C65.5393 15.6148 65.1366 15.8055 64.6778 15.936C64.2191 16.0664 63.7247 16.1317 63.1946 16.1317H59.4788V5.47363ZM60.9468 9.89943H62.9499C63.2252 9.89943 63.4851 9.87434 63.7298 9.82416C63.9744 9.76395 64.1885 9.66861 64.372 9.53814C64.5555 9.40767 64.6982 9.24208 64.8002 9.04137C64.9123 8.84065 64.9684 8.59477 64.9684 8.30373C64.9684 7.88223 64.8308 7.51592 64.5555 7.20481C64.2803 6.8937 63.847 6.73815 63.2558 6.73815H60.9468V9.89943ZM60.9468 14.8672H63.1028C63.3271 14.8672 63.5718 14.8471 63.8368 14.8069C64.1121 14.7568 64.3669 14.6664 64.6014 14.536C64.8359 14.3955 65.0346 14.2098 65.1977 13.979C65.3609 13.7482 65.4424 13.4421 65.4424 13.0607C65.4424 12.4285 65.2334 11.9568 64.8155 11.6457C64.3975 11.3245 63.8317 11.1639 63.1181 11.1639H60.9468V14.8672Z" fill="#479455"/>
<path d="M69.5693 12.5639C69.5693 12.9252 69.6253 13.2614 69.7375 13.5725C69.8496 13.8736 70.0076 14.1345 70.2115 14.3553C70.4154 14.5661 70.6651 14.7367 70.9608 14.8672C71.2564 14.9876 71.5877 15.0478 71.9547 15.0478C72.3217 15.0478 72.653 14.9876 72.9486 14.8672C73.2442 14.7367 73.494 14.5661 73.6979 14.3553C73.9018 14.1345 74.0598 13.8736 74.1719 13.5725C74.2841 13.2614 74.3401 12.9252 74.3401 12.5639C74.3401 12.2027 74.2841 11.8715 74.1719 11.5704C74.0598 11.2593 73.9018 10.9984 73.6979 10.7876C73.494 10.5668 73.2442 10.3962 72.9486 10.2758C72.653 10.1453 72.3217 10.0801 71.9547 10.0801C71.5877 10.0801 71.2564 10.1453 70.9608 10.2758C70.6651 10.3962 70.4154 10.5668 70.2115 10.7876C70.0076 10.9984 69.8496 11.2593 69.7375 11.5704C69.6253 11.8715 69.5693 12.2027 69.5693 12.5639ZM68.1013 12.5639C68.1013 12.0421 68.1981 11.5553 68.3918 11.1037C68.5957 10.6521 68.871 10.2557 69.2176 9.91448C69.5642 9.57327 69.9719 9.30732 70.4409 9.11664C70.9098 8.91592 71.4144 8.81556 71.9547 8.81556C72.495 8.81556 72.9996 8.91592 73.4685 9.11664C73.9375 9.30732 74.3452 9.57327 74.6918 9.91448C75.0384 10.2557 75.3086 10.6521 75.5023 11.1037C75.7061 11.5553 75.8081 12.0421 75.8081 12.5639C75.8081 13.0858 75.7061 13.5776 75.5023 14.0392C75.3086 14.4908 75.0384 14.8872 74.6918 15.2285C74.3452 15.5596 73.9375 15.8256 73.4685 16.0263C72.9996 16.217 72.495 16.3123 71.9547 16.3123C71.4144 16.3123 70.9098 16.217 70.4409 16.0263C69.9719 15.8256 69.5642 15.5596 69.2176 15.2285C68.871 14.8872 68.5957 14.4908 68.3918 14.0392C68.1981 13.5776 68.1013 13.0858 68.1013 12.5639Z" fill="#479455"/>
<path d="M81.1103 10.1704H79.1377V13.4069C79.1377 13.6077 79.1428 13.8084 79.153 14.0091C79.1632 14.1998 79.1989 14.3754 79.2601 14.536C79.3314 14.6865 79.4334 14.812 79.5659 14.9123C79.7086 15.0026 79.9125 15.0478 80.1776 15.0478C80.3407 15.0478 80.5089 15.0328 80.6822 15.0026C80.8555 14.9725 81.0135 14.9173 81.1562 14.8371V16.0715C80.9931 16.1618 80.779 16.222 80.514 16.2521C80.2591 16.2922 80.0603 16.3123 79.9176 16.3123C79.3875 16.3123 78.9746 16.2421 78.679 16.1016C78.3936 15.951 78.1795 15.7603 78.0368 15.5295C77.9043 15.2987 77.8227 15.0428 77.7921 14.7618C77.7717 14.4707 77.7615 14.1797 77.7615 13.8887V10.1704H76.1712V8.99621H77.7615V6.99406H79.1377V8.99621H81.1103V10.1704Z" fill="#479455"/>
</svg>
