<svg width="13" height="13" viewBox="0 0 13 13" fill="none" xmlns="http://www.w3.org/2000/svg">
<path d="M6.4834 0.191406C3.15644 0.191406 0.456299 2.89155 0.456299 6.21851C0.456299 9.54547 3.15644 12.2456 6.4834 12.2456C9.81037 12.2456 12.5105 9.54547 12.5105 6.21851C12.5105 2.89155 9.81037 0.191406 6.4834 0.191406ZM1.66172 6.21851C1.66172 5.85086 1.70994 5.48923 1.78829 5.14569L4.66925 8.02664V8.62935C4.66925 9.29234 5.21168 9.83477 5.87467 9.83477V10.998C3.50601 10.6967 1.66172 8.67154 1.66172 6.21851ZM10.0334 9.47315C9.87666 8.98495 9.43066 8.62935 8.88822 8.62935H8.28551V6.82122C8.28551 6.48973 8.01429 6.21851 7.6828 6.21851H4.06653V5.01309H5.27196C5.60345 5.01309 5.87467 4.74187 5.87467 4.41038V3.20496H7.08009C7.74307 3.20496 8.28551 2.66252 8.28551 1.99954V1.75243C10.0515 2.46362 11.3051 4.19943 11.3051 6.21851C11.3051 7.47215 10.8169 8.6173 10.0334 9.47315Z" fill="#252525"/>
</svg>
