<svg width="109" height="45" viewBox="0 0 109 45" fill="none" xmlns="http://www.w3.org/2000/svg">
<g filter="url(#filter0_d)">
<path d="M8.05762 11.8788C8.05762 9.66966 9.84848 7.8788 12.0576 7.8788L96.2529 7.87878C98.4621 7.87878 100.253 9.66965 100.253 11.8788L100.253 33.1129C100.253 35.3221 98.4621 37.1129 96.2529 37.1129L12.0576 37.1129C9.84848 37.1129 8.05762 35.3221 8.05762 33.1129L8.05762 11.8788Z" fill="white"/>
<path d="M8.37272 11.8788C8.37272 9.84369 10.0225 8.1939 12.0576 8.1939L96.2529 8.19388C98.288 8.19388 99.9378 9.84367 99.9378 11.8788L99.9378 33.1129C99.9378 35.148 98.288 36.7978 96.2529 36.7978L12.0576 36.7978C10.0225 36.7978 8.37272 35.148 8.37272 33.1129L8.37272 11.8788Z" stroke="#4C9459" strokeWidth="0.630196"/>
</g>
<mask id="mask0" mask-type="alpha" maskUnits="userSpaceOnUse" x="16" y="14" width="17" height="17">
<rect x="16.8802" y="14.4259" width="15.6414" height="15.6414" fill="#4C9459"/>
</mask>
<g mask="url(#mask0)">
<path d="M29.11 20.3801C29.6672 18.1822 29.649 16.0951 28.5943 15.4457C27.1891 14.5801 24.38 16.5367 22.4308 18.8974C22.0078 19.4097 21.4951 20.1985 21.368 20.8529C21.156 21.9419 21.1646 22.6524 21.2431 23.2006C21.2431 23.2006 20.7821 22.2808 20.7139 21.6075C19.9171 23.471 20.1885 24.9026 21.0727 25.8733L24.261 20.5905C24.3437 20.4534 24.518 20.3964 24.6585 20.4708C24.8121 20.5521 24.8636 20.7468 24.7744 20.8943L22.2072 25.148L20.6507 27.8348C20.4523 28.1771 20.3665 28.574 20.406 28.9679L20.5064 29.9769C20.5192 30.1056 20.6875 30.1423 20.752 30.0303L22.5691 26.8801C24.1519 27.477 25.9684 26.8799 27.53 24.2631L24.7273 23.8797L26.8643 22.9853C27.9742 22.5207 28.8118 21.5576 29.11 20.3801Z" fill="#4C9459"/>
</g>
<line x1="38.4329" y1="14.4259" x2="38.4329" y2="30.811" stroke="#C6C6C6" strokeWidth="0.252078"/>
<line x1="68.8515" y1="14.4259" x2="68.8515" y2="30.811" stroke="#C6C6C6" strokeWidth="0.252078"/>
<defs>
<filter id="filter0_d" x="0.277617" y="0.098784" width="107.755" height="44.7941" filterUnits="userSpaceOnUse" colorInterpolationFilters="sRGB">
<feFlood floodOpacity="0" result="BackgroundImageFix"/>
<feColorMatrix in="SourceAlpha" type="matrix" values="0 0 0 0 0 0 0 0 0 0 0 0 0 0 0 0 0 0 127 0" result="hardAlpha"/>
<feOffset/>
<feGaussianBlur stdDeviation="3.89"/>
<feColorMatrix type="matrix" values="0 0 0 0 0.298039 0 0 0 0 0.580392 0 0 0 0 0.34902 0 0 0 0.37 0"/>
<feBlend mode="normal" in2="BackgroundImageFix" result="effect1_dropShadow"/>
<feBlend mode="normal" in="SourceGraphic" in2="effect1_dropShadow" result="shape"/>
</filter>
</defs>
</svg>
