<svg width="8" height="13" viewBox="0 0 8 13" fill="none" xmlns="http://www.w3.org/2000/svg">
<path d="M6.49888 0.416989C6.35481 0.421282 6.21807 0.481493 6.11763 0.584866L0.572267 6.13023C0.468311 6.23423 0.409912 6.37526 0.409912 6.52231C0.409912 6.66935 0.468311 6.81038 0.572267 6.91438L6.11763 12.4597C6.16873 12.513 6.22993 12.5555 6.29766 12.5847C6.36538 12.614 6.43827 12.6295 6.51205 12.6302C6.58582 12.631 6.65901 12.617 6.72731 12.5891C6.79562 12.5612 6.85768 12.52 6.90985 12.4678C6.96202 12.4156 7.00325 12.3536 7.03114 12.2853C7.05903 12.217 7.073 12.1438 7.07225 12.07C7.0715 11.9962 7.05604 11.9234 7.02677 11.8556C6.9975 11.7879 6.955 11.7267 6.90178 11.6756L1.74849 6.52231L6.90178 1.36902C6.98191 1.29112 7.03665 1.19084 7.05881 1.08131C7.08096 0.971777 7.06952 0.858106 7.02596 0.755192C6.98241 0.652278 6.90878 0.564922 6.81473 0.504573C6.72067 0.444223 6.61058 0.413695 6.49888 0.416989Z" fill="white"/>
</svg>
