<svg width="21" height="19" viewBox="0 0 21 19" fill="none" xmlns="http://www.w3.org/2000/svg">
<path d="M19.1704 7.2707H13.434L14.2977 3.1577L14.325 2.8697C14.325 2.5007 14.1704 2.1587 13.9249 1.9157L12.9613 0.970703L6.9795 6.9017C6.64313 7.2257 6.44313 7.6757 6.44313 8.1707V17.1707C6.44313 18.1607 7.26131 18.9707 8.26131 18.9707H16.4431C17.1977 18.9707 17.8431 18.5207 18.1159 17.8727L20.8613 11.5277C20.9431 11.3207 20.9886 11.1047 20.9886 10.8707V9.0707C20.9886 8.0807 20.1704 7.2707 19.1704 7.2707ZM19.1704 10.8707L16.4431 17.1707H8.26131V8.1707L12.2068 4.2647L11.1977 9.0707H19.1704V10.8707ZM0.988586 8.1707H4.62495V18.9707H0.988586V8.1707Z" fill="#C2C2C2"/>
</svg>
