<svg width="31" height="40" viewBox="0 0 31 40" fill="none" xmlns="http://www.w3.org/2000/svg">
<path d="M15.2381 30.4762C17.3333 30.4762 19.0476 28.7619 19.0476 26.6667C19.0476 24.5714 17.3333 22.8571 15.2381 22.8571C13.1429 22.8571 11.4286 24.5714 11.4286 26.6667C11.4286 28.7619 13.1429 30.4762 15.2381 30.4762ZM26.6667 13.3333H24.7619V9.52381C24.7619 4.26667 20.4952 0 15.2381 0C9.98095 0 5.71429 4.26667 5.71429 9.52381V13.3333H3.80952C1.71429 13.3333 0 15.0476 0 17.1429V36.1905C0 38.2857 1.71429 40 3.80952 40H26.6667C28.7619 40 30.4762 38.2857 30.4762 36.1905V17.1429C30.4762 15.0476 28.7619 13.3333 26.6667 13.3333ZM9.33333 9.52381C9.33333 6.26667 11.981 3.61905 15.2381 3.61905C18.4952 3.61905 21.1429 6.26667 21.1429 9.52381V13.3333H9.33333V9.52381ZM26.6667 36.1905H3.80952V17.1429H26.6667V36.1905Z" fill="#DC9E00"/>
</svg>
