<svg width="115" height="28" viewBox="0 0 115 28" fill="none" xmlns="http://www.w3.org/2000/svg">
<path d="M39.9739 20.9481C40.8262 21.1699 41.7133 21.4713 42.6349 21.849C44.558 22.6356 45.944 23.0306 46.7964 23.0306C47.0874 23.0306 47.524 22.9578 48.1096 22.8088V23.3875C47.278 23.8171 46.6612 24.226 46.2628 24.6106C45.6183 24.5274 45.0362 24.4166 44.5164 24.278C43.9967 24.1428 43.2067 23.8795 42.1464 23.4879C40.3966 22.8504 39.2185 22.5316 38.619 22.5316C38.4493 22.5316 38.2656 22.5697 38.0751 22.6425C37.8879 22.7153 37.4167 22.9647 36.6613 23.3875V22.6529C37.9295 21.8005 38.8408 21.2323 39.3883 20.9516C37.7112 20.9516 36.2802 20.6224 35.0917 19.9606C33.9032 19.2919 32.9781 18.3425 32.3094 17.1124C31.6406 15.8824 31.308 14.4375 31.308 12.7812C31.308 10.3627 32.0945 8.40844 33.6676 6.91504C35.2407 5.42511 37.337 4.67668 39.9565 4.67668C42.5241 4.67668 44.5337 5.36967 45.989 6.75912C47.4512 8.13818 48.1823 9.97807 48.1823 12.2788C48.1823 14.0459 47.7527 15.5948 46.8899 16.9322C46.0375 18.2593 44.9149 19.2815 43.5289 19.9918C42.531 20.5012 41.3494 20.8199 39.9739 20.9481ZM33.6538 11.8769C33.6538 13.547 33.9379 15.0023 34.5096 16.2393C35.0813 17.4762 35.8436 18.4083 36.8034 19.032C37.7597 19.6488 38.8547 19.9572 40.0882 19.9572C41.2316 19.9572 42.2295 19.6938 43.0819 19.1671C43.9343 18.6405 44.6065 17.8574 45.0951 16.8179C45.5836 15.7784 45.8296 14.5102 45.8296 13.0099C45.8296 11.4368 45.5594 10.0924 45.0154 8.98016C44.4748 7.86791 43.7333 7.03285 42.7909 6.475C41.8484 5.91021 40.7327 5.62954 39.4402 5.62954C38.2622 5.62954 37.2435 5.87902 36.3911 6.37451C35.5387 6.87 34.8665 7.59764 34.3779 8.55744C33.8928 9.51723 33.6538 10.6226 33.6538 11.8769ZM57.5966 20.7368L57.7318 18.734L57.0734 19.4478C56.5606 20.0057 56.0374 20.3972 55.5038 20.6259C54.9771 20.8477 54.3257 20.9585 53.5461 20.9585C52.8774 20.9585 52.3022 20.8165 51.8206 20.5358C51.3389 20.2551 50.9855 19.8913 50.7637 19.4443C50.5489 18.9904 50.4415 18.2801 50.4415 17.3065C50.4415 16.8006 50.4519 16.215 50.4761 15.5463L50.5108 13.7549C50.5108 12.5006 50.4727 11.8041 50.3999 11.662C50.3341 11.52 50.0985 11.4507 49.7 11.4507H48.709V10.8374C49.7173 10.7473 50.6494 10.5636 51.5018 10.2795L52.4269 9.93303C52.5517 9.93303 52.6175 10.0266 52.6175 10.2102L52.5413 11.3467C52.4373 12.9198 52.3853 14.382 52.3853 15.7334C52.3853 17.0847 52.4408 17.9475 52.5517 18.3252C52.6625 18.6959 52.8981 19.0078 53.2516 19.2607C53.6085 19.5067 54.0416 19.628 54.5544 19.628C55.2439 19.628 55.8746 19.4062 56.4463 18.9592C57.0249 18.5157 57.4026 18.0653 57.5828 17.6114C57.6798 17.3515 57.7283 16.5684 57.7283 15.2621C57.7283 13.0653 57.6867 11.8699 57.607 11.6794C57.5343 11.5234 57.1982 11.4472 56.6057 11.4472H55.7256V10.8339C56.4913 10.7438 57.1393 10.6399 57.6729 10.5221C58.2065 10.4043 58.7713 10.2241 59.3638 9.98846C59.4365 9.95035 59.5058 9.93303 59.5647 9.93303C59.6895 9.93303 59.7553 10.0023 59.7553 10.1444L59.7103 11.1804C59.5994 13.7168 59.5439 15.9517 59.5439 17.8816C59.5439 18.9662 59.5994 19.5829 59.7103 19.7389C59.8731 19.9676 60.2265 20.0854 60.7671 20.0854H61.4116V20.7298C60.483 20.6779 59.6964 20.6501 59.0519 20.6501C58.5599 20.6571 58.0783 20.6848 57.5966 20.7368ZM64.8765 4.99546C65.2196 4.99546 65.5106 5.1202 65.7566 5.37314C66.0026 5.61915 66.1239 5.91367 66.1239 6.26363C66.1239 6.61359 66.0026 6.90811 65.7566 7.15413C65.5106 7.40014 65.2196 7.52141 64.8765 7.52141C64.5266 7.52141 64.232 7.40014 63.986 7.15413C63.74 6.90811 63.6187 6.61359 63.6187 6.26363C63.6187 5.91367 63.74 5.61915 63.986 5.37314C64.2286 5.12366 64.5266 4.99546 64.8765 4.99546ZM65.767 9.92956L66.0338 10.0959C65.9818 10.6537 65.9472 11.2636 65.9333 11.9323C65.8814 14.0979 65.8571 15.6987 65.8571 16.7313C65.8571 17.6945 65.8918 18.5192 65.9576 19.2018C65.9888 19.4686 66.0581 19.6557 66.1689 19.7597C66.2798 19.8636 66.5466 19.9398 66.9694 19.9918L67.7247 20.0923V20.7368C66.6402 20.6848 65.6561 20.6571 64.7656 20.6571C63.889 20.6571 63.0054 20.6848 62.1149 20.7368V20.0923L63.0713 19.9918C63.442 19.9606 63.6672 19.8948 63.7504 19.7908C63.8405 19.68 63.8959 19.3196 63.9167 18.7098C63.9548 17.7673 63.9722 16.4679 63.9722 14.8152C63.9722 13.6648 63.9548 12.7778 63.9167 12.1541C63.9029 11.9254 63.8336 11.7625 63.7158 11.6655C63.6049 11.5685 63.3485 11.52 62.9465 11.52H62.1115V10.8616C63.0158 10.7265 63.6811 10.6052 64.1038 10.4943C64.537 10.3835 65.0914 10.1964 65.767 9.92956ZM72.1564 4.20545C72.0317 6.37798 71.9658 8.34607 71.9658 10.1063V15.8269C71.9658 18.0965 72.0143 19.3854 72.1114 19.6904C72.1633 19.8463 72.4093 19.9468 72.8459 19.9918L73.7919 20.0923V20.7368C72.9845 20.6848 72.2118 20.6571 71.4773 20.6571C70.6595 20.6571 69.5923 20.6848 68.2722 20.7368V20.0923L69.2285 20.0161C69.6512 19.9779 69.8938 19.8705 69.9527 19.6938C70.0497 19.4028 70.0982 18.0861 70.0982 15.7438V10.0508L70.0878 7.91295L70.0532 6.45421C70.0532 6.09038 70.0116 5.86863 69.9319 5.78547C69.8141 5.66766 69.5646 5.60875 69.1869 5.60875H68.2756V4.94002C69.8176 4.79795 71.0511 4.51036 71.9693 4.07031L72.1564 4.20545ZM78.331 4.20545C78.2062 6.37798 78.1404 8.34607 78.1404 10.1063V15.8269C78.1404 18.0965 78.1889 19.3854 78.2859 19.6904C78.3379 19.8463 78.5839 19.9468 79.0205 19.9918L79.9664 20.0923V20.7368C79.1591 20.6848 78.3864 20.6571 77.6518 20.6571C76.8341 20.6571 75.7669 20.6848 74.4467 20.7368V20.0923L75.4031 20.0161C75.8258 19.9779 76.0683 19.8705 76.1273 19.6938C76.2243 19.4028 76.2728 18.0861 76.2728 15.7438V10.0508L76.2624 7.91295L76.2277 6.45421C76.2277 6.09038 76.1862 5.86863 76.1065 5.78547C75.9887 5.66766 75.7392 5.60875 75.3615 5.60875H74.4502V4.94002C75.9921 4.79795 77.2256 4.51036 78.1439 4.07031L78.331 4.20545Z" fill="#66AA4C"/>
<path d="M93.0985 14.6382C92.9148 14.167 92.6654 13.7581 92.3466 13.4081C92.0417 13.0443 91.6778 12.7533 91.2517 12.5419C90.8255 12.3132 90.3716 12.185 89.883 12.1538V12.1088C90.7042 11.835 91.3729 11.4088 91.8892 10.8337C92.4055 10.2412 92.6654 9.48233 92.6654 8.55372C92.6654 7.87112 92.5372 7.27862 92.2773 6.7762C92.0347 6.25992 91.6917 5.84066 91.2517 5.52188C90.8255 5.18924 90.3092 4.9363 89.7028 4.76998C89.1103 4.60367 88.4658 4.52051 87.7659 4.52051H82.1596V20.6603H87.7001C88.4901 20.6603 89.2281 20.5633 89.9107 20.3623C90.5933 20.1648 91.1962 19.8772 91.7125 19.4961C92.2288 19.1149 92.6342 18.6541 92.9218 18.1066C93.2267 17.5453 93.3791 16.8973 93.3791 16.1697C93.3688 15.6188 93.2787 15.1094 93.0985 14.6382ZM84.3425 6.43317H87.7832C88.6633 6.43317 89.3113 6.66878 89.7202 7.14002C90.129 7.61125 90.3369 8.16565 90.3369 8.8032C90.3369 9.24325 90.2538 9.61746 90.0874 9.91891C89.935 10.2238 89.7236 10.4733 89.4499 10.6708C89.1762 10.8683 88.8574 11.0138 88.4936 11.1039C88.1297 11.1802 87.7417 11.2183 87.3293 11.2183H84.3425V6.43317ZM90.6799 17.3963C90.4374 17.7463 90.1394 18.0269 89.7894 18.2383C89.4395 18.4358 89.0583 18.5744 88.6495 18.6471C88.2545 18.7095 87.8906 18.7372 87.5545 18.7372H84.3425V13.1344H87.5788C88.6425 13.1344 89.4845 13.3769 90.1082 13.8655C90.7319 14.3367 91.0438 15.0505 91.0438 16.0069C91.0438 16.5855 90.9225 17.0498 90.6799 17.3963Z" fill="#469554"/>
<path d="M106.04 13.0446C105.753 12.362 105.347 11.7591 104.831 11.2428C104.315 10.7265 103.705 10.3246 103.008 10.0335C102.308 9.72863 101.556 9.57617 100.753 9.57617C99.9487 9.57617 99.1968 9.72863 98.4969 10.0335C97.797 10.3211 97.1906 10.7265 96.6743 11.2428C96.158 11.7591 95.7457 12.3585 95.4443 13.0446C95.1567 13.7272 95.0111 14.4652 95.0111 15.2552C95.0111 16.0453 95.1567 16.7902 95.4443 17.4901C95.7492 18.1727 96.158 18.7756 96.6743 19.2919C97.1906 19.7943 97.797 20.1963 98.4969 20.5012C99.1968 20.7888 99.9487 20.9343 100.753 20.9343C101.556 20.9343 102.312 20.7888 103.008 20.5012C103.708 20.1963 104.315 19.7943 104.831 19.2919C105.347 18.7756 105.749 18.1762 106.04 17.4901C106.345 16.7902 106.497 16.0453 106.497 15.2552C106.497 14.4652 106.345 13.7272 106.04 13.0446ZM104.058 16.7833C103.892 17.2407 103.656 17.6357 103.351 17.9683C103.046 18.2871 102.676 18.547 102.236 18.7445C101.796 18.9281 101.3 19.0182 100.753 19.0182C100.205 19.0182 99.7131 18.9281 99.2696 18.7445C98.8295 18.547 98.4553 18.2871 98.1539 17.9683C97.8489 17.6357 97.6133 17.2372 97.447 16.7833C97.2807 16.3121 97.1975 15.8027 97.1975 15.2552C97.1975 14.7078 97.2807 14.2054 97.447 13.7514C97.6133 13.2802 97.8489 12.8852 98.1539 12.5664C98.4588 12.2338 98.8295 11.9739 99.2696 11.7903C99.7096 11.5928 100.205 11.4923 100.753 11.4923C101.3 11.4923 101.796 11.5893 102.236 11.7903C102.676 11.9739 103.05 12.2303 103.351 12.5664C103.656 12.8852 103.892 13.2802 104.058 13.7514C104.224 14.2088 104.308 14.7078 104.308 15.2552C104.308 15.8027 104.224 16.3121 104.058 16.7833Z" fill="#469554"/>
<path d="M114.401 11.6297H111.459V16.5291C111.459 16.834 111.466 17.1355 111.484 17.4404C111.497 17.728 111.553 17.9948 111.643 18.2374C111.75 18.466 111.899 18.6566 112.1 18.8056C112.312 18.9407 112.617 19.01 113.012 19.01C113.254 19.01 113.507 18.9858 113.764 18.9407C114.02 18.8957 114.259 18.8125 114.47 18.6913V20.5589C114.228 20.694 113.909 20.7876 113.514 20.8326C113.133 20.895 112.838 20.9227 112.624 20.9227C111.834 20.9227 111.217 20.8153 110.777 20.6039C110.351 20.3752 110.032 20.0876 109.82 19.7377C109.623 19.3877 109.502 18.9996 109.457 18.5735C109.425 18.1334 109.412 17.6934 109.412 17.2498V11.6297H107.042V9.85215H109.412V6.82031H111.459V9.85215H114.401V11.6297Z" fill="#469554"/>
<path d="M13.8861 27.4445C21.4258 27.4445 27.538 21.3323 27.538 13.7926C27.538 6.25281 21.4258 0.140625 13.8861 0.140625C6.34631 0.140625 0.234131 6.25281 0.234131 13.7926C0.234131 21.3323 6.34631 27.4445 13.8861 27.4445Z" fill="#469654"/>
<path fillRule="evenodd" clipRule="evenodd" d="M18.2173 1.83088L17.5243 3.94104C17.5209 3.9549 17.507 3.96183 17.4966 3.96183L16.9803 3.92025C16.9492 3.91678 16.9388 3.95836 16.963 3.97222L17.4169 4.24942C17.4308 4.25635 17.4343 4.27367 17.4273 4.28753L16.9838 5.04636C16.9803 5.05329 16.9699 5.06022 16.963 5.06022L16.3393 5.11566C16.3081 5.11912 16.3047 5.15724 16.3324 5.1711L16.7863 5.35821C16.8036 5.36513 16.8106 5.38246 16.8002 5.39978L16.3359 6.21059C16.3324 6.21751 16.322 6.22444 16.3151 6.22444L15.5355 6.29374C15.5077 6.29721 15.5008 6.33186 15.5251 6.34572L15.9339 6.56748C15.9478 6.57441 15.9512 6.59173 15.9478 6.60559C15.7884 6.92437 15.4246 7.58617 15.1162 7.65547L14.6138 7.78714C14.5861 7.79407 14.5861 7.83565 14.6138 7.84258L15.0296 7.94653C15.0469 7.95 15.0573 7.97078 15.0504 7.98464C14.8078 8.51132 14.3123 9.16966 13.4981 9.0276C14.0005 6.93476 15.1127 4.93895 16.3948 3.32081L16.4606 3.28962L16.277 3.20993L16.2562 3.23765C15.331 4.2217 13.7856 6.81002 13.1931 8.92711C12.9333 8.75387 12.6387 8.29303 12.8293 7.3956C12.8328 7.38174 12.8466 7.37135 12.8605 7.37481L13.2209 7.406C13.2486 7.40946 13.2624 7.37481 13.2417 7.35749L12.9194 7.04911C12.9125 7.04218 12.909 7.03525 12.909 7.02832C12.9229 6.69914 12.9852 6.04427 13.1308 5.87448C13.1377 5.86409 13.155 5.86409 13.1654 5.87102L13.6367 6.18633C13.6609 6.20366 13.6921 6.17247 13.6748 6.14822L13.3179 5.61808C13.3109 5.61115 13.3109 5.60075 13.3144 5.59036C13.5223 5.16763 13.952 4.33258 14.1252 4.16972C14.1356 4.15933 14.1495 4.16279 14.1599 4.16972L14.4994 4.45039C14.5237 4.46771 14.5549 4.44692 14.5445 4.4192L14.3019 3.8059C14.2985 3.79897 14.2985 3.78858 14.3054 3.78165C14.5999 3.35199 15.2964 2.49961 15.823 2.3922C15.8334 2.38873 15.8473 2.39566 15.8542 2.40606L16.0413 2.73523C16.0552 2.76295 16.0968 2.74909 16.0933 2.71791L16.0448 2.20163C16.0448 2.19123 16.0483 2.18084 16.0587 2.17391C16.3532 2.02145 17.1605 1.75118 18.1896 1.79969C18.2104 1.79623 18.2208 1.81355 18.2173 1.83088ZM16.3324 3.17875C16.4329 3.18221 16.4502 3.25497 16.4537 3.29309L16.277 3.20993C16.2908 3.18914 16.3116 3.17875 16.3324 3.17875Z" fill="white"/>
<path d="M11.2077 20.1151V18.7188H15.3865V20.1151H11.2077Z" fill="white"/>
<path fillRule="evenodd" clipRule="evenodd" d="M6.06567 17.9494V9.74092C6.06567 9.43254 6.31515 9.18652 6.62007 9.18652H20.0745C20.3829 9.18652 20.6289 9.436 20.6289 9.74092V17.9494C20.6289 18.2578 20.3794 18.5038 20.0745 18.5038H6.62353C6.31515 18.5038 6.06567 18.2543 6.06567 17.9494ZM10.778 13.8989C10.778 14.6092 10.2028 15.1844 9.49252 15.1844C8.7822 15.1844 8.20702 14.6092 8.20702 13.8989C8.20702 13.1886 8.7822 12.6134 9.49252 12.6134C10.2028 12.6134 10.778 13.1886 10.778 13.8989ZM17.2055 15.1844C17.9158 15.1844 18.491 14.6092 18.491 13.8989C18.491 13.1886 17.9158 12.6134 17.2055 12.6134C16.4952 12.6134 15.92 13.1886 15.92 13.8989C15.92 14.6092 16.4952 15.1844 17.2055 15.1844Z" fill="white"/>
<path d="M4.50647 23.7087C5.02621 24.2007 5.58061 24.6511 6.17312 25.0565V22.042C5.6707 22.0385 4.84604 22.5618 4.50647 23.7087Z" fill="white"/>
<path d="M9.38157 25.3264C9.4849 25.3264 9.56867 25.2426 9.56867 25.1393C9.56867 25.0359 9.4849 24.9521 9.38157 24.9521C9.27823 24.9521 9.19446 25.0359 9.19446 25.1393C9.19446 25.2426 9.27823 25.3264 9.38157 25.3264Z" fill="white"/>
<path d="M20.2061 22.8672H12.0358V27.3162C12.6421 27.3994 13.2589 27.4444 13.8861 27.4444C16.166 27.4444 18.3143 26.8831 20.2061 25.8921V22.8672ZM18.9969 24.3952H13.1376C12.9817 24.3952 12.8535 24.267 12.8535 24.1111V23.8235C12.8535 23.6676 12.9817 23.5394 13.1376 23.5394H18.9969C19.1528 23.5394 19.281 23.6676 19.281 23.8235V24.1111C19.281 24.2705 19.1528 24.3952 18.9969 24.3952Z" fill="white"/>
<path d="M19.6484 20.3271H7.04976C6.74137 20.3271 6.49536 20.5766 6.49536 20.8815V25.2682C7.13984 25.684 7.82244 26.0513 8.53622 26.3562C8.59166 26.3389 8.65057 26.325 8.71294 26.325H10.1474C10.4627 26.325 10.7157 26.5779 10.7157 26.8932V27.07C11.0275 27.1427 11.3463 27.2086 11.6651 27.2605V22.6833V22.4997H11.8487H20.2027V20.885C20.2062 20.5732 19.9567 20.3271 19.6484 20.3271ZM9.38167 22.6833C9.80093 22.6833 10.137 23.0229 10.137 23.4387C10.137 23.8579 9.79747 24.194 9.38167 24.194C8.96241 24.194 8.62631 23.8545 8.62631 23.4387C8.62631 23.0194 8.96241 22.6833 9.38167 22.6833ZM9.38167 25.8953C8.96241 25.8953 8.62631 25.5558 8.62631 25.14C8.62631 24.7207 8.96588 24.3846 9.38167 24.3846C9.80093 24.3846 10.137 24.7242 10.137 25.14C10.137 25.5558 9.79747 25.8953 9.38167 25.8953Z" fill="white"/>
<path d="M9.38157 23.6262C9.48551 23.6262 9.56867 23.543 9.56867 23.4391C9.56867 23.3351 9.48551 23.252 9.38157 23.252C9.27762 23.252 9.19446 23.3351 9.19446 23.4391C9.19446 23.543 9.27762 23.6262 9.38157 23.6262Z" fill="white"/>
<path d="M22.3164 24.5259C22.2021 22.8073 21.1141 22.0381 20.5077 22.0381V25.7283C21.1418 25.3783 21.7447 24.9729 22.3164 24.5259Z" fill="white"/>
</svg>
