<svg width="25" height="25" viewBox="0 0 25 25" fill="none" xmlns="http://www.w3.org/2000/svg">
<rect width="24" height="24" transform="translate(0.623245 0.109884)" fill="white"/>
<path d="M8.74428 12.8773L10.5014 10.8165C10.5526 10.7565 10.6463 10.7599 10.6931 10.8234L12.1119 12.7501C12.1593 12.8145 12.2548 12.8168 12.3053 12.7547L13.8787 10.8216C13.9292 10.7596 14.0247 10.7619 14.0722 10.8263L15.4839 12.7435C15.5328 12.8099 15.6321 12.8099 15.681 12.7435L17.1865 10.6991M20.346 11.7877C20.346 15.5146 16.995 18.5359 12.8614 18.5359C11.6343 18.5359 10.4762 18.2697 9.45428 17.7978C8.15608 18.2037 6.4994 18.5505 5.33103 18.5365C4.88857 18.5311 4.71369 18.0504 4.97739 17.695L6.60826 15.4975C5.82983 14.4331 5.37677 13.1581 5.37677 11.7877C5.37677 8.0608 8.72774 5.03954 12.8614 5.03954C16.995 5.03954 20.346 8.0608 20.346 11.7877Z" stroke="black" strokeWidth="1.5" strokeLinecap="round"/>
</svg>
