<svg width="25" height="25" viewBox="0 0 25 25" fill="none" xmlns="http://www.w3.org/2000/svg">
<rect width="24" height="24" transform="translate(0.376999 0.946884)" fill="white"/>
<path d="M9.56176 11.594H7.06907L7.98611 10.6205C8.44611 10.1322 8.45152 9.37171 7.99853 8.87691C7.49634 8.32837 6.63416 8.32127 6.12301 8.86146L3.02665 12.1337C2.66358 12.5174 2.66767 13.1192 3.03593 13.4979L6.25318 16.8066C6.70717 17.2735 7.45052 17.2935 7.92904 16.8518C8.41268 16.4054 8.44695 15.6529 8.0059 15.1643L7.06907 14.1266H9.56176C10.2611 14.1266 10.8281 13.5596 10.8281 12.8603C10.8281 12.1609 10.2611 11.594 9.56176 11.594Z" stroke="black" strokeWidth="1.25"/>
<path d="M14.4323 11.594H16.925L16.0079 10.6205C15.5479 10.1322 15.5425 9.37171 15.9955 8.87691C16.4977 8.32837 17.3599 8.32127 17.871 8.86146L20.9674 12.1337C21.3305 12.5174 21.3264 13.1192 20.9581 13.4979L17.7409 16.8066C17.2869 17.2735 16.5435 17.2935 16.065 16.8518C15.5814 16.4054 15.5471 15.6529 15.9881 15.1643L16.925 14.1266H14.4323C13.7329 14.1266 13.166 13.5596 13.166 12.8603C13.166 12.1609 13.7329 11.594 14.4323 11.594Z" stroke="black" strokeWidth="1.25"/>
</svg>
