<svg width="25" height="25" viewBox="0 0 25 25" fill="none" xmlns="http://www.w3.org/2000/svg">
<rect width="24" height="24" transform="translate(0.623245 0.837402)" fill="white"/>
<path d="M6.98367 4.18979L7.16235 3.57304C7.30505 3.0805 7.99969 3.07158 8.15499 3.5603L8.35877 4.20163C8.40946 4.36115 8.534 4.48641 8.69323 4.53801L9.50602 4.80141C9.98027 4.9551 9.98584 5.62405 9.51422 5.78562L8.68145 6.07092C8.52893 6.12318 8.40938 6.24337 8.35794 6.39617L8.15212 7.0076C7.99131 7.4853 7.31248 7.47617 7.16458 6.99431L6.98474 6.40837C6.93569 6.24857 6.81265 6.1222 6.65421 6.06891L5.81485 5.78658C5.33961 5.62673 5.34515 4.95262 5.82295 4.80059L6.6427 4.53976C6.80762 4.48728 6.93551 4.35602 6.98367 4.18979Z" fill="black"/>
<path fillRule="evenodd" clipRule="evenodd" d="M11.9733 6.32741C12.2679 6.25924 12.5753 6.36792 12.7616 6.60609L15.5317 10.1476L20.4248 8.90657C20.744 8.82561 21.0796 8.95436 21.2628 9.22804C21.4459 9.50172 21.437 9.86106 21.2404 10.1253L17.8848 14.6354L19.8815 19.0567C20.0057 19.3317 19.9597 19.6538 19.7634 19.883C19.5671 20.1123 19.2559 20.2073 18.965 20.1269L14.6047 18.9216L10.5942 22.9683C10.3722 23.1922 10.037 23.2601 9.7454 23.1401C9.45378 23.02 9.26344 22.7359 9.26344 22.4205V16.9686L4.89175 14.765C4.60908 14.6225 4.4409 14.3229 4.46641 14.0074C4.49192 13.6919 4.70602 13.4233 5.00791 13.3281L10.3891 11.6306L11.3875 6.92402C11.4502 6.62823 11.6787 6.39557 11.9733 6.32741ZM12.5636 8.87897L11.8172 12.3976C11.759 12.672 11.5577 12.8938 11.2902 12.9782L7.30088 14.2366L10.3918 15.7946C10.6542 15.9268 10.8197 16.1956 10.8197 16.4894V20.53L13.8202 17.5025C14.0183 17.3026 14.3089 17.2253 14.5801 17.3002L17.7802 18.1848L16.2781 14.8586C16.1617 14.6011 16.1942 14.3007 16.3629 14.0739L18.6846 10.9534L15.4226 11.7808C15.1237 11.8565 14.8083 11.7488 14.6184 11.5059L12.5636 8.87897Z" fill="black"/>
<path d="M16.3206 5.51992L16.212 5.89472C16.1827 5.99574 16.105 6.07551 16.0048 6.10739L15.5066 6.2659C15.2163 6.35829 15.2129 6.76794 15.5017 6.86508L16.0118 7.03665C16.1081 7.06904 16.1828 7.14583 16.2126 7.24294L16.3219 7.59901C16.4118 7.89184 16.8243 7.89739 16.922 7.60709L17.0471 7.23553C17.0784 7.14267 17.151 7.06963 17.2437 7.03788L17.7498 6.8645C18.0364 6.76631 18.033 6.3598 17.7448 6.2664L17.2509 6.10633C17.1541 6.07497 17.0784 5.99885 17.0476 5.90191L16.9238 5.51218C16.8294 5.21519 16.4073 5.22061 16.3206 5.51992Z" fill="black"/>
</svg>
