<svg width="25" height="25" viewBox="0 0 25 25" fill="none" xmlns="http://www.w3.org/2000/svg">
<rect width="24" height="24" transform="translate(0.376999 0.109884)" fill="white"/>
<path d="M3.15094 10.4103H5.76018L4.80406 9.39531C4.32446 8.8862 4.31881 8.09333 4.79111 7.57743C5.3147 7.00551 6.21362 6.99811 6.74656 7.56133L9.97488 10.9731C10.3534 11.3731 10.3492 12.0005 9.9652 12.3954L6.61084 15.845C6.1375 16.3318 5.36247 16.3527 4.86356 15.8922C4.35931 15.4268 4.32358 14.6422 4.78343 14.1328L5.76018 13.0509H3.15094C2.42747 13.0509 1.84097 12.454 1.84097 11.7306C1.84097 11.0071 2.42747 10.4103 3.15094 10.4103Z" stroke="#252525" strokeWidth="1.25"/>
<path d="M20.591 10.4103H17.9818L18.9379 9.39532C19.4175 8.88621 19.4231 8.09333 18.9508 7.57744C18.4272 7.00552 17.5283 6.99812 16.9954 7.56134L13.7671 10.9731C13.3885 11.3731 13.3928 12.0005 13.7767 12.3954L17.1311 15.845C17.6044 16.3318 18.3795 16.3528 18.8784 15.8922C19.3826 15.4268 19.4184 14.6422 18.9585 14.1328L17.9818 13.0509H20.591C21.3145 13.0509 21.901 12.454 21.901 11.7306C21.901 11.0071 21.3145 10.4103 20.591 10.4103Z" stroke="#252525" strokeWidth="1.25"/>
</svg>
