<svg width="25" height="25" viewBox="0 0 25 25" fill="none" xmlns="http://www.w3.org/2000/svg">
<rect width="24" height="24" transform="translate(0.418106 0.837402)" fill="white"/>
<path d="M14.2788 2.68808L14.8296 2.3927C14.7194 2.18732 14.5042 2.06028 14.2711 2.06313C14.0381 2.06598 13.826 2.19825 13.7209 2.40627L14.2788 2.68808ZM13.4728 4.28355L13.5679 4.90126C13.7674 4.87054 13.9397 4.74545 14.0306 4.56536L13.4728 4.28355ZM11.5941 4.57295L11.499 3.95524C11.2696 3.99056 11.0788 4.15001 11.0032 4.36937C10.9276 4.58874 10.9798 4.83191 11.1387 5.00098L11.5941 4.57295ZM12.8723 5.93292L13.4896 6.03029C13.5197 5.83954 13.4599 5.6456 13.3277 5.50489L12.8723 5.93292ZM12.5783 7.79657L11.9609 7.6992C11.9242 7.93206 12.0216 8.16577 12.2129 8.30361C12.4041 8.44144 12.6567 8.45994 12.8659 8.35145L12.5783 7.79657ZM14.2788 6.91511L14.57 6.36213C14.389 6.26678 14.1728 6.26608 13.9911 6.36023L14.2788 6.91511ZM15.9523 7.79657L15.6611 8.34956C15.8723 8.46081 16.1284 8.44202 16.3212 8.30114C16.5139 8.16025 16.6095 7.92189 16.5676 7.68687L15.9523 7.79657ZM15.62 5.93292L15.1875 5.48175C15.0366 5.62638 14.968 5.83686 15.0047 6.04262L15.62 5.93292ZM17.0386 4.57295L17.4712 5.02412C17.643 4.85935 17.7064 4.61122 17.6345 4.38423C17.5626 4.15724 17.368 3.99082 17.1326 3.95505L17.0386 4.57295ZM15.1344 4.28355L14.5836 4.57893C14.6766 4.75238 14.8459 4.87188 15.0405 4.90145L15.1344 4.28355ZM14.589 19.8387L15.0276 20.2838L15.214 20.1002V19.8387H14.589ZM13.191 18.6155L13.6025 18.1451L13.1789 17.7745L12.7661 18.1571L13.191 18.6155ZM12.3913 19.3567L11.9418 19.791L12.3672 20.2313L12.8162 19.8151L12.3913 19.3567ZM11.8046 18.7494L12.2541 18.3152L11.8146 17.8603L11.365 18.3051L11.8046 18.7494ZM11.1298 19.4169L10.6853 19.8562L11.1249 20.3009L11.5694 19.8612L11.1298 19.4169ZM10.3378 18.6155L10.7823 18.1761L10.3743 17.7634L9.93247 18.1397L10.3378 18.6155ZM8.9019 19.8387H8.2769V20.0941L8.45575 20.2764L8.9019 19.8387ZM11.6973 22.6881L11.2512 23.1258L11.6898 23.5729L12.136 23.1333L11.6973 22.6881ZM14.589 9.56192H15.214V8.93692H14.589V9.56192ZM13.7209 2.40627L12.9149 4.00173L14.0306 4.56536L14.8366 2.96989L13.7209 2.40627ZM13.3776 3.66583L11.499 3.95524L11.6893 5.19066L13.5679 4.90126L13.3776 3.66583ZM11.1387 5.00098L12.4168 6.36095L13.3277 5.50489L12.0495 4.14492L11.1387 5.00098ZM12.2549 5.83554L11.9609 7.6992L13.1957 7.89395L13.4896 6.03029L12.2549 5.83554ZM12.8659 8.35145L14.5664 7.47L13.9911 6.36023L12.2907 7.24169L12.8659 8.35145ZM13.9875 7.4681L15.6611 8.34956L16.2436 7.24359L14.57 6.36213L13.9875 7.4681ZM16.5676 7.68687L16.2353 5.82321L15.0047 6.04262L15.337 7.90628L16.5676 7.68687ZM16.0525 6.38409L17.4712 5.02412L16.6061 4.12178L15.1875 5.48175L16.0525 6.38409ZM17.1326 3.95505L15.2283 3.66564L15.0405 4.90145L16.9447 5.19086L17.1326 3.95505ZM15.6852 3.98817L14.8296 2.3927L13.728 2.98346L14.5836 4.57893L15.6852 3.98817ZM10.4621 22.4055H12.8569V21.1555H10.4621V22.4055ZM15.0005 19.3683L13.6025 18.1451L12.7794 19.0859L14.1774 20.309L15.0005 19.3683ZM12.7661 18.1571L11.9664 18.8984L12.8162 19.8151L13.6159 19.0739L12.7661 18.1571ZM12.8408 18.9225L12.2541 18.3152L11.3551 19.1836L11.9418 19.791L12.8408 18.9225ZM11.365 18.3051L10.6903 18.9726L11.5694 19.8612L12.2441 19.1937L11.365 18.3051ZM11.5744 18.9775L10.7823 18.1761L9.89325 19.0549L10.6853 19.8562L11.5744 18.9775ZM9.93247 18.1397L8.49661 19.3629L9.3072 20.3144L10.7431 19.0913L9.93247 18.1397ZM8.2769 9.56192V19.8387H9.5269V9.56192H8.2769ZM8.45575 20.2764L11.2512 23.1258L12.1435 22.2504L9.34805 19.401L8.45575 20.2764ZM12.136 23.1333L15.0276 20.2838L14.1503 19.3935L11.2586 22.2429L12.136 23.1333ZM15.214 19.8387L15.214 9.56192H13.964L13.964 19.8387H15.214ZM8.9019 10.1869H14.589V8.93692H8.9019V10.1869ZM11.1497 5.98222H9.9019V7.23222H11.1497V5.98222ZM9.9019 5.98222C9.0132 5.98222 8.2769 6.69447 8.2769 7.5925H9.5269C9.5269 7.40223 9.68603 7.23222 9.9019 7.23222V5.98222ZM8.2769 7.5925V9.56192H9.5269V7.5925H8.2769Z" fill="black"/>
</svg>
