<svg width="24" height="25" viewBox="0 0 24 25" fill="none" xmlns="http://www.w3.org/2000/svg">
<rect width="24" height="24" transform="translate(0 0.109884)" fill="white"/>
<path d="M4.87999 10.1019C4.87999 11.4093 6.09066 12.4796 7.39805 12.4796H11.1126M19.12 10.1123C19.12 11.4197 17.9175 12.4796 16.6101 12.4796H12.9313M12.9313 12.4796V10.8106H11.1126V12.4796M12.9313 12.4796V12.6334C12.9313 13.1329 12.5186 13.5379 12.0191 13.5379C11.5195 13.5379 11.1146 13.1329 11.1146 12.6334L11.1126 12.4796M13.9118 7.46229H18.5282C18.8551 7.46229 19.12 7.72725 19.12 8.0541V16.0474C19.12 16.3742 18.8551 16.6392 18.5282 16.6392H5.4718C5.14495 16.6392 4.87999 16.3742 4.87999 16.0474V8.0541C4.87999 7.72725 5.14495 7.46229 5.4718 7.46229H10.0525M13.9118 7.46229V6.17237C13.9118 5.84553 13.6468 5.58057 13.32 5.58057H10.6443C10.3174 5.58057 10.0525 5.84553 10.0525 6.17237V7.46229M13.9118 7.46229H10.0525" stroke="#252525" strokeWidth="1.20937"/>
</svg>
