<svg width="42" height="42" viewBox="0 0 42 42" fill="none" xmlns="http://www.w3.org/2000/svg">
<g filter="url(#filter0_d)">
<circle cx="21.1158" cy="19.1921" r="14.3678" fill="#4C9459"/>
</g>
<circle cx="21.1158" cy="19.1921" r="13.0913" stroke="white" strokeWidth="0.5"/>
<mask id="mask0" mask-type="alpha" maskUnits="userSpaceOnUse" x="13" y="9" width="17" height="20">
<rect x="13.1415" y="9.97705" width="15.9727" height="18.43" fill="#4C9459"/>
</mask>
<g mask="url(#mask0)">
<path d="M26.2394 16.5251C26.8523 14.108 26.8322 11.8127 25.6723 11.0985C24.127 10.1466 21.0378 12.2984 18.8941 14.8945C18.429 15.4579 17.8651 16.3253 17.7253 17.045C17.4922 18.2426 17.5017 19.024 17.5879 19.6268C17.5879 19.6268 17.081 18.6153 17.006 17.8749C16.1298 19.9242 16.4282 21.4986 17.4006 22.5661L20.9069 16.7564C20.9978 16.6057 21.1895 16.543 21.344 16.6248C21.513 16.7142 21.5696 16.9283 21.4714 17.0906L18.6483 21.7685L16.9365 24.7233C16.7184 25.0996 16.624 25.5361 16.6674 25.9693L16.7779 27.079C16.7919 27.2205 16.9769 27.2609 17.048 27.1377L19.0463 23.6733C20.7869 24.3297 22.7846 23.6731 24.5019 20.7953L21.4197 20.3737L23.7698 19.39C24.9904 18.8791 25.9116 17.82 26.2394 16.5251Z" fill="white"/>
</g>
<defs>
<filter id="filter0_d" x="0.747925" y="0.324219" width="40.7357" height="40.7357" filterUnits="userSpaceOnUse" colorInterpolationFilters="sRGB">
<feFlood floodOpacity="0" result="BackgroundImageFix"/>
<feColorMatrix in="SourceAlpha" type="matrix" values="0 0 0 0 0 0 0 0 0 0 0 0 0 0 0 0 0 0 127 0" result="hardAlpha"/>
<feOffset dy="1.5"/>
<feGaussianBlur stdDeviation="3"/>
<feColorMatrix type="matrix" values="0 0 0 0 0 0 0 0 0 0 0 0 0 0 0 0 0 0 0.2 0"/>
<feBlend mode="normal" in2="BackgroundImageFix" result="effect1_dropShadow"/>
<feBlend mode="normal" in="SourceGraphic" in2="effect1_dropShadow" result="shape"/>
</filter>
</defs>
</svg>
