<svg width="166" height="131" viewBox="0 0 166 131" fill="none" xmlns="http://www.w3.org/2000/svg">
<mask id="mask0" mask-type="alpha" maskUnits="userSpaceOnUse" x="0" y="0" width="166" height="131">
<path d="M0.15979 0.245483H165.438V130.007H0.15979V0.245483Z" fill="white"/>
</mask>
<g mask="url(#mask0)">
<g filter="url(#filter0_d)">
<path d="M131.941 129.098L115.084 113.614L115.218 109.732L126.568 100.8L140.233 114.358L142.793 120.391L131.941 129.098Z" fill="white"/>
<path d="M115.084 113.614L131.941 129.098L142.793 120.391M115.084 113.614L126.796 104.52M115.084 113.614L115.218 109.732L126.568 100.8M142.793 120.391L126.796 104.52M142.793 120.391L140.233 114.358L126.568 100.8M126.796 104.52L126.568 100.8" stroke="black" strokeWidth="1.3383"/>
<path d="M136.702 66.0996C139.068 68.1465 144.426 65.0176 148.047 62.2631C148.358 62.0261 148.055 61.5001 147.688 61.6242C142.308 63.442 139.095 61.4504 138.084 60.0451C135.969 57.3836 140.816 53.8172 144.158 51.9911C144.436 51.8391 144.381 51.4118 144.072 51.3621C134.976 49.9021 131.793 57.3973 131.342 61.4633L136.702 66.0996Z" fill="white" stroke="black" strokeWidth="1.3383"/>
<path d="M101.326 136.253L89.4524 140.875L79.6987 122.566L81.0912 119.673L92.3653 114.996L101.4 131.716L101.326 136.253Z" fill="white"/>
<path d="M79.6987 122.566L91.2807 117.797M79.6987 122.566L89.4524 140.875L101.326 136.253M79.6987 122.566L81.0912 119.673L92.3653 114.996M91.2807 117.797L101.326 136.253M91.2807 117.797L92.3653 114.996M101.326 136.253L101.4 131.716L92.3653 114.996" stroke="black" strokeWidth="1.3383"/>
<path d="M78.1488 18.0212L78.8214 10.8038C75.5519 11.4509 73.2253 12.9781 72.4707 13.6608L73.1234 15.6691L72.016 14.447C70.4643 15.1352 68.8942 18.4075 68.3032 19.9576L69.6716 21.9831L68.0848 21.1979C67.6793 21.6983 66.8913 24.8093 66.548 26.3023L68.3422 27.9991L66.2252 27.2211C65.8406 27.7858 66.1228 30.0018 66.312 31.0393L67.7394 31.8805L66.3066 32.1152C66.3151 35.6923 68.0951 36.708 68.9611 36.7321C71.9172 36.8141 73.057 34.13 73.4378 32.2061L71.6615 32.2035L73.3897 31.2385C74.304 30.7742 74.9684 28.357 75.2124 27.2868L73.4649 26.8265L76.0942 25.903L76.9842 22.9054L75.0238 22.6094L77.2547 21.8258L78.1172 19.0168L76.1321 18.3715L78.1488 18.0212Z" fill="white" stroke="black" strokeWidth="0.692638" strokeLinejoin="round"/>
<path fillRule="evenodd" clipRule="evenodd" d="M74.5019 16.674C74.4267 16.5712 74.2784 16.4723 74.0346 16.5228C73.9649 16.5373 73.9104 16.5908 73.8813 16.657L74.508 16.8765C74.5373 16.8096 74.5443 16.7319 74.5019 16.674ZM74.4609 16.9824C71.3772 23.6041 69.4471 31.5789 69.8269 39.0941C69.2829 39.373 68.6876 39.4942 68.4369 38.9668C68.1142 31.8712 71.4623 20.9368 73.8343 16.7629L73.8799 16.659L74.5065 16.8785L74.4609 16.9824Z" fill="black"/>
<rect x="0.800923" y="0.492042" width="48.1352" height="35.1319" transform="matrix(0.971061 -0.238833 0.225868 0.974158 46.1609 44.3906)" fill="white" stroke="black" strokeWidth="1.3383"/>
<path d="M55.4441 82.3666L102.838 70.7101L111.705 108.956L64.3118 120.613L55.4441 82.3666Z" fill="white" stroke="black" strokeWidth="1.3383"/>
<rect x="0.800923" y="0.492042" width="14.1712" height="3.58708" transform="matrix(0.971061 -0.238833 0.225868 0.974158 70.5784 74.5214)" fill="white" stroke="black" strokeWidth="1.3383"/>
<path d="M131.065 60.1426L104.523 76.5011L106.188 83.6839L120.571 75.1104L136.551 66.0818L131.065 60.1426Z" fill="white" stroke="black" strokeWidth="1.3383"/>
<path d="M58.2957 96.1432L26.0479 77.608L29.2833 71.6361L56.2398 87.2764L58.2957 96.1432Z" fill="white" stroke="black" strokeWidth="1.67287"/>
<path d="M27.0824 73.6313C27.4958 69.5308 22.4747 67.5034 19.6573 66.4039C19.3364 66.2787 19.4196 65.8431 19.7652 65.8328C30.4545 65.5139 31.7841 71.8234 30.5449 75.2917C26.6507 83.1119 19.3516 76.8518 16.905 71.9478C16.7704 71.6779 17.0447 71.4034 17.3144 71.5293C23.0175 74.1926 24.6588 76.9528 27.0824 73.6313Z" fill="white" stroke="black" strokeWidth="1.3383"/>
<path d="M34.5226 82.3596C34.3863 80.3448 34.9286 76.3616 37.3066 76.1435" stroke="black" strokeWidth="1.3383"/>
<path d="M41.0089 86.0808C40.8551 84.251 40.08 80.9773 43.7771 79.8387" stroke="black" strokeWidth="1.3383"/>
<path d="M48.7482 90.8164C48.6222 88.6927 48.9655 84.3846 51.3459 84.1417" stroke="black" strokeWidth="1.3383"/>
<path d="M111.53 72.2344C108.538 72.9703 108.094 77.2285 111.648 79.9206" stroke="black" strokeWidth="1.3383"/>
<path d="M117.509 68.4126C116.021 69.8959 116.295 73.8862 119.564 75.5985" stroke="black" strokeWidth="1.3383"/>
<path d="M128.207 62.0946C123.189 65.0803 126.766 70.5776 128.861 70.0623" stroke="black" strokeWidth="1.3383"/>
<path d="M71.245 135.625L69.9189 119.214L77.9965 117.228L79.556 129.893L87.4081 124.558C90.8466 122.882 92.9137 126.977 92.9243 129.609C92.9261 130.057 92.6675 130.453 92.3037 130.716L82.7256 137.624C74.8167 143.427 71.7765 138.709 71.245 135.625Z" fill="white" stroke="black" strokeWidth="1.3383"/>
<path d="M79.0436 126.791C77.9469 126.021 74.1817 124.588 70.5602 127.976" stroke="black" strokeWidth="1.3383"/>
<path d="M110.42 112.191C109.415 112.658 106.649 114.853 106.662 119.3" stroke="black" strokeWidth="1.3383"/>
<path d="M79.5191 129.681C79.7101 133.443 81.8495 139.732 76.15 140.332" stroke="black" strokeWidth="1.3383"/>
<path d="M81.829 128.311C84.191 128.203 88.2174 130.499 86.3537 134.815" stroke="black" strokeWidth="1.3383"/>
<path d="M120.182 113.517C122.493 112.949 126.124 116.559 123.444 120.274" stroke="black" strokeWidth="1.3383"/>
<path d="M114.613 123.417L94.1888 113.211L106.231 110.249L116.642 115.014L125.514 111.23C130.356 112.236 129.754 116.138 128.848 117.964L116.006 123.456C115.556 123.648 115.047 123.634 114.613 123.417Z" fill="white" stroke="black" strokeWidth="1.3383"/>
<path d="M114.152 123.099C115.682 123.096 119.958 118.92 115.36 114.483" stroke="black" strokeWidth="1.3383"/>
<path d="M108.628 111.489C110.462 112.736 108.698 118.899 104.525 118.228" stroke="black" strokeWidth="1.3383"/>
<path d="M119.562 113.624C121.924 113.516 124.721 116.119 122.857 120.435" stroke="black" strokeWidth="1.3383"/>
<path d="M57.4022 88.7104L88.8917 80.9656L96.0954 112.035" stroke="black" strokeWidth="1.3383"/>
<rect width="25.5437" height="2.35065" rx="0.334574" transform="matrix(0.971061 -0.238833 0.225868 0.974158 62.2362 92.0732)" fill="black"/>
<path d="M99.3946 81.2414C99.6924 82.5257 98.9204 83.785 97.7146 84.0816C96.5087 84.3782 95.2676 83.614 94.9698 82.3297C94.672 81.0454 95.444 79.7861 96.6499 79.4895C97.8557 79.1929 99.0968 79.9571 99.3946 81.2414Z" fill="white" stroke="black" strokeWidth="1.3383"/>
<path d="M100.883 87.6683C101.181 88.9526 100.409 90.2119 99.2032 90.5084C97.9973 90.805 96.7562 90.0409 96.4584 88.7566C96.1606 87.4722 96.9326 86.213 98.1384 85.9164C99.3443 85.6198 100.585 86.384 100.883 87.6683Z" fill="white" stroke="black" strokeWidth="1.3383"/>
<path d="M106.521 107.662L100.053 109.252C99.8743 109.296 99.6953 109.186 99.6535 109.006L96.2662 94.4286C96.2243 94.2484 96.3361 94.0663 96.5158 94.0221L102.989 92.4302C103.169 92.3861 103.348 92.496 103.389 92.6759L106.771 107.255C106.812 107.435 106.701 107.617 106.521 107.662Z" stroke="black" strokeWidth="1.3383"/>
<path d="M104.732 100.098L98.3138 101.677" stroke="black" strokeWidth="1.3383"/>
<path d="M105.758 103.838L99.28 105.431" stroke="black" strokeWidth="1.3383"/>
<path d="M103.954 96.2855L96.9874 97.999" stroke="black" strokeWidth="1.3383"/>
<path d="M99.8834 93.2671L103.289 107.956" stroke="black" strokeWidth="1.3383"/>
<path d="M19.0332 61.7928C20.1494 61.0939 23.0106 60.1781 25.5255 62.106" stroke="black" strokeWidth="1.3383" strokeLinecap="round"/>
<path d="M141.816 46.5015C143.508 45.9323 147.418 45.7513 149.522 49.5804" stroke="black" strokeWidth="1.3383" strokeLinecap="round"/>
<path d="M144.524 43.2923C145.762 43.1008 148.711 43.3186 150.604 45.7217" stroke="black" strokeWidth="1.3383" strokeLinecap="round"/>
<path d="M66.3078 61.2859C65.7417 58.8443 63.3611 57.3377 60.9905 57.9207C58.6199 58.5038 57.157 60.9557 57.7231 63.3973" stroke="black" strokeWidth="1.3383"/>
<path d="M91.9492 54.979C91.3831 52.5374 89.0024 51.0308 86.6318 51.6139C84.2612 52.1969 82.7984 54.6488 83.3645 57.0904" stroke="black" strokeWidth="1.3383"/>
</g>
</g>
<defs>
<filter id="filter0_d" x="10.5197" y="5.38405" width="146.434" height="151.34" filterUnits="userSpaceOnUse" colorInterpolationFilters="sRGB">
<feFlood floodOpacity="0" result="BackgroundImageFix"/>
<feColorMatrix in="SourceAlpha" type="matrix" values="0 0 0 0 0 0 0 0 0 0 0 0 0 0 0 0 0 0 127 0" result="hardAlpha"/>
<feOffset dy="1.3383"/>
<feGaussianBlur stdDeviation="2.84388"/>
<feColorMatrix type="matrix" values="0 0 0 0 0 0 0 0 0 0 0 0 0 0 0 0 0 0 0.25 0"/>
<feBlend mode="normal" in2="BackgroundImageFix" result="effect1_dropShadow"/>
<feBlend mode="normal" in="SourceGraphic" in2="effect1_dropShadow" result="shape"/>
</filter>
</defs>
</svg>
