<svg width="22" height="25" viewBox="0 0 22 25" fill="none" xmlns="http://www.w3.org/2000/svg">
<path d="M5.95065 8.05178L4.15026 2.56794C6.85028 2.42076 8.95908 3.1463 9.67597 3.52748L9.5126 5.2206L10.1738 4.04891C11.5222 4.27568 13.3393 6.51015 14.0792 7.59904L13.3527 9.44798L14.4699 8.52091C14.8786 8.8297 16.0487 11.0943 16.5826 12.188L15.4615 13.866L16.9994 12.839C17.4029 13.202 17.569 14.983 17.6017 15.8281L16.6204 16.767L17.795 16.6645C18.4169 19.4505 17.1874 20.5954 16.5066 20.7865C14.1826 21.4389 12.8093 19.5765 12.17 18.1549L13.5746 17.7992L12.038 17.3922C11.2331 17.2128 10.2828 15.4636 9.90174 14.6791L11.2032 13.973L8.96099 13.7776L7.73019 11.6216L9.22892 11.0009L7.32646 10.8351L6.15055 8.82044L7.60747 7.92297L5.95065 8.05178Z" stroke="#5F6368" strokeWidth="0.558725" strokeLinejoin="round"/>
<path fillRule="evenodd" clipRule="evenodd" d="M8.59807 6.27659C8.63949 6.18157 8.73945 6.07504 8.94114 6.06585C8.99884 6.06322 9.05141 6.09407 9.086 6.13981L8.62887 6.43539C8.59394 6.38918 8.57477 6.33004 8.59807 6.27659ZM8.68404 6.5078C12.2871 11.048 15.2153 16.871 16.2355 22.796C16.7148 22.9049 17.207 22.8807 17.3127 22.4203C16.3211 16.8331 11.751 8.98876 9.14117 6.21222L9.08687 6.1404L8.62974 6.43599L8.68404 6.5078Z" fill="#5F6368"/>
</svg>
