<svg width="257" height="101" viewBox="0 0 257 101" fill="none" xmlns="http://www.w3.org/2000/svg">
<mask id="mask0" mask-type="alpha" maskUnits="userSpaceOnUse" x="0" y="0" width="257" height="101">
<rect x="0.247314" y="0.50293" width="256" height="100.425" fill="#C4C4C4"/>
</mask>
<g mask="url(#mask0)">
<path fillRule="evenodd" clipRule="evenodd" d="M132.287 29.9901C143.651 12.5356 200.403 26.1816 200.264 59.2779C200.149 86.7159 187.267 92.1869 200 122.182C207.413 139.644 198.537 159.939 184.807 173.154C170.959 186.483 146.774 187.845 124.403 187.339C103.847 186.874 83.3474 180.389 64.2298 170.427C45.599 160.719 30.2629 147.284 17.6175 131.695C3.61851 114.436 -10.3786 96.1331 -11.886 76.5891C-13.5038 55.6143 -6.05886 35.5591 9.13861 21.7667C24.3746 7.93939 47.0708 1.61807 70.8339 1.51703C106.86 1.36386 115.332 56.0328 132.287 29.9901Z" fill="#1AE709" fillOpacity="0.28"/>
<mask id="path-3-inside-1" fill="white">
<rect x="30.9661" y="55.5215" width="76.6299" height="60.6677" rx="1.17163"/>
</mask>
<rect x="30.9661" y="55.5215" width="76.6299" height="60.6677" rx="1.17163" fill="white" stroke="black" strokeWidth="4.68654" mask="url(#path-3-inside-1)"/>
<path d="M55.0511 87.848C55.0075 87.252 54.8842 86.6518 54.6746 86.0615C53.8857 83.8399 52.062 82.2858 49.9408 81.7504C48.6873 81.434 47.33 81.4734 46.021 81.9409C43.4118 82.8728 41.726 85.2448 41.536 87.848" stroke="black" strokeWidth="2.34" strokeLinecap="round"/>
<path d="M98.0507 87.848C98.0071 87.252 97.8839 86.6518 97.6742 86.0615C96.8853 83.8399 95.0616 82.2858 92.9404 81.7504C91.687 81.434 90.3297 81.4734 89.0207 81.9409C86.4114 82.8728 84.7257 85.2448 84.5356 87.848" stroke="black" strokeWidth="2.35" strokeLinecap="round"/>
<path d="M48.2587 27.8803L44.6305 16.8054C50.0662 16.5099 54.3122 17.9764 55.7557 18.7466L55.4279 22.1655L56.7583 19.7999C59.4732 20.2587 63.1327 24.7721 64.6232 26.9714L63.1617 30.7046L65.4103 28.8332C66.2333 29.457 68.5904 34.0308 69.6661 36.2397L67.4101 39.6274L70.5056 37.5545C71.3182 38.2878 71.6538 41.8844 71.7201 43.591L69.7451 45.4864L72.1099 45.2801C73.3638 50.9063 70.8891 53.2176 69.5187 53.603C64.8404 54.9188 62.0743 51.1572 60.7863 48.2861L63.6139 47.5688L60.5201 46.7458C58.8996 46.383 56.9852 42.8502 56.2175 41.2659L58.8371 39.8408L54.323 39.4448L51.8437 35.0901L54.8606 33.8378L51.0304 33.5018L48.6617 29.4327L51.5942 27.6213L48.2587 27.8803Z" fill="white" stroke="black" strokeWidth="1.6024" strokeLinejoin="round"/>
<path fillRule="evenodd" clipRule="evenodd" d="M53.5873 24.2943C53.6707 24.1024 53.8718 23.8872 54.2779 23.8686C54.3942 23.8633 54.5002 23.9256 54.5698 24.0179L53.6494 24.6148C53.5791 24.5215 53.5405 24.4021 53.5873 24.2943ZM53.7595 24.7594C61.0138 33.927 66.9712 44.8067 69.0253 56.7708C69.9904 56.9906 70.9813 56.9417 71.194 56.0121C69.1975 44.7303 59.9345 29.769 54.6799 24.1625L54.5706 24.0175L53.6502 24.6144L53.7595 24.7594Z" fill="black"/>
</g>
<mask id="mask1" mask-type="alpha" maskUnits="userSpaceOnUse" x="113" y="19" width="86" height="82">
<rect x="113.123" y="19.9033" width="85.757" height="81.0232" fill="#C4C4C4"/>
</mask>
<g mask="url(#mask1)">
<path d="M183.513 42.3096L160.18 59.0958L157.443 61.172L164.722 71.0975L175.279 62.6342C178.464 60.1632 179.725 57.8929 180.189 56.1299L183.513 42.3096Z" fill="#D2B7EB" stroke="black" strokeWidth="1.51302"/>
<path d="M132.114 78.9398L158.119 61.2527C148.636 59.2258 143.902 59.418 143.183 59.566C137.716 59.693 134.717 66.7107 134.325 68.7847L132.114 78.9398Z" fill="#FFCE6F" stroke="black" strokeWidth="1.51302"/>
<path d="M160.254 41.5172L159.62 40.5566C159.866 40.8298 160.076 41.1564 160.254 41.5172L168.771 54.4342C169.136 54.9038 169.331 56.0822 167.189 57.0389L160.866 59.9448L158.297 56.0385C159.229 54.084 161.11 49.5278 161.174 46.9398C161.233 45.723 161.1 43.2326 160.254 41.5172Z" fill="white"/>
<path d="M159.62 40.5566L168.771 54.4342C169.136 54.9038 169.331 56.0822 167.189 57.0389L160.866 59.9448L158.297 56.0385C159.229 54.084 161.11 49.5278 161.174 46.9398C161.246 45.467 161.035 42.1285 159.62 40.5566Z" stroke="black" strokeWidth="1.51302"/>
<path d="M159.295 80.7296L157.537 78.3787C156.773 77.3575 157.262 73.1804 157.601 71.2194L158.977 63.8584L175.945 85.8364L163.417 83.156C161.06 82.5034 159.687 81.2665 159.295 80.7296Z" fill="#A0E2F7" stroke="black" strokeWidth="1.51302"/>
<path d="M157.299 38.9016C163.929 41.8484 160.634 51.5903 158.158 56.0929L156.244 57.5994L140.356 34.3196L157.299 38.9016Z" fill="#FFA3A3" stroke="black" strokeWidth="1.51302"/>
<rect x="153.049" y="72.5278" width="0.807581" height="41.476" transform="rotate(22.0542 153.049 72.5278)" fill="#289874" stroke="black" strokeWidth="0.807581"/>
<path d="M156.116 52.5488L162.468 62.6201L150.74 60.1786C144.947 58.757 140.647 60.2474 139.27 60.9597L152.128 49.592C153.231 48.6724 155.247 51.1801 156.116 52.5488Z" fill="white" stroke="black" strokeWidth="1.51302"/>
<path d="M164.701 60.2689C171.989 62.6136 175.881 61.8579 176.916 61.187L164.624 71.2935L157.32 61.8442L160.891 59.071L164.701 60.2689Z" fill="white" stroke="black" strokeWidth="1.51302"/>
<path d="M151.052 62.9044L159.576 60.5674L158.033 69.5552C157.084 74.1955 157.192 77.4057 157.576 78.4093L148.69 67.2899C147.202 65.1674 149.224 63.2077 151.052 62.9044Z" fill="white" stroke="black" strokeWidth="1.51302"/>
<g filter="url(#filter0_d)">
<circle cx="158.837" cy="60.6489" r="3.5" transform="rotate(22.0542 158.837 60.6489)" fill="white"/>
<circle cx="158.837" cy="60.6489" r="3" transform="rotate(22.0542 158.837 60.6489)" stroke="black"/>
</g>
</g>
<defs>
<filter id="filter0_d" x="153.601" y="56.0908" width="10.4714" height="10.4714" filterUnits="userSpaceOnUse" colorInterpolationFilters="sRGB">
<feFlood floodOpacity="0" result="BackgroundImageFix"/>
<feColorMatrix in="SourceAlpha" type="matrix" values="0 0 0 0 0 0 0 0 0 0 0 0 0 0 0 0 0 0 127 0" result="hardAlpha"/>
<feOffset dy="0.677596"/>
<feGaussianBlur stdDeviation="0.338798"/>
<feColorMatrix type="matrix" values="0 0 0 0 0 0 0 0 0 0 0 0 0 0 0 0 0 0 0.25 0"/>
<feBlend mode="normal" in2="BackgroundImageFix" result="effect1_dropShadow"/>
<feBlend mode="normal" in="SourceGraphic" in2="effect1_dropShadow" result="shape"/>
</filter>
</defs>
</svg>
