<svg width="24" height="24" viewBox="0 0 24 24" fill="none" xmlns="http://www.w3.org/2000/svg">
<mask id="mask0" style="mask-type:alpha" maskUnits="userSpaceOnUse" x="0" y="0" width="24" height="24">
<rect width="24" height="24" fill="#4C9459"/>
</mask>
<g mask="url(#mask0)">
<path d="M16.9255 8.85209C17.5668 6.32275 17.5458 3.92091 16.332 3.17353C14.715 2.17747 11.4823 4.42909 9.23913 7.14573C8.7524 7.73535 8.16233 8.64302 8.01605 9.39615C7.7721 10.6493 7.78208 11.467 7.87232 12.0978C7.87232 12.0978 7.34185 11.0394 7.26338 10.2646C6.34646 12.409 6.65876 14.0565 7.67629 15.1736L11.3454 9.09412C11.4405 8.93641 11.6411 8.87077 11.8028 8.95636C11.9796 9.04993 12.0388 9.274 11.9361 9.44381L8.98189 14.3389L7.19061 17.4309C6.96237 17.8247 6.86362 18.2814 6.90899 18.7348L7.02462 19.896C7.03931 20.044 7.23294 20.0863 7.30725 19.9574L9.39836 16.3322C11.2198 17.019 13.3102 16.332 15.1073 13.3206L11.882 12.8793L14.3412 11.85C15.6185 11.3154 16.5824 10.2071 16.9255 8.85209Z" fill="#4C9459"/>
</g>
</svg>
