<svg width="24" height="24" viewBox="0 0 24 24" fill="none" xmlns="http://www.w3.org/2000/svg">
<path fillRule="evenodd" clipRule="evenodd" d="M5 6.48312C5 6.02227 5.38376 5.64867 5.85714 5.64867H9.85715C10.3305 5.64867 10.7143 6.02227 10.7143 6.48312C10.7143 6.94398 10.3305 7.31758 9.85715 7.31758H5.85714C5.38376 7.31758 5 6.94398 5 6.48312Z" fill="#4C9459"/>
<path fillRule="evenodd" clipRule="evenodd" d="M5.85714 5.64867C6.33053 5.64867 6.71429 6.02227 6.71429 6.48312V18.1655C6.71429 18.6264 6.33053 19 5.85714 19C5.38376 19 5 18.6264 5 18.1655V6.48312C5 6.02227 5.38376 5.64867 5.85714 5.64867Z" fill="#4C9459"/>
<path fillRule="evenodd" clipRule="evenodd" d="M5 18.1655C5 17.7047 5.38376 17.3311 5.85714 17.3311H17.8572C18.3305 17.3311 18.7143 17.7047 18.7143 18.1655C18.7143 18.6264 18.3305 19 17.8572 19H5.85714C5.38376 19 5 18.6264 5 18.1655Z" fill="#4C9459"/>
<path fillRule="evenodd" clipRule="evenodd" d="M17.8571 13.4369C18.3305 13.4369 18.7143 13.8105 18.7143 14.2714V18.1655C18.7143 18.6264 18.3305 19 17.8571 19C17.3838 19 17 18.6264 17 18.1655V14.2714C17 13.8105 17.3838 13.4369 17.8571 13.4369Z" fill="#4C9459"/>
<path fillRule="evenodd" clipRule="evenodd" d="M18.1428 5.37039C18.6162 5.37039 19 5.74399 19 6.20485V10.341C19 10.8019 18.6162 11.1755 18.1428 11.1755C17.6695 11.1755 17.2857 10.8019 17.2857 10.341V6.20485C17.2857 5.74399 17.6695 5.37039 18.1428 5.37039Z" fill="#4C9459"/>
<path fillRule="evenodd" clipRule="evenodd" d="M8.97838 14.8904C8.65084 14.5576 8.65084 14.0182 8.97838 13.6854L16.9351 5.60247C17.2627 5.26974 17.7937 5.26974 18.1213 5.60247C18.4488 5.9352 18.4488 6.47467 18.1213 6.80741L10.1645 14.8904C9.83696 15.2231 9.30592 15.2231 8.97838 14.8904Z" fill="#4C9459"/>
<path fillRule="evenodd" clipRule="evenodd" d="M13 5.92684C13 5.46598 13.3838 5.09238 13.8571 5.09238H17.8572C18.3306 5.09238 18.7143 5.46598 18.7143 5.92684C18.7143 6.38769 18.3306 6.76129 17.8572 6.76129H13.8571C13.3838 6.76129 13 6.38769 13 5.92684Z" fill="#4C9459"/>
</svg>
