<svg width="24" height="24" viewBox="0 0 24 24" fill="none" xmlns="http://www.w3.org/2000/svg">
<path fillRule="evenodd" clipRule="evenodd" d="M9.28908 3.66366C9.80919 3.84942 10.0802 4.42163 9.89448 4.94174L6.33636 14.9044C6.15061 15.4245 5.57839 15.6956 5.05828 15.5098C4.53817 15.3241 4.26712 14.7519 4.45288 14.2318L8.011 4.26907C8.19675 3.74896 8.76897 3.47791 9.28908 3.66366Z" fill="#4C9459"/>
<path fillRule="evenodd" clipRule="evenodd" d="M6.5 10.9153C6.5 10.363 6.94772 9.91531 7.5 9.91531H11.2895C11.8418 9.91531 12.2895 10.363 12.2895 10.9153C12.2895 11.4676 11.8418 11.9153 11.2895 11.9153H7.5C6.94772 11.9153 6.5 11.4676 6.5 10.9153Z" fill="#4C9459"/>
<path fillRule="evenodd" clipRule="evenodd" d="M8.8388 3.66373C9.35893 3.47801 9.93112 3.7491 10.1168 4.26923L13.6742 14.2321C13.86 14.7523 13.5889 15.3245 13.0688 15.5102C12.5486 15.6959 11.9764 15.4248 11.7907 14.9047L8.23331 4.94177C8.04759 4.42165 8.31868 3.84945 8.8388 3.66373Z" fill="#4C9459"/>
<path fillRule="evenodd" clipRule="evenodd" d="M19.6429 11.4862C20.0659 11.8413 20.121 12.472 19.7659 12.895L12.9958 20.9601C12.8148 21.1758 12.5512 21.3052 12.2698 21.3164C11.9885 21.3276 11.7154 21.2197 11.5177 21.0192L8.40971 17.8661C8.022 17.4728 8.02656 16.8396 8.41989 16.4519C8.81322 16.0642 9.44637 16.0688 9.83407 16.4621L12.1706 18.8325L18.2341 11.6092C18.5892 11.1862 19.2199 11.1311 19.6429 11.4862Z" fill="#4C9459"/>
</svg>
