<svg width="23" height="23" viewBox="0 0 23 23" fill="none" xmlns="http://www.w3.org/2000/svg">
<mask id="mask0" mask-type="alpha" maskUnits="userSpaceOnUse" x="0" y="0" width="23" height="23">
<circle r="11.3216" transform="matrix(-1 0 0 1 11.3581 11.5221)" fill="#4C9459"/>
</mask>
<g mask="url(#mask0)">
<path d="M13.8692 3.58019L14.4323 1.86521C14.4358 1.8544 14.4279 1.84311 14.4165 1.84255C13.5782 1.80146 12.9221 2.02292 12.6866 2.14465C12.6804 2.14783 12.6772 2.15428 12.6778 2.16118L12.721 2.6089C12.7228 2.62746 12.6979 2.63505 12.6887 2.61875L12.524 2.32682C12.5204 2.32041 12.5133 2.31688 12.5061 2.31828C12.0802 2.40094 11.514 3.09461 11.2772 3.44128C11.274 3.44594 11.2735 3.4517 11.2755 3.45699L11.4795 3.97614C11.4861 3.99276 11.4662 4.00695 11.4524 3.99551L11.1582 3.75141C11.152 3.74625 11.1432 3.74582 11.1373 3.7512C10.9997 3.87618 10.6457 4.56059 10.4779 4.90366C10.4752 4.90915 10.4758 4.91545 10.4792 4.92057L10.7833 5.37574C10.7939 5.39149 10.7752 5.41005 10.7594 5.39951L10.352 5.12747C10.3454 5.12305 10.3366 5.12351 10.3313 5.12935C10.2106 5.26232 10.1598 5.8001 10.1489 6.06582C10.1487 6.07076 10.1507 6.07539 10.1543 6.07884L10.4263 6.33909C10.4381 6.35039 10.4292 6.37008 10.413 6.36866L10.102 6.34152C10.0933 6.34076 10.0855 6.3467 10.0837 6.35509C9.89297 7.23295 10.282 7.59441 10.4979 7.65502C11.2291 7.86028 11.6653 7.2851 11.8728 6.83422C11.8772 6.82447 11.8716 6.81317 11.8611 6.81051L11.4978 6.71854C11.4805 6.71415 11.4802 6.68971 11.4974 6.68515L11.9233 6.57232C12.1752 6.51618 12.4717 5.97816 12.5976 5.72151C12.6017 5.71324 12.5983 5.70342 12.5901 5.69899L12.24 5.50903C12.2249 5.50084 12.2295 5.47821 12.2465 5.47672L12.8958 5.42015C12.9015 5.41966 12.9065 5.41646 12.9092 5.41159L13.2877 4.74861C13.2928 4.73961 13.2888 4.72808 13.2792 4.72407L12.8845 4.56065C12.8678 4.55371 12.8714 4.52912 12.8894 4.52755L13.4173 4.48155C13.4229 4.48107 13.4278 4.47793 13.4306 4.47313L13.7928 3.85265C13.7975 3.84458 13.7949 3.83418 13.7868 3.82923L13.3972 3.58921C13.3817 3.57967 13.3893 3.55596 13.4074 3.55737L13.8516 3.5919C13.8595 3.59252 13.8668 3.58769 13.8692 3.58019Z" fill="white"/>
<path fillRule="evenodd" clipRule="evenodd" d="M13.0086 3.05171C13.0054 3.01966 12.9922 2.96324 12.9102 2.95951C12.8918 2.95867 12.875 2.96854 12.864 2.98313L12.8642 2.98323L12.8471 3.0058C12.0146 3.89145 10.5569 6.39363 10.2406 8.17581C10.2671 8.29113 10.3104 8.28082 10.409 8.25738C10.436 8.25097 10.467 8.24358 10.503 8.23751C10.8284 6.34755 11.8069 4.52538 12.9562 3.07718L13.0094 3.05207L13.0086 3.05171Z" fill="#4C9459"/>
<path d="M16.1041 16.7941H5.71769C5.53104 16.7941 5.37973 16.9454 5.37973 17.132V23.708H16.442V17.132C16.442 16.9454 16.2907 16.7941 16.1041 16.7941Z" fill="white" stroke="#4C9459" strokeWidth="0.172848"/>
<path d="M16.7876 14.9866V8.14362C16.7876 7.95697 16.6363 7.80566 16.4496 7.80566H5.37188C5.18523 7.80566 5.03392 7.95697 5.03392 8.14362V14.9866C5.03392 15.1733 5.18523 15.3246 5.37188 15.3246H16.4496C16.6363 15.3246 16.7876 15.1733 16.7876 14.9866Z" fill="white" stroke="#4C9459" strokeWidth="0.172848"/>
<path d="M12.6393 16.6252V15.4987H9.26874V16.6252H12.6393Z" fill="white"/>
<path d="M5.37964 18.6953H12.1207V23.6215" stroke="#4C9459" strokeWidth="0.225305"/>
<circle r="0.950665" transform="matrix(-1 0 0 1 14.0221 11.6084)" fill="#4C9459" stroke="#4C9459" strokeWidth="0.172848"/>
<circle r="0.950665" transform="matrix(-1 0 0 1 7.79958 11.6084)" fill="#4C9459" stroke="#4C9459" strokeWidth="0.172848"/>
<circle r="0.437204" transform="matrix(-1 0 0 1 14.1133 19.3054)" stroke="#4C9459" strokeWidth="0.345696"/>
<circle r="0.437204" transform="matrix(-1 0 0 1 14.1135 20.6779)" stroke="#4C9459" strokeWidth="0.345696"/>
<path d="M14.9382 21.9794C14.9382 21.8839 14.8608 21.8065 14.7654 21.8065H13.3826C13.2871 21.8065 13.2098 21.8839 13.2098 21.9794V23.535H14.9382V21.9794Z" fill="white" stroke="#4C9459" strokeWidth="0.345696"/>
<path d="M14.0739 21.8064L14.0739 23.5349" stroke="#4C9459" strokeWidth="0.345696"/>
<rect width="5.18544" height="0.691393" rx="0.172848" transform="matrix(-1 0 0 1 11.2565 19.3868)" fill="#4C9459"/>
<path d="M14.9728 22.6709H13.1579" stroke="#4C9459" strokeWidth="0.345696"/>
<path d="M17.9976 20.4239C17.9976 18.8683 17.0469 18.1769 16.5283 18.1769V23.6216H17.9976V20.4239Z" fill="white" stroke="#4C9459" strokeWidth="0.172848"/>
<path d="M3.84131 20.4239C3.84131 18.8683 4.79196 18.1769 5.31052 18.1769V21.5474V23.708H3.84131V20.4239Z" fill="white" stroke="#4C9459" strokeWidth="0.172848"/>
</g>
</svg>
