<svg width="9" height="16" viewBox="0 0 9 16" fill="none" xmlns="http://www.w3.org/2000/svg">
<path d="M8.63347 5.3124C9.16038 3.11448 9.14316 1.02736 8.14584 0.377913C6.81724 -0.487633 4.16108 1.46896 2.31794 3.82963C1.91802 4.34199 1.43318 5.13072 1.31299 5.78517C1.11255 6.87414 1.12075 7.58468 1.19489 8.13286C1.19489 8.13286 0.759037 7.21308 0.69456 6.53979C-0.0588369 8.40326 0.197766 9.83488 1.03382 10.8056L4.04853 5.52272C4.12674 5.38567 4.29151 5.32863 4.42437 5.403C4.56965 5.48431 4.61832 5.67902 4.53392 5.82659L2.10658 10.0803L0.63477 12.7671C0.447234 13.1093 0.366095 13.5062 0.403374 13.9002L0.49838 14.9092C0.510454 15.0378 0.669546 15.0746 0.730606 14.9626L2.44877 11.8123C3.94539 12.4092 5.66299 11.8122 7.13952 9.19539L4.48943 8.81194L6.51005 7.9175C7.55959 7.45293 8.35157 6.48984 8.63347 5.3124Z" fill="white"/>
</svg>
