<svg width="11" height="17" viewBox="0 0 11 17" fill="none" xmlns="http://www.w3.org/2000/svg">
<path d="M9.74082 6.32558C10.2981 4.12766 10.2799 2.04055 9.22511 1.3911C7.82001 0.525551 5.0109 2.48214 3.06163 4.84281C2.63867 5.35517 2.12592 6.1439 1.99881 6.79836C1.78683 7.88732 1.79549 8.59787 1.87391 9.14604C1.87391 9.14604 1.41296 8.22627 1.34477 7.55297C0.547987 9.41645 0.819365 10.8481 1.70357 11.8188L4.89187 6.5359C4.97458 6.39885 5.14884 6.34181 5.28935 6.41619C5.443 6.4975 5.49447 6.69221 5.40521 6.83977L2.8381 11.0935L1.28153 13.7803C1.0832 14.1225 0.997388 14.5194 1.03681 14.9133L1.13729 15.9224C1.15006 16.051 1.31831 16.0878 1.38289 15.9757L3.19999 12.8255C4.78279 13.4224 6.5993 12.8254 8.16084 10.2086L5.35816 9.82513L7.49513 8.93069C8.60511 8.46612 9.44269 7.50302 9.74082 6.32558Z" fill="#4C9459"/>
</svg>
