<svg width="66" height="66" viewBox="0 0 66 66" fill="none" xmlns="http://www.w3.org/2000/svg">
<g clip-path="url(#clip0_3731_8129)">
<g clip-path="url(#clip1_3731_8129)">
<path fill-rule="evenodd" clip-rule="evenodd" d="M32.7791 66.3303C51.0045 66.3303 65.7791 51.5557 65.7791 33.3303C65.7791 27.5792 64.308 22.1718 61.7214 17.4637C61.1541 23.0063 56.4716 27.3303 50.7791 27.3303C44.704 27.3303 39.7791 22.4055 39.7791 16.3303C39.7791 10.4258 44.4313 5.60779 50.2702 5.34189C45.1993 2.16618 39.2036 0.330322 32.7791 0.330322C14.5537 0.330322 -0.220886 15.1049 -0.220886 33.3303C-0.220886 51.5557 14.5537 66.3303 32.7791 66.3303Z" fill="#178733"/>
<path fill-rule="evenodd" clip-rule="evenodd" d="M39.8096 8.35798C37.5754 10.7375 33.8356 16.9966 32.4055 22.1118C31.7795 21.6964 31.0671 20.5794 31.5366 18.4103C31.5474 18.378 31.5798 18.351 31.6122 18.3618L32.481 18.4373C32.5458 18.4427 32.5782 18.3618 32.5296 18.3186L31.7525 17.574C31.7363 17.5578 31.7255 17.5416 31.7255 17.5254C31.7579 16.7268 31.909 15.1459 32.2598 14.7358C32.2814 14.7088 32.3191 14.7088 32.3461 14.725L33.4848 15.4858C33.5442 15.529 33.6197 15.4534 33.5765 15.3941L32.7131 14.1153C32.6915 14.0991 32.6915 14.0775 32.7023 14.0505C33.2042 13.0307 34.2403 11.0127 34.6612 10.6188C34.6882 10.5918 34.7206 10.6026 34.7476 10.6188L35.5679 11.2987C35.6272 11.3418 35.7028 11.2879 35.6758 11.2231L35.0876 9.7393C35.0822 9.72311 35.0822 9.69613 35.0984 9.67995C35.8107 8.64396 37.4944 6.58276 38.768 6.32377C38.795 6.31297 38.8274 6.32916 38.8436 6.35614L39.2969 7.14932C39.3293 7.21407 39.4318 7.1817 39.421 7.10616L39.3023 5.85973C39.3023 5.83814 39.3077 5.81117 39.3347 5.79498C40.047 5.42267 42.0006 4.76978 44.4884 4.88849C44.537 4.87769 44.5639 4.92086 44.5532 4.96403L42.8802 10.063C42.8748 10.0954 42.8424 10.1116 42.8155 10.1116L41.5689 10.0091C41.4933 9.9983 41.4663 10.1008 41.5257 10.1332L42.6212 10.8023C42.659 10.8185 42.6644 10.8616 42.6482 10.894L41.5742 12.7286C41.5688 12.7448 41.5419 12.7609 41.5257 12.7609L40.02 12.8958C39.9445 12.9066 39.9391 12.9984 40.0038 13.0307L41.0993 13.484C41.1425 13.5002 41.1587 13.5433 41.1317 13.5865L40.0092 15.5452C40.0038 15.5614 39.9769 15.5775 39.9607 15.5775L38.0773 15.7448C38.0071 15.7502 37.9909 15.8365 38.0503 15.8689L39.0379 16.4031C39.0702 16.4193 39.081 16.4625 39.0702 16.4948C38.6817 17.261 37.802 18.8636 37.0573 19.0309L35.8431 19.3492C35.7783 19.3654 35.7783 19.4679 35.8431 19.4841L36.8469 19.7377C36.8846 19.7431 36.9116 19.7971 36.8954 19.8294C36.3126 21.1028 35.1146 22.6946 33.1448 22.3493C34.359 17.2934 37.0519 12.4696 40.1496 8.55762L40.251 8.42855C40.2402 8.33142 40.2251 8.22308 39.9931 8.21769C39.9445 8.21769 39.8905 8.24467 39.8581 8.29323L39.8096 8.35798ZM41.1288 58.6465C41.1288 57.5835 41.9922 56.7256 43.05 56.7256C44.1077 56.7256 44.9657 57.5835 44.9711 58.6465C44.9711 59.7094 44.1077 60.5674 43.05 60.5674C41.9868 60.5674 41.1288 59.704 41.1288 58.6465ZM37.7123 46.6835H27.6099V48.6098H37.7123V46.6835ZM15.18 44.3485V23.6611C15.18 23.1539 15.5901 22.7438 16.0974 22.7438H49.4697C49.977 22.7438 50.3872 23.1539 50.3872 23.6611V44.3485C50.3872 44.8557 49.977 45.2658 49.4697 45.2658H16.0974C15.5901 45.2658 15.18 44.8557 15.18 44.3485ZM20.4956 34.1343C20.4956 35.7746 21.8231 37.102 23.4637 37.102C25.1042 37.102 26.4318 35.7692 26.4318 34.1343C26.4318 32.494 25.1042 31.1666 23.4637 31.1666C21.8231 31.1666 20.4956 32.494 20.4956 34.1343ZM39.1407 34.1343C39.1407 35.7746 40.4683 37.102 42.1088 37.102C43.7494 37.102 45.0769 35.7692 45.0769 34.1343C45.0769 32.494 43.7494 31.1666 42.1088 31.1666C40.4683 31.1666 39.1407 32.494 39.1407 34.1343ZM11.156 58.2475C12.3001 59.2403 13.5089 60.1576 14.7825 60.9832V55.2636C13.741 55.2636 12.1112 56.2079 11.156 58.2475ZM32.7855 66.3301C26.7413 66.3301 21.0857 64.6951 16.2126 61.8623V56.7256H35.4244V66.2167C34.5556 66.2869 33.6759 66.3301 32.7855 66.3301ZM20.3086 58.3497H19.0027C18.6249 58.3497 18.3173 58.6519 18.3173 59.035C18.3173 59.4127 18.6249 59.7202 19.0027 59.7202H32.6344C33.0122 59.7202 33.3198 59.4127 33.3198 59.035C33.3198 58.6572 33.0122 58.3497 32.6344 58.3497H20.3086ZM48.4364 50.043H17.1363C16.629 50.043 16.2188 50.4531 16.2188 50.9603V54.419V55.2931H36.4128H36.8553V55.7356V66.0685C41.3668 65.5128 45.5924 64.0505 49.3538 61.8598V54.419V50.9603C49.3538 50.4531 48.9436 50.043 48.4364 50.043ZM43.0506 61.9839C41.1996 61.9839 39.7047 60.4839 39.7047 58.6385C39.7047 56.7878 41.205 55.2931 43.0506 55.2931C44.9016 55.2931 46.3964 56.7932 46.3964 58.6385C46.3964 60.4893 44.8962 61.9839 43.0506 61.9839ZM50.7823 55.2636C51.8239 55.2636 53.4536 56.2079 54.4088 58.2475C53.2648 59.2403 52.0559 60.1522 50.7823 60.9886V55.2636Z" fill="white"/>
</g>
<g opacity="0.2">
<rect x="36.186" y="2.18604" width="28" height="28" rx="14" fill="#DE350B"/>
</g>
<rect x="45" y="11" width="11" height="11" rx="5.5" fill="#DE350B"/>
</g>
<defs>
<clipPath id="clip0_3731_8129">
<rect width="66" height="66" fill="white"/>
</clipPath>
<clipPath id="clip1_3731_8129">
<rect width="66" height="66" fill="white" transform="translate(-0.220886 0.330322)"/>
</clipPath>
</defs>
</svg>
