<svg width="28" height="28" viewBox="0 0 28 28" fill="none" xmlns="http://www.w3.org/2000/svg">
<path d="M13.9999 26.7498C21.0409 26.7498 26.7497 21.0416 26.7498 14.0011V14.0009C26.7517 6.95814 21.0428 1.25 13.9999 1.25C6.95881 1.25 1.25 6.95826 1.25 13.9989C1.25 21.0414 6.95873 26.7498 13.9999 26.7498Z" fill="#499557" stroke="#499557" strokeWidth="1.5"/>
<path d="M13.9999 26.2498C20.7648 26.2498 26.2497 20.7654 26.2498 14.0009V14.0009C26.2517 7.2344 20.7668 1.75 13.9999 1.75C7.23492 1.75 1.75 7.23444 1.75 13.9989C1.75 20.7653 7.23489 26.2498 13.9999 26.2498Z" fill="#499557" stroke="white" strokeWidth="0.5"/>
<path d="M17.7346 22.5073C17.3499 22.5073 17.0359 22.8192 17.0359 23.2058C17.0359 23.5904 17.348 23.9043 17.7346 23.9043C18.1192 23.9043 18.4332 23.5924 18.4332 23.2058C18.4312 22.8192 18.1192 22.5073 17.7346 22.5073Z" fill="white"/>
<path fillRule="evenodd" clipRule="evenodd" d="M16.7295 4.9608L16.5743 4.89404L16.7295 4.96669C16.7314 4.96669 16.7295 4.96276 16.7295 4.9608Z" fill="white"/>
<path fillRule="evenodd" clipRule="evenodd" d="M13.8639 9.91941C14.3839 8.05924 15.7439 5.78308 16.5563 4.91774L16.5739 4.8942C16.5857 4.87654 16.6053 4.86672 16.623 4.86672C16.7074 4.86869 16.725 4.92559 16.729 4.96091L16.7368 4.96484L16.7309 4.9668L16.6799 4.99034C15.5535 6.41295 14.5743 8.16716 14.1327 10.0057C14.849 10.1313 15.2847 9.55248 15.4966 9.0894C15.5025 9.07762 15.4927 9.058 15.4789 9.05604L15.1139 8.96382C15.0904 8.95793 15.0904 8.92065 15.1139 8.91476L15.5555 8.79899C15.8263 8.73816 16.1461 8.15539 16.2874 7.87675C16.2914 7.86498 16.2874 7.84928 16.2757 7.8434L15.9165 7.64914C15.895 7.63736 15.9008 7.60597 15.9264 7.60401L16.6112 7.54318C16.6171 7.54318 16.6269 7.53729 16.6289 7.5314L17.0371 6.81912C17.0469 6.80342 17.041 6.78773 17.0253 6.78184L16.6269 6.61701C16.6034 6.60524 16.6053 6.57188 16.6328 6.56796L17.1803 6.5189C17.1862 6.5189 17.196 6.51302 17.198 6.50713L17.5885 5.83998C17.5944 5.82821 17.5924 5.81251 17.5787 5.80662L17.1803 5.56331C17.1587 5.55154 17.1685 5.51425 17.196 5.51818L17.6493 5.55546C17.6591 5.55546 17.6709 5.54957 17.6729 5.5378L18.2812 3.68351C18.2851 3.66782 18.2753 3.65212 18.2576 3.65604C17.353 3.61287 16.6426 3.8503 16.3836 3.98569C16.3738 3.99158 16.3718 4.00139 16.3718 4.00924L16.415 4.46251C16.4189 4.48998 16.3816 4.50175 16.3698 4.47821L16.205 4.18976C16.1991 4.17995 16.1873 4.17406 16.1775 4.17799C15.7144 4.27218 15.1022 5.02174 14.8431 5.39848C14.8372 5.40437 14.8372 5.41418 14.8392 5.42007L15.0531 5.95967C15.0629 5.98322 15.0354 6.00284 15.0139 5.98715L14.7156 5.73991C14.7058 5.73402 14.694 5.7301 14.6842 5.73991C14.5311 5.88315 14.1543 6.61701 13.9718 6.98787C13.9679 6.99768 13.9679 7.00553 13.9758 7.01142L14.2897 7.47646C14.3054 7.49805 14.278 7.52552 14.2564 7.50982L13.8423 7.23315C13.8325 7.22726 13.8188 7.22726 13.8109 7.23707C13.6834 7.3862 13.6284 7.96113 13.6166 8.25153C13.6166 8.25742 13.6206 8.26331 13.6265 8.2692L13.909 8.53998C13.9267 8.55568 13.9149 8.58511 13.8914 8.58315L13.5754 8.55568C13.5637 8.55175 13.5519 8.56156 13.548 8.57334C13.3772 9.36214 13.6363 9.76832 13.8639 9.91941Z" fill="white"/>
<path d="M15.7935 18.8535H12.1199V19.554H15.7935V18.8535Z" fill="white"/>
<path fillRule="evenodd" clipRule="evenodd" d="M7.59979 10.4824V18.0055C7.59979 18.1899 7.74893 18.3391 7.93339 18.3391H20.0687C20.2531 18.3391 20.4023 18.1899 20.4023 18.0055V10.4824C20.4023 10.2979 20.2531 10.1488 20.0687 10.1488H7.93339C7.74893 10.1488 7.59979 10.2979 7.59979 10.4824ZM10.612 15.3703C10.0155 15.3703 9.53273 14.8875 9.53273 14.291C9.53273 13.6945 10.0155 13.2118 10.612 13.2118C11.2086 13.2118 11.6913 13.6945 11.6913 14.291C11.6913 14.8856 11.2086 15.3703 10.612 15.3703ZM17.392 15.3703C16.7955 15.3703 16.3127 14.8875 16.3127 14.291C16.3127 13.6945 16.7955 13.2118 17.392 13.2118C17.9886 13.2118 18.4713 13.6945 18.4713 14.291C18.4713 14.8856 17.9886 15.3703 17.392 15.3703Z" fill="white"/>
<path d="M6.13693 23.0602C6.55295 23.4212 6.99253 23.7548 7.45564 24.055V21.9751C7.07691 21.9751 6.48427 22.3185 6.13693 23.0602Z" fill="white"/>
<path d="M7.97577 24.3753C9.74779 25.4054 11.8044 26 14.0022 26C14.326 26 14.6459 25.9843 14.9618 25.9588V22.5073H7.97577V24.3753ZM8.99031 23.0979H9.46521H13.9473C14.0846 23.0979 14.1965 23.2097 14.1965 23.3471C14.1965 23.4844 14.0846 23.5963 13.9473 23.5963H8.99031C8.85295 23.5963 8.74109 23.4844 8.74109 23.3471C8.74109 23.2078 8.85295 23.0979 8.99031 23.0979Z" fill="white"/>
<path d="M19.6932 20.0775H8.31148C8.12701 20.0775 7.97787 20.2266 7.97787 20.411V21.6688V21.9867H15.3211H15.482V22.1476V25.9052C17.1225 25.7031 18.6591 25.1713 20.0268 24.3747V21.6688V20.411C20.0268 20.2266 19.8777 20.0775 19.6932 20.0775ZM17.7348 24.4198C17.0617 24.4198 16.5181 23.8743 16.5181 23.2033C16.5181 22.5302 17.0636 21.9867 17.7348 21.9867C18.4079 21.9867 18.9514 22.5322 18.9514 23.2033C18.9514 23.8763 18.4059 24.4198 17.7348 24.4198Z" fill="white"/>
<path d="M21.8649 23.0602C21.5175 22.3185 20.9249 21.9751 20.5461 21.9751V24.057C21.0093 23.7528 21.4488 23.4212 21.8649 23.0602Z" fill="white"/>
</svg>
