<svg width="270" height="55" viewBox="0 0 270 55" fill="none" xmlns="http://www.w3.org/2000/svg">
<rect x="0.909668" y="19.9855" width="59.9941" height="16.5629" fill="#B4D8FD"/>
<rect x="0.909668" y="0.818726" width="242.44" height="17" fill="#B4D8FD"/>
<path d="M5.21582 8.66248V12.8187H4.05371V2.82458H6.79492C8.02083 2.82458 8.92546 3.05929 9.50879 3.52869C10.0967 3.99809 10.3906 4.70447 10.3906 5.64783C10.3906 6.96944 9.7207 7.86267 8.38086 8.32751L11.0947 12.8187H9.7207L7.30078 8.66248H5.21582ZM5.21582 7.66443H6.80859C7.62891 7.66443 8.23047 7.50264 8.61328 7.17908C8.99609 6.85095 9.1875 6.36104 9.1875 5.70935C9.1875 5.04854 8.99154 4.57231 8.59961 4.28064C8.21224 3.98897 7.58789 3.84314 6.72656 3.84314H5.21582V7.66443ZM15.7021 12.9554C14.5947 12.9554 13.7197 12.6182 13.0771 11.9437C12.4391 11.2692 12.1201 10.3327 12.1201 9.13416C12.1201 7.92647 12.4163 6.96716 13.0088 6.25623C13.6058 5.54529 14.4056 5.18982 15.4082 5.18982C16.347 5.18982 17.0898 5.49972 17.6367 6.11951C18.1836 6.73474 18.457 7.54822 18.457 8.55994V9.27771H13.2959C13.3187 10.1573 13.5397 10.8249 13.959 11.2806C14.3828 11.7364 14.9775 11.9642 15.7432 11.9642C16.5498 11.9642 17.3473 11.7956 18.1357 11.4584V12.4701C17.7347 12.6433 17.3542 12.7663 16.9941 12.8392C16.6387 12.9167 16.208 12.9554 15.7021 12.9554ZM15.3945 6.14001C14.793 6.14001 14.3122 6.33598 13.9521 6.72791C13.5967 7.11983 13.387 7.66215 13.3232 8.35486H17.2402C17.2402 7.63936 17.0807 7.09249 16.7617 6.71423C16.4427 6.33142 15.987 6.14001 15.3945 6.14001ZM26.5166 12.8187L25.1426 8.42322C25.056 8.15434 24.8942 7.54366 24.6572 6.59119H24.6025C24.4202 7.38871 24.2607 8.00395 24.124 8.43689L22.709 12.8187H21.3965L19.3525 5.32654H20.542C21.0251 7.2087 21.3919 8.64197 21.6426 9.62634C21.8978 10.6107 22.0436 11.2738 22.0801 11.6156H22.1348C22.1849 11.3558 22.2646 11.0209 22.374 10.6107C22.488 10.196 22.5859 9.86788 22.668 9.62634L24.042 5.32654H25.2725L26.6123 9.62634C26.8675 10.4102 27.0407 11.0687 27.1318 11.6019H27.1865C27.2048 11.4379 27.2526 11.1849 27.3301 10.8431C27.4121 10.5013 27.8883 8.66248 28.7588 5.32654H29.9346L27.8633 12.8187H26.5166ZM34.7129 5.18982C35.0456 5.18982 35.3441 5.21716 35.6084 5.27185L35.4512 6.32458C35.1413 6.25623 34.8678 6.22205 34.6309 6.22205C34.0247 6.22205 33.5052 6.46814 33.0723 6.96033C32.6439 7.45251 32.4297 8.06547 32.4297 8.79919V12.8187H31.2949V5.32654H32.2314L32.3613 6.71423H32.416C32.694 6.2266 33.029 5.85063 33.4209 5.5863C33.8128 5.32198 34.2435 5.18982 34.7129 5.18982ZM38.1445 12.8187H37.0098V5.32654H38.1445V12.8187ZM36.9141 3.29626C36.9141 3.0365 36.9779 2.84737 37.1055 2.72888C37.2331 2.60583 37.3926 2.54431 37.584 2.54431C37.7663 2.54431 37.9235 2.60583 38.0557 2.72888C38.1878 2.85193 38.2539 3.04106 38.2539 3.29626C38.2539 3.55147 38.1878 3.74288 38.0557 3.87048C37.9235 3.99353 37.7663 4.05505 37.584 4.05505C37.3926 4.05505 37.2331 3.99353 37.1055 3.87048C36.9779 3.74288 36.9141 3.55147 36.9141 3.29626ZM42.9707 12.0189C43.1712 12.0189 43.3649 12.0052 43.5518 11.9779C43.7386 11.946 43.8867 11.9141 43.9961 11.8822V12.7504C43.873 12.8096 43.6908 12.8575 43.4492 12.8939C43.2122 12.9349 42.998 12.9554 42.8066 12.9554C41.3574 12.9554 40.6328 12.1921 40.6328 10.6654V6.20837H39.5596V5.6615L40.6328 5.18982L41.1113 3.59021H41.7676V5.32654H43.9414V6.20837H41.7676V10.6176C41.7676 11.0687 41.8747 11.4151 42.0889 11.6566C42.3031 11.8982 42.597 12.0189 42.9707 12.0189ZM48.665 12.9554C47.5576 12.9554 46.6826 12.6182 46.04 11.9437C45.402 11.2692 45.083 10.3327 45.083 9.13416C45.083 7.92647 45.3792 6.96716 45.9717 6.25623C46.5687 5.54529 47.3685 5.18982 48.3711 5.18982C49.3099 5.18982 50.0527 5.49972 50.5996 6.11951C51.1465 6.73474 51.4199 7.54822 51.4199 8.55994V9.27771H46.2588C46.2816 10.1573 46.5026 10.8249 46.9219 11.2806C47.3457 11.7364 47.9404 11.9642 48.7061 11.9642C49.5127 11.9642 50.3102 11.7956 51.0986 11.4584V12.4701C50.6976 12.6433 50.3171 12.7663 49.957 12.8392C49.6016 12.9167 49.1709 12.9554 48.665 12.9554ZM48.3574 6.14001C47.7559 6.14001 47.2751 6.33598 46.915 6.72791C46.5596 7.11983 46.3499 7.66215 46.2861 8.35486H50.2031C50.2031 7.63936 50.0436 7.09249 49.7246 6.71423C49.4056 6.33142 48.9499 6.14001 48.3574 6.14001ZM55.8086 5.32654H57.0254L58.666 9.599C59.026 10.5743 59.2493 11.2784 59.3359 11.7113H59.3906C59.4499 11.4789 59.5729 11.0824 59.7598 10.5219C59.9512 9.95675 60.571 8.22498 61.6191 5.32654H62.8359L59.6162 13.8578C59.2972 14.7009 58.9235 15.2979 58.4951 15.6488C58.0713 16.0043 57.5495 16.182 56.9297 16.182C56.5833 16.182 56.2415 16.1433 55.9043 16.0658V15.1566C56.1549 15.2113 56.4352 15.2386 56.7451 15.2386C57.5244 15.2386 58.0804 14.8011 58.4131 13.9261L58.8301 12.8597L55.8086 5.32654ZM70.5195 9.0658C70.5195 10.2872 70.2119 11.2419 69.5967 11.9301C68.9814 12.6136 68.1315 12.9554 67.0469 12.9554C66.377 12.9554 65.7822 12.7982 65.2627 12.4838C64.7432 12.1693 64.3421 11.7181 64.0596 11.1302C63.777 10.5424 63.6357 9.85421 63.6357 9.0658C63.6357 7.84444 63.9411 6.89425 64.5518 6.21521C65.1624 5.53162 66.0101 5.18982 67.0947 5.18982C68.1429 5.18982 68.9746 5.53845 69.5898 6.23572C70.2096 6.93298 70.5195 7.87634 70.5195 9.0658ZM64.8115 9.0658C64.8115 10.0228 65.0029 10.752 65.3857 11.2533C65.7686 11.7546 66.3314 12.0052 67.0742 12.0052C67.8171 12.0052 68.3799 11.7569 68.7627 11.2601C69.1501 10.7588 69.3438 10.0274 69.3438 9.0658C69.3438 8.11332 69.1501 7.39099 68.7627 6.8988C68.3799 6.40206 67.8125 6.15369 67.0605 6.15369C66.3177 6.15369 65.7572 6.3975 65.3789 6.88513C65.0007 7.37276 64.8115 8.09965 64.8115 9.0658ZM73.582 5.32654V10.1869C73.582 10.7976 73.721 11.2533 73.999 11.5541C74.277 11.8549 74.7122 12.0052 75.3047 12.0052C76.0885 12.0052 76.6605 11.7911 77.0205 11.3627C77.3851 10.9343 77.5674 10.2347 77.5674 9.26404V5.32654H78.7021V12.8187H77.7656L77.6016 11.8138H77.54C77.3076 12.183 76.984 12.4655 76.5693 12.6615C76.1592 12.8575 75.6898 12.9554 75.1611 12.9554C74.2497 12.9554 73.5661 12.739 73.1104 12.306C72.6592 11.8731 72.4336 11.1804 72.4336 10.2279V5.32654H73.582ZM84.5332 5.18982C84.8659 5.18982 85.1644 5.21716 85.4287 5.27185L85.2715 6.32458C84.9616 6.25623 84.6882 6.22205 84.4512 6.22205C83.8451 6.22205 83.3255 6.46814 82.8926 6.96033C82.4642 7.45251 82.25 8.06547 82.25 8.79919V12.8187H81.1152V5.32654H82.0518L82.1816 6.71423H82.2363C82.5143 6.2266 82.8493 5.85063 83.2412 5.5863C83.6331 5.32198 84.0638 5.18982 84.5332 5.18982ZM92.8867 12.0189C93.0872 12.0189 93.2809 12.0052 93.4678 11.9779C93.6546 11.946 93.8027 11.9141 93.9121 11.8822V12.7504C93.7891 12.8096 93.6068 12.8575 93.3652 12.8939C93.1283 12.9349 92.9141 12.9554 92.7227 12.9554C91.2734 12.9554 90.5488 12.1921 90.5488 10.6654V6.20837H89.4756V5.6615L90.5488 5.18982L91.0273 3.59021H91.6836V5.32654H93.8574V6.20837H91.6836V10.6176C91.6836 11.0687 91.7907 11.4151 92.0049 11.6566C92.2191 11.8982 92.513 12.0189 92.8867 12.0189ZM98.5811 12.9554C97.4736 12.9554 96.5986 12.6182 95.9561 11.9437C95.318 11.2692 94.999 10.3327 94.999 9.13416C94.999 7.92647 95.2952 6.96716 95.8877 6.25623C96.4847 5.54529 97.2845 5.18982 98.2871 5.18982C99.2259 5.18982 99.9688 5.49972 100.516 6.11951C101.062 6.73474 101.336 7.54822 101.336 8.55994V9.27771H96.1748C96.1976 10.1573 96.4186 10.8249 96.8379 11.2806C97.2617 11.7364 97.8564 11.9642 98.6221 11.9642C99.4287 11.9642 100.226 11.7956 101.015 11.4584V12.4701C100.614 12.6433 100.233 12.7663 99.873 12.8392C99.5176 12.9167 99.0869 12.9554 98.5811 12.9554ZM98.2734 6.14001C97.6719 6.14001 97.1911 6.33598 96.8311 6.72791C96.4756 7.11983 96.266 7.66215 96.2021 8.35486H100.119C100.119 7.63936 99.9596 7.09249 99.6406 6.71423C99.3216 6.33142 98.8659 6.14001 98.2734 6.14001ZM105.082 8.98376L102.478 5.32654H103.77L105.745 8.19763L107.714 5.32654H108.992L106.388 8.98376L109.129 12.8187H107.844L105.745 9.78357L103.626 12.8187H102.341L105.082 8.98376ZM113.039 12.0189C113.24 12.0189 113.433 12.0052 113.62 11.9779C113.807 11.946 113.955 11.9141 114.064 11.8822V12.7504C113.941 12.8096 113.759 12.8575 113.518 12.8939C113.281 12.9349 113.066 12.9554 112.875 12.9554C111.426 12.9554 110.701 12.1921 110.701 10.6654V6.20837H109.628V5.6615L110.701 5.18982L111.18 3.59021H111.836V5.32654H114.01V6.20837H111.836V10.6176C111.836 11.0687 111.943 11.4151 112.157 11.6566C112.371 11.8982 112.665 12.0189 113.039 12.0189ZM122.691 5.20349C123.676 5.20349 124.439 5.54073 124.981 6.21521C125.528 6.88513 125.802 7.83533 125.802 9.0658C125.802 10.2963 125.526 11.2533 124.975 11.9369C124.428 12.6159 123.667 12.9554 122.691 12.9554C122.204 12.9554 121.757 12.8666 121.352 12.6888C120.951 12.5066 120.613 12.2286 120.34 11.8549H120.258L120.019 12.8187H119.205V2.18201H120.34V4.76599C120.34 5.34477 120.322 5.8643 120.285 6.32458H120.34C120.868 5.57719 121.652 5.20349 122.691 5.20349ZM122.527 6.15369C121.753 6.15369 121.194 6.37699 120.853 6.82361C120.511 7.26567 120.34 8.01306 120.34 9.0658C120.34 10.1185 120.515 10.8728 120.866 11.3285C121.217 11.7797 121.78 12.0052 122.555 12.0052C123.252 12.0052 123.771 11.7523 124.113 11.2465C124.455 10.736 124.626 10.0046 124.626 9.05212C124.626 8.07686 124.455 7.34998 124.113 6.87146C123.771 6.39294 123.243 6.15369 122.527 6.15369ZM126.602 5.32654H127.818L129.459 9.599C129.819 10.5743 130.042 11.2784 130.129 11.7113H130.184C130.243 11.4789 130.366 11.0824 130.553 10.5219C130.744 9.95675 131.364 8.22498 132.412 5.32654H133.629L130.409 13.8578C130.09 14.7009 129.716 15.2979 129.288 15.6488C128.864 16.0043 128.342 16.182 127.723 16.182C127.376 16.182 127.035 16.1433 126.697 16.0658V15.1566C126.948 15.2113 127.228 15.2386 127.538 15.2386C128.317 15.2386 128.873 14.8011 129.206 13.9261L129.623 12.8597L126.602 5.32654ZM143.609 12.8187V7.97205C143.609 7.36137 143.47 6.90564 143.192 6.60486C142.914 6.30408 142.479 6.15369 141.887 6.15369C141.098 6.15369 140.522 6.36788 140.157 6.79626C139.797 7.22465 139.617 7.92647 139.617 8.90173V12.8187H138.482V2.18201H139.617V5.40173C139.617 5.7891 139.599 6.11039 139.562 6.3656H139.631C139.854 6.00557 140.171 5.72302 140.581 5.51794C140.996 5.30831 141.467 5.20349 141.996 5.20349C142.912 5.20349 143.598 5.42224 144.054 5.85974C144.514 6.29268 144.744 6.98311 144.744 7.93103V12.8187H143.609ZM148.217 12.8187H147.082V5.32654H148.217V12.8187ZM146.986 3.29626C146.986 3.0365 147.05 2.84737 147.178 2.72888C147.305 2.60583 147.465 2.54431 147.656 2.54431C147.839 2.54431 147.996 2.60583 148.128 2.72888C148.26 2.85193 148.326 3.04106 148.326 3.29626C148.326 3.55147 148.26 3.74288 148.128 3.87048C147.996 3.99353 147.839 4.05505 147.656 4.05505C147.465 4.05505 147.305 3.99353 147.178 3.87048C147.05 3.74288 146.986 3.55147 146.986 3.29626ZM156.755 5.32654V6.04431L155.367 6.20837C155.495 6.36788 155.609 6.57751 155.709 6.83728C155.809 7.09249 155.859 7.38188 155.859 7.70544C155.859 8.43917 155.609 9.02478 155.107 9.46228C154.606 9.89978 153.918 10.1185 153.043 10.1185C152.82 10.1185 152.61 10.1003 152.414 10.0638C151.931 10.3191 151.689 10.6403 151.689 11.0277C151.689 11.2328 151.774 11.3855 151.942 11.4857C152.111 11.5814 152.4 11.6293 152.811 11.6293H154.137C154.948 11.6293 155.57 11.8002 156.003 12.142C156.44 12.4838 156.659 12.9805 156.659 13.6322C156.659 14.4616 156.326 15.0928 155.661 15.5258C154.996 15.9633 154.025 16.182 152.749 16.182C151.769 16.182 151.013 15.9997 150.479 15.6351C149.951 15.2705 149.687 14.7556 149.687 14.0902C149.687 13.6345 149.832 13.2403 150.124 12.9076C150.416 12.5749 150.826 12.3493 151.354 12.2308C151.163 12.1442 151.001 12.0098 150.869 11.8275C150.742 11.6452 150.678 11.4333 150.678 11.1918C150.678 10.9183 150.751 10.6791 150.896 10.474C151.042 10.2689 151.272 10.0707 151.587 9.87927C151.2 9.71977 150.883 9.44861 150.637 9.0658C150.395 8.68298 150.274 8.24548 150.274 7.7533C150.274 6.93298 150.521 6.3018 151.013 5.85974C151.505 5.41313 152.202 5.18982 153.104 5.18982C153.496 5.18982 153.85 5.23539 154.164 5.32654H156.755ZM150.78 14.0765C150.78 14.4821 150.951 14.7898 151.293 14.9994C151.635 15.209 152.125 15.3138 152.763 15.3138C153.715 15.3138 154.419 15.1703 154.875 14.8832C155.335 14.6006 155.565 14.2155 155.565 13.7279C155.565 13.3223 155.44 13.0398 155.189 12.8802C154.939 12.7253 154.467 12.6478 153.774 12.6478H152.414C151.899 12.6478 151.498 12.7709 151.211 13.017C150.924 13.2631 150.78 13.6163 150.78 14.0765ZM151.396 7.72595C151.396 8.25004 151.544 8.64653 151.84 8.91541C152.136 9.18429 152.549 9.31873 153.077 9.31873C154.185 9.31873 154.738 8.78097 154.738 7.70544C154.738 6.57979 154.178 6.01697 153.057 6.01697C152.523 6.01697 152.113 6.16052 151.826 6.44763C151.539 6.73474 151.396 7.16085 151.396 7.72595ZM163.42 12.8187V7.97205C163.42 7.36137 163.281 6.90564 163.003 6.60486C162.725 6.30408 162.29 6.15369 161.697 6.15369C160.909 6.15369 160.332 6.36788 159.968 6.79626C159.608 7.22465 159.428 7.92647 159.428 8.90173V12.8187H158.293V2.18201H159.428V5.40173C159.428 5.7891 159.41 6.11039 159.373 6.3656H159.441C159.665 6.00557 159.981 5.72302 160.392 5.51794C160.806 5.30831 161.278 5.20349 161.807 5.20349C162.723 5.20349 163.409 5.42224 163.864 5.85974C164.325 6.29268 164.555 6.98311 164.555 7.93103V12.8187H163.42ZM168.027 12.8187H166.893V2.18201H168.027V12.8187ZM171.568 12.8187H170.434V5.32654H171.568V12.8187ZM170.338 3.29626C170.338 3.0365 170.402 2.84737 170.529 2.72888C170.657 2.60583 170.816 2.54431 171.008 2.54431C171.19 2.54431 171.347 2.60583 171.479 2.72888C171.612 2.85193 171.678 3.04106 171.678 3.29626C171.678 3.55147 171.612 3.74288 171.479 3.87048C171.347 3.99353 171.19 4.05505 171.008 4.05505C170.816 4.05505 170.657 3.99353 170.529 3.87048C170.402 3.74288 170.338 3.55147 170.338 3.29626ZM180.106 5.32654V6.04431L178.719 6.20837C178.846 6.36788 178.96 6.57751 179.061 6.83728C179.161 7.09249 179.211 7.38188 179.211 7.70544C179.211 8.43917 178.96 9.02478 178.459 9.46228C177.958 9.89978 177.27 10.1185 176.395 10.1185C176.171 10.1185 175.962 10.1003 175.766 10.0638C175.283 10.3191 175.041 10.6403 175.041 11.0277C175.041 11.2328 175.125 11.3855 175.294 11.4857C175.463 11.5814 175.752 11.6293 176.162 11.6293H177.488C178.299 11.6293 178.922 11.8002 179.354 12.142C179.792 12.4838 180.011 12.9805 180.011 13.6322C180.011 14.4616 179.678 15.0928 179.013 15.5258C178.347 15.9633 177.377 16.182 176.101 16.182C175.121 16.182 174.364 15.9997 173.831 15.6351C173.302 15.2705 173.038 14.7556 173.038 14.0902C173.038 13.6345 173.184 13.2403 173.476 12.9076C173.767 12.5749 174.177 12.3493 174.706 12.2308C174.515 12.1442 174.353 12.0098 174.221 11.8275C174.093 11.6452 174.029 11.4333 174.029 11.1918C174.029 10.9183 174.102 10.6791 174.248 10.474C174.394 10.2689 174.624 10.0707 174.938 9.87927C174.551 9.71977 174.234 9.44861 173.988 9.0658C173.747 8.68298 173.626 8.24548 173.626 7.7533C173.626 6.93298 173.872 6.3018 174.364 5.85974C174.856 5.41313 175.554 5.18982 176.456 5.18982C176.848 5.18982 177.201 5.23539 177.516 5.32654H180.106ZM174.132 14.0765C174.132 14.4821 174.303 14.7898 174.645 14.9994C174.986 15.209 175.476 15.3138 176.114 15.3138C177.067 15.3138 177.771 15.1703 178.227 14.8832C178.687 14.6006 178.917 14.2155 178.917 13.7279C178.917 13.3223 178.792 13.0398 178.541 12.8802C178.29 12.7253 177.819 12.6478 177.126 12.6478H175.766C175.251 12.6478 174.85 12.7709 174.562 13.017C174.275 13.2631 174.132 13.6163 174.132 14.0765ZM174.747 7.72595C174.747 8.25004 174.895 8.64653 175.191 8.91541C175.488 9.18429 175.9 9.31873 176.429 9.31873C177.536 9.31873 178.09 8.78097 178.09 7.70544C178.09 6.57979 177.529 6.01697 176.408 6.01697C175.875 6.01697 175.465 6.16052 175.178 6.44763C174.891 6.73474 174.747 7.16085 174.747 7.72595ZM186.771 12.8187V7.97205C186.771 7.36137 186.632 6.90564 186.354 6.60486C186.076 6.30408 185.641 6.15369 185.049 6.15369C184.26 6.15369 183.684 6.36788 183.319 6.79626C182.959 7.22465 182.779 7.92647 182.779 8.90173V12.8187H181.645V2.18201H182.779V5.40173C182.779 5.7891 182.761 6.11039 182.725 6.3656H182.793C183.016 6.00557 183.333 5.72302 183.743 5.51794C184.158 5.30831 184.63 5.20349 185.158 5.20349C186.074 5.20349 186.76 5.42224 187.216 5.85974C187.676 6.29268 187.906 6.98311 187.906 7.93103V12.8187H186.771ZM192.664 12.0189C192.865 12.0189 193.058 12.0052 193.245 11.9779C193.432 11.946 193.58 11.9141 193.689 11.8822V12.7504C193.566 12.8096 193.384 12.8575 193.143 12.8939C192.906 12.9349 192.691 12.9554 192.5 12.9554C191.051 12.9554 190.326 12.1921 190.326 10.6654V6.20837H189.253V5.6615L190.326 5.18982L190.805 3.59021H191.461V5.32654H193.635V6.20837H191.461V10.6176C191.461 11.0687 191.568 11.4151 191.782 11.6566C191.996 11.8982 192.29 12.0189 192.664 12.0189ZM196.328 12.8187H195.193V5.32654H196.328V12.8187ZM195.098 3.29626C195.098 3.0365 195.161 2.84737 195.289 2.72888C195.417 2.60583 195.576 2.54431 195.768 2.54431C195.95 2.54431 196.107 2.60583 196.239 2.72888C196.371 2.85193 196.438 3.04106 196.438 3.29626C196.438 3.55147 196.371 3.74288 196.239 3.87048C196.107 3.99353 195.95 4.05505 195.768 4.05505C195.576 4.05505 195.417 3.99353 195.289 3.87048C195.161 3.74288 195.098 3.55147 195.098 3.29626ZM203.861 12.8187V7.97205C203.861 7.36137 203.722 6.90564 203.444 6.60486C203.166 6.30408 202.731 6.15369 202.139 6.15369C201.355 6.15369 200.781 6.3656 200.416 6.78943C200.051 7.21326 199.869 7.9128 199.869 8.88806V12.8187H198.734V5.32654H199.657L199.842 6.35193H199.896C200.129 5.98279 200.455 5.69796 200.874 5.49744C201.293 5.29236 201.76 5.18982 202.275 5.18982C203.178 5.18982 203.857 5.40857 204.312 5.84607C204.768 6.27901 204.996 6.974 204.996 7.93103V12.8187H203.861ZM213.466 5.32654V6.04431L212.078 6.20837C212.206 6.36788 212.32 6.57751 212.42 6.83728C212.52 7.09249 212.57 7.38188 212.57 7.70544C212.57 8.43917 212.32 9.02478 211.818 9.46228C211.317 9.89978 210.629 10.1185 209.754 10.1185C209.531 10.1185 209.321 10.1003 209.125 10.0638C208.642 10.3191 208.4 10.6403 208.4 11.0277C208.4 11.2328 208.485 11.3855 208.653 11.4857C208.822 11.5814 209.111 11.6293 209.521 11.6293H210.848C211.659 11.6293 212.281 11.8002 212.714 12.142C213.151 12.4838 213.37 12.9805 213.37 13.6322C213.37 14.4616 213.037 15.0928 212.372 15.5258C211.707 15.9633 210.736 16.182 209.46 16.182C208.48 16.182 207.724 15.9997 207.19 15.6351C206.662 15.2705 206.397 14.7556 206.397 14.0902C206.397 13.6345 206.543 13.2403 206.835 12.9076C207.127 12.5749 207.537 12.3493 208.065 12.2308C207.874 12.1442 207.712 12.0098 207.58 11.8275C207.452 11.6452 207.389 11.4333 207.389 11.1918C207.389 10.9183 207.462 10.6791 207.607 10.474C207.753 10.2689 207.983 10.0707 208.298 9.87927C207.91 9.71977 207.594 9.44861 207.348 9.0658C207.106 8.68298 206.985 8.24548 206.985 7.7533C206.985 6.93298 207.231 6.3018 207.724 5.85974C208.216 5.41313 208.913 5.18982 209.815 5.18982C210.207 5.18982 210.561 5.23539 210.875 5.32654H213.466ZM207.491 14.0765C207.491 14.4821 207.662 14.7898 208.004 14.9994C208.346 15.209 208.836 15.3138 209.474 15.3138C210.426 15.3138 211.13 15.1703 211.586 14.8832C212.046 14.6006 212.276 14.2155 212.276 13.7279C212.276 13.3223 212.151 13.0398 211.9 12.8802C211.65 12.7253 211.178 12.6478 210.485 12.6478H209.125C208.61 12.6478 208.209 12.7709 207.922 13.017C207.635 13.2631 207.491 13.6163 207.491 14.0765ZM208.106 7.72595C208.106 8.25004 208.255 8.64653 208.551 8.91541C208.847 9.18429 209.259 9.31873 209.788 9.31873C210.896 9.31873 211.449 8.78097 211.449 7.70544C211.449 6.57979 210.889 6.01697 209.768 6.01697C209.234 6.01697 208.824 6.16052 208.537 6.44763C208.25 6.73474 208.106 7.16085 208.106 7.72595ZM223.248 12.8187L223.022 11.7523H222.968C222.594 12.2217 222.22 12.5407 221.847 12.7094C221.478 12.8734 221.015 12.9554 220.459 12.9554C219.716 12.9554 219.133 12.764 218.709 12.3812C218.29 11.9984 218.08 11.4538 218.08 10.7474C218.08 9.23442 219.29 8.44145 221.71 8.36853L222.981 8.32751V7.86267C222.981 7.27478 222.854 6.84184 222.599 6.56384C222.348 6.28129 221.945 6.14001 221.389 6.14001C220.764 6.14001 220.058 6.33142 219.27 6.71423L218.921 5.84607C219.29 5.64555 219.693 5.48832 220.131 5.37439C220.573 5.26046 221.015 5.20349 221.457 5.20349C222.35 5.20349 223.011 5.40173 223.439 5.79822C223.872 6.1947 224.089 6.83044 224.089 7.70544V12.8187H223.248ZM220.685 12.0189C221.391 12.0189 221.945 11.8252 222.346 11.4379C222.751 11.0505 222.954 10.5082 222.954 9.81091V9.13416L221.819 9.18201C220.917 9.21391 220.265 9.35518 219.864 9.60583C219.468 9.85193 219.27 10.237 219.27 10.7611C219.27 11.1713 219.393 11.4834 219.639 11.6976C219.889 11.9118 220.238 12.0189 220.685 12.0189ZM231.561 12.8187V7.97205C231.561 7.36137 231.422 6.90564 231.144 6.60486C230.866 6.30408 230.43 6.15369 229.838 6.15369C229.054 6.15369 228.48 6.3656 228.115 6.78943C227.751 7.21326 227.568 7.9128 227.568 8.88806V12.8187H226.434V5.32654H227.356L227.541 6.35193H227.596C227.828 5.98279 228.154 5.69796 228.573 5.49744C228.993 5.29236 229.46 5.18982 229.975 5.18982C230.877 5.18982 231.556 5.40857 232.012 5.84607C232.467 6.27901 232.695 6.974 232.695 7.93103V12.8187H231.561ZM233.844 5.32654H235.061L236.701 9.599C237.061 10.5743 237.285 11.2784 237.371 11.7113H237.426C237.485 11.4789 237.608 11.0824 237.795 10.5219C237.986 9.95675 238.606 8.22498 239.654 5.32654H240.871L237.651 13.8578C237.332 14.7009 236.959 15.2979 236.53 15.6488C236.106 16.0043 235.585 16.182 234.965 16.182C234.618 16.182 234.277 16.1433 233.939 16.0658V15.1566C234.19 15.2113 234.47 15.2386 234.78 15.2386C235.56 15.2386 236.116 14.8011 236.448 13.9261L236.865 12.8597L233.844 5.32654ZM7.36914 31.9554C6.88151 31.9554 6.4349 31.8666 6.0293 31.6888C5.62826 31.5066 5.29102 31.2286 5.01758 30.8549H4.93555C4.99023 31.2924 5.01758 31.7071 5.01758 32.099V35.182H3.88281V24.3265H4.80566L4.96289 25.3519H5.01758C5.30924 24.9418 5.64876 24.6455 6.03613 24.4633C6.4235 24.281 6.86784 24.1898 7.36914 24.1898C8.36263 24.1898 9.12826 24.5293 9.66602 25.2084C10.2083 25.8874 10.4795 26.8399 10.4795 28.0658C10.4795 29.2963 10.2038 30.2533 9.65234 30.9369C9.10547 31.6159 8.3444 31.9554 7.36914 31.9554ZM7.20508 25.1537C6.43945 25.1537 5.88574 25.3656 5.54395 25.7894C5.20215 26.2133 5.02669 26.8877 5.01758 27.8129V28.0658C5.01758 29.1185 5.19303 29.8728 5.54395 30.3285C5.89486 30.7797 6.45768 31.0052 7.23242 31.0052C7.87956 31.0052 8.38542 30.7432 8.75 30.2191C9.11914 29.695 9.30371 28.9727 9.30371 28.0521C9.30371 27.1179 9.11914 26.4024 8.75 25.9056C8.38542 25.4043 7.87044 25.1537 7.20508 25.1537ZM17.0762 31.8187L16.8506 30.7523H16.7959C16.4222 31.2217 16.0485 31.5407 15.6748 31.7094C15.3057 31.8734 14.8431 31.9554 14.2871 31.9554C13.5443 31.9554 12.9609 31.764 12.5371 31.3812C12.1178 30.9984 11.9082 30.4538 11.9082 29.7474C11.9082 28.2344 13.1182 27.4414 15.5381 27.3685L16.8096 27.3275V26.8627C16.8096 26.2748 16.682 25.8418 16.4268 25.5638C16.1761 25.2813 15.7728 25.14 15.2168 25.14C14.5924 25.14 13.8861 25.3314 13.0977 25.7142L12.749 24.8461C13.1182 24.6455 13.5215 24.4883 13.959 24.3744C14.401 24.2605 14.8431 24.2035 15.2852 24.2035C16.1784 24.2035 16.8392 24.4017 17.2676 24.7982C17.7005 25.1947 17.917 25.8304 17.917 26.7054V31.8187H17.0762ZM14.5127 31.0189C15.2191 31.0189 15.7728 30.8252 16.1738 30.4379C16.5794 30.0505 16.7822 29.5082 16.7822 28.8109V28.1342L15.6475 28.182C14.7451 28.2139 14.0934 28.3552 13.6924 28.6058C13.2959 28.8519 13.0977 29.237 13.0977 29.7611C13.0977 30.1713 13.2207 30.4834 13.4668 30.6976C13.7174 30.9118 14.0661 31.0189 14.5127 31.0189ZM23.6797 24.1898C24.0124 24.1898 24.3109 24.2172 24.5752 24.2719L24.418 25.3246C24.1081 25.2562 23.8346 25.222 23.5977 25.222C22.9915 25.222 22.472 25.4681 22.0391 25.9603C21.6107 26.4525 21.3965 27.0655 21.3965 27.7992V31.8187H20.2617V24.3265H21.1982L21.3281 25.7142H21.3828C21.6608 25.2266 21.9958 24.8506 22.3877 24.5863C22.7796 24.322 23.2103 24.1898 23.6797 24.1898ZM28.3965 31.0189C28.597 31.0189 28.7907 31.0052 28.9775 30.9779C29.1644 30.946 29.3125 30.9141 29.4219 30.8822V31.7504C29.2988 31.8096 29.1165 31.8575 28.875 31.8939C28.638 31.9349 28.4238 31.9554 28.2324 31.9554C26.7832 31.9554 26.0586 31.1921 26.0586 29.6654V25.2084H24.9854V24.6615L26.0586 24.1898L26.5371 22.5902H27.1934V24.3265H29.3672V25.2084H27.1934V29.6176C27.1934 30.0687 27.3005 30.4151 27.5146 30.6566C27.7288 30.8982 28.0228 31.0189 28.3965 31.0189ZM41.0293 28.0658C41.0293 29.2872 40.7217 30.2419 40.1064 30.9301C39.4912 31.6136 38.6413 31.9554 37.5566 31.9554C36.8867 31.9554 36.292 31.7982 35.7725 31.4838C35.2529 31.1693 34.8519 30.7181 34.5693 30.1302C34.2868 29.5424 34.1455 28.8542 34.1455 28.0658C34.1455 26.8444 34.4508 25.8942 35.0615 25.2152C35.6722 24.5316 36.5199 24.1898 37.6045 24.1898C38.6527 24.1898 39.4844 24.5385 40.0996 25.2357C40.7194 25.933 41.0293 26.8763 41.0293 28.0658ZM35.3213 28.0658C35.3213 29.0228 35.5127 29.752 35.8955 30.2533C36.2783 30.7546 36.8411 31.0052 37.584 31.0052C38.3268 31.0052 38.8896 30.7569 39.2725 30.2601C39.6598 29.7588 39.8535 29.0274 39.8535 28.0658C39.8535 27.1133 39.6598 26.391 39.2725 25.8988C38.8896 25.4021 38.3223 25.1537 37.5703 25.1537C36.8275 25.1537 36.2669 25.3975 35.8887 25.8851C35.5104 26.3728 35.3213 27.0997 35.3213 28.0658ZM46.4023 25.2084H44.4951V31.8187H43.3604V25.2084H42.0205V24.6957L43.3604 24.2855V23.8685C43.3604 22.0274 44.1647 21.1068 45.7734 21.1068C46.1699 21.1068 46.6348 21.1866 47.168 21.3461L46.874 22.2552C46.4365 22.114 46.0628 22.0433 45.7529 22.0433C45.3245 22.0433 45.0078 22.1869 44.8027 22.474C44.5977 22.7566 44.4951 23.2123 44.4951 23.8412V24.3265H46.4023V25.2084ZM52.541 31.8187H51.4062V24.3265H52.541V31.8187ZM51.3105 22.2963C51.3105 22.0365 51.3743 21.8474 51.502 21.7289C51.6296 21.6058 51.7891 21.5443 51.9805 21.5443C52.1628 21.5443 52.32 21.6058 52.4521 21.7289C52.5843 21.8519 52.6504 22.0411 52.6504 22.2963C52.6504 22.5515 52.5843 22.7429 52.4521 22.8705C52.32 22.9935 52.1628 23.0551 51.9805 23.0551C51.7891 23.0551 51.6296 22.9935 51.502 22.8705C51.3743 22.7429 51.3105 22.5515 51.3105 22.2963ZM57.3672 31.0189C57.5677 31.0189 57.7614 31.0052 57.9482 30.9779C58.1351 30.946 58.2832 30.9141 58.3926 30.8822V31.7504C58.2695 31.8096 58.0872 31.8575 57.8457 31.8939C57.6087 31.9349 57.3945 31.9554 57.2031 31.9554C55.7539 31.9554 55.0293 31.1921 55.0293 29.6654V25.2084H53.9561V24.6615L55.0293 24.1898L55.5078 22.5902H56.1641V24.3265H58.3379V25.2084H56.1641V29.6176C56.1641 30.0687 56.2712 30.4151 56.4854 30.6566C56.6995 30.8982 56.9935 31.0189 57.3672 31.0189ZM68.1406 31.8187L67.915 30.7523H67.8604C67.4867 31.2217 67.113 31.5407 66.7393 31.7094C66.3701 31.8734 65.9076 31.9554 65.3516 31.9554C64.6087 31.9554 64.0254 31.764 63.6016 31.3812C63.1823 30.9984 62.9727 30.4538 62.9727 29.7474C62.9727 28.2344 64.1826 27.4414 66.6025 27.3685L67.874 27.3275V26.8627C67.874 26.2748 67.7464 25.8418 67.4912 25.5638C67.2406 25.2813 66.8372 25.14 66.2812 25.14C65.6569 25.14 64.9505 25.3314 64.1621 25.7142L63.8135 24.8461C64.1826 24.6455 64.5859 24.4883 65.0234 24.3744C65.4655 24.2605 65.9076 24.2035 66.3496 24.2035C67.2428 24.2035 67.9036 24.4017 68.332 24.7982C68.765 25.1947 68.9814 25.8304 68.9814 26.7054V31.8187H68.1406ZM65.5771 31.0189C66.2835 31.0189 66.8372 30.8252 67.2383 30.4379C67.6439 30.0505 67.8467 29.5082 67.8467 28.8109V28.1342L66.7119 28.182C65.8096 28.2139 65.1579 28.3552 64.7568 28.6058C64.3604 28.8519 64.1621 29.237 64.1621 29.7611C64.1621 30.1713 64.2852 30.4834 64.5312 30.6976C64.7819 30.9118 65.1305 31.0189 65.5771 31.0189ZM76.4531 31.8187V26.972C76.4531 26.3614 76.3141 25.9056 76.0361 25.6049C75.7581 25.3041 75.3229 25.1537 74.7305 25.1537C73.9466 25.1537 73.3724 25.3656 73.0078 25.7894C72.6432 26.2133 72.4609 26.9128 72.4609 27.8881V31.8187H71.3262V24.3265H72.249L72.4336 25.3519H72.4883C72.7207 24.9828 73.0465 24.698 73.4658 24.4974C73.8851 24.2924 74.3522 24.1898 74.8672 24.1898C75.7695 24.1898 76.4486 24.4086 76.9043 24.8461C77.36 25.279 77.5879 25.974 77.5879 26.931V31.8187H76.4531ZM85.0254 30.8138H84.9639C84.4398 31.5749 83.6559 31.9554 82.6123 31.9554C81.6325 31.9554 80.8691 31.6205 80.3223 30.9506C79.7799 30.2806 79.5088 29.3282 79.5088 28.0931C79.5088 26.8581 79.7822 25.8988 80.3291 25.2152C80.876 24.5316 81.637 24.1898 82.6123 24.1898C83.6286 24.1898 84.4079 24.559 84.9502 25.2972H85.0391L84.9912 24.7572L84.9639 24.2308V21.182H86.0986V31.8187H85.1758L85.0254 30.8138ZM82.7559 31.0052C83.5306 31.0052 84.0911 30.7956 84.4375 30.3763C84.7884 29.9525 84.9639 29.2712 84.9639 28.3324V28.0931C84.9639 27.0313 84.7861 26.2748 84.4307 25.8236C84.0798 25.3679 83.5169 25.14 82.7422 25.14C82.0768 25.14 81.5664 25.3998 81.2109 25.9193C80.86 26.4343 80.6846 27.1635 80.6846 28.1068C80.6846 29.0638 80.86 29.7862 81.2109 30.2738C81.5618 30.7614 82.0768 31.0052 82.7559 31.0052ZM95.1426 31.9554C94.0579 31.9554 93.2171 31.6228 92.6201 30.9574C92.0277 30.2875 91.7314 29.3418 91.7314 28.1205C91.7314 26.8672 92.0322 25.8988 92.6338 25.2152C93.2399 24.5316 94.1012 24.1898 95.2178 24.1898C95.5778 24.1898 95.9378 24.2286 96.2979 24.306C96.6579 24.3835 96.9404 24.4747 97.1455 24.5795L96.7969 25.5433C96.5462 25.4431 96.2728 25.361 95.9766 25.2972C95.6803 25.2289 95.4183 25.1947 95.1904 25.1947C93.6683 25.1947 92.9072 26.1654 92.9072 28.1068C92.9072 29.0274 93.0918 29.7338 93.4609 30.226C93.8346 30.7181 94.3861 30.9642 95.1152 30.9642C95.7396 30.9642 96.3799 30.8298 97.0361 30.5609V31.5658C96.5348 31.8256 95.9036 31.9554 95.1426 31.9554ZM103.947 31.8187V26.972C103.947 26.3614 103.808 25.9056 103.53 25.6049C103.252 25.3041 102.817 25.1537 102.225 25.1537C101.436 25.1537 100.86 25.3679 100.495 25.7963C100.135 26.2247 99.9551 26.9265 99.9551 27.9017V31.8187H98.8203V21.182H99.9551V24.4017C99.9551 24.7891 99.9368 25.1104 99.9004 25.3656H99.9688C100.192 25.0056 100.509 24.723 100.919 24.5179C101.334 24.3083 101.805 24.2035 102.334 24.2035C103.25 24.2035 103.936 24.4222 104.392 24.8597C104.852 25.2927 105.082 25.9831 105.082 26.931V31.8187H103.947ZM113.887 28.0658C113.887 29.2872 113.579 30.2419 112.964 30.9301C112.349 31.6136 111.499 31.9554 110.414 31.9554C109.744 31.9554 109.149 31.7982 108.63 31.4838C108.11 31.1693 107.709 30.7181 107.427 30.1302C107.144 29.5424 107.003 28.8542 107.003 28.0658C107.003 26.8444 107.308 25.8942 107.919 25.2152C108.53 24.5316 109.377 24.1898 110.462 24.1898C111.51 24.1898 112.342 24.5385 112.957 25.2357C113.577 25.933 113.887 26.8763 113.887 28.0658ZM108.179 28.0658C108.179 29.0228 108.37 29.752 108.753 30.2533C109.136 30.7546 109.699 31.0052 110.441 31.0052C111.184 31.0052 111.747 30.7569 112.13 30.2601C112.517 29.7588 112.711 29.0274 112.711 28.0658C112.711 27.1133 112.517 26.391 112.13 25.8988C111.747 25.4021 111.18 25.1537 110.428 25.1537C109.685 25.1537 109.124 25.3975 108.746 25.8851C108.368 26.3728 108.179 27.0997 108.179 28.0658ZM122.35 28.0658C122.35 29.2872 122.042 30.2419 121.427 30.9301C120.812 31.6136 119.962 31.9554 118.877 31.9554C118.207 31.9554 117.612 31.7982 117.093 31.4838C116.573 31.1693 116.172 30.7181 115.89 30.1302C115.607 29.5424 115.466 28.8542 115.466 28.0658C115.466 26.8444 115.771 25.8942 116.382 25.2152C116.993 24.5316 117.84 24.1898 118.925 24.1898C119.973 24.1898 120.805 24.5385 121.42 25.2357C122.04 25.933 122.35 26.8763 122.35 28.0658ZM116.642 28.0658C116.642 29.0228 116.833 29.752 117.216 30.2533C117.599 30.7546 118.161 31.0052 118.904 31.0052C119.647 31.0052 120.21 30.7569 120.593 30.2601C120.98 29.7588 121.174 29.0274 121.174 28.0658C121.174 27.1133 120.98 26.391 120.593 25.8988C120.21 25.4021 119.643 25.1537 118.891 25.1537C118.148 25.1537 117.587 25.3975 117.209 25.8851C116.831 26.3728 116.642 27.0997 116.642 28.0658ZM129.179 29.7748C129.179 30.472 128.919 31.0098 128.399 31.3881C127.88 31.7663 127.151 31.9554 126.212 31.9554C125.218 31.9554 124.444 31.7982 123.888 31.4838V30.431C124.248 30.6133 124.633 30.7569 125.043 30.8617C125.458 30.9665 125.856 31.0189 126.239 31.0189C126.832 31.0189 127.287 30.9255 127.606 30.7386C127.925 30.5472 128.085 30.2579 128.085 29.8705C128.085 29.5788 127.957 29.3304 127.702 29.1254C127.451 28.9157 126.959 28.6696 126.226 28.3871C125.528 28.1273 125.032 27.9017 124.735 27.7103C124.444 27.5144 124.225 27.2933 124.079 27.0472C123.938 26.8011 123.867 26.5072 123.867 26.1654C123.867 25.5547 124.116 25.0739 124.612 24.723C125.109 24.3676 125.79 24.1898 126.656 24.1898C127.463 24.1898 128.251 24.3539 129.021 24.682L128.618 25.6049C127.866 25.295 127.185 25.14 126.574 25.14C126.036 25.14 125.631 25.2243 125.357 25.3929C125.084 25.5616 124.947 25.794 124.947 26.0902C124.947 26.2907 124.997 26.4616 125.098 26.6029C125.202 26.7442 125.369 26.8786 125.597 27.0062C125.825 27.1338 126.262 27.3184 126.909 27.5599C127.798 27.8835 128.397 28.2094 128.707 28.5375C129.021 28.8656 129.179 29.278 129.179 29.7748ZM134.196 31.9554C133.089 31.9554 132.214 31.6182 131.571 30.9437C130.933 30.2692 130.614 29.3327 130.614 28.1342C130.614 26.9265 130.91 25.9672 131.503 25.2562C132.1 24.5453 132.9 24.1898 133.902 24.1898C134.841 24.1898 135.584 24.4997 136.131 25.1195C136.678 25.7347 136.951 26.5482 136.951 27.5599V28.2777H131.79C131.813 29.1573 132.034 29.8249 132.453 30.2806C132.877 30.7364 133.472 30.9642 134.237 30.9642C135.044 30.9642 135.841 30.7956 136.63 30.4584V31.4701C136.229 31.6433 135.848 31.7663 135.488 31.8392C135.133 31.9167 134.702 31.9554 134.196 31.9554ZM133.889 25.14C133.287 25.14 132.806 25.336 132.446 25.7279C132.091 26.1198 131.881 26.6622 131.817 27.3549H135.734C135.734 26.6394 135.575 26.0925 135.256 25.7142C134.937 25.3314 134.481 25.14 133.889 25.14ZM144.949 31.0189C145.15 31.0189 145.343 31.0052 145.53 30.9779C145.717 30.946 145.865 30.9141 145.975 30.8822V31.7504C145.852 31.8096 145.669 31.8575 145.428 31.8939C145.191 31.9349 144.977 31.9554 144.785 31.9554C143.336 31.9554 142.611 31.1921 142.611 29.6654V25.2084H141.538V24.6615L142.611 24.1898L143.09 22.5902H143.746V24.3265H145.92V25.2084H143.746V29.6176C143.746 30.0687 143.853 30.4151 144.067 30.6566C144.282 30.8982 144.576 31.0189 144.949 31.0189ZM152.605 31.8187V26.972C152.605 26.3614 152.466 25.9056 152.188 25.6049C151.91 25.3041 151.475 25.1537 150.883 25.1537C150.094 25.1537 149.518 25.3679 149.153 25.7963C148.793 26.2247 148.613 26.9265 148.613 27.9017V31.8187H147.479V21.182H148.613V24.4017C148.613 24.7891 148.595 25.1104 148.559 25.3656H148.627C148.85 25.0056 149.167 24.723 149.577 24.5179C149.992 24.3083 150.464 24.2035 150.992 24.2035C151.908 24.2035 152.594 24.4222 153.05 24.8597C153.51 25.2927 153.74 25.9831 153.74 26.931V31.8187H152.605ZM159.243 31.9554C158.136 31.9554 157.261 31.6182 156.618 30.9437C155.98 30.2692 155.661 29.3327 155.661 28.1342C155.661 26.9265 155.957 25.9672 156.55 25.2562C157.147 24.5453 157.947 24.1898 158.949 24.1898C159.888 24.1898 160.631 24.4997 161.178 25.1195C161.725 25.7347 161.998 26.5482 161.998 27.5599V28.2777H156.837C156.86 29.1573 157.081 29.8249 157.5 30.2806C157.924 30.7364 158.519 30.9642 159.284 30.9642C160.091 30.9642 160.888 30.7956 161.677 30.4584V31.4701C161.276 31.6433 160.895 31.7663 160.535 31.8392C160.18 31.9167 159.749 31.9554 159.243 31.9554ZM158.936 25.14C158.334 25.14 157.853 25.336 157.493 25.7279C157.138 26.1198 156.928 26.6622 156.864 27.3549H160.781C160.781 26.6394 160.622 26.0925 160.303 25.7142C159.984 25.3314 159.528 25.14 158.936 25.14ZM171.062 24.2035C172.047 24.2035 172.81 24.5407 173.353 25.2152C173.899 25.8851 174.173 26.8353 174.173 28.0658C174.173 29.2963 173.897 30.2533 173.346 30.9369C172.799 31.6159 172.038 31.9554 171.062 31.9554C170.575 31.9554 170.128 31.8666 169.723 31.6888C169.322 31.5066 168.984 31.2286 168.711 30.8549H168.629L168.39 31.8187H167.576V21.182H168.711V23.766C168.711 24.3448 168.693 24.8643 168.656 25.3246H168.711C169.24 24.5772 170.023 24.2035 171.062 24.2035ZM170.898 25.1537C170.124 25.1537 169.565 25.377 169.224 25.8236C168.882 26.2657 168.711 27.0131 168.711 28.0658C168.711 29.1185 168.886 29.8728 169.237 30.3285C169.588 30.7797 170.151 31.0052 170.926 31.0052C171.623 31.0052 172.143 30.7523 172.484 30.2465C172.826 29.736 172.997 29.0046 172.997 28.0521C172.997 27.0769 172.826 26.35 172.484 25.8715C172.143 25.3929 171.614 25.1537 170.898 25.1537ZM179.327 31.9554C178.22 31.9554 177.345 31.6182 176.702 30.9437C176.064 30.2692 175.745 29.3327 175.745 28.1342C175.745 26.9265 176.041 25.9672 176.634 25.2562C177.231 24.5453 178.031 24.1898 179.033 24.1898C179.972 24.1898 180.715 24.4997 181.262 25.1195C181.809 25.7347 182.082 26.5482 182.082 27.5599V28.2777H176.921C176.944 29.1573 177.165 29.8249 177.584 30.2806C178.008 30.7364 178.603 30.9642 179.368 30.9642C180.175 30.9642 180.972 30.7956 181.761 30.4584V31.4701C181.36 31.6433 180.979 31.7663 180.619 31.8392C180.264 31.9167 179.833 31.9554 179.327 31.9554ZM179.02 25.14C178.418 25.14 177.937 25.336 177.577 25.7279C177.222 26.1198 177.012 26.6622 176.948 27.3549H180.865C180.865 26.6394 180.706 26.0925 180.387 25.7142C180.068 25.3314 179.612 25.14 179.02 25.14ZM188.856 29.7748C188.856 30.472 188.597 31.0098 188.077 31.3881C187.558 31.7663 186.828 31.9554 185.89 31.9554C184.896 31.9554 184.121 31.7982 183.565 31.4838V30.431C183.925 30.6133 184.311 30.7569 184.721 30.8617C185.135 30.9665 185.534 31.0189 185.917 31.0189C186.509 31.0189 186.965 30.9255 187.284 30.7386C187.603 30.5472 187.763 30.2579 187.763 29.8705C187.763 29.5788 187.635 29.3304 187.38 29.1254C187.129 28.9157 186.637 28.6696 185.903 28.3871C185.206 28.1273 184.709 27.9017 184.413 27.7103C184.121 27.5144 183.903 27.2933 183.757 27.0472C183.616 26.8011 183.545 26.5072 183.545 26.1654C183.545 25.5547 183.793 25.0739 184.29 24.723C184.787 24.3676 185.468 24.1898 186.334 24.1898C187.141 24.1898 187.929 24.3539 188.699 24.682L188.296 25.6049C187.544 25.295 186.863 25.14 186.252 25.14C185.714 25.14 185.309 25.2243 185.035 25.3929C184.762 25.5616 184.625 25.794 184.625 26.0902C184.625 26.2907 184.675 26.4616 184.775 26.6029C184.88 26.7442 185.047 26.8786 185.274 27.0062C185.502 27.1338 185.94 27.3184 186.587 27.5599C187.476 27.8835 188.075 28.2094 188.385 28.5375C188.699 28.8656 188.856 29.278 188.856 29.7748ZM193.129 31.0189C193.329 31.0189 193.523 31.0052 193.71 30.9779C193.897 30.946 194.045 30.9141 194.154 30.8822V31.7504C194.031 31.8096 193.849 31.8575 193.607 31.8939C193.37 31.9349 193.156 31.9554 192.965 31.9554C191.516 31.9554 190.791 31.1921 190.791 29.6654V25.2084H189.718V24.6615L190.791 24.1898L191.27 22.5902H191.926V24.3265H194.1V25.2084H191.926V29.6176C191.926 30.0687 192.033 30.4151 192.247 30.6566C192.461 30.8982 192.755 31.0189 193.129 31.0189ZM205.762 28.0658C205.762 29.2872 205.454 30.2419 204.839 30.9301C204.224 31.6136 203.374 31.9554 202.289 31.9554C201.619 31.9554 201.024 31.7982 200.505 31.4838C199.985 31.1693 199.584 30.7181 199.302 30.1302C199.019 29.5424 198.878 28.8542 198.878 28.0658C198.878 26.8444 199.183 25.8942 199.794 25.2152C200.405 24.5316 201.252 24.1898 202.337 24.1898C203.385 24.1898 204.217 24.5385 204.832 25.2357C205.452 25.933 205.762 26.8763 205.762 28.0658ZM200.054 28.0658C200.054 29.0228 200.245 29.752 200.628 30.2533C201.011 30.7546 201.574 31.0052 202.316 31.0052C203.059 31.0052 203.622 30.7569 204.005 30.2601C204.392 29.7588 204.586 29.0274 204.586 28.0658C204.586 27.1133 204.392 26.391 204.005 25.8988C203.622 25.4021 203.055 25.1537 202.303 25.1537C201.56 25.1537 200.999 25.3975 200.621 25.8851C200.243 26.3728 200.054 27.0997 200.054 28.0658ZM212.885 31.8187V26.972C212.885 26.3614 212.746 25.9056 212.468 25.6049C212.19 25.3041 211.755 25.1537 211.162 25.1537C210.378 25.1537 209.804 25.3656 209.439 25.7894C209.075 26.2133 208.893 26.9128 208.893 27.8881V31.8187H207.758V24.3265H208.681L208.865 25.3519H208.92C209.152 24.9828 209.478 24.698 209.897 24.4974C210.317 24.2924 210.784 24.1898 211.299 24.1898C212.201 24.1898 212.88 24.4086 213.336 24.8461C213.792 25.279 214.02 25.974 214.02 26.931V31.8187H212.885ZM219.522 31.9554C218.415 31.9554 217.54 31.6182 216.897 30.9437C216.259 30.2692 215.94 29.3327 215.94 28.1342C215.94 26.9265 216.237 25.9672 216.829 25.2562C217.426 24.5453 218.226 24.1898 219.229 24.1898C220.167 24.1898 220.91 24.4997 221.457 25.1195C222.004 25.7347 222.277 26.5482 222.277 27.5599V28.2777H217.116C217.139 29.1573 217.36 29.8249 217.779 30.2806C218.203 30.7364 218.798 30.9642 219.563 30.9642C220.37 30.9642 221.168 30.7956 221.956 30.4584V31.4701C221.555 31.6433 221.174 31.7663 220.814 31.8392C220.459 31.9167 220.028 31.9554 219.522 31.9554ZM219.215 25.14C218.613 25.14 218.132 25.336 217.772 25.7279C217.417 26.1198 217.207 26.6622 217.144 27.3549H221.061C221.061 26.6394 220.901 26.0925 220.582 25.7142C220.263 25.3314 219.807 25.14 219.215 25.14ZM8.49023 50.8187L8.26465 49.7523H8.20996C7.83626 50.2217 7.46257 50.5407 7.08887 50.7094C6.71973 50.8734 6.25716 50.9554 5.70117 50.9554C4.95833 50.9554 4.375 50.764 3.95117 50.3812C3.5319 49.9984 3.32227 49.4538 3.32227 48.7474C3.32227 47.2344 4.53223 46.4414 6.95215 46.3685L8.22363 46.3275V45.8627C8.22363 45.2748 8.09603 44.8418 7.84082 44.5638C7.59017 44.2813 7.18685 44.14 6.63086 44.14C6.00651 44.14 5.30013 44.3314 4.51172 44.7142L4.16309 43.8461C4.53223 43.6455 4.93555 43.4883 5.37305 43.3744C5.8151 43.2605 6.25716 43.2035 6.69922 43.2035C7.59245 43.2035 8.25326 43.4017 8.68164 43.7982C9.11458 44.1947 9.33105 44.8304 9.33105 45.7054V50.8187H8.49023ZM5.92676 50.0189C6.63314 50.0189 7.18685 49.8252 7.58789 49.4379C7.99349 49.0505 8.19629 48.5082 8.19629 47.8109V47.1342L7.06152 47.182C6.15918 47.2139 5.50749 47.3552 5.10645 47.6058C4.70996 47.8519 4.51172 48.237 4.51172 48.7611C4.51172 49.1713 4.63477 49.4834 4.88086 49.6976C5.13151 49.9118 5.48014 50.0189 5.92676 50.0189ZM21.2256 50.8187V45.9447C21.2256 45.3477 21.098 44.9011 20.8428 44.6049C20.5876 44.3041 20.1911 44.1537 19.6533 44.1537C18.9469 44.1537 18.4251 44.3565 18.0879 44.7621C17.7507 45.1677 17.582 45.792 17.582 46.6351V50.8187H16.4473V45.9447C16.4473 45.3477 16.3197 44.9011 16.0645 44.6049C15.8092 44.3041 15.4105 44.1537 14.8682 44.1537C14.1572 44.1537 13.6354 44.3679 13.3027 44.7963C12.9746 45.2201 12.8105 45.9174 12.8105 46.8881V50.8187H11.6758V43.3265H12.5986L12.7832 44.3519H12.8379C13.0521 43.9873 13.3529 43.7025 13.7402 43.4974C14.1322 43.2924 14.5697 43.1898 15.0527 43.1898C16.224 43.1898 16.9896 43.6136 17.3496 44.4613H17.4043C17.6276 44.0694 17.9512 43.7595 18.375 43.5316C18.7988 43.3038 19.2819 43.1898 19.8242 43.1898C20.6719 43.1898 21.3053 43.4086 21.7246 43.8461C22.1484 44.279 22.3604 44.974 22.3604 45.931V50.8187H21.2256ZM31.1719 47.0658C31.1719 48.2872 30.8643 49.2419 30.249 49.9301C29.6338 50.6136 28.7839 50.9554 27.6992 50.9554C27.0293 50.9554 26.4346 50.7982 25.915 50.4838C25.3955 50.1693 24.9945 49.7181 24.7119 49.1302C24.4294 48.5424 24.2881 47.8542 24.2881 47.0658C24.2881 45.8444 24.5934 44.8942 25.2041 44.2152C25.8148 43.5316 26.6624 43.1898 27.7471 43.1898C28.7952 43.1898 29.627 43.5385 30.2422 44.2357C30.862 44.933 31.1719 45.8763 31.1719 47.0658ZM25.4639 47.0658C25.4639 48.0228 25.6553 48.752 26.0381 49.2533C26.4209 49.7546 26.9837 50.0052 27.7266 50.0052C28.4694 50.0052 29.0322 49.7569 29.415 49.2601C29.8024 48.7588 29.9961 48.0274 29.9961 47.0658C29.9961 46.1133 29.8024 45.391 29.415 44.8988C29.0322 44.4021 28.4648 44.1537 27.7129 44.1537C26.9701 44.1537 26.4095 44.3975 26.0312 44.8851C25.653 45.3728 25.4639 46.0997 25.4639 47.0658ZM38.2949 50.8187V45.972C38.2949 45.3614 38.1559 44.9056 37.8779 44.6049C37.5999 44.3041 37.1647 44.1537 36.5723 44.1537C35.7884 44.1537 35.2142 44.3656 34.8496 44.7894C34.485 45.2133 34.3027 45.9128 34.3027 46.8881V50.8187H33.168V43.3265H34.0908L34.2754 44.3519H34.3301C34.5625 43.9828 34.8883 43.698 35.3076 43.4974C35.7269 43.2924 36.194 43.1898 36.709 43.1898C37.6113 43.1898 38.2904 43.4086 38.7461 43.8461C39.2018 44.279 39.4297 44.974 39.4297 45.931V50.8187H38.2949ZM47.8994 43.3265V44.0443L46.5117 44.2084C46.6393 44.3679 46.7533 44.5775 46.8535 44.8373C46.9538 45.0925 47.0039 45.3819 47.0039 45.7054C47.0039 46.4392 46.7533 47.0248 46.252 47.4623C45.7507 47.8998 45.0625 48.1185 44.1875 48.1185C43.9642 48.1185 43.7546 48.1003 43.5586 48.0638C43.0755 48.3191 42.834 48.6403 42.834 49.0277C42.834 49.2328 42.9183 49.3855 43.0869 49.4857C43.2555 49.5814 43.5449 49.6293 43.9551 49.6293H45.2812C46.0924 49.6293 46.7145 49.8002 47.1475 50.142C47.585 50.4838 47.8037 50.9805 47.8037 51.6322C47.8037 52.4616 47.471 53.0928 46.8057 53.5258C46.1403 53.9633 45.1696 54.182 43.8936 54.182C42.9137 54.182 42.1572 53.9997 41.624 53.6351C41.0954 53.2705 40.8311 52.7556 40.8311 52.0902C40.8311 51.6345 40.9769 51.2403 41.2686 50.9076C41.5602 50.5749 41.9704 50.3493 42.499 50.2308C42.3076 50.1442 42.1458 50.0098 42.0137 49.8275C41.8861 49.6452 41.8223 49.4333 41.8223 49.1918C41.8223 48.9183 41.8952 48.6791 42.041 48.474C42.1868 48.2689 42.417 48.0707 42.7314 47.8793C42.3441 47.7198 42.0273 47.4486 41.7812 47.0658C41.5397 46.683 41.4189 46.2455 41.4189 45.7533C41.4189 44.933 41.665 44.3018 42.1572 43.8597C42.6494 43.4131 43.3467 43.1898 44.249 43.1898C44.641 43.1898 44.9941 43.2354 45.3086 43.3265H47.8994ZM41.9248 52.0765C41.9248 52.4821 42.0957 52.7898 42.4375 52.9994C42.7793 53.209 43.2692 53.3138 43.9072 53.3138C44.8597 53.3138 45.5638 53.1703 46.0195 52.8832C46.4798 52.6006 46.71 52.2155 46.71 51.7279C46.71 51.3223 46.5846 51.0398 46.334 50.8802C46.0833 50.7253 45.6117 50.6478 44.9189 50.6478H43.5586C43.0436 50.6478 42.6426 50.7709 42.3555 51.017C42.0684 51.2631 41.9248 51.6163 41.9248 52.0765ZM42.54 45.726C42.54 46.25 42.6882 46.6465 42.9844 46.9154C43.2806 47.1843 43.693 47.3187 44.2217 47.3187C45.3291 47.3187 45.8828 46.781 45.8828 45.7054C45.8828 44.5798 45.3223 44.017 44.2012 44.017C43.668 44.017 43.2578 44.1605 42.9707 44.4476C42.6836 44.7347 42.54 45.1608 42.54 45.726ZM58.748 43.1761C58.748 43.8142 58.568 44.336 58.208 44.7416C57.8525 45.1472 57.3467 45.4183 56.6904 45.5551V45.6097C57.4925 45.71 58.0872 45.9652 58.4746 46.3754C58.862 46.7855 59.0557 47.3233 59.0557 47.9886C59.0557 48.9411 58.7253 49.6748 58.0645 50.1898C57.4036 50.7002 56.4648 50.9554 55.248 50.9554C54.7194 50.9554 54.234 50.9144 53.792 50.8324C53.3545 50.7549 52.9284 50.6159 52.5137 50.4154V49.3353C52.9466 49.5495 53.4069 49.7136 53.8945 49.8275C54.3867 49.9369 54.8516 49.9916 55.2891 49.9916C57.0163 49.9916 57.8799 49.3148 57.8799 47.9613C57.8799 46.7491 56.9274 46.1429 55.0225 46.1429H54.0381V45.1654H55.0361C55.8154 45.1654 56.4329 44.9945 56.8887 44.6527C57.3444 44.3064 57.5723 43.8278 57.5723 43.2172C57.5723 42.7295 57.4036 42.3467 57.0664 42.0687C56.7337 41.7907 56.2803 41.6517 55.7061 41.6517C55.2686 41.6517 54.8561 41.711 54.4688 41.8295C54.0814 41.948 53.6393 42.1667 53.1426 42.4857L52.5684 41.7201C52.9785 41.3965 53.4502 41.1436 53.9834 40.9613C54.5212 40.7745 55.0863 40.681 55.6787 40.681C56.6494 40.681 57.4036 40.9043 57.9414 41.351C58.4792 41.793 58.748 42.4014 58.748 43.1761ZM71.1895 47.0658C71.1895 48.2872 70.8818 49.2419 70.2666 49.9301C69.6514 50.6136 68.8014 50.9554 67.7168 50.9554C67.0469 50.9554 66.4521 50.7982 65.9326 50.4838C65.4131 50.1693 65.012 49.7181 64.7295 49.1302C64.4469 48.5424 64.3057 47.8542 64.3057 47.0658C64.3057 45.8444 64.611 44.8942 65.2217 44.2152C65.8324 43.5316 66.68 43.1898 67.7646 43.1898C68.8128 43.1898 69.6445 43.5385 70.2598 44.2357C70.8796 44.933 71.1895 45.8763 71.1895 47.0658ZM65.4814 47.0658C65.4814 48.0228 65.6729 48.752 66.0557 49.2533C66.4385 49.7546 67.0013 50.0052 67.7441 50.0052C68.487 50.0052 69.0498 49.7569 69.4326 49.2601C69.82 48.7588 70.0137 48.0274 70.0137 47.0658C70.0137 46.1133 69.82 45.391 69.4326 44.8988C69.0498 44.4021 68.4824 44.1537 67.7305 44.1537C66.9876 44.1537 66.4271 44.3975 66.0488 44.8851C65.6706 45.3728 65.4814 46.0997 65.4814 47.0658ZM76.6719 50.9554C76.1842 50.9554 75.7376 50.8666 75.332 50.6888C74.931 50.5066 74.5938 50.2286 74.3203 49.8549H74.2383C74.293 50.2924 74.3203 50.7071 74.3203 51.099V54.182H73.1855V43.3265H74.1084L74.2656 44.3519H74.3203C74.612 43.9418 74.9515 43.6455 75.3389 43.4633C75.7262 43.281 76.1706 43.1898 76.6719 43.1898C77.6654 43.1898 78.431 43.5293 78.9688 44.2084C79.5111 44.8874 79.7822 45.8399 79.7822 47.0658C79.7822 48.2963 79.5065 49.2533 78.9551 49.9369C78.4082 50.6159 77.6471 50.9554 76.6719 50.9554ZM76.5078 44.1537C75.7422 44.1537 75.1885 44.3656 74.8467 44.7894C74.5049 45.2133 74.3294 45.8877 74.3203 46.8129V47.0658C74.3203 48.1185 74.4958 48.8728 74.8467 49.3285C75.1976 49.7797 75.7604 50.0052 76.5352 50.0052C77.1823 50.0052 77.6882 49.7432 78.0527 49.2191C78.4219 48.695 78.6064 47.9727 78.6064 47.0521C78.6064 46.1179 78.4219 45.4024 78.0527 44.9056C77.6882 44.4043 77.1732 44.1537 76.5078 44.1537ZM84.1914 50.0189C84.3919 50.0189 84.5856 50.0052 84.7725 49.9779C84.9593 49.946 85.1074 49.9141 85.2168 49.8822V50.7504C85.0938 50.8096 84.9115 50.8575 84.6699 50.8939C84.4329 50.9349 84.2188 50.9554 84.0273 50.9554C82.5781 50.9554 81.8535 50.1921 81.8535 48.6654V44.2084H80.7803V43.6615L81.8535 43.1898L82.332 41.5902H82.9883V43.3265H85.1621V44.2084H82.9883V48.6176C82.9883 49.0687 83.0954 49.4151 83.3096 49.6566C83.5238 49.8982 83.8177 50.0189 84.1914 50.0189ZM87.8555 50.8187H86.7207V43.3265H87.8555V50.8187ZM86.625 41.2963C86.625 41.0365 86.6888 40.8474 86.8164 40.7289C86.944 40.6058 87.1035 40.5443 87.2949 40.5443C87.4772 40.5443 87.6344 40.6058 87.7666 40.7289C87.8988 40.8519 87.9648 41.0411 87.9648 41.2963C87.9648 41.5515 87.8988 41.7429 87.7666 41.8705C87.6344 41.9935 87.4772 42.0551 87.2949 42.0551C87.1035 42.0551 86.944 41.9935 86.8164 41.8705C86.6888 41.7429 86.625 41.5515 86.625 41.2963ZM96.7285 47.0658C96.7285 48.2872 96.4209 49.2419 95.8057 49.9301C95.1904 50.6136 94.3405 50.9554 93.2559 50.9554C92.5859 50.9554 91.9912 50.7982 91.4717 50.4838C90.9521 50.1693 90.5511 49.7181 90.2686 49.1302C89.986 48.5424 89.8447 47.8542 89.8447 47.0658C89.8447 45.8444 90.1501 44.8942 90.7607 44.2152C91.3714 43.5316 92.2191 43.1898 93.3037 43.1898C94.3519 43.1898 95.1836 43.5385 95.7988 44.2357C96.4186 44.933 96.7285 45.8763 96.7285 47.0658ZM91.0205 47.0658C91.0205 48.0228 91.2119 48.752 91.5947 49.2533C91.9775 49.7546 92.5404 50.0052 93.2832 50.0052C94.026 50.0052 94.5889 49.7569 94.9717 49.2601C95.359 48.7588 95.5527 48.0274 95.5527 47.0658C95.5527 46.1133 95.359 45.391 94.9717 44.8988C94.5889 44.4021 94.0215 44.1537 93.2695 44.1537C92.5267 44.1537 91.9661 44.3975 91.5879 44.8851C91.2096 45.3728 91.0205 46.0997 91.0205 47.0658ZM103.852 50.8187V45.972C103.852 45.3614 103.713 44.9056 103.435 44.6049C103.157 44.3041 102.721 44.1537 102.129 44.1537C101.345 44.1537 100.771 44.3656 100.406 44.7894C100.042 45.2133 99.8594 45.9128 99.8594 46.8881V50.8187H98.7246V43.3265H99.6475L99.832 44.3519H99.8867C100.119 43.9828 100.445 43.698 100.864 43.4974C101.284 43.2924 101.751 43.1898 102.266 43.1898C103.168 43.1898 103.847 43.4086 104.303 43.8461C104.758 44.279 104.986 44.974 104.986 45.931V50.8187H103.852ZM112.157 48.7748C112.157 49.472 111.897 50.0098 111.378 50.3881C110.858 50.7663 110.129 50.9554 109.19 50.9554C108.197 50.9554 107.422 50.7982 106.866 50.4838V49.431C107.226 49.6133 107.611 49.7569 108.021 49.8617C108.436 49.9665 108.835 50.0189 109.218 50.0189C109.81 50.0189 110.266 49.9255 110.585 49.7386C110.904 49.5472 111.063 49.2579 111.063 48.8705C111.063 48.5788 110.936 48.3304 110.681 48.1254C110.43 47.9157 109.938 47.6696 109.204 47.3871C108.507 47.1273 108.01 46.9017 107.714 46.7103C107.422 46.5144 107.203 46.2933 107.058 46.0472C106.916 45.8011 106.846 45.5072 106.846 45.1654C106.846 44.5547 107.094 44.0739 107.591 43.723C108.088 43.3676 108.769 43.1898 109.635 43.1898C110.441 43.1898 111.23 43.3539 112 43.682L111.597 44.6049C110.845 44.295 110.163 44.14 109.553 44.14C109.015 44.14 108.609 44.2243 108.336 44.3929C108.062 44.5616 107.926 44.794 107.926 45.0902C107.926 45.2907 107.976 45.4616 108.076 45.6029C108.181 45.7442 108.347 45.8786 108.575 46.0062C108.803 46.1338 109.241 46.3184 109.888 46.5599C110.776 46.8835 111.376 47.2094 111.686 47.5375C112 47.8656 112.157 48.278 112.157 48.7748ZM113.846 50.0941C113.846 49.7888 113.914 49.5586 114.051 49.4037C114.192 49.2442 114.393 49.1644 114.652 49.1644C114.917 49.1644 115.122 49.2442 115.268 49.4037C115.418 49.5586 115.493 49.7888 115.493 50.0941C115.493 50.3903 115.418 50.6182 115.268 50.7777C115.117 50.9372 114.912 51.017 114.652 51.017C114.42 51.017 114.226 50.9463 114.071 50.8051C113.921 50.6592 113.846 50.4222 113.846 50.0941Z" fill="#252525"/>
<path d="M57.7949 19.5483L60.7949 20.6392M63.7949 19.5483L60.7949 20.6392M60.7949 20.6392V36.4574M60.7949 36.4574L57.7949 37.5483M60.7949 36.4574L63.7949 37.5483" stroke="black" strokeWidth="0.75"/>
</svg>
