<svg width="8" height="13" viewBox="0 0 8 13" fill="none" xmlns="http://www.w3.org/2000/svg">
<path d="M1.44875 0.607419C1.59282 0.611712 1.72956 0.671923 1.83 0.775296L7.37536 6.32066C7.47932 6.42466 7.53772 6.56569 7.53772 6.71274C7.53772 6.85978 7.47932 7.00081 7.37536 7.10481L1.83 12.6502C1.7789 12.7034 1.7177 12.7459 1.64997 12.7752C1.58225 12.8044 1.50936 12.8199 1.43559 12.8206C1.36181 12.8214 1.28863 12.8074 1.22032 12.7795C1.15201 12.7516 1.08996 12.7104 1.03779 12.6582C0.985616 12.6061 0.94438 12.544 0.916493 12.4757C0.888606 12.4074 0.874627 12.3342 0.875378 12.2604C0.876129 12.1867 0.891593 12.1138 0.920865 12.0461C0.950137 11.9783 0.992627 11.9171 1.04585 11.866L6.19914 6.71274L1.04585 1.55945C0.965717 1.48155 0.910985 1.38127 0.888826 1.27174C0.866668 1.16221 0.878115 1.04854 0.921669 0.945622C0.965223 0.842708 1.03885 0.755352 1.13291 0.695002C1.22696 0.634653 1.33705 0.604125 1.44875 0.607419Z" fill="white"/>
</svg>
