<svg width="15" height="17" viewBox="0 0 15 17" fill="none" xmlns="http://www.w3.org/2000/svg">
<path d="M9.68856 8.37734L10.6172 10.2558C10.716 10.4555 10.9069 10.594 11.1275 10.626L13.2039 10.9272C13.7599 11.0078 13.982 11.69 13.5796 12.0816L12.0771 13.5438C11.9174 13.6993 11.8443 13.9234 11.8821 14.1429L12.2367 16.2073C12.3317 16.7602 11.7504 17.1818 11.253 16.9207L9.39609 15.9459C9.19863 15.8423 8.96258 15.8423 8.76512 15.9459L6.90804 16.9207C6.41067 17.1818 5.82936 16.7602 5.92437 16.2073L6.27897 14.1429C6.3167 13.9233 6.24384 13.6993 6.08393 13.5438L4.58144 12.0816C4.17908 11.6901 4.40112 11.0078 4.95715 10.9272L7.0335 10.626C7.25433 10.594 7.44521 10.4555 7.54385 10.2558L8.47248 8.37734C8.72134 7.87422 9.43988 7.87422 9.68856 8.37734Z" fill="#499557"/>
<path d="M11.9037 0.209634L12.3972 1.2532C12.4497 1.36416 12.5511 1.44114 12.6684 1.4589L13.7717 1.6262C14.0672 1.67103 14.1852 2.04998 13.9714 2.26758L13.173 3.07991C13.0881 3.1663 13.0493 3.29079 13.0693 3.4127L13.2577 4.55964C13.3082 4.86679 12.9993 5.101 12.735 4.95596L11.7483 4.41441C11.6433 4.35682 11.5179 4.35682 11.413 4.41441L10.4261 4.95596C10.1618 5.101 9.8529 4.86679 9.90339 4.55964L10.0918 3.4127C10.1119 3.2907 10.0732 3.1663 9.98818 3.07991L9.18975 2.26758C8.97594 2.05008 9.09393 1.67103 9.3894 1.6262L10.4928 1.4589C10.6101 1.44114 10.7116 1.36416 10.764 1.2532L11.2575 0.209634C11.3897 -0.069878 11.7715 -0.069878 11.9037 0.209634Z" fill="#499557"/>
<path d="M3.76371 2.25156L4.35588 3.50384C4.4189 3.63699 4.54062 3.72937 4.68132 3.75067L6.00537 3.95144C6.35995 4.00523 6.50153 4.45997 6.24496 4.7211L5.28685 5.69589C5.18499 5.79956 5.13842 5.94895 5.16247 6.09524L5.38859 7.47156C5.44918 7.84015 5.07849 8.1212 4.76133 7.94716L3.57721 7.29729C3.45129 7.22818 3.30077 7.22818 3.17485 7.29729L1.99062 7.94716C1.67346 8.1212 1.30277 7.84015 1.36336 7.47156L1.58948 6.09524C1.61354 5.94884 1.56708 5.79956 1.46511 5.69589L0.506998 4.7211C0.25042 4.46009 0.392007 4.00523 0.746581 3.95144L2.07063 3.75067C2.21145 3.72937 2.33317 3.63699 2.39607 3.50384L2.98824 2.25156C3.14693 1.91615 3.60513 1.91615 3.76371 2.25156Z" fill="#499557"/>
</svg>
