<svg xmlns="http://www.w3.org/2000/svg" width="96.416" height="16.537" viewBox="0 0 96.416 16.537">
  <g id="Group_29" data-name="Group 29" transform="translate(-720.912 -226.55)">
    <g id="Group_28" data-name="Group 28" transform="translate(720.912 226.55)">
      <path id="Path_17" data-name="Path 17" d="M5.517-6.3,3.231-1.125.963-6.3H-.009L2.763,0h.891L6.417-6.3ZM7.218,0h.9V-6.3h-.9Zm2.79,0h2.655a3.12,3.12,0,0,0,3.4-3.15,3.12,3.12,0,0,0-3.4-3.15H10.008Zm.9-.783V-5.517h1.7A2.322,2.322,0,0,1,15.165-3.15,2.322,2.322,0,0,1,12.609-.783Zm7.434,0V-2.817H21.5v-.765H18.342V-5.517h3.546V-6.3H17.442V0h4.572V-.783Zm7.947.855A3.192,3.192,0,0,0,29.628-3.15a3.192,3.192,0,0,0-3.339-3.222A3.2,3.2,0,0,0,22.932-3.15,3.2,3.2,0,0,0,26.289.072Zm0-.8A2.37,2.37,0,0,1,23.832-3.15a2.37,2.37,0,0,1,2.457-2.421A2.365,2.365,0,0,1,28.728-3.15,2.365,2.365,0,0,1,26.289-.729Zm8.973.8c1.665,0,2.439-.828,2.439-1.791,0-2.313-3.816-1.35-3.816-2.889,0-.549.459-1,1.53-1a3.254,3.254,0,0,1,1.728.513l.3-.72a3.706,3.706,0,0,0-2.025-.558c-1.656,0-2.412.828-2.412,1.8,0,2.34,3.816,1.368,3.816,2.907,0,.549-.468.972-1.557.972a3.242,3.242,0,0,1-2.079-.729l-.333.7A3.74,3.74,0,0,0,35.262.072ZM41.472-6.3H39.015V0h.9V-1.908h1.557c1.638,0,2.628-.828,2.628-2.2S43.11-6.3,41.472-6.3Zm-.027,3.609h-1.53V-5.517h1.53C42.6-5.517,43.2-5,43.2-4.1S42.6-2.691,41.445-2.691ZM46.323-.783V-2.817h3.159v-.765H46.323V-5.517h3.546V-6.3H45.423V0H50V-.783Zm6.03,0V-2.817h3.159v-.765H52.353V-5.517H55.9V-6.3H51.453V0h4.572V-.783ZM57.483,0h2.655a3.12,3.12,0,0,0,3.4-3.15,3.12,3.12,0,0,0-3.4-3.15H57.483Zm.9-.783V-5.517h1.7A2.322,2.322,0,0,1,62.64-3.15,2.322,2.322,0,0,1,60.084-.783Zm7.434,0V-2.817h3.159v-.765H65.817V-5.517h3.546V-6.3H64.917V0h4.572V-.783ZM76.14,0,74.646-2.115A1.988,1.988,0,0,0,76.032-4.1c0-1.368-.99-2.2-2.628-2.2H70.947V0h.9V-1.917H73.4c.135,0,.27-.009.4-.018L75.159,0ZM73.377-2.682h-1.53V-5.517h1.53c1.152,0,1.755.513,1.755,1.413S74.529-2.682,73.377-2.682Z" transform="translate(20.276 12.806)" fill="#707070"/>
      <g id="Icon_SVG" data-name="Icon SVG" transform="translate(0 0)">
        <g id="Group_4" data-name="Group 4" transform="translate(0.339 2.051)">
          <circle id="Ellipse_3" data-name="Ellipse 3" cx="6.508" cy="6.508" r="6.508" transform="translate(0.565 0.565)" fill="#29aae1"/>
          <path id="Path_6" data-name="Path 6" d="M13.274,42.047a7.074,7.074,0,1,1,7.074-7.074A7.082,7.082,0,0,1,13.274,42.047Zm0-13.017a5.943,5.943,0,1,0,5.943,5.943A5.948,5.948,0,0,0,13.274,29.03Z" transform="translate(-6.2 -27.9)" fill="#29aae1"/>
        </g>
        <g id="Group_7" data-name="Group 7" transform="translate(5.58 0)">
          <g id="Group_5" data-name="Group 5" transform="translate(1.445 0.404)">
            <path id="Path_7" data-name="Path 7" d="M89.622,8.929h-.46A.162.162,0,0,1,89,8.768V7.661a.162.162,0,0,1,.161-.161h.468a.162.162,0,0,1,.162.161v1.1A.176.176,0,0,1,89.622,8.929Z" transform="translate(-89 -7.5)" fill="#2bace2"/>
          </g>
          <g id="Group_6" data-name="Group 6" transform="translate(0 0)">
            <path id="Path_8" data-name="Path 8" d="M71.1,3.025V2.758a.26.26,0,0,1,.258-.258h3.149a.26.26,0,0,1,.258.258v.266a.26.26,0,0,1-.258.258H71.358A.255.255,0,0,1,71.1,3.025Z" transform="translate(-71.1 -2.5)" fill="#2bace2"/>
          </g>
        </g>
        <g id="Group_12" data-name="Group 12" transform="translate(1.962 7.508)">
          <g id="Group_10" data-name="Group 10" transform="translate(0 1.286)">
            <g id="Group_8" data-name="Group 8" transform="translate(5.733)">
              <path id="Path_9" data-name="Path 9" d="M97.3,111.836V111.7a.3.3,0,0,1,.3-.3h4.578a.3.3,0,0,1,.3.3v.137a.3.3,0,0,1-.3.3H97.6A.3.3,0,0,1,97.3,111.836Z" transform="translate(-97.3 -111.4)" fill="#fff"/>
            </g>
            <g id="Group_9" data-name="Group 9">
              <path id="Path_10" data-name="Path 10" d="M26.3,111.836V111.7a.3.3,0,0,1,.3-.3h4.578a.3.3,0,0,1,.3.3v.137a.3.3,0,0,1-.3.3H26.6A.3.3,0,0,1,26.3,111.836Z" transform="translate(-26.3 -111.4)" fill="#fff"/>
            </g>
          </g>
          <g id="Group_11" data-name="Group 11" transform="translate(3.957)">
            <path id="Path_11" data-name="Path 11" d="M78.489,97.2l-2.035-1.179a.435.435,0,0,0-.654.38v2.35a.435.435,0,0,0,.654.38l2.035-1.179A.432.432,0,0,0,78.489,97.2Z" transform="translate(-75.76 -95.918)" fill="#fff"/>
            <path id="Path_12" data-name="Path 12" d="M75.776,98.78A.484.484,0,0,1,75.3,98.3v-2.35a.472.472,0,0,1,.242-.412.459.459,0,0,1,.476,0l2.035,1.179a.489.489,0,0,1,.242.412.472.472,0,0,1-.242.412l-2.035,1.171A.518.518,0,0,1,75.776,98.78Zm0-3.222a.339.339,0,0,0-.194.057.4.4,0,0,0-.2.339V98.3a.369.369,0,0,0,.2.339.386.386,0,0,0,.4,0l2.035-1.171a.4.4,0,0,0,.2-.339.378.378,0,0,0-.2-.339l-2.035-1.187A.438.438,0,0,0,75.776,95.558Z" transform="translate(-75.3 -95.475)" fill="#29aae1"/>
          </g>
        </g>
        <g id="Group_13" data-name="Group 13" transform="translate(0 1.712)">
          <path id="Path_13" data-name="Path 13" d="M9.413,38.525a7.413,7.413,0,1,1,7.413-7.413A7.423,7.423,0,0,1,9.413,38.525Zm0-14.664a7.251,7.251,0,1,0,7.251,7.251A7.261,7.261,0,0,0,9.413,23.861Z" transform="translate(-2 -23.7)" fill="#29aae1"/>
        </g>
      </g>
    </g>
  </g>
</svg>
