<svg id="Group_4" data-name="Group 4" xmlns="http://www.w3.org/2000/svg" width="42.799" height="7.613" viewBox="0 0 42.799 7.613">
  <g id="star" transform="translate(0 0)">
    <path id="Path_15" data-name="Path 15" d="M9.691,5.647,7.94,7.354l.413,2.41a.281.281,0,0,1-.408.3L5.781,8.922,3.617,10.06a.281.281,0,0,1-.408-.3l.413-2.41L1.872,5.647a.281.281,0,0,1,.156-.479l2.419-.351L5.529,2.624a.293.293,0,0,1,.5,0L7.116,4.816l2.419.351a.281.281,0,0,1,.156.479Z" transform="translate(-1.787 -2.48)" fill="rgba(0,0,0,0.5)"/>
  </g>
  <g id="star-2" data-name="star" transform="translate(8.702 0)">
    <path id="Path_15-2" data-name="Path 15" d="M9.691,5.647,7.94,7.354l.413,2.41a.281.281,0,0,1-.408.3L5.781,8.922,3.617,10.06a.281.281,0,0,1-.408-.3l.413-2.41L1.872,5.647a.281.281,0,0,1,.156-.479l2.419-.351L5.529,2.624a.293.293,0,0,1,.5,0L7.116,4.816l2.419.351a.281.281,0,0,1,.156.479Z" transform="translate(-1.787 -2.48)" fill="rgba(0,0,0,0.5)"/>
  </g>
  <g id="star-3" data-name="star" transform="translate(17.405 0)">
    <path id="Path_15-3" data-name="Path 15" d="M9.691,5.647,7.94,7.354l.413,2.41a.281.281,0,0,1-.408.3L5.781,8.922,3.617,10.06a.281.281,0,0,1-.408-.3l.413-2.41L1.872,5.647a.281.281,0,0,1,.156-.479l2.419-.351L5.529,2.624a.293.293,0,0,1,.5,0L7.116,4.816l2.419.351a.281.281,0,0,1,.156.479Z" transform="translate(-1.787 -2.48)" fill="rgba(0,0,0,0.5)"/>
  </g>
  <g id="star-4" data-name="star" transform="translate(26.107 0)">
    <path id="Path_15-4" data-name="Path 15" d="M9.691,5.647,7.94,7.354l.413,2.41a.281.281,0,0,1-.408.3L5.781,8.922,3.617,10.06a.281.281,0,0,1-.408-.3l.413-2.41L1.872,5.647a.281.281,0,0,1,.156-.479l2.419-.351L5.529,2.624a.293.293,0,0,1,.5,0L7.116,4.816l2.419.351a.281.281,0,0,1,.156.479Z" transform="translate(-1.787 -2.48)" fill="rgba(0,0,0,0.5)"/>
  </g>
  <g id="star-5" data-name="star" transform="translate(34.81 0)">
    <path id="Path_15-5" data-name="Path 15" d="M9.691,5.647,7.94,7.354l.413,2.41a.281.281,0,0,1-.408.3L5.781,8.922,3.617,10.06a.281.281,0,0,1-.408-.3l.413-2.41L1.872,5.647a.281.281,0,0,1,.156-.479l2.419-.351L5.529,2.624a.293.293,0,0,1,.5,0L7.116,4.816l2.419.351a.281.281,0,0,1,.156.479Z" transform="translate(-1.787 -2.48)" fill="rgba(0,0,0,0.5)"/>
  </g>
</svg>
