<svg fill="none" height="26" viewBox="0 0 18 26" width="18" xmlns="http://www.w3.org/2000/svg"><path d="m3.92642 12.5103c-.05288-.0277-.10205-.0682-.1441-.1235-.81469-.9886-1.38789-2.1534-1.67428-3.40208-.28638-1.24865-.27809-2.54683.02432-3.7917.28838-1.01553.84511-1.93457 1.61164-2.66045s1.71454-1.23177 2.74427-1.46443c1.10645-.298159 2.26191-.368537 3.39638-.206876 1.13445.161656 2.22425.552006 3.20345 1.147356.751.64434 1.3342 1.46158 1.6992 2.38135.3651.91978.501 1.9145.3962 2.8985-.3398 2.31593-1.276 4.50313-2.716 6.34723 1.8013 3.3811 3.3649 6.8838 4.6794 10.4825.1026.2797-.111.4698-.3489.493.0336.0606.0516.1292.0516.1997 0 .1094-.0434.2144-.1208.2917-.0773.0774-.1822.1208-.2916.1208l-14.94146-.1955c-.29443.2564-.838858-.1188-.617455-.5469 1.754075-3.4023 2.935845-7.0703 3.497895-10.8567.008-.0512.02206-.0953.04093-.1326zm.25676-.838c-1.08437-1.5233-1.59214-3.38778-1.42383-5.2583.0884-.96378.44418-1.88373 1.0272-2.65623s1.37012-1.36688 2.27271-1.71617c.99521-.29304 2.03283-.41577 3.06894-.36299 1.0677-.01911 2.123.23054 3.0689.72599.7385.5093 1.329 1.20501 1.7115 2.01644.3826.81143.5435 1.70967.4664 2.60343-.2772 2.29647-1.2045 4.46603-2.6729 6.25333-.0145.0207-.0269.0413-.0371.0618-.11.1201-.1578.2899-.0619.4499 1.8293 3.3962 3.4118 6.9197 4.7354 10.5432.0085.0231.0183.0447.0294.0648l-14.4273-.1887c1.55967-3.1862 2.63851-6.5869 3.20049-10.0914.02082-.0086.04093-.019.06008-.0311.09052-.0579.15599-.1477.18349-.2516.02749-.1038.01501-.2143-.035-.3094l-.82497-1.6499c-.05511-.0937-.14492-.1618-.24996-.1896-.03015-.008-.06086-.0125-.09155-.0135z" fill="#272727"/><path d="m3.92642 12.5103c-.05288-.0277-.10205-.0682-.1441-.1235-.81469-.9886-1.38789-2.1534-1.67428-3.40208-.28638-1.24865-.27809-2.54683.02432-3.7917.28838-1.01553.84511-1.93457 1.61164-2.66045s1.71454-1.23177 2.74427-1.46443c1.10645-.298159 2.26191-.368537 3.39638-.206876 1.13445.161656 2.22425.552006 3.20345 1.147356.751.64434 1.3342 1.46158 1.6992 2.38135.3651.91978.501 1.9145.3962 2.8985-.3398 2.31593-1.276 4.50313-2.716 6.34723 1.8013 3.3811 3.3649 6.8838 4.6794 10.4825.1026.2797-.111.4698-.3489.493.0336.0606.0516.1292.0516.1997 0 .1094-.0434.2144-.1208.2917-.0773.0774-.1822.1208-.2916.1208l-14.94146-.1955c-.29443.2564-.838858-.1188-.617455-.5469 1.754075-3.4023 2.935845-7.0703 3.497895-10.8567.008-.0512.02206-.0953.04093-.1326zm.25676-.838c-1.08437-1.5233-1.59214-3.38778-1.42383-5.2583.0884-.96378.44418-1.88373 1.0272-2.65623s1.37012-1.36688 2.27271-1.71617c.99521-.29304 2.03283-.41577 3.06894-.36299 1.0677-.01911 2.123.23054 3.0689.72599.7385.5093 1.329 1.20501 1.7115 2.01644.3826.81143.5435 1.70967.4664 2.60343-.2772 2.29647-1.2045 4.46603-2.6729 6.25333-.0145.0207-.0269.0413-.0371.0618-.11.1201-.1578.2899-.0619.4499 1.8293 3.3962 3.4118 6.9197 4.7354 10.5432.0085.0231.0183.0447.0294.0648l-14.4273-.1887c1.55967-3.1862 2.63851-6.5869 3.20049-10.0914.02082-.0086.04093-.019.06008-.0311.09052-.0579.15599-.1477.18349-.2516.02749-.1038.01501-.2143-.035-.3094l-.82497-1.6499c-.05511-.0937-.14492-.1618-.24996-.1896-.03015-.008-.06086-.0125-.09155-.0135z" stroke="#272727"/></svg>