<?xml version="1.0" encoding="UTF-8" standalone="no"?>
<!-- Created with Inkscape (http://www.inkscape.org/) -->

<svg
   width="818.12903mm"
   height="170.121mm"
   viewBox="0 0 818.12903 170.121"
   version="1.1"
   id="svg1"
   xmlns="http://www.w3.org/2000/svg"
   xmlnsSvg="http://www.w3.org/2000/svg">
  <defs
     id="defs1">
    <clipPath
       clipPathUnits="userSpaceOnUse"
       id="clipPath55">
      <path
         id="path55"
         style="stroke-width:0.1;stroke-linecap:square;paint-order:markers fill stroke;stop-color:#000000"
         d="m 1736.6147,-745.57287 h 1589.4765 v 72.46715 H 1736.6147 Z" />
    </clipPath>
    <clipPath
       clipPathUnits="userSpaceOnUse"
       id="clipPath15">
      <rect
         style="fill:none;stroke:#000000;stroke-linecap:butt;stroke-linejoin:bevel;paint-order:stroke markers fill;stop-color:#000000"
         id="rect15-7"
         width="45.034248"
         height="38.955639"
         x="262.48285"
         y="121.00073" />
    </clipPath>
    <rect
       x="78.986504"
       y="88.100327"
       width="3116.929"
       height="552.90552"
       id="rect3" />
    <rect
       x="85.062386"
       y="121.51769"
       width="3208.0671"
       height="507.33636"
       id="rect2" />
    <rect
       x="157.97301"
       y="85.062386"
       width="3475.406"
       height="595.43671"
       id="rect1" />
  </defs>
  <g
     id="layer1">
    <path
       style="fill:#00b9fb;fill-opacity:1;stroke:#000000;stroke-width:7.08664;stroke-dasharray:none;stroke-opacity:1"
       id="rect7"
       width="822.34528"
       height="175.60698"
       x="38.229355"
       y="25.501787"
       d="m 82.414772,25.501787 733.974438,0 a 44.185417,44.185417 45 0 1 44.18542,44.185417 v 87.236146 a 44.185417,44.185417 135 0 1 -44.18542,44.18542 l -733.974438,0 A 44.185417,44.185417 45 0 1 38.229355,156.92335 V 69.687204 A 44.185417,44.185417 135 0 1 82.414772,25.501787 Z"
       ry="0"
       transform="matrix(0.98621272,0,0,0.93118115,-34.141464,-20.516283)" />
    <path
       style="font-weight:800;font-size:158.75px;font-family:'Open Sans';-inkscape-font-specification:'Open Sans, Ultra-Bold';fill:#ffffff;stroke:#000000;stroke-width:6;stroke-dasharray:none"
       d="m 497.6831,116.83488 q 4.1392,0 7.57551,-0.84629 3.43633,-0.84629 7.18504,-2.15419 v 21.92663 q -4.99829,2.15419 -10.62135,3.4621 -5.54497,1.38483 -14.21386,1.38483 -8.5908,0 -15.15104,-2.61581 -6.56025,-2.69274 -10.23086,-9.23226 -3.59251,-6.61646 -3.59251,-18.38759 V 74.443348 H 447.93458 V 62.210596 l 13.58908,-9.463068 7.88791,-18.310653 h 19.99313 v 17.464361 h 21.71128 V 74.443348 H 489.4047 v 33.928632 q 0,4.23146 2.18674,6.38565 2.18675,2.07725 6.09166,2.07725 z m 70.05403,-66.472354 q 12.88619,0 22.25796,4.46226 9.37178,4.385325 14.44816,13.232909 5.07639,8.847617 5.07639,22.157498 v 13.386777 h -54.5906 q 0.39048,6.84727 5.15447,11.23259 4.84208,4.38533 14.21386,4.38533 8.2784,0 15.15104,-1.61565 6.95074,-1.61565 14.29196,-5.0008 v 21.61887 q -6.40405,3.30823 -13.97957,4.84694 -7.57552,1.53871 -19.13404,1.53871 -13.35478,0 -23.89803,-4.69306 -10.54325,-4.69307 -16.63491,-14.54082 -6.01355,-9.84775 -6.01355,-25.311777 0,-15.694889 5.46687,-25.773478 5.46686,-10.155488 15.30723,-15.002425 9.84036,-4.923874 22.88276,-4.923874 z m 1.09337,20.464848 q -5.38877,0 -9.05938,3.385169 -3.59252,3.308246 -4.21731,10.46329 h 26.24099 q -0.0781,-3.846792 -1.56197,-7.001164 -1.48386,-3.154381 -4.3735,-5.000843 -2.81152,-1.846452 -7.02883,-1.846452 z m 76.69237,23.773149 -27.02195,-42.699287 h 34.67557 l 13.43287,24.465519 13.74527,-24.465519 h 34.75368 l -27.72484,42.699287 28.81822,44.468727 H 681.5261 l -14.91674,-26.46581 -14.83865,26.46581 h -34.75366 z m 125.34751,22.234357 q 4.1392,0 7.57552,-0.84629 3.43632,-0.84629 7.18503,-2.15419 v 21.92663 q -4.99828,2.15419 -10.62135,3.4621 -5.54496,1.38483 -14.21386,1.38483 -8.5908,0 -15.15104,-2.61581 -6.56024,-2.69274 -10.23086,-9.23226 -3.59251,-6.61646 -3.59251,-18.38759 V 74.443348 H 721.12186 V 62.210596 l 13.58908,-9.463068 7.88792,-18.310653 h 19.99312 v 17.464361 h 21.71128 v 22.542112 h -21.71128 v 33.928632 q 0,4.23146 2.18675,6.38565 2.18674,2.07725 6.09165,2.07725 z"
       id="text5"
       aria-label="text" />
    <path
       d="m 98.028152,113.73711 q 0,8.30903 -3.748709,14.69468 -3.748719,6.38565 -12.027118,10.00163 -8.2003,3.61596 -21.6332,3.61596 -9.449891,0 -16.947313,-1.00016 -7.419323,-1.00017 -15.07294,-3.84678 v -24.08081 q 8.3565,3.76983 17.025394,5.46242 8.668893,1.61564 13.667179,1.61564 5.15451,0 7.49745,-1.07709 2.42104,-1.15404 2.42104,-3.38517 0,-1.92338 -1.64005,-3.23129 -1.56197,-1.38484 -5.70118,-3.15435 -4.061129,-1.76952 -11.480452,-4.77001 -7.341226,-3.00048 -12.261409,-6.539517 -4.842084,-3.53903 -7.263127,-8.46291 -2.421042,-4.92386 -2.421042,-12.078854 0,-12.7713 9.996561,-19.233884 9.996562,-6.462583 26.475309,-6.462583 8.74699,0 16.4787,1.923388 7.73172,1.846453 16.01012,5.462421 l -8.3565,19.387752 q -6.56025,-2.923552 -13.27669,-4.693073 -6.71644,-1.769511 -10.69944,-1.769511 -3.59253,0 -5.54499,0.923227 -1.952464,0.923224 -1.952464,2.692745 0,1.615641 1.327674,2.846612 1.40577,1.230964 5.23261,2.846615 3.8268,1.615641 11.16803,4.539175 7.73172,3.07743 12.72999,6.61646 5.076387,3.4621 7.497422,8.462907 2.499145,5.00081 2.499145,12.69436 z M 154.80551,51.804032 q 12.88619,0 22.25796,4.46226 9.37178,4.385325 14.44816,13.232909 5.07638,8.847585 5.07638,22.157422 V 105.0434 h -54.5906 q 0.39049,6.84726 5.15447,11.23259 4.84209,4.38532 14.21387,4.38532 8.2784,0 15.15104,-1.61565 6.95073,-1.61564 14.29196,-5.00081 v 21.61888 q -6.40405,3.30823 -13.97957,4.84694 -7.57552,1.53871 -19.13404,1.53871 -13.35478,0 -23.89803,-4.69307 -10.54325,-4.69306 -16.63491,-14.54081 -6.01355,-9.84774 -6.01355,-25.311787 0,-15.694838 5.46687,-25.773382 5.46686,-10.155489 15.30723,-15.002426 9.84036,-4.923873 22.88276,-4.923873 z m 1.09337,20.464847 q -5.38878,0 -9.05939,3.385162 -3.59251,3.308229 -4.2173,10.463222 h 26.24099 q -0.0781,-3.846771 -1.56197,-7.001123 -1.48387,-3.154352 -4.3735,-5.00081 -2.81154,-1.846451 -7.02883,-1.846451 z m 88.48519,68.241791 H 213.8477 V 20.79902 h 30.53637 z m 60.99464,-88.706638 q 12.88619,0 22.25797,4.46226 9.37177,4.385325 14.44816,13.232909 5.07638,8.847585 5.07638,22.157422 V 105.0434 h -54.5906 q 0.39048,6.84726 5.15448,11.23259 4.84207,4.38532 14.21385,4.38532 8.2784,0 15.15104,-1.61565 6.95074,-1.61564 14.29196,-5.00081 v 21.61888 q -6.40405,3.30823 -13.97957,4.84694 -7.57552,1.53871 -19.13404,1.53871 -13.35478,0 -23.89802,-4.69307 -10.54325,-4.69306 -16.6349,-14.54081 -6.01356,-9.84774 -6.01356,-25.311787 0,-15.694838 5.46687,-25.773382 5.46687,-10.155489 15.30724,-15.002426 9.84035,-4.923873 22.88274,-4.923873 z m 1.09338,20.464847 q -5.38877,0 -9.05939,3.385162 -3.59252,3.308229 -4.2173,10.463222 h 26.24098 q -0.0781,-3.846771 -1.56197,-7.001123 -1.48386,-3.154352 -4.3735,-5.00081 -2.81152,-1.846451 -7.02882,-1.846451 z m 98.24745,69.780501 q -13.43288,0 -23.35134,-4.69307 -9.91847,-4.77 -15.38533,-14.61774 -5.38877,-9.92468 -5.38877,-25.388727 0,-15.848695 6.01356,-25.927255 6.09165,-10.078552 16.6349,-14.848554 10.54324,-4.770002 23.89803,-4.770002 8.1222,0 15.38533,1.769517 7.34122,1.769517 13.58907,4.846938 l -8.98128,22.234364 q -5.46687,-2.385005 -10.23086,-3.769839 -4.68589,-1.461781 -9.76226,-1.461781 -4.6078,0 -8.12222,2.385008 -3.51441,2.384995 -5.46686,7.231924 -1.95246,4.77001 -1.95246,12.15581 0,7.539687 1.95246,12.155817 2.03055,4.61613 5.54497,6.69338 3.59251,2.07727 8.2003,2.07727 6.63834,0 13.19858,-2.00033 6.63835,-2.07726 12.57381,-5.69323 v 23.92695 q -5.46687,3.53903 -12.3395,5.61629 -6.87264,2.07726 -16.01013,2.07726 z"
       id="text4"
       style="font-weight:800;font-size:158.75px;font-family:'Open Sans';-inkscape-font-specification:'Open Sans, Ultra-Bold';stroke-width:0.261348"
       aria-label="selec" />
  </g>
</svg>
