<svg width="267" height="196" viewBox="0 0 267 196" fill="none" xmlns="http://www.w3.org/2000/svg">
<rect width="267" height="196" rx="3" fill="white"/>
<mask id="mask0_21_640" style="mask-type:alpha" maskUnits="userSpaceOnUse" x="0" y="0" width="267" height="196">
<rect width="267" height="196" rx="3" fill="white"/>
</mask>
<g mask="url(#mask0_21_640)">
<path d="M9 0H257.335V196H9V0Z" fill="white"/>
<path fillRule="evenodd" clipRule="evenodd" d="M244.472 8.98505H21.8633C19.7214 8.98505 17.9851 10.7214 17.9851 12.8633V59.4016C17.9851 61.5435 19.7214 63.2798 21.8632 63.2798H244.472C246.614 63.2798 248.35 61.5435 248.35 59.4016V12.8632C248.35 10.7214 246.614 8.98505 244.472 8.98505ZM21.8633 8.20941C19.293 8.20941 17.2094 10.293 17.2094 12.8633V59.4016C17.2094 61.9719 19.293 64.0555 21.8632 64.0555H244.472C247.042 64.0555 249.126 61.9719 249.126 59.4016V12.8632C249.126 10.293 247.042 8.20941 244.472 8.20941H21.8633Z" fill="#DCDCDC"/>
<path fillRule="evenodd" clipRule="evenodd" d="M244.472 71.0361H21.8633C19.7214 71.0361 17.9851 72.7725 17.9851 74.9143V121.453C17.9851 123.595 19.7214 125.331 21.8632 125.331H244.472C246.614 125.331 248.35 123.595 248.35 121.453V74.9143C248.35 72.7725 246.614 71.0361 244.472 71.0361ZM21.8633 70.2605C19.293 70.2605 17.2094 72.3441 17.2094 74.9143V121.453C17.2094 124.023 19.293 126.107 21.8632 126.107H244.472C247.042 126.107 249.126 124.023 249.126 121.453V74.9143C249.126 72.3441 247.042 70.2605 244.472 70.2605H21.8633Z" fill="#DCDCDC"/>
<path fillRule="evenodd" clipRule="evenodd" d="M244.472 133.088H21.8633C19.7214 133.088 17.9851 134.824 17.9851 136.966V183.504C17.9851 185.646 19.7214 187.382 21.8632 187.382H244.472C246.614 187.382 248.35 185.646 248.35 183.504V136.966C248.35 134.824 246.614 133.088 244.472 133.088ZM21.8633 132.312C19.293 132.312 17.2094 134.395 17.2094 136.966V183.504C17.2094 186.074 19.293 188.158 21.8632 188.158H244.472C247.042 188.158 249.126 186.074 249.126 183.504V136.966C249.126 134.395 247.042 132.312 244.472 132.312H21.8633Z" fill="#DCDCDC"/>
<path d="M28.8441 95.081C28.8441 92.9391 30.5804 91.2028 32.7223 91.2028H231.286C233.428 91.2028 235.164 92.9391 235.164 95.081V95.081C235.164 97.2228 233.428 98.9592 231.286 98.9592H32.7223C30.5805 98.9592 28.8441 97.2228 28.8441 95.081V95.081Z" fill="#529BF8" fill-opacity="0.1"/>
<path d="M28.8441 84.2221C28.8441 82.0802 30.5804 80.3439 32.7223 80.3439H231.286C233.428 80.3439 235.164 82.0802 235.164 84.2221V84.2221C235.164 86.3639 233.428 88.1003 231.286 88.1003H32.7223C30.5805 88.1003 28.8441 86.3639 28.8441 84.2221V84.2221Z" fill="#F5F5F5"/>
<path d="M193.48 113.875H192.398V107.23H196.152V108.149H193.48V110.221H195.979V111.134H193.48V113.875Z" fill="#252525"/>
<path d="M199.229 107.23C199.801 107.23 200.274 107.3 200.647 107.44C201.022 107.579 201.301 107.791 201.483 108.076C201.668 108.361 201.76 108.723 201.76 109.162C201.76 109.489 201.7 109.768 201.578 109.998C201.457 110.228 201.298 110.419 201.101 110.571C200.904 110.722 200.694 110.844 200.469 110.934L202.355 113.875H201.124L199.52 111.212H198.452V113.875H197.361V107.23H199.229ZM199.156 108.139H198.452V110.312H199.206C199.712 110.312 200.079 110.218 200.306 110.03C200.536 109.842 200.651 109.565 200.651 109.198C200.651 108.814 200.528 108.541 200.283 108.38C200.041 108.22 199.665 108.139 199.156 108.139Z" fill="#252525"/>
<path d="M203.305 113.875V107.23H204.396V113.875H203.305Z" fill="#252525"/>
<path d="M209.913 113.875H206.15V107.23H209.913V108.149H207.241V109.953H209.745V110.866H207.241V112.952H209.913V113.875Z" fill="#252525"/>
<path d="M216.894 113.875H215.553L212.299 108.571H212.259C212.271 108.75 212.281 108.939 212.29 109.139C212.302 109.339 212.312 109.545 212.318 109.757C212.327 109.969 212.334 110.185 212.34 110.403V113.875H211.35V107.23H212.681L215.931 112.498H215.962C215.956 112.343 215.949 112.166 215.94 111.966C215.931 111.766 215.922 111.56 215.912 111.348C215.906 111.133 215.902 110.925 215.899 110.725V107.23H216.894V113.875Z" fill="#252525"/>
<path d="M224.034 110.489C224.034 111.237 223.895 111.863 223.616 112.366C223.337 112.866 222.933 113.243 222.402 113.498C221.872 113.749 221.233 113.875 220.485 113.875H218.639V107.23H220.684C221.372 107.23 221.966 107.355 222.466 107.603C222.966 107.849 223.352 108.214 223.625 108.698C223.898 109.18 224.034 109.777 224.034 110.489ZM222.898 110.521C222.898 109.976 222.811 109.527 222.639 109.176C222.469 108.824 222.218 108.564 221.884 108.394C221.554 108.221 221.147 108.135 220.662 108.135H219.73V112.961H220.503C221.306 112.961 221.906 112.757 222.302 112.348C222.699 111.939 222.898 111.33 222.898 110.521Z" fill="#252525"/>
<path d="M225.466 113.875V107.23H226.556V112.948H229.379V113.875H225.466Z" fill="#252525"/>
<path d="M232.41 110.262L233.987 107.23H235.164L232.955 111.293V113.875H231.869V111.334L229.656 107.23H230.842L232.41 110.262Z" fill="#252525"/>
<path d="M37.5337 107.23V111.53C37.5337 111.993 37.4352 112.408 37.2383 112.775C37.0444 113.142 36.7505 113.433 36.3566 113.648C35.9627 113.86 35.4674 113.966 34.8705 113.966C34.0191 113.966 33.3707 113.743 32.9253 113.298C32.483 112.849 32.2618 112.254 32.2618 111.512V107.23H33.3525V111.416C33.3525 111.971 33.4828 112.38 33.7434 112.643C34.0039 112.907 34.3933 113.039 34.9114 113.039C35.2689 113.039 35.5598 112.977 35.784 112.852C36.0112 112.725 36.1779 112.54 36.2839 112.298C36.393 112.052 36.4475 111.757 36.4475 111.412V107.23H37.5337Z" fill="#252525"/>
<path d="M44.7781 113.875H43.4374L40.1833 108.571H40.1424C40.1545 108.75 40.1651 108.939 40.1742 109.139C40.1863 109.339 40.1954 109.545 40.2015 109.757C40.2106 109.969 40.2181 110.185 40.2242 110.403V113.875H39.2334V107.23H40.5651L43.8146 112.498H43.8464C43.8403 112.343 43.8327 112.166 43.8237 111.966C43.8146 111.766 43.8055 111.56 43.7964 111.348C43.7903 111.133 43.7858 110.925 43.7828 110.725V107.23H44.7781V113.875Z" fill="#252525"/>
<path d="M47.6049 113.875H46.5232V107.23H50.2772V108.149H47.6049V110.221H50.1045V111.134H47.6049V113.875Z" fill="#252525"/>
<path d="M53.354 107.23C53.9267 107.23 54.3993 107.3 54.772 107.44C55.1477 107.579 55.4264 107.791 55.6082 108.076C55.7931 108.361 55.8855 108.723 55.8855 109.162C55.8855 109.489 55.8249 109.768 55.7037 109.998C55.5825 110.228 55.4234 110.419 55.2265 110.571C55.0295 110.722 54.819 110.844 54.5948 110.934L56.4808 113.875H55.2492L53.6449 111.212H52.5769V113.875H51.4861V107.23H53.354ZM53.2813 108.139H52.5769V110.312H53.3313C53.8373 110.312 54.2039 110.218 54.4311 110.03C54.6614 109.842 54.7765 109.565 54.7765 109.198C54.7765 108.814 54.6538 108.541 54.4084 108.38C54.166 108.22 53.7903 108.139 53.2813 108.139Z" fill="#252525"/>
<path d="M57.4307 113.875V107.23H58.5214V113.875H57.4307Z" fill="#252525"/>
<path d="M64.0388 113.875H60.2757V107.23H64.0388V108.149H61.3664V109.953H63.8706V110.866H61.3664V112.952H64.0388V113.875Z" fill="#252525"/>
<path d="M71.0195 113.875H69.6788L66.4248 108.571H66.3839C66.396 108.75 66.4066 108.939 66.4157 109.139C66.4278 109.339 66.4369 109.545 66.4429 109.757C66.452 109.969 66.4596 110.185 66.4657 110.403V113.875H65.4749V107.23H66.8065L70.056 112.498H70.0878C70.0818 112.343 70.0742 112.166 70.0651 111.966C70.056 111.766 70.0469 111.56 70.0379 111.348C70.0318 111.133 70.0273 110.925 70.0242 110.725V107.23H71.0195V113.875Z" fill="#252525"/>
<path d="M78.1593 110.489C78.1593 111.237 78.02 111.863 77.7412 112.366C77.4625 112.866 77.058 113.243 76.5278 113.498C75.9976 113.749 75.3583 113.875 74.6099 113.875H72.7647V107.23H74.8099C75.4976 107.23 76.0915 107.355 76.5914 107.603C77.0913 107.849 77.4776 108.214 77.7503 108.698C78.023 109.18 78.1593 109.777 78.1593 110.489ZM77.0232 110.521C77.0232 109.976 76.9368 109.527 76.7641 109.176C76.5944 108.824 76.343 108.564 76.0097 108.394C75.6794 108.221 75.2719 108.135 74.7871 108.135H73.8555V112.961H74.6281C75.431 112.961 76.0309 112.757 76.4278 112.348C76.8247 111.939 77.0232 111.33 77.0232 110.521Z" fill="#252525"/>
<path d="M79.5909 113.875V107.23H80.6817V112.948H83.504V113.875H79.5909Z" fill="#252525"/>
<path d="M86.5353 110.262L88.1124 107.23H89.2895L87.0807 111.293V113.875H85.9945V111.334L83.7812 107.23H84.9674L86.5353 110.262Z" fill="#252525"/>
<path d="M28.8441 88.1005H68.3957C69.2524 88.1005 69.947 87.4059 69.947 86.5492V81.8953C69.947 81.0386 69.2524 80.3441 68.3957 80.3441H28.8441V88.1005Z" fill="#DCDCDC"/>
<path d="M28.8441 91.2028H197.346C198.203 91.2028 198.897 91.8973 198.897 92.754V97.4079C198.897 98.2646 198.203 98.9592 197.346 98.9592H28.8441V91.2028Z" fill="#2B64BF"/>
<path d="M28.8441 147.049C28.8441 144.907 30.5804 143.171 32.7223 143.171H231.286C233.428 143.171 235.164 144.907 235.164 147.049V147.049C235.164 149.191 233.428 150.927 231.286 150.927H32.7223C30.5805 150.927 28.8441 149.191 28.8441 147.049V147.049Z" fill="black" fill-opacity="0.04"/>
<path d="M28.8441 157.908C28.8441 155.766 30.5804 154.03 32.7223 154.03H231.286C233.428 154.03 235.164 155.766 235.164 157.908V157.908C235.164 160.05 233.428 161.786 231.286 161.786H32.7223C30.5805 161.786 28.8441 160.05 28.8441 157.908V157.908Z" fill="#529BF8" fill-opacity="0.1"/>
<path d="M195.275 170.113C194.957 170.113 194.672 170.171 194.42 170.286C194.172 170.401 193.961 170.568 193.789 170.786C193.616 171.001 193.484 171.263 193.393 171.572C193.302 171.878 193.257 172.224 193.257 172.608C193.257 173.123 193.33 173.567 193.475 173.94C193.62 174.31 193.842 174.594 194.139 174.794C194.435 174.991 194.811 175.09 195.266 175.09C195.547 175.09 195.822 175.063 196.088 175.008C196.355 174.954 196.631 174.879 196.915 174.785V175.712C196.646 175.819 196.373 175.896 196.097 175.944C195.822 175.993 195.503 176.017 195.143 176.017C194.464 176.017 193.901 175.876 193.452 175.594C193.007 175.313 192.674 174.916 192.452 174.404C192.234 173.892 192.125 173.292 192.125 172.604C192.125 172.101 192.195 171.64 192.334 171.222C192.474 170.804 192.677 170.444 192.943 170.141C193.21 169.835 193.539 169.6 193.929 169.436C194.323 169.27 194.773 169.186 195.279 169.186C195.613 169.186 195.94 169.224 196.261 169.3C196.585 169.373 196.885 169.477 197.161 169.613L196.779 170.513C196.549 170.404 196.308 170.31 196.056 170.232C195.805 170.153 195.544 170.113 195.275 170.113Z" fill="#252525"/>
<path d="M204.242 172.595C204.242 173.107 204.176 173.573 204.046 173.995C203.919 174.413 203.726 174.773 203.469 175.076C203.211 175.376 202.889 175.608 202.501 175.772C202.113 175.935 201.659 176.017 201.137 176.017C200.607 176.017 200.147 175.935 199.756 175.772C199.368 175.608 199.045 175.375 198.788 175.072C198.533 174.769 198.342 174.407 198.215 173.985C198.088 173.564 198.024 173.098 198.024 172.586C198.024 171.901 198.136 171.304 198.361 170.795C198.588 170.283 198.932 169.886 199.392 169.604C199.856 169.32 200.441 169.177 201.147 169.177C201.837 169.177 202.411 169.318 202.869 169.6C203.327 169.882 203.669 170.278 203.896 170.791C204.126 171.3 204.242 171.901 204.242 172.595ZM199.17 172.595C199.17 173.107 199.239 173.551 199.379 173.926C199.518 174.299 199.732 174.587 200.019 174.79C200.31 174.99 200.683 175.09 201.137 175.09C201.595 175.09 201.968 174.99 202.255 174.79C202.543 174.587 202.755 174.299 202.892 173.926C203.028 173.551 203.096 173.107 203.096 172.595C203.096 171.816 202.94 171.207 202.628 170.768C202.319 170.325 201.825 170.104 201.147 170.104C200.692 170.104 200.318 170.204 200.024 170.404C199.733 170.604 199.518 170.89 199.379 171.263C199.239 171.633 199.17 172.077 199.17 172.595Z" fill="#252525"/>
<path d="M208.536 175.926L206.623 170.377H206.582C206.591 170.501 206.602 170.671 206.614 170.886C206.626 171.101 206.637 171.331 206.646 171.577C206.655 171.822 206.659 172.057 206.659 172.281V175.926H205.669V169.282H207.2L209.041 174.585H209.068L210.972 169.282H212.499V175.926H211.459V172.227C211.459 172.024 211.462 171.804 211.468 171.568C211.477 171.331 211.486 171.107 211.495 170.895C211.507 170.683 211.516 170.513 211.522 170.386H211.486L209.5 175.926H208.536Z" fill="#252525"/>
<path d="M216.181 169.282C217.038 169.282 217.664 169.457 218.058 169.809C218.451 170.16 218.648 170.653 218.648 171.286C218.648 171.574 218.603 171.848 218.512 172.108C218.424 172.366 218.279 172.595 218.076 172.795C217.873 172.992 217.605 173.148 217.271 173.263C216.941 173.378 216.534 173.436 216.049 173.436H215.34V175.926H214.249V169.282H216.181ZM216.108 170.186H215.34V172.527H215.935C216.278 172.527 216.568 172.487 216.808 172.408C217.047 172.327 217.229 172.198 217.353 172.022C217.477 171.846 217.54 171.615 217.54 171.327C217.54 170.942 217.423 170.656 217.19 170.468C216.959 170.28 216.599 170.186 216.108 170.186Z" fill="#252525"/>
<path d="M219.975 175.926V169.282H221.066V174.999H223.889V175.926H219.975Z" fill="#252525"/>
<path d="M228.801 175.926H225.038V169.282H228.801V170.2H226.129V172.004H228.633V172.917H226.129V175.004H228.801V175.926Z" fill="#252525"/>
<path d="M235.141 175.926H233.901L232.228 173.204L230.547 175.926H229.379L231.587 172.481L229.529 169.282H230.733L232.278 171.799L233.814 169.282H234.982L232.914 172.513L235.141 175.926Z" fill="#252525"/>
<path d="M34.8704 174.117C34.8704 174.511 34.7735 174.85 34.5795 175.135C34.3887 175.42 34.113 175.638 33.7524 175.79C33.3949 175.941 32.9677 176.017 32.4708 176.017C32.2284 176.017 31.9966 176.003 31.7754 175.976C31.5543 175.949 31.3452 175.909 31.1483 175.858C30.9543 175.803 30.7771 175.738 30.6165 175.662V174.635C30.8862 174.753 31.1876 174.861 31.5209 174.958C31.8542 175.052 32.1935 175.099 32.539 175.099C32.8207 175.099 33.054 175.063 33.2388 174.99C33.4267 174.914 33.5661 174.808 33.657 174.672C33.7479 174.532 33.7933 174.37 33.7933 174.185C33.7933 173.988 33.7403 173.822 33.6342 173.685C33.5282 173.549 33.3676 173.425 33.1525 173.313C32.9404 173.198 32.6738 173.075 32.3526 172.945C32.1345 172.857 31.9254 172.757 31.7254 172.645C31.5285 172.533 31.3528 172.401 31.1982 172.249C31.0437 172.098 30.921 171.919 30.8301 171.713C30.7423 171.504 30.6983 171.259 30.6983 170.977C30.6983 170.601 30.7877 170.28 30.9665 170.013C31.1483 169.747 31.4028 169.542 31.73 169.4C32.0602 169.257 32.445 169.186 32.8844 169.186C33.2328 169.186 33.56 169.223 33.866 169.295C34.1751 169.368 34.4781 169.471 34.775 169.604L34.4296 170.481C34.1569 170.369 33.8918 170.28 33.6342 170.213C33.3797 170.147 33.1192 170.113 32.8525 170.113C32.6223 170.113 32.4268 170.148 32.2663 170.218C32.1057 170.288 31.983 170.386 31.8981 170.513C31.8163 170.637 31.7754 170.786 31.7754 170.959C31.7754 171.153 31.8224 171.316 31.9163 171.449C32.0133 171.58 32.1617 171.699 32.3617 171.808C32.5647 171.918 32.8253 172.039 33.1434 172.172C33.51 172.324 33.8206 172.483 34.0751 172.649C34.3326 172.816 34.5296 173.016 34.6659 173.249C34.8022 173.479 34.8704 173.769 34.8704 174.117Z" fill="#252525"/>
<path d="M36.152 175.926V169.282H37.2428V175.926H36.152Z" fill="#252525"/>
<path d="M41.8648 175.926L39.9515 170.377H39.9106C39.9196 170.501 39.9303 170.671 39.9424 170.886C39.9545 171.101 39.9651 171.331 39.9742 171.577C39.9833 171.822 39.9878 172.057 39.9878 172.281V175.926H38.9971V169.282H40.5286L42.3693 174.585H42.3965L44.3008 169.282H45.8278V175.926H44.7871V172.227C44.7871 172.024 44.7901 171.804 44.7962 171.568C44.8053 171.331 44.8144 171.107 44.8234 170.895C44.8356 170.683 44.8447 170.513 44.8507 170.386H44.8144L42.8283 175.926H41.8648Z" fill="#252525"/>
<path d="M49.5091 169.282C50.3665 169.282 50.9922 169.457 51.3861 169.809C51.78 170.16 51.9769 170.653 51.9769 171.286C51.9769 171.574 51.9315 171.848 51.8406 172.108C51.7527 172.366 51.6073 172.595 51.4043 172.795C51.2013 172.992 50.9331 173.148 50.5998 173.263C50.2696 173.378 49.8621 173.436 49.3773 173.436H48.6683V175.926H47.5776V169.282H49.5091ZM49.4364 170.186H48.6683V172.527H49.2637C49.6061 172.527 49.8969 172.487 50.1363 172.408C50.3756 172.327 50.5574 172.198 50.6816 172.022C50.8059 171.846 50.868 171.615 50.868 171.327C50.868 170.942 50.7513 170.656 50.518 170.468C50.2878 170.28 49.9272 170.186 49.4364 170.186Z" fill="#252525"/>
<path d="M53.304 175.926V169.282H54.3947V174.999H57.217V175.926H53.304Z" fill="#252525"/>
<path d="M62.1299 175.926H58.3668V169.282H62.1299V170.2H59.4576V172.004H61.9618V172.917H59.4576V175.003H62.1299V175.926Z" fill="#252525"/>
<path d="M28.8441 154.03H77.261C78.1177 154.03 78.8123 154.724 78.8123 155.581V160.235C78.8123 161.091 78.1177 161.786 77.261 161.786H28.8441V154.03Z" fill="#2B64BF"/>
<path d="M28.8441 150.927L153.825 150.927C154.682 150.927 155.376 150.233 155.376 149.376V144.722C155.376 143.865 154.682 143.171 153.825 143.171L28.8441 143.171V150.927Z" fill="#DCDCDC"/>
<path d="M28.8441 22.9465C28.8441 20.8046 30.5804 19.0683 32.7223 19.0683H231.286C233.428 19.0683 235.164 20.8046 235.164 22.9465V22.9465C235.164 25.0884 233.428 26.8247 231.286 26.8247H32.7223C30.5805 26.8247 28.8441 25.0884 28.8441 22.9465V22.9465Z" fill="black" fill-opacity="0.04"/>
<path d="M28.8441 33.8054C28.8441 31.6636 30.5804 29.9272 32.7223 29.9272H231.286C233.428 29.9272 235.164 31.6636 235.164 33.8054V33.8054C235.164 35.9473 233.428 37.6836 231.286 37.6836H32.7223C30.5805 37.6836 28.8441 35.9473 28.8441 33.8054V33.8054Z" fill="#529BF8" fill-opacity="0.1"/>
<path d="M34.3175 45.2352C33.9994 45.2352 33.7146 45.2928 33.4631 45.4079C33.2146 45.5231 33.0041 45.6897 32.8314 45.9079C32.6587 46.123 32.5269 46.3851 32.436 46.6941C32.3451 47.0001 32.2996 47.3455 32.2996 47.7303C32.2996 48.2454 32.3723 48.6893 32.5178 49.0619C32.6632 49.4316 32.8844 49.7164 33.1813 49.9163C33.4782 50.1133 33.8539 50.2118 34.3084 50.2118C34.5902 50.2118 34.8644 50.1845 35.131 50.1299C35.3976 50.0754 35.6733 50.0012 35.9581 49.9073V50.8344C35.6885 50.9404 35.4158 51.0177 35.1401 51.0662C34.8644 51.1146 34.5462 51.1389 34.1857 51.1389C33.507 51.1389 32.9435 50.998 32.495 50.7162C32.0497 50.4344 31.7164 50.0375 31.4952 49.5255C31.277 49.0135 31.168 48.4135 31.168 47.7258C31.168 47.2228 31.2377 46.7623 31.377 46.3442C31.5164 45.926 31.7194 45.5655 31.986 45.2625C32.2527 44.9565 32.5814 44.7217 32.9722 44.5581C33.3661 44.3914 33.8161 44.3081 34.322 44.3081C34.6553 44.3081 34.9825 44.346 35.3037 44.4217C35.6279 44.4944 35.9279 44.599 36.2036 44.7353L35.8218 45.6352C35.5915 45.5261 35.3507 45.4322 35.0992 45.3534C34.8477 45.2746 34.5871 45.2352 34.3175 45.2352Z" fill="#252525"/>
<path d="M41.5028 51.048L40.8529 49.2028H38.3123L37.6624 51.048H36.5126L38.985 44.3763H40.1939L42.6617 51.048H41.5028ZM40.5711 48.2666L39.9394 46.4487C39.9151 46.3699 39.8803 46.2593 39.8348 46.1169C39.7894 45.9715 39.7439 45.8245 39.6985 45.6761C39.653 45.5246 39.6152 45.3973 39.5849 45.2943C39.5546 45.4185 39.5167 45.5579 39.4713 45.7124C39.4288 45.8639 39.3864 46.0063 39.344 46.1396C39.3046 46.273 39.2743 46.376 39.2531 46.4487L38.6168 48.2666H40.5711Z" fill="#252525"/>
<path d="M47.3746 49.2392C47.3746 49.6331 47.2776 49.9724 47.0837 50.2572C46.8929 50.542 46.6171 50.7602 46.2566 50.9116C45.8991 51.0631 45.4719 51.1389 44.975 51.1389C44.7326 51.1389 44.5008 51.1253 44.2796 51.098C44.0584 51.0707 43.8494 51.0313 43.6524 50.9798C43.4585 50.9253 43.2813 50.8601 43.1207 50.7844V49.7573C43.3904 49.8754 43.6918 49.983 44.0251 50.08C44.3584 50.1739 44.6977 50.2208 45.0431 50.2208C45.3249 50.2208 45.5582 50.1845 45.743 50.1118C45.9309 50.036 46.0702 49.93 46.1611 49.7936C46.252 49.6543 46.2975 49.4922 46.2975 49.3073C46.2975 49.1104 46.2445 48.9438 46.1384 48.8074C46.0324 48.6711 45.8718 48.5469 45.6567 48.4348C45.4446 48.3196 45.178 48.1969 44.8568 48.0666C44.6386 47.9788 44.4296 47.8788 44.2296 47.7667C44.0327 47.6546 43.857 47.5228 43.7024 47.3713C43.5479 47.2198 43.4252 47.041 43.3343 46.835C43.2464 46.6259 43.2025 46.3805 43.2025 46.0987C43.2025 45.723 43.2919 45.4019 43.4706 45.1353C43.6524 44.8686 43.9069 44.6641 44.2342 44.5217C44.5644 44.3793 44.9492 44.3081 45.3885 44.3081C45.737 44.3081 46.0642 44.3445 46.3702 44.4172C46.6792 44.4899 46.9822 44.5929 47.2792 44.7262L46.9338 45.6034C46.6611 45.4913 46.396 45.4019 46.1384 45.3352C45.8839 45.2686 45.6233 45.2352 45.3567 45.2352C45.1265 45.2352 44.931 45.2701 44.7704 45.3398C44.6099 45.4095 44.4872 45.5079 44.4023 45.6352C44.3205 45.7594 44.2796 45.9079 44.2796 46.0806C44.2796 46.2745 44.3266 46.4381 44.4205 46.5714C44.5175 46.7017 44.6659 46.8214 44.8659 46.9304C45.0689 47.0395 45.3295 47.1607 45.6476 47.294C46.0142 47.4455 46.3248 47.6046 46.5793 47.7712C46.8368 47.9379 47.0337 48.1378 47.1701 48.3711C47.3064 48.6014 47.3746 48.8907 47.3746 49.2392Z" fill="#252525"/>
<path d="M53.8736 44.4035V48.7029C53.8736 49.1665 53.7751 49.5815 53.5782 49.9482C53.3843 50.3148 53.0904 50.6056 52.6965 50.8208C52.3026 51.0328 51.8073 51.1389 51.2104 51.1389C50.359 51.1389 49.7106 50.9162 49.2652 50.4708C48.8229 50.0224 48.6017 49.427 48.6017 48.6847V44.4035H49.6924V48.5893C49.6924 49.1437 49.8227 49.5528 50.0833 49.8164C50.3438 50.08 50.7332 50.2118 51.2513 50.2118C51.6088 50.2118 51.8997 50.1496 52.1239 50.0254C52.3511 49.8982 52.5178 49.7133 52.6238 49.471C52.7329 49.2255 52.7874 48.9301 52.7874 48.5847V44.4035H53.8736Z" fill="#252525"/>
<path d="M59.6909 51.048L59.041 49.2028H56.5005L55.8506 51.048H54.7008L57.1731 44.3763H58.382L60.8498 51.048H59.6909ZM58.7592 48.2666L58.1275 46.4487C58.1033 46.3699 58.0684 46.2593 58.023 46.1169C57.9775 45.9715 57.9321 45.8245 57.8866 45.6761C57.8412 45.5246 57.8033 45.3973 57.773 45.2943C57.7427 45.4185 57.7048 45.5579 57.6594 45.7124C57.617 45.8639 57.5746 46.0063 57.5321 46.1396C57.4928 46.273 57.4625 46.376 57.4412 46.4487L56.805 48.2666H58.7592Z" fill="#252525"/>
<path d="M61.727 51.048V44.4035H62.8177V50.1209H65.64V51.048H61.727Z" fill="#252525"/>
<path d="M199.088 51.048H198.006V44.4036H201.76V45.3216H199.088V47.3941H201.588V48.3076H199.088V51.048Z" fill="#252525"/>
<path d="M208.868 47.7167C208.868 48.2288 208.803 48.6954 208.673 49.1165C208.546 49.5346 208.353 49.8952 208.096 50.1982C207.838 50.4981 207.515 50.7299 207.128 50.8935C206.74 51.0571 206.285 51.1389 205.764 51.1389C205.234 51.1389 204.773 51.0571 204.383 50.8935C203.995 50.7299 203.672 50.4966 203.415 50.1936C203.16 49.8906 202.969 49.5286 202.842 49.1074C202.715 48.6863 202.651 48.2197 202.651 47.7076C202.651 47.0229 202.763 46.426 202.987 45.917C203.215 45.405 203.558 45.0081 204.019 44.7263C204.483 44.4415 205.067 44.2991 205.773 44.2991C206.464 44.2991 207.038 44.44 207.496 44.7217C207.953 45.0035 208.296 45.4004 208.523 45.9125C208.753 46.4215 208.868 47.0229 208.868 47.7167ZM203.796 47.7167C203.796 48.2288 203.866 48.6726 204.005 49.0483C204.145 49.421 204.358 49.7089 204.646 49.9119C204.937 50.1118 205.31 50.2118 205.764 50.2118C206.222 50.2118 206.594 50.1118 206.882 49.9119C207.17 49.7089 207.382 49.421 207.518 49.0483C207.655 48.6726 207.723 48.2288 207.723 47.7167C207.723 46.9381 207.567 46.3291 207.255 45.8897C206.946 45.4474 206.452 45.2262 205.773 45.2262C205.319 45.2262 204.945 45.3262 204.651 45.5262C204.36 45.7261 204.145 46.0124 204.005 46.3851C203.866 46.7548 203.796 47.1986 203.796 47.7167Z" fill="#252525"/>
<path d="M212.163 44.4036C212.736 44.4036 213.208 44.4733 213.581 44.6127C213.957 44.752 214.236 44.9641 214.417 45.2489C214.602 45.5337 214.695 45.8958 214.695 46.3351C214.695 46.6623 214.634 46.9411 214.513 47.1714C214.392 47.4016 214.233 47.5925 214.036 47.744C213.839 47.8955 213.628 48.0167 213.404 48.1076L215.29 51.048H214.058L212.454 48.3848H211.386V51.048H210.295V44.4036H212.163ZM212.09 45.3126H211.386V47.485H212.14C212.646 47.485 213.013 47.391 213.24 47.2032C213.471 47.0153 213.586 46.7381 213.586 46.3715C213.586 45.9867 213.463 45.714 213.218 45.5534C212.975 45.3928 212.599 45.3126 212.09 45.3126Z" fill="#252525"/>
<path d="M219.108 51.048L217.194 45.4989H217.153C217.162 45.6231 217.173 45.7928 217.185 46.0079C217.197 46.223 217.208 46.4533 217.217 46.6987C217.226 46.9441 217.231 47.1789 217.231 47.4031V51.048H216.24V44.4036H217.771L219.612 49.7073H219.639L221.544 44.4036H223.071V51.048H222.03V47.3486C222.03 47.1456 222.033 46.9259 222.039 46.6896C222.048 46.4533 222.057 46.2291 222.066 46.017C222.078 45.8049 222.087 45.6352 222.094 45.508H222.057L220.071 51.048H219.108Z" fill="#252525"/>
<path d="M228.938 51.048L228.288 49.2029H225.747L225.098 51.048H223.948L226.42 44.3763H227.629L230.097 51.048H228.938ZM228.006 48.2667L227.375 46.4487C227.35 46.37 227.315 46.2594 227.27 46.117C227.225 45.9715 227.179 45.8246 227.134 45.6761C227.088 45.5246 227.05 45.3974 227.02 45.2944C226.99 45.4186 226.952 45.558 226.906 45.7125C226.864 45.864 226.822 46.0064 226.779 46.1397C226.74 46.273 226.709 46.376 226.688 46.4487L226.052 48.2667H228.006Z" fill="#252525"/>
<path d="M230.974 51.048V44.4036H232.065V50.1209H234.887V51.048H230.974Z" fill="#252525"/>
<path d="M28.8441 29.9272H149.795C150.652 29.9272 151.347 30.6218 151.347 31.4785V36.1324C151.347 36.9891 150.652 37.6836 149.795 37.6836H28.8441V29.9272Z" fill="#2B64BF"/>
<path d="M28.8441 26.8247L98.2154 26.8247C99.0721 26.8247 99.7667 26.1302 99.7667 25.2734V20.6196C99.7667 19.7628 99.0721 19.0683 98.2154 19.0683L28.8441 19.0683V26.8247Z" fill="#DCDCDC"/>
<path d="M28.8441 19.2128H98.6517C100.794 19.2128 102.53 20.9492 102.53 23.091V23.091C102.53 25.2329 100.794 26.9692 98.6517 26.9692H28.8441V19.2128Z" fill="#DCDCDC"/>
<path d="M28.8441 80.4883H76.1581C78.3 80.4883 80.0363 82.2246 80.0363 84.3665V84.3665C80.0363 86.5083 78.3 88.2447 76.1581 88.2447H28.8441V80.4883Z" fill="#DCDCDC"/>
<path d="M28.8441 143.315H190.177C192.319 143.315 194.055 145.052 194.055 147.193V147.193C194.055 149.335 192.319 151.072 190.177 151.072H28.8441V143.315Z" fill="#DCDCDC"/>
<path d="M28.8441 30.0718H176.216C178.358 30.0718 180.094 31.8081 180.094 33.95V33.95C180.094 36.0918 178.358 37.8282 176.216 37.8282H28.8441V30.0718Z" fill="#2B64BF"/>
<path d="M28.8441 91.3472H219.651C221.793 91.3472 223.53 93.0835 223.53 95.2254V95.2254C223.53 97.3672 221.793 99.1036 219.651 99.1036H28.8441V91.3472Z" fill="#2B64BF"/>
<path d="M28.8441 154.174H80.0363C82.1782 154.174 83.9145 155.91 83.9145 158.052V158.052C83.9145 160.194 82.1782 161.93 80.0363 161.93H28.8441V154.174Z" fill="#2B64BF"/>
</g>
</svg>
